/* XPM */
static char *result[] = {
/* columns rows colors chars-per-pixel */
"50 50 182 2 ",
"   c black",
".  c #000001",
"X  c #010001",
"o  c #020102",
"O  c #020103",
"+  c #040103",
"@  c #030104",
"#  c #030105",
"$  c #040105",
"%  c #050205",
"&  c #040106",
"*  c #050107",
"=  c #070307",
"-  c #050208",
";  c #060208",
":  c #060209",
">  c #07020A",
",  c #0A0409",
"<  c #08020C",
"1  c #09030D",
"2  c #0A030E",
"3  c #0B030F",
"4  c #0C050C",
"5  c #0E060E",
"6  c #10060F",
"7  c #0B0310",
"8  c #0C0310",
"9  c #0C0411",
"0  c #0C0412",
"q  c #0D0412",
"w  c #0E0414",
"e  c #0F0416",
"r  c #110710",
"t  c #100516",
"y  c #100517",
"u  c #130812",
"i  c #150915",
"p  c #180A17",
"a  c #110518",
"s  c #120519",
"d  c #13061B",
"f  c #15061E",
"g  c #16071F",
"h  c #1A0B19",
"j  c #1D0C1C",
"k  c #200D1F",
"l  c #160720",
"z  c #170721",
"x  c #180722",
"c  c #190723",
"v  c #1A0725",
"b  c #1A0825",
"n  c #1B0826",
"m  c #1B0827",
"M  c #1C0828",
"N  c #1D0929",
"B  c #1E092A",
"V  c #1E092B",
"C  c #1F092C",
"Z  c #210D20",
"A  c #230E21",
"S  c #240E22",
"D  c #240E23",
"F  c #260F25",
"G  c #20092D",
"H  c #20092E",
"J  c #21092E",
"K  c #291127",
"L  c #2B1129",
"P  c #2F132D",
"I  c #30132E",
"U  c #210A30",
"Y  c #220A30",
"T  c #220A31",
"R  c #230A31",
"E  c #230A32",
"W  c #240A33",
"Q  c #240B34",
"!  c #250B34",
"~  c #250B35",
"^  c #260B36",
"/  c #280B38",
"(  c #290C3A",
")  c #2A0C3C",
"_  c #2B0C3D",
"`  c #2C0D3E",
"'  c #2D0D3F",
"]  c #351533",
"[  c #391737",
"{  c #3C183A",
"}  c #401A3E",
"|  c #411A3E",
" . c #2D0D40",
".. c #2E0D42",
"X. c #2F0E44",
"o. c #300E44",
"O. c #310E45",
"+. c #310E46",
"@. c #320E47",
"#. c #330F49",
"$. c #340F49",
"%. c #340F4A",
"&. c #350F4B",
"*. c #350F4C",
"=. c #360F4C",
"-. c #36104C",
";. c #36104D",
":. c #37104E",
">. c #37104F",
",. c #391051",
"<. c #3A1152",
"1. c #3A1153",
"2. c #3B1154",
"3. c #3C1155",
"4. c #3D1256",
"5. c #3D1257",
"6. c #3E1258",
"7. c #3E1259",
"8. c #3F125A",
"9. c #431B40",
"0. c #481D45",
"q. c #4C1F49",
"w. c #4C1F4A",
"e. c #41135C",
"r. c #42135D",
"t. c #43135F",
"y. c #4F204C",
"u. c #542251",
"i. c #562353",
"p. c #562256",
"a. c #60265C",
"s. c #61275D",
"d. c #62275E",
"f. c #60285D",
"g. c #441461",
"h. c #451462",
"j. c #461464",
"k. c #471565",
"l. c #491568",
"z. c #4B156A",
"x. c #4B166A",
"c. c #4B166B",
"v. c #4C166D",
"b. c #4D166E",
"n. c #4E176F",
"m. c #4F1771",
"M. c #521875",
"N. c #531877",
"B. c #541877",
"V. c #541878",
"C. c #5C2360",
"Z. c #642860",
"A. c #642861",
"S. c #672963",
"D. c #692A65",
"F. c #6B2B67",
"G. c #6C2B67",
"H. c #6E2C6A",
"J. c #702D6C",
"K. c #732E6E",
"L. c #763072",
"P. c #773073",
"I. c #7F337A",
"U. c #81347C",
"Y. c #83357F",
"T. c #82387E",
"R. c #863681",
"E. c #8B3885",
"W. c #8F3A8A",
"Q. c #963C91",
"!. c #A2419C",
"~. c #A743A1",
"^. c #AC45A5",
"/. c #AD46A7",
"(. c #B84AB1",
"). c #B555B1",
"_. c #BF53B9",
"`. c #CA55C3",
"'. c #E870E3",
"]. c #F47EF2",
"[. c #FB91FC",
"{. c None",
/* pixels */
"{.{.{.{.{.{.{.{.{.{.{.{.{.{.{.{.{.{.{.{.{.{.{.{.{.{.{.{.{.{.{.{.{.{.{.{.{.{.{.{.{.{.{.{.{.{.{.{.{.{.",
"{.{.{.{.{.{.{.{.{.{.{.{.{.{.{.{.{.{.{.{.{.{.{.{.{.{.{.{.{.{.{.{.{.{.{.{.{.{.{.{.{.{.{.{.{.{.{.{.{.{.",
"{.{.{.{.{.{.{.{.{.{.{.{.{.{.{.{.{.{.{.{.{.{.{.{.{.{.{.{.{.{.{.{.{.{.{.{.{.{.{.{.{.{.{.{.{.{.{.{.{.{.",
"{.{.{.{.{.{.{.{.{.{.{.{.{.{.{.{.{.{.{.{.{.{.{.{.{.{.{.{.{.{.{.{.{.{.{.{.{.{.{.{.{.{.{.{.{.{.{.{.{.{.",
"{.{.{.{.{.{.{.{.{.{.{.{.~.I       ] %   {.{.{.{.{.{.{.{.{.{.{.{.{.{.{.{.{.{.{.{.{.{.{.{.{.{.{.{.{.{.",
"{.{.{.{.{.{.{.{.{.{.            w.d.=       {.{.{.{.{.{.{.{.{.{.{.{.{.{.{.{.{.{.{.{.{.{.{.{.{.{.{.{.",
"{.{.{.{.{.{.{.{.          F.Q.i.F ,       H.r {.{.{.{.{.{.{.{.{.{.{.{.{.{.{.{.{.{.{.{.{.{.{.{.{.{.{.",
"{.{.{.{.{.{.{.{.          4 r ,           F (.y.{.{.{.{.{.{.{.{.{.{.{.{.{.{.{.{.{.{.{.{.{.{.{.{.{.{.",
"{.{.{.{.{.{.{.      i.                          {.{.{.{.{.{.{.{.{.{.{.{.{.{.{.{.{.{.{.{.{.{.{.{.{.{.",
"{.{.{.{.{.{.{.u w.q.D.a.                          {.{.{.{.{.{.{.{.{.{.{.{.{.{.{.{.{.{.{.{.{.{.{.{.{.",
"{.{.{.{.{.{.5 !.u u % ~.                          {.{.{.{.{.{.{.{.{.{.{.{.{.{.{.{.{.{.{.{.{.{.{.{.{.",
"{.{.{.{.{.{.Q.r       I 0.                    a.D   {.{.{.{.{.{.{.{.{.{.{.{.{.{.{.{.{.{.{.{.{.{.{.{.",
"{.{.{.{.{.{.S.=         q.F                         {.{.{.{.{.{.{.{.{.{.{.{.{.{.{.{.{.{.{.{.{.{.{.{.",
"{.{.{.{.{.F u {.        R.9.                { 0.    {.{.{.{.{.{.{.{.{.{.{.a.I   {.{.{.{.{.{.{.{.{.{.",
"{.{.{.{.{.  {.{.{.{.    K.[                     {.{.{.{.{.{.{.{.{.{.{.{.[ i.  ^.{.{.{.{.{.{.{.{.{.{.",
"{.{.{.{.    {.{.{.{.{.          [ 5       {.{.{.{.{.{.{.{.{.{.{.{.{.{.{.        {.{.{.{.{.{.{.{.{.{.",
"{.{.{.{.  {.{.{.{.{.{.{.    u R.K.5     {.{.{.{.{.{.{.{.{.{.{.{.{.{.{.{.            , i.[ {.{.{.{.{.",
"{.{.{.    {.{.{.{.{.{.{.{.{.% Z 5 {.{.{.{.{.{.{.{.{.{.{.{.{.{.{.{.{.{.{.  D.} 5   D./.A 5 Z E.{.{.{.",
"{.{.{.    {.{.{.{.{.{.{.{.{.{.{.{.{.{.{.{.{.{.{.{.{.{.{.{.{.{.{.{.{.{.{.{., J.E.F , 6 X     Z s.{.{.",
"{.{.{.    {.{.{.{.{.{.{.{.{.{.{.{.{.{.{.{.{.{.{.{.{.{.{.{.{.{.{.{.{.{.{.{.    u w.          5 | {.{.",
"{.{.      {.{.{.{.{.{.{.{.{.{.{.{.{.{.{.{.{.{.{.{.{.{.{.{.{.{.{.{.{.{.{.{.{.              {., L {.{.",
"{.{.W.j   {.{.{.{.{.{.{.{.{.{.{.{.{.{.{.{.{.{.{.{.{.{.{.{.{.{.{.{.{.{.{.{.{.{.          {.{.{.{.{.{.",
"{.{.G.i   {.{.{.{.{.{.{.{.{.{.{.{.{.{.{.{.{.{.{.{.{.{.{.{.{.{.{.{.{.{.{.{.{.{.  D S     {.{.{.{.{.{.",
"{.{.        {.{.{.{.{.{.{.{.{.{.{.{.{.{.{.{.{.{.{.{.{.{.{.{.{.{.{.{.{.{.{.{.{.{.Z.A.      {.{.{.{.{.",
"{.          {.{.{.{.{.{.{.{.{.{.{.{.{.{.{.{.{.{.{.{.{.{.{.{.{.{.{.{.{.{.{.{.{.{.i I.h     {.{.{.{.{.",
"{.          L.{.{.{.{.{.{.{.{.{.{.{.{.{.{.{.{.{.{.{.{.{.{.{.{.{.{.{.{.{.{.{.{.{.    + k     {.{.{.{.",
"{.              {.{.{.{.{.{.{.{.{.{.{.{.{.{.{.{.{.{.{.{.{.{.{.{.{.{.{.{.{.{.{.      , i.        {.{.",
"{.              0.{.{.{.{.{.{.{.{.{.{.{.{.{.{.{.{.{.{.{.{.{.{.{.{.{.{.{.{.                  P.  {.{.",
"{.              A.Z.  {.{.{.{.{.{.{.{.{.{.{.    {.{.{.{.{.{.{.{.{.{.q 4.j.z.z.              I G.{.{.",
"{.              0.0.  c {.{.{.{.{.{.{.{.{., 9.j   {.{.{.{.{.{.{.{...c.+.=.c.B.f                   {.",
"{.    u R.[         _ 8.8.-.{.{.{.{.{.{.  T.].).j {.{.{.{.{.{.{.0 h. .r.n  .<.x.                  {.",
"{.    , 9.K.L       $.o.G z o.  {.{.      _.[.'.P   {.{.{.{.{.& %.#.3.C > w Y x.            i Q.} {.",
"{.{.      , % % u > h.V.M.H y             K `.f.+   {.{.{.{.  . - J T X E e 7 x.            o r {.{.",
"{.{.        = d.C.>.G @.@.v.6.7                                             +.2.      j [       {.{.",
"{.{.{.      = p.>.^ @     n r.! 7 $ H                                       w x M     9.R.      {.{.",
"{.{.{.{.    - k.h.d         8 z 6.l.+.;.f                                     > 5.H   , u       {.{.",
"{.{.{.{.      * _ _ *       $ ..<.Y H x o.*.      l / c.g.s             s  .H 6.e.H         p Y.j {.",
"{.{.{.{.        y y         :.m.( @   < ;         U d d ` 2.f                 C >.d           u.Z.{.",
"{.{.{.{.    ) T  .n       ' n.c 3                       t ,.~                 q q ;           u.{.{.",
"{.{.{.{.$ :.b.; a ) 9   _ N.x.                          ; &.~               1               ] U.{.{.",
"{.{.{.- ..h.O.#   v  .    W _                             w f   - B <       7.              a.{.{.{.",
"{.{.{.m <.V R #   7 d               > b _ N a                 $ o.>.d g      .            {.{.{.{.{.",
"{.{.{.Q Y @ & .                   2 1.n 3 > &                 X 3 : @ t.    *       {.{.{.{.{.{.{.{.",
"{.{.{.{.{.{.{.{.{.{.{.{.{.{.{.    X.W O                               V         {.{.{.{.{.{.{.{.{.{.",
"{.{.{.{.{.{.{.{.{.{.{.{.{.{.{.{.{.{.{.{.                                  {.{.{.{.{.{.{.{.{.{.{.{.{.",
"{.{.{.{.{.{.{.{.{.{.{.{.{.{.{.{.{.{.{.{.{.{.{.{.{.{.{.{.{.{.{.{.{.{.{.{.{.{.{.{.{.{.{.{.{.{.{.{.{.{.",
"{.{.{.{.{.{.{.{.{.{.{.{.{.{.{.{.{.{.{.{.{.{.{.{.{.{.{.{.{.{.{.{.{.{.{.{.{.{.{.{.{.{.{.{.{.{.{.{.{.{.",
"{.{.{.{.{.{.{.{.{.{.{.{.{.{.{.{.{.{.{.{.{.{.{.{.{.{.{.{.{.{.{.{.{.{.{.{.{.{.{.{.{.{.{.{.{.{.{.{.{.{.",
"{.{.{.{.{.{.{.{.{.{.{.{.{.{.{.{.{.{.{.{.{.{.{.{.{.{.{.{.{.{.{.{.{.{.{.{.{.{.{.{.{.{.{.{.{.{.{.{.{.{.",
"{.{.{.{.{.{.{.{.{.{.{.{.{.{.{.{.{.{.{.{.{.{.{.{.{.{.{.{.{.{.{.{.{.{.{.{.{.{.{.{.{.{.{.{.{.{.{.{.{.{."
};
