/* XPM */
static char *result[] = {
/* columns rows colors chars-per-pixel */
"50 50 70 1 ",
"  c black",
". c #050205",
"X c #070307",
"o c #0E060E",
"O c #110710",
"+ c #130812",
"@ c #180A17",
"# c #190A18",
"$ c #1D0C1C",
"% c #210D20",
"& c #260F25",
"* c #271727",
"= c #2A192B",
"- c #351533",
"; c #391737",
": c #351E35",
"> c #431B40",
", c #461E44",
"< c #481D45",
"1 c #4C1F49",
"2 c #402040",
"3 c #63285F",
"4 c #642860",
"5 c #642861",
"6 c #682D65",
"7 c #6A2E67",
"8 c #6E2C6A",
"9 c #623461",
"0 c #693668",
"q c #773073",
"w c #863681",
"e c #8D3E89",
"r c #943B8E",
"t c #913F8D",
"y c #8D4C8C",
"u c #90478E",
"i c #9B4396",
"p c #A743A1",
"a c #A54AA1",
"s c #B24AAC",
"d c #BF4DB8",
"f c #B454B0",
"g c #B85FB6",
"h c #C357BE",
"j c #C05DBD",
"k c #C55FC1",
"l c #CB58C5",
"z c #D957D1",
"x c #E55CDC",
"c c #CC69CA",
"v c #D066CC",
"b c #CE7ACF",
"n c #DD6EDA",
"m c #D978D9",
"M c #DB7EDC",
"N c #EA5EE1",
"B c #EC63E3",
"V c #EA79E8",
"C c #F173EC",
"Z c #F276EE",
"A c #F47CF1",
"S c #F57FF2",
"D c #F98BF9",
"F c #F98CF9",
"G c #F98DFA",
"H c #F98FFA",
"J c #FA8FFB",
"K c #FB92FD",
"L c #FC95FE",
"P c None",
/* pixels */
"PPPPPPPPPPPPPPPPPPPPPPPPPPPPPPPPPPPPPPPPPPPPPPPPPP",
"PPPPPPPPPPPPPPPPPPPPPPPPPPPPPPPPPPPPPPPPPPPPPPPPPP",
"PPPPPPPPPPPPPPPPPPPPPPPPPPPPPPPPPPPPPPPPPPPPPPPPPP",
"PPPPPPPPPPPPPPPPPPPPPPPPPPPPPPPPPPPPPPPPPPPPPPPPPP",
"PPPPPPPPPPPPPPPPPPPPPPPPPPPPPPPPPPPPPPPPPPPPPPPPPP",
"PPPPPPPPPPPPPPPPPPPPPPPPPPPPPPPPPPPPPPPPPPPPPPPPPP",
"PPPPPPPPPPPPPPPPPPPPPPPPPPPPPPPPPPPPPPPPPPPPPPPPPP",
"PPPPPPPPPPPPPPPPPPPPPPPPPPPPPPPPPPPPPPPPPPPPPPPPPP",
"PPPPPPPPPPPPPPPPPPPPPPPPPPPPPPPPPPPPPPPPPPPPPPPPPP",
"PPPPPPPPPPPPPPPPPPPPPPPPPPPPPPPPPPPPPPPPPPPPPPPPPP",
"PPPPPPPPPPPPPPPPPPPPPPPPPPPPPPPPPPPPPPPPPPPPPPPPPP",
"PPPPPPPPPPPPPPPPPPPPPPPPPPPPPPPPPPPPPPPPPPPPPPPPPP",
"PPPPPPPPPPPPPPPPPPPPPPPPPPPPPPPPPPPPPPPPPPPPPPPPPP",
"PPPPPPPPPPPPPPPPPPPPPPPPPPPPPPPPPPPPPPPPPPPPPPPPPP",
"PPPPPPPPPPPPPPPPPPPPPPPPPPPPPPPPPPPPPPPPPPPPPPPPPP",
"PPPPPPPPPPPPPPPPPPPPPq PPPPPPPPPPPPPPPPPPPPPPPPPPP",
"PPPPPPPPPPPPPPPPPPPP@r PPPPP.<<PPPPPPPPPPPPPPPPPPP",
"PPPPPPPPPPPPPPPPPPPPp%PPPPP 9p PPPPPPPPPPPPPPPPPPP",
"PPPPPPPPPPPPPPPPPPP;8oPPP ;yv< PPPPPPPPPPPPPPPPPPP",
"PPPPPPPPPPPPPPPPPP 5> PP =MC, PPPPPPPPPPPPPPPPPPPP",
"PPPPPPPPPPPPPPPPPP3N>PP$:Kn-PPPPPPPPPPPPPPPPPPPPPP",
"PPPPPPPPPPPPPPPPPOzd& *gAn1PPPPPPPPPPPPPPPPPPPPPPP",
"PPPPPPPPPPPPPPPPPrxw tbS6-PPPPPPPPPPPPPPPPPPPPPPPP",
"PPPPPPPPPPPPPPPP+ms%iVl7XPPPPPPPPPPPPPPPPPPPPPPPPP",
"PPPPPPPPPPPPPPPPaGjuSi  PPPPPPPPPPPPPPPPPPPPPPPPPP",
"PPPPPPPPPPPPPPP0DLFZeo PPPPPPPPPPPPPPPPPPPPPPPPPPP",
"PPPPPPPPPPPPPP@cLHf>+PPPPPPPPPPPPPPPPPPPPPPPPPPPPP",
"PPPPPPPPPPPPPP2JGh#PPPPPPPPPPPPPPPPPPPPPPPPPPPPPPP",
"PPPPPPPPPPPPPPBkw+PPPPPPPPPPPPPPPPPPPPPPPPPPPPPPPP",
"PPPPPPPPPPPPPP4; PPPPPPPPPPPPPPPPPPPPPPPPPPPPPPPPP",
"PPPPPPPPPPPPPPPPPPPPPPPPPPPPPPPPPPPPPPPPPPPPPPPPPP",
"PPPPPPPPPPPPPPPPPPPPPPPPPPPPPPPPPPPPPPPPPPPPPPPPPP",
"PPPPPPPPPPPPPPPPPPPPPPPPPPPPPPPPPPPPPPPPPPPPPPPPPP",
"PPPPPPPPPPPPPPPPPPPPPPPPPPPPPPPPPPPPPPPPPPPPPPPPPP",
"PPPPPPPPPPPPPPPPPPPPPPPPPPPPPPPPPPPPPPPPPPPPPPPPPP",
"PPPPPPPPPPPPPPPPPPPPPPPPPPPPPPPPPPPPPPPPPPPPPPPPPP",
"PPPPPPPPPPPPPPPPPPPPPPPPPPPPPPPPPPPPPPPPPPPPPPPPPP",
"PPPPPPPPPPPPPPPPPPPPPPPPPPPPPPPPPPPPPPPPPPPPPPPPPP",
"PPPPPPPPPPPPPPPPPPPPPPPPPPPPPPPPPPPPPPPPPPPPPPPPPP",
"PPPPPPPPPPPPPPPPPPPPPPPPPPPPPPPPPPPPPPPPPPPPPPPPPP",
"PPPPPPPPPPPPPPPPPPPPPPPPPPPPPPPPPPPPPPPPPPPPPPPPPP",
"PPPPPPPPPPPPPPPPPPPPPPPPPPPPPPPPPPPPPPPPPPPPPPPPPP",
"PPPPPPPPPPPPPPPPPPPPPPPPPPPPPPPPPPPPPPPPPPPPPPPPPP",
"PPPPPPPPPPPPPPPPPPPPPPPPPPPPPPPPPPPPPPPPPPPPPPPPPP",
"PPPPPPPPPPPPPPPPPPPPPPPPPPPPPPPPPPPPPPPPPPPPPPPPPP",
"PPPPPPPPPPPPPPPPPPPPPPPPPPPPPPPPPPPPPPPPPPPPPPPPPP",
"PPPPPPPPPPPPPPPPPPPPPPPPPPPPPPPPPPPPPPPPPPPPPPPPPP",
"PPPPPPPPPPPPPPPPPPPPPPPPPPPPPPPPPPPPPPPPPPPPPPPPPP",
"PPPPPPPPPPPPPPPPPPPPPPPPPPPPPPPPPPPPPPPPPPPPPPPPPP",
"PPPPPPPPPPPPPPPPPPPPPPPPPPPPPPPPPPPPPPPPPPPPPPPPPP"
};
