/* XPM */
static char *result[] = {
/* columns rows colors chars-per-pixel */
"49 50 136 2 ",
"   c black",
".  c #010001",
"X  c #020102",
"o  c #050205",
"O  c #070307",
"+  c #0E060E",
"@  c #0F060E",
"#  c #10070F",
"$  c #110710",
"%  c #110811",
"&  c #130812",
"*  c #180A17",
"=  c #1D0C1C",
"-  c #210D20",
";  c #260F25",
":  c #231122",
">  c #231323",
",  c #241424",
"<  c #241524",
"1  c #291127",
"2  c #2B1129",
"3  c #30132E",
"4  c #321430",
"5  c #371735",
"6  c #391737",
"7  c #3A1838",
"8  c #3C193A",
"9  c #431B40",
"0  c #481D45",
"q  c #4C1F49",
"w  c #452244",
"e  c #462445",
"r  c #4F204C",
"t  c #482B49",
"y  c #50224D",
"u  c #52234F",
"i  c #562353",
"p  c #522550",
"a  c #542952",
"s  c #532F53",
"d  c #5D255A",
"f  c #612A5E",
"g  c #672F64",
"h  c #682D65",
"j  c #6A2E67",
"k  c #6B3C6B",
"l  c #72306F",
"z  c #743371",
"x  c #783375",
"c  c #7C3277",
"v  c #733D73",
"b  c #6C406D",
"n  c #81347C",
"m  c #82387E",
"M  c #863681",
"N  c #8D3E89",
"B  c #8A4388",
"V  c #8C4A8B",
"C  c #924F92",
"Z  c #9E479A",
"A  c #9E4D9B",
"S  c #9B529A",
"D  c #A1499D",
"F  c #A743A1",
"G  c #AF5BAE",
"H  c #AC5FAC",
"J  c #B84AB1",
"K  c #B554B1",
"L  c #B555B1",
"P  c #B85FB6",
"I  c #BE56B9",
"U  c #BD5AB9",
"Y  c #B160B0",
"T  c #B265B3",
"R  c #B46AB5",
"E  c #C655C0",
"W  c #C55FC1",
"Q  c #CB58C5",
"!  c #CB59C5",
"~  c #CA5FC6",
"^  c #CB64C7",
"/  c #CC62C8",
"(  c #CE61CA",
")  c #CC66C9",
"_  c #D260CD",
"`  c #D365CF",
"'  c #D169CE",
"]  c #D568D2",
"[  c #D56BD2",
"{  c #D26FD1",
"}  c #D868D4",
"|  c #D96AD5",
" . c #D473D3",
".. c #D872D6",
"X. c #DF70DC",
"o. c #EF6EE9",
"O. c #E773E3",
"+. c #E677E3",
"@. c #EA76E7",
"#. c #E878E6",
"$. c #EB7CEA",
"%. c #EC7FEB",
"&. c #EF7DED",
"*. c #F276ED",
"=. c #F276EE",
"-. c #F379EF",
";. c #F37AF0",
":. c #F47DF2",
">. c #D880DA",
",. c #DF83E1",
"<. c #E686E8",
"1. c #E980E8",
"2. c #E885E9",
"3. c #EE84EE",
"4. c #EB88EC",
"5. c #EF8CF0",
"6. c #F581F3",
"7. c #F387F3",
"8. c #F683F5",
"9. c #F784F5",
"0. c #F18DF3",
"q. c #F58CF6",
"w. c #F889F8",
"e. c #F88AF8",
"r. c #F98BF9",
"t. c #F98CF9",
"y. c #F98DFA",
"u. c #F98FFA",
"i. c #FA8EFB",
"p. c #FB91FC",
"a. c #FB92FC",
"s. c #FB92FD",
"d. c #FB93FD",
"f. c #FC94FD",
"g. c #FC95FE",
"h. c None",
/* pixels */
"h.h.h.h.h.h.h.h.h.h.h.h.h.h.h.h.h.h.h.h.h.h.h.h.h.h.h.h.h.h.h.h.h.h.h.h.h.h.h.h.h.h.h.h.h.h.h.h.h.",
"h.h.h.h.h.h.h.h.h.h.h.h.h.h.h.h.h.h.h.h.h.h.h.h.h.h.h.h.h.h.h.h.h.h.h.h.h.h.h.h.h.h.h.h.h.h.h.h.h.",
"h.h.h.h.h.h.h.h.h.h.h.h.h.h.h.h.h.h.h.h.h.h.h.h.h.h.h.h.h.h.h.h.h.h.h.h.h.h.h.h.h.h.h.h.h.h.h.h.h.",
"h.h.h.h.h.h.h.h.h.h.h.h.h.h.h.h.h.h.h.h.h.h.h.h.h.h.h.h.h.h.h.h.h.h.h.h.h.h.h.h.h.h.h.h.h.h.h.h.h.",
"h.h.h.h.h.h.h.h.h.h.h.h.h.h.h.h.h.h.h.h.h.h.h.h.h.h.h.h.h.h.h.h.h.h.h.h.h.h.h.h.h.h.h.h.h.h.h.h.h.",
"h.h.h.h.h.h.h.h.h.h.h.h.h.h.h.h.h.h.h.h.h.h.h.h.h.h.h.h.h.h.h.h.h.h.h.h.h.h.h.h.h.h.h.h.h.h.h.h.h.",
"h.h.h.h.h.h.h.h.h.h.h.h.h.h.h.h.h.h.h.h.h.h.h.h.h.h.h.h.h.h.h.h.h.h.h.h.h.h.h.h.h.h.h.h.h.h.h.h.h.",
"h.h.h.h.h.h.h.h.h.h.h.h.h.h.h.h.h.h.h.h.h.h.h.h.h.h.h.h.h.h.h.h.h.h.h.h.h.h.h.h.h.h.h.h.h.h.h.h.h.",
"h.h.h.h.h.h.h.h.h.h.h.h.h.h.h.h.h.h.h.h.h.h.h.h.h.h.h.h.h.h.h.h.h.h.h.h.h.h.h.h.h.h.h.h.h.h.h.h.h.",
"h.h.h.h.h.h.h.h.h.h.h.h.h.h.h.h.h.h.h.h.h.h.h.h.h.h.h.h.h.h.h.h.h.h.h.h.h.h.h.h.h.h.h.h.h.h.h.h.h.",
"h.h.h.h.h.h.h.h.h.h.h.h.h.h.h.h.h.h.h.h.h.h.h.h.h.h.h.h.h.h.h.h.h.h.h.h.h.h.h.h.h.h.h.h.h.h.h.h.h.",
"h.h.h.h.h.h.h.h.h.h.h.h.h.h.h.h.h.h.h.h.h.h.h.h.h.h.h.h.h.h.h.h.h.h.h.h.h.h.h.h.h.h.h.h.h.h.h.h.h.",
"h.h.h.h.h.h.h.h.h.h.h.h.h.h.h.h.h.h.h.h.h.h.h.h.h.h.h.h.h.h.h.h.h.h.h.h.h.h.h.h.h.h.h.h.h.h.h.h.h.",
"h.h.h.h.h.h.h.h.h.h.h.h.h.h.h.h.h.h.h.h.h.h.h.h.h.h.h.h.h.h.h.h.h.h.h.h.h.  O d 6 h.h.h.h.h.h.h.h.",
"h.h.h.h.h.h.h.h.h.h.h.h.h.h.h.h.h.h.h.h.h.h.h.h.h.h.h.h.h.h.h.h.h.h.h.h.    l &.V   h.h.h.h.h.h.h.",
"h.h.h.h.h.h.h.h.h.h.h.h.h.h.h.h.h.h.h.h.h.h.h.h.h.h.h.h.h.h.h.h.h.h.  X y ! %.q.z   h.h.h.h.h.h.h.",
"h.h.h.h.h.h.h.h.h.h.h.h.h.h.h.h.h.h.h.h.h.h.h.h.h.h.h.h.h.h.h.h.h.    8 O.g.f. .    h.h.h.h.h.h.h.",
"h.h.h.h.h.h.h.h.h.h.h.h.h.h.h.h.h.h.h.h.h.h.h.h.h.h.h.h.h.h.h.h.  ; M [ d.g.0.f   h.h.h.h.h.h.h.h.",
"h.h.h.h.h.h.h.h.h.h.h.h.h.h.h.h.h.h.h.h.h.h.h.h.h.h.h.h.h.h.h.  1 ~ y.d.g.g.] #   h.h.h.h.h.h.h.h.",
"h.h.h.h.h.h.h.h.h.h.h.h.h.h.h.h.h.h.h.h.h.h.h.h.h.h.h.h.h.  = 9 / u.g.g.g.g.s . h.h.h.h.h.h.h.h.h.",
"h.h.h.h.h.h.h.h.h.h.h.h.h.h.h.h.h.h.h.h.h.h.h.h.h.h.h.h.  + D =.p.g.g.g.g.r.e   h.h.h.h.h.h.h.h.h.",
"h.h.h.h.h.h.h.h.h.h.h.h.h.h.h.h.h.h.h.h.h.h.h.h.h.h.h.O $ Z t.g.a.s.g.g.f.H & h.h.h.h.h.h.h.h.h.h.",
"h.h.h.h.h.h.h.h.h.h.h.h.h.h.h.h.h.h.h.h.h.h.h.h.h.  o j Q 7.g.p._ | g.g.3.z h.h.h.h.h.h.h.h.h.h.h.",
"h.h.h.h.h.h.h.h.h.h.h.h.h.h.h.h.h.h.h.h.h.h.h.h.    x 8.g.g.r.L & t g.d.G   h.h.h.h.h.h.h.h.h.h.h.",
"h.h.h.h.h.h.h.h.h.h.h.h.h.h.h.h.h.h.q & h.h.    q M 6.g.g.;.K 2 & A g.0.p   h.h.h.h.h.h.h.h.h.h.h.",
"h.h.h.h.h.h.h.h.h.h.h.h.h.h.h.h.h.+ S > h.    u +.y.f.y.} 7 & h., 2.g.^ @ h.h.h.h.h.h.h.h.h.h.h.h.",
"h.h.h.h.h.h.h.h.h.h.h.h.h.h.h.h.h.g E *   ; 9 -.g.e.$.F 3   h.h.a 5.g.t   h.h.h.h.h.h.h.h.h.h.h.h.",
"h.h.h.h.h.h.h.h.h.h.h.h.h.h.h.h.& P b   ; W :.t.*.N i   h.h.h.  { d.8.w   h.h.h.h.h.h.h.h.h.h.h.h.",
"h.h.h.h.h.h.h.h.h.h.h.h.h.h.h.h.> t.) F I i.g.I 9 &   h.h.h.h.  >.g.C & h.h.h.h.h.h.h.h.h.h.h.h.h.",
"h.h.h.h.h.h.h.h.h.h.h.h.h.h.h.% ( g.g.d.w.` J     h.h.h.h.h.h.= ,.1.r   h.h.h.h.h.h.h.h.h.h.h.h.h.",
"h.h.h.h.h.h.h.h.h.h.h.h.h.h.h.p <.g.g.+.M 6   h.h.h.h.h.h.h.  B p.R     h.h.h.h.h.h.h.h.h.h.h.h.h.",
"h.h.h.h.h.h.h.h.h.h.h.h.h.h.  Y d.9.o.u     h.h.h.h.h.h.h.h.0 ..g.R   h.h.h.h.h.h.h.h.h.h.h.h.h.h.",
"h.h.h.h.h.h.h.h.h.h.h.h.h.h.i #._ m - o h.h.h.h.h.h.h.h.h.h.k a.f.T   h.h.h.h.h.h.h.h.h.h.h.h.h.h.",
"h.h.h.h.h.h.h.h.h.h.h.h.h.h.6 c &   h.h.h.h.h.h.h.h.h.h.h.h.b g.4.h h.h.h.h.h.h.h.h.h.h.h.h.h.h.h.",
"h.h.h.h.h.h.h.h.h.h.h.h.h.h.  h.h.h.h.h.h.h.h.h.h.h.h.h.h.h.b g.' % h.h.h.h.h.h.h.h.h.h.h.h.h.h.h.",
"h.h.h.h.h.h.h.h.h.h.h.h.h.h.h.h.h.h.h.h.h.h.h.h.h.h.h.h.h.= X.@.5 h.h.h.h.h.h.h.h.h.h.h.h.h.h.h.h.",
"h.h.h.h.h.h.h.h.h.h.h.h.h.h.h.h.h.h.h.h.h.h.h.h.h.h.h.h.h.< t.v X h.h.h.h.h.h.h.h.h.h.h.h.h.h.h.h.",
"h.h.h.h.h.h.h.h.h.h.h.h.h.h.h.h.h.h.h.h.h.h.h.h.h.h.h.h.h.: U 4 h.h.h.h.h.h.h.h.h.h.h.h.h.h.h.h.h.",
"h.h.h.h.h.h.h.h.h.h.h.h.h.h.h.h.h.h.h.h.h.h.h.h.h.h.h.h.h.n ;   h.h.h.h.h.h.h.h.h.h.h.h.h.h.h.h.h.",
"h.h.h.h.h.h.h.h.h.h.h.h.h.h.h.h.h.h.h.h.h.h.h.h.h.h.h.h.h.h.h.h.h.h.h.h.h.h.h.h.h.h.h.h.h.h.h.h.h.",
"h.h.h.h.h.h.h.h.h.h.h.h.h.h.h.h.h.h.h.h.h.h.h.h.h.h.h.h.h.h.h.h.h.h.h.h.h.h.h.h.h.h.h.h.h.h.h.h.h.",
"h.h.h.h.h.h.h.h.h.h.h.h.h.h.h.h.h.h.h.h.h.h.h.h.h.h.h.h.h.h.h.h.h.h.h.h.h.h.h.h.h.h.h.h.h.h.h.h.h.",
"h.h.h.h.h.h.h.h.h.h.h.h.h.h.h.h.h.h.h.h.h.h.h.h.h.h.h.h.h.h.h.h.h.h.h.h.h.h.h.h.h.h.h.h.h.h.h.h.h.",
"h.h.h.h.h.h.h.h.h.h.h.h.h.h.h.h.h.h.h.h.h.h.h.h.h.h.h.h.h.h.h.h.h.h.h.h.h.h.h.h.h.h.h.h.h.h.h.h.h.",
"h.h.h.h.h.h.h.h.h.h.h.h.h.h.h.h.h.h.h.h.h.h.h.h.h.h.h.h.h.h.h.h.h.h.h.h.h.h.h.h.h.h.h.h.h.h.h.h.h.",
"h.h.h.h.h.h.h.h.h.h.h.h.h.h.h.h.h.h.h.h.h.h.h.h.h.h.h.h.h.h.h.h.h.h.h.h.h.h.h.h.h.h.h.h.h.h.h.h.h.",
"h.h.h.h.h.h.h.h.h.h.h.h.h.h.h.h.h.h.h.h.h.h.h.h.h.h.h.h.h.h.h.h.h.h.h.h.h.h.h.h.h.h.h.h.h.h.h.h.h.",
"h.h.h.h.h.h.h.h.h.h.h.h.h.h.h.h.h.h.h.h.h.h.h.h.h.h.h.h.h.h.h.h.h.h.h.h.h.h.h.h.h.h.h.h.h.h.h.h.h.",
"h.h.h.h.h.h.h.h.h.h.h.h.h.h.h.h.h.h.h.h.h.h.h.h.h.h.h.h.h.h.h.h.h.h.h.h.h.h.h.h.h.h.h.h.h.h.h.h.h.",
"h.h.h.h.h.h.h.h.h.h.h.h.h.h.h.h.h.h.h.h.h.h.h.h.h.h.h.h.h.h.h.h.h.h.h.h.h.h.h.h.h.h.h.h.h.h.h.h.h."
};
