/* XPM */
static char *result[] = {
/* columns rows colors chars-per-pixel */
"50 50 41 1 ",
"  c black",
". c #040103",
"X c #0A060A",
"o c #30132E",
"O c #391737",
"+ c #3E253E",
"@ c #4B254A",
"# c #482B49",
"$ c #4D2E4E",
"% c #483349",
"& c #542251",
"* c #523153",
"= c #553256",
"- c #642860",
"; c #683266",
": c #673D68",
"> c #494949",
", c #6C406D",
"< c #764476",
"1 c #6D676D",
"2 c #974493",
"3 c #827382",
"4 c #EA76E7",
"5 c #F072EC",
"6 c #F277EE",
"7 c #928992",
"8 c #A192A1",
"9 c #DEAEDF",
"0 c #FC95FE",
"q c #E6B7E7",
"w c #E9B0EA",
"e c #E9BFEA",
"r c #EEC7EF",
"t c #FDC2FF",
"y c #FED4FF",
"u c #FEDFFF",
"i c #FFF9FF",
"p c #FFFBFF",
"a c #FFFCFF",
"s c white",
"d c None",
/* pixels */
"dddddddddddddddddddddddddddddddddddddddddddddddddd",
"dddddddddddddddddddddddddddddddddddddddddddddddddd",
"dddddddddddddddddddddddddddddddddddddddddddddddddd",
"dddddddddddddddddddddddddddddddddddddddddddddddddd",
"dddddddddddddddddddddddddddddddddddddddddddddddddd",
"dddddddddddddddddddddddddddddddddddddddddddddddddd",
"dddddddddddddddddddddddddddddddddddddddddddddddddd",
"dddddddddddddddddddddddddddddddddddddddddddddddddd",
"dddddddddddddddddddddddddddddddddddddddddddddddddd",
"dddddddddddddddddddddddddddddddddddddddddddddddddd",
"dddddddddddddddddddddddddddddddddddddddddddddddddd",
"dddddddddddddddddddddddddddddddddddddddddddddddddd",
"dddddddddddddddddddddddddddddddddddddddddddddddddd",
"dddddddddddddddddddddddddddddddddddddddddddddddddd",
"dddddddddddddddddddddddddddddddddddddddddddddddddd",
"dddddddddddddddddddddddddddddddddddddddddddddddddd",
"dddddddddddddddddddddddddddddddddddddddddddddddddd",
"dddddddddddddddddddddddddddddddddddddddddddddddddd",
"dddddddddddddddddddddddddddddddddddddddddddddddddd",
"dddddddddddddddddddddddddddddddddddddddddddddddddd",
"dddddddddddddddddddddddddddddddddddddddddddddddddd",
"dddddddddddddddddddddddddddddddddddddddddddddddddd",
"dddddddddddddddddddddddddddddddddddddddddddddddddd",
"dddddddddddddddddddddddddddddddddddddddddddddddddd",
"dddddddddddddddddddddddddddddddddddddddddddddddddd",
"dddddddddddddddddddddddddddddddddddddddddddddddddd",
"dddddddddddddddddddddddddddddddddddddddddddddddddd",
"ddddddddddddddddddddddoOdddddddddddddddddddddddddd",
"dddddddddddddddddddddd&-dddddddddddddddddddddddddd",
"dddddddddddddddddddddd&-dddddddddddddddddddddddddd",
"dddddddddddddddddddddd2;dddddddddddddddddddddddddd",
"dddddddddddddddddddddd5,dddddddddddddddddddddddddd",
"dddddddddddddddddddddd6,dddddddddddddddddddddddddd",
"dddddddddddddddddddddd0,dddddddddddddddddddddddddd",
"dddddddddddddddddddddd0,dddddddddddddddddddddddddd",
"dddddddddddddddddddddd0<.ddddddddddddddddddddddddd",
"ddddddddddddddddddddd+04@ dddddddddddddddddddddddd",
"dddddddddddddddddddd$wttt= ddddddddddddddddddddddd",
"ddddddddddddddddddd+9isssq* dddddddddddddddddddddd",
"ddddddddddddddddddd1pssssa7 dddddddddddddddddddddd",
"dddddddddddddddddd%yssssssu% ddddddddddddddddddddd",
"dddddddddddddddddd>ssssssss> ddddddddddddddddddddd",
"dddddddddddddddddd%yssssssu% ddddddddddddddddddddd",
"ddddddddddddddddddX3pssssa8Xdddddddddddddddddddddd",
"ddddddddddddddddddd$epsssr: dddddddddddddddddddddd",
"dddddddddddddddddddd$wttt= ddddddddddddddddddddddd",
"dddddddddddddddddddd +### dddddddddddddddddddddddd",
"ddddddddddddddddddddddd  ddddddddddddddddddddddddd",
"dddddddddddddddddddddddddddddddddddddddddddddddddd",
"dddddddddddddddddddddddddddddddddddddddddddddddddd"
};
