/* XPM */
static char *result[] = {
/* columns rows colors chars-per-pixel */
"50 50 140 2 ",
"   c black",
".  c #030203",
"X  c #050205",
"o  c #050305",
"O  c #0A0409",
"+  c #0A060A",
"@  c #0E060E",
"#  c gray5",
"$  c #110811",
"%  c #130812",
"&  c #120B12",
"*  c #150C15",
"=  c #1F121F",
"-  c #210D20",
";  c #231323",
":  c #211422",
">  c #241423",
",  c #241524",
"<  c #241824",
"1  c #241924",
"2  c #281F28",
"3  c #2E1D2F",
"4  c #331E34",
"5  c #242224",
"6  c #252525",
"7  c #3F203D",
"8  c #3E253E",
"9  c #3F3F3F",
"0  c #401D3E",
"q  c #431B40",
"w  c #481D45",
"e  c #4C1F4A",
"r  c #402641",
"t  c #452244",
"y  c #482B49",
"u  c #523153",
"i  c #553256",
"p  c #573458",
"a  c #5D3B5D",
"s  c #732E6E",
"d  c #673D68",
"f  c #693E6A",
"g  c #7A3877",
"h  c #783E77",
"j  c #494049",
"k  c #5B565B",
"l  c #5B5B5B",
"z  c #6D536D",
"x  c #714372",
"c  c #764977",
"v  c #7C527D",
"b  c #6D6D6D",
"n  c #83357E",
"m  c #834C83",
"M  c #8D4C8D",
"N  c #90478E",
"B  c #815382",
"V  c #905591",
"C  c #866187",
"Z  c #956196",
"A  c #916F91",
"S  c #9D639E",
"D  c #967797",
"F  c #BC53B7",
"G  c #BC56B7",
"H  c #A76EA9",
"J  c #C47BC5",
"K  c #CE7ACF",
"L  c #D872D6",
"P  c #E27ADF",
"I  c #EF6EE9",
"U  c #EE73E8",
"Y  c #918592",
"T  c #929292",
"R  c #999699",
"E  c #A994A9",
"W  c #B596B6",
"Q  c #B892B9",
"!  c gray63",
"~  c #B1A4B1",
"^  c #B6AFB6",
"/  c #BBB2BB",
"(  c #D887DA",
")  c #CF9CD0",
"_  c #C8B7C8",
"`  c #DFBFDF",
"'  c #E381E3",
"]  c #E38DE4",
"[  c #EF81EE",
"{  c #EA8AEC",
"}  c #F98DFA",
"|  c #FC95FE",
" . c #F99FF8",
".. c #FB9FFB",
"X. c #DFBFE0",
"o. c #F3A3EE",
"O. c #E9B7EA",
"+. c #EEB4EF",
"@. c #FAADFC",
"#. c #FDAFFE",
"$. c #F8B1F5",
"%. c #F3B9F4",
"&. c #FDB0FE",
"*. c #FDB3FE",
"=. c #FDB5FE",
"-. c #FDB8FE",
";. c #FDBEFF",
":. c gray79",
">. c #EEC0EF",
",. c #E7DBE8",
"<. c #FDC0FF",
"1. c #FDC2FF",
"2. c #FDC4FF",
"3. c #FDC5FF",
"4. c #FEC7FF",
"5. c #FEC9FF",
"6. c #FECBFF",
"7. c #F4D5F4",
"8. c #F6D4F7",
"9. c #FED0FF",
"0. c #FED2FF",
"q. c #F9DFFA",
"w. c #FED8FF",
"e. c #FEDFFF",
"r. c #EFE7EF",
"t. c #F7E7F7",
"y. c #FEE1FF",
"u. c #FEE5FF",
"i. c #FCEAFC",
"p. c #FFECFF",
"a. c #FFEEFF",
"s. c #FFF0FF",
"d. c #FFF2FF",
"f. c #FFF4FF",
"g. c #FFF6FF",
"h. c #FFF9FF",
"j. c #FFFAFF",
"k. c #FFFBFF",
"l. c white",
"z. c None",
/* pixels */
"z.z.z.z.z.z.z.z.z.z.z.z.z.z.z.z.z.z.z.z.z.z.z.z.z.z.z.z.z.z.z.z.z.z.z.z.z.z.z.z.z.z.z.z.z.z.z.z.z.z.",
"z.z.z.z.z.z.z.z.z.z.z.z.z.z.z.z.z.z.z.z.z.z.z.z.z.z.z.z.z.z.z.z.z.z.z.z.z.z.z.z.z.z.z.z.z.z.z.z.z.z.",
"z.z.z.z.z.z.z.z.z.z.z.z.z.z.z.z.z.z.z.z.z.z.z.z.z.z.z.z.z.z.z.z.z.z.z.z.z.z.z.z.z.z.z.z.z.z.z.z.z.z.",
"z.z.z.z.z.z.z.z.z.z.z.z.z.z.z.z.z.z.z.z.z.z.z.z.z.z.z.z.z.z.z.z.z.z.z.z.z.z.z.z.z.z.z.z.z.z.z.z.z.z.",
"z.z.z.z.z.z.z.z.z.z.z.z.z.z.z.z.z.z.z.z.z.z.z.z.z.z.z.z.z.z.z.z.z.z.z.z.z.z.z.z.z.z.z.z.z.z.z.z.z.z.",
"z.z.z.z.z.z.z.z.z.z.z.z.z.z.z.z.z.z.z.z.z.z.z.z.z.z.z.z.z.z.z.z.z.z.z.z.z.z.z.z.z.z.z.z.z.z.z.z.z.z.",
"z.z.z.z.z.z.z.z.z.z.z.z.z.z.z.z.z.z.z.z.z.z.z.z.z.z.z.z.z.z.z.z.z.z.z.z.z.z.z.z.z.z.z.z.z.z.z.z.z.z.",
"z.z.z.z.z.z.z.z.z.z.z.z.z.z.z.z.z.z.z.z.z.z.z.z.z.z.z.z.z.z.z.z.z.z.z.z.z.z.z.z.z.z.z.z.z.z.z.z.z.z.",
"z.z.z.z.z.z.z.z.z.z.z.z.z.z.z.z.z.z.z.z.z.z.z.z.z.z.z.z.z.z.z.z.z.z.z.z.z.z.z.z.z.z.z.z.z.z.z.z.z.z.",
"z.z.z.z.z.z.z.z.z.z.z.z.z.z.z.z.z.z.z.z.z.z.z.z.z.z.z.z.z.z.z.z.z.z.z.z.z.z.z.z.z.z.z.z.z.z.z.z.z.z.",
"z.z.z.z.z.z.z.z.z.z.z.z.z.z.z.z.z.z.z.z.z.z.z.z.z.z.z.z.z.z.z.z.z.z.z.z.z.z.z.z.z.z.z.z.z.z.z.z.z.z.",
"z.z.z.z.z.z.z.z.z.z.z.z.z.z.z.z.z.z.z.z.z.z.z.z.z.z.z.z.z.z.z.z.z.z.z.z.z.z.z.z.z.z.z.z.z.z.z.z.z.z.",
"z.z.z.z.z.z.z.z.z.z.z.z.z.z.z.z.z.z.z.z.z.z.z.z.z.z.z.z.z.z.z.z.z.z.z.z.z.z.z.z.z.z.z.z.z.z.z.z.z.z.",
"z.z.z.z.z.z.z.z.z.z.z.z.z.z.z.z.z.z.z.z.z.z.z.z.z.z.z.z.z.z.z.z.z.z.z.z.z.z.z.z.z.z.z.z.z.z.z.z.z.z.",
"z.z.z.z.z.z.z.z.z.z.z.z.z.z.z.z.z.z.z.z.z.z.z.z.z.z.z.z.z.z.z.z.z.z.z.z.z.z.z.z.z.z.z.z.z.z.z.z.z.z.",
"z.z.z.z.z.z.z.z.z.z.z.z.z.z.z.z.z.z.z.z.z.z.z.z.z.z.z.z.z.z.z.z.z.z.z.z.z.z.z.z.z.z.z.z.z.z.z.z.z.z.",
"z.z.z.z.z.z.z.z.z.z.z.z.z.z.z.z.z.z.z.z.z.z.z.z.z.z.z.z.z.z.z.z.z.z.z.z.z.z.z.z.z.z.z.z.z.z.z.z.z.z.",
"z.z.z.z.z.z.z.z.z.z.z.z.z.z.z.z.z.z.z.z.z.z.z.z.z.z.z.z.z.z.z.z.z.z.z.z.z.z.z.z.z.z.z.z.z.z.z.z.z.z.",
"z.z.z.z.z.z.z.z.z.z.z.z.z.z.z.z.z.z.z.z.z.z.z.z.z.z.z.z.z.z.z.z.z.z.z.z.z.z.z.z.z.z.z.z.z.z.z.z.z.z.",
"z.z.z.z.z.z.z.z.z.z.z.z.z.z.z.z.z.z.z.z.z.z.z.z.  z.z.z.z.z.z.z.z.z.z.z.z.z.z.z.z.z.z.z.z.z.z.z.z.z.",
"z.z.z.z.z.z.z.z.z.z.z.z.z.z.z.z.z.z.z.z.z.z.z.z.n   z.z.z.z.z.z.z.z.z.z.z.z.z.z.z.z.z.z.z.z.z.z.z.z.",
"z.z.z.z.z.z.z.z.z.z.z.z.z.z.z.z.z.z.z.z.z.z.z.z.J   z.z.z.z.z.z.z.z.z.z.z.z.z.z.z.z.z.z.z.z.z.z.z.z.",
"z.z.z.z.z.z.z.z.z.z.z.z.z.z.z.z.z.z.z.z.z.z.z.  :.  z.z.z.z.z.z.z.z.z.z.z.z.z.z.z.z.z.z.z.z.z.z.z.z.",
"z.z.z.z.z.z.z.z.z.z.z.z.z.z.z.z.z.z.z.z.z.z.z.u ,.x z.z.z.z.z.z.z.z.z.z.z.z.z.z.z.z.z.z.z.z.z.z.z.z.",
"z.z.z.z.z.z.z.z.z.z.z.z.z.z.z.z.z.z.z.z.z.z.z.Y j._   z.z.z.z.z.z.z.z.z.z.z.z.z.z.z.z.z.z.z.z.z.z.z.",
"z.z.z.z.z.z.z.z.z.z.z.z.z.z.z.z.z.z.z.z.z.z.  T l.:.  z.z.z.z.z.z.z.z.z.z.z.z.z.z.z.z.z.z.z.z.z.z.z.",
"z.z.z.z.z.z.z.z.z.z.z.z.z.z.z.z.z.z.z.z.z.z.  T l.:.  z.z.z.z.z.z.z.z.z.z.z.z.z.z.z.z.z.z.z.z.z.z.z.",
"z.z.z.z.z.z.z.z.z.z.z.z.z.z.z.z.z.z.z.z.z.z.r ` l.:.  z.z.z.z.z.z.z.z.z.z.z.z.z.z.z.z.z.z.z.z.z.z.z.",
"z.z.z.z.z.z.z.z.z.z.z.z.z.z.z.z.z.z.z.z.z.z.k h.l.t.v   z.z.z.z.z.z.z.z.z.z.z.z.z.z.z.z.z.z.z.z.z.z.",
"z.z.z.z.z.z.z.z.z.z.z.z.z.z.z.z.z.z.z.z.z.  l l.l.l.T   z.z.z.z.z.z.z.z.z.z.z.z.z.z.z.z.z.z.z.z.z.z.",
"z.z.z.z.z.z.z.z.z.z.z.z.z.d   z.z.z.z.z.z.* Q l.l.l.T   z.z.z.z.z.z.z.z.z.z.z.z.z.z.z.z.z.z.z.z.z.z.",
"z.z.z.z.z.z.z.z.z.z.z.z.z.E S + z.z.z.z.& H p.l.l.l.R o z.z.z.z.z.z.z.z.z.z.z.z.z.z.z.z.z.z.z.z.z.z.",
"z.z.z.z.z.z.z.z.z.z.z.z.z.# i.Z , o 7 P { @.l.l.l.l.8.a o z.z.. : f i z.z.z.z.z.z.z.z.z.z.z.z.z.z.z.",
"z.z.z.z.z.z.z.z.z.z.z.z.z.z.! u.1.B D 0.=.g.l.l.l.l.l.*.g w 8 c %.A   z.z.z.z.z.z.z.z.z.z.z.z.z.z.z.",
"z.z.z.z.z.z.z.z.z.z.z.z.z.z.6 l.l.w.e.0.y.l.l.l.l.l.l.e.U L ) 9.O.9 z.z.z.z.z.z.z.z.z.z.z.z.z.z.z.z.",
"z.z.z.z.z.z.z.z.z.z.z.z.z.z.< 6.l.l.l.0.y.l.l.l.l.l.l.;...s.h.+.3 z.z.z.z.z.z.z.z.z.z.z.z.z.z.z.z.z.",
"z.z.z.z.z.z.z.z.z.z.z.z.z.z.z.b l.l.l.l.l.l.l.l.l.l.l.5.f.l.a.j   z.z.z.z.z.z.z.z.z.z.z.z.z.z.z.z.z.",
"z.z.z.z.z.z.z.z.z.z.z.z.z.z.z.z u.l.l.l.l.l.l.l.l.l.l.l.l.l.$.t   z.z.z.z.z.z.z.z.z.z.z.z.z.z.z.z.z.",
"z.z.z.z.z.z.z.z.z.z.z.z.z.z.z.= ~ l.l.l.l.l.l.l.l.l.l.l.l.l.o.q   z.z.z.z.z.z.z.z.z.z.z.z.z.z.z.z.z.",
"z.z.z.z.z.z.z.z.z.z.z.z.z.z.z.z.V s.l.l.l.l.l.l.l.l.l.l.l.l.o.q   z.z.z.z.z.z.z.z.z.z.z.z.z.z.z.z.z.",
"z.z.z.z.z.z.z.z.z.z.z.z.z.z.z.z.u r.l.l.l.l.l.l.l.l.l.l.l.l.$.t z.z.z.z.z.z.z.z.z.z.z.z.z.z.z.z.z.z.",
"z.z.z.z.z.z.z.z.z.z.z.z.e M s   u r.l.l.l.l.l.l.l.l.l.l.l.l.1.y             z.z.z.z.z.z.z.z.z.z.z.z.",
"z.z.z.z.z.z.z.z.z.z.z.z.% ; ' K >.g.3.l.l.l.l.l.l.l.l.j.h.l.4.] ( ( ( F G i z.z.z.z.z.z.z.z.z.z.z.z.",
"z.z.z.z.z.z.z.z.z.z.z.z.z.  & p W 7.&.a.l.l.l.l.l.l.d.&.<.l.k.q./ ^ ^ 2 $ z.z.z.z.z.z.z.z.z.z.z.z.z.",
"z.z.z.z.z.z.z.z.z.z.z.z.z.z.z.    m [ #.d.l.l.l.l.0.-.| 5.X.T C +       z.z.z.z.z.z.z.z.z.z.z.z.z.z.",
"z.z.z.z.z.z.z.z.z.z.z.z.z.z.z.z.  X 0 N  .f.l.l.2.} I h y 4       z.z.z.z.z.z.z.z.z.z.z.z.z.z.z.z.z.",
"z.z.z.z.z.z.z.z.z.z.z.z.z.z.z.z.z.z.z.@ ; 5 6 6 1 > - O     z.z.z.z.z.z.z.z.z.z.z.z.z.z.z.z.z.z.z.z.",
"z.z.z.z.z.z.z.z.z.z.z.z.z.z.z.z.z.z.z.z.z.          z.z.z.z.z.z.z.z.z.z.z.z.z.z.z.z.z.z.z.z.z.z.z.z.",
"z.z.z.z.z.z.z.z.z.z.z.z.z.z.z.z.z.z.z.z.z.z.z.z.z.z.z.z.z.z.z.z.z.z.z.z.z.z.z.z.z.z.z.z.z.z.z.z.z.z.",
"z.z.z.z.z.z.z.z.z.z.z.z.z.z.z.z.z.z.z.z.z.z.z.z.z.z.z.z.z.z.z.z.z.z.z.z.z.z.z.z.z.z.z.z.z.z.z.z.z.z."
};
