/* XPM */
static char *result[] = {
/* columns rows colors chars-per-pixel */
"50 50 155 2 ",
"   c #000000",
".  c #0D060D",
"X  c #130912",
"o  c #180A17",
"O  c #1E0C1D",
"+  c gray7",
"@  c #230E22",
"#  c #241324",
"$  c #2B1129",
"%  c #341532",
"&  c #391737",
"*  c #3C183A",
"=  c #252425",
"-  c #362036",
";  c #401A3E",
":  c #441C41",
">  c #491F47",
",  c #4C1F4A",
"<  c #4F224D",
"1  c #482B49",
"2  c #52224F",
"3  c #493C49",
"4  c #562353",
"5  c #582355",
"6  c #542952",
"7  c #543852",
"8  c #652A62",
"9  c #6A2D66",
"0  c #6C2E69",
"q  c #732E6E",
"w  c #683266",
"e  c #693668",
"r  c #6C396B",
"t  c #752F71",
"y  c #773073",
"u  c #7F337A",
"i  c #7C3C79",
"p  c #494949",
"a  c #6C406D",
"s  c #6D536D",
"d  c #7E447E",
"f  c #745A72",
"g  c #6D6D6D",
"h  c #81347C",
"j  c #853C82",
"k  c #893C85",
"l  c #8D3D89",
"z  c #963D91",
"x  c #894187",
"c  c #8C488A",
"v  c #90478E",
"b  c #8F518F",
"n  c #974393",
"m  c #994495",
"M  c #905591",
"N  c #975898",
"B  c #A0409A",
"V  c #A1499D",
"C  c #A15D9D",
"Z  c #8A7989",
"A  c #916B91",
"S  c #A847A3",
"D  c #A54AA1",
"F  c #AA4CA5",
"G  c #AC51A8",
"H  c #B35BAE",
"J  c #BB4BB3",
"K  c #B356B0",
"L  c #B953B4",
"P  c #BF5BBB",
"I  c #A260A3",
"U  c #AE64AC",
"Y  c #B46AB5",
"T  c #BE62BC",
"R  c #B265B3",
"E  c #B474B0",
"W  c #BA7DBB",
"Q  c #C44FBC",
"!  c #C650BF",
"~  c #C265BE",
"^  c #C074BB",
"/  c #CB5DC5",
"(  c #D555CC",
")  c #CA6EC9",
"_  c #D365CF",
"`  c #CA7DC5",
"'  c #C675C8",
"]  c #CD78CE",
"[  c #D46BD1",
"{  c #DF64D9",
"}  c #DF6DDB",
"|  c #D37BD1",
" . c #D878D7",
".. c #DE75DB",
"X. c #D877D7",
"o. c #E066DB",
"O. c #E26ADE",
"+. c #E56CE1",
"@. c #EE6AE7",
"#. c #E77DE5",
"$. c #E97BE6",
"%. c #EC7EEB",
"&. c #F275ED",
"*. c #F47DF2",
"=. c #B58BB6",
"-. c #B6A1B6",
";. c #B6B6B6",
":. c #D884DA",
">. c #D585D4",
",. c #E38FDF",
"<. c #CBA9C9",
"1. c #E2A2DE",
"2. c #E686E3",
"3. c #EE82EC",
"4. c #E988EB",
"5. c #F386EE",
"6. c #F289EE",
"7. c #E99FEA",
"8. c #E794E7",
"9. c #F583F3",
"0. c #F68CF3",
"q. c #F98BF9",
"w. c #F492F3",
"e. c #F897F7",
"r. c #F39BF1",
"t. c #F89BF7",
"y. c #FB94FD",
"u. c #FC9BFE",
"i. c #EAA4EB",
"p. c #EBA9EC",
"a. c #EABBE9",
"s. c #F6A4F5",
"d. c #F5ADF0",
"f. c #FAA4FB",
"g. c #FDABFD",
"h. c #F8B1F5",
"j. c #F9BAF6",
"k. c #FDB4FE",
"l. c #FDBCFE",
"z. c #DFD7DF",
"x. c gray86",
"c. c #ECDCED",
"v. c #FDC3FE",
"b. c #FDCBFE",
"n. c #F9D1F6",
"m. c #F7DDF7",
"M. c #FED3FF",
"N. c #FEDAFF",
"B. c #EDE3ED",
"V. c gray93",
"C. c #FEE4FF",
"Z. c #FEEBFE",
"A. c #FFF3FF",
"S. c #FFFFFF",
"D. c None",
/* pixels */
"D.D.D.D.D.D.D.D.D.D.D.D.D.D.D.D.D.D.D.D.D.D.D.D.D.D.D.D.D.D.D.D.D.D.D.D.D.D.D.D.D.D.D.D.D.D.D.D.D.D.",
"D.D.D.D.D.D.D.D.D.D.D.D.D.D.D.D.D.D.D.D.D.D.D.D.D.D.D.D.D.D.D.D.D.D.D.D.D.D.D.D.D.D.D.D.D.D.D.D.D.D.",
"D.D.D.D.D.D.D.D.D.D.D.D.D.D.D.D.D.D.l D.D.D.D.D.D.D.D.D.D.D.D.D.D.D.D.D.D.D.D.D.D.D.D.D.D.D.D.D.D.D.",
"D.D.D.D.D.D.D.D.D.D.D.D.D.D.D.D.D.D.I D.D.D.D.D.D.D.D.D.D.D.D.D.D.D.D.D.D.D.D.D.D.D.D.D.D.D.D.D.D.D.",
"D.D.D.D.D.D.D.D.D.D.D.D.D.D.D.D.D.D.) , D.D.D.D.D.D.D.D.D.D.D.D.D.D.D.D.D.D.D.D.D.D.D.D.D.D.D.D.D.D.",
"D.D.D.D.D.D.D.D.D.D.D.D.D.D.D.D.D.D.4.b D.D.D.D.D.D.D.D.D.D.D.D.D.D.D.D.D.D.D.D.D.D.D.D.D.D.D.D.D.D.",
"D.D.D.D.D.D.D.D.D.D.D.D.D.D.D.D.D.D.8.e.D.D.D.D.D.D.D.D.D.D.D.D.D.D.D.D.D.D.D.D.D.D.D.D.D.D.D.D.D.D.",
"D.D.D.D.D.D.D.D.D.D.D.D.D.D.D.D.D.D.p.M.1 D.D.D.D.D.D.D.D.D.D.D.D.D.D.D.D.D.D.D.D.D.D.D.D.D.D.D.D.D.",
"D.D.D.D.D.D.D.D.D.D.D.D.D.D.D.D.D.D.p.M.P o D.D.D.D.D.D.D.D.D.D.D.D.D.D.D.D.D.D.D.D.D.D.D.D.D.D.D.D.",
"D.D.D.D.D.D.D.D.D.D.D.D.D.D.D.D.D.D.i.A.g.# D.D.D.D.D.D.D.D.D.D.D.D.D.D.D.D.D.D.D.D.D.D.D.D.D.D.D.D.",
"D.D.D.D.D.D.D.D.D.D.D.D.D.D.D.D.D.D.E S.k.6   D.D.D.D.D.D.D.D.D.D.D.D.D.D.D.D.D.D.D.D.D.D.D.D.D.D.D.",
"D.D.D.D.D.D.D.D.D.D.D.D.D.D.D.D.D.D.p S.N.|   D.D.D.D.D.D.D.D.D.D.D.D.D.D.D.D.D.D.D.D.D.D.D.D.D.D.D.",
"D.D.D.D.D.D.D.D.D.D.D.D.D.D.D.D.D.D.p S.S.r.0   D.D.D.D.D.D.D.D.D.D.D.D.D.D.D.D.D.D.D.D.D.D.D.D.D.D.",
"D.D.D.D.D.D.D.D.D.D.D.D.D.D.D.D.D.D.p S.S.Z.U . D.D.D.D.D.D.D.D.D.D.D.D.D.D.D.D.D.D.D.D.D.D.D.D.D.D.",
"D.D.D.D.D.D.D.D.D.D.D.D.D.D.D.D.D.D.p S.S.A.q.w   D.D.D.D.D.D.D.D.D.D.D.D.D.D.D.D.D.D.D.D.D.D.D.D.D.",
"D.D.D.D.D.D.D.D.D.D.D.D.D.D.D.D.D.D.p S.S.A.l.a   D.D.D.D.D.D.D.D.D.D.D.D.D.D.D.D.D.D.D.D.D.D.D.D.D.",
"D.D.D.D.& 4 D.D.D.D.D.D.D.D.D.D.D.D.p S.S.S.N.O.$ D.D.D.D.D.D.D.D.D.D.D.D.D.D.D.D.D.D.D.D.D.D.D.D.D.",
"D.D.D.D.  x : D.D.D.D.D.D.D.D.D.D.D.f S.S.S.N.y.-   D.D.D.D.w D.D.D.D.D.D.D.D.D.D.D.D.D.D.D.D.D.D.D.",
"D.D.D.D.  c k . D.D.D.D.D.D.D.D.D.D.8.S.S.S.C.g.-   D.D.D.1 a   D.D.D.D.D.D.D.D.D.D.D.D.D.D.D.D.D.D.",
"D.D.D.D.D.@ T n   D.D.D.D.D.D.D.D.D.p.S.S.S.S.v.L   D.D.D.P a   D.D.D.D.D.D.D.D.D.D.D.D.D.D.D.D.D.D.",
"D.D.D.D.D.  R  .X   D.D.D.D.D.D.D.D.7.A.S.S.S.b.y.  D.D.# 3.5   D.D.D.D.D.D.D.D.D.D.D.D.D.D.D.D.D.D.",
"D.D.D.D.D.D.u s.D O D.D.D.D.D.D.D.D.K v.S.S.S.S.g.% D.D.# Y     D.D.D.D.D.D.D.D.D.D.D.D.D.D.D.D.D.D.",
"D.D.D.D.D.D.+ c.q.e   D.D.D.D.D.D.D.1 v.S.S.S.S.g.~   D.j Y     D.D.D.D.D.D.D.D.D.D.D.D.D.D.D.D.D.D.",
"D.D.D.D.D.D.D.p.v.) # D.D.D.D.D.D.D.1 v.S.S.S.S.C.'   D.>.-.  D.D.D.D.D.D.D.D.D.D.D.D.D.D.D.D.D.D.D.",
"D.D.D.D.D.D.D.~ S.l.{   D.D.D.D.D.D.1 v.S.S.S.S.S.] X o c.;.  D.D.D.D.D.. t %   D.D.D.D.D.D.D.D.D.D.",
"D.D.D.D.D.D.D.D.Z.M.u.* D.D.D.D.D.D.1 v.S.S.S.S.S.q.x G Z.;.  D.D.D.    u 8   D.D.D.D.D.D.D.D.D.D.D.",
"D.D.D.D.D.D.D.D.h.S.N.[ & D.D.D.D.D.1 v.S.S.S.S.S.v.M Y C.=.  D.D.    t Q $   D.D.D.D.D.D.D.D.D.D.D.",
"D.D.D.D.D.D.D.D.Z S.S.y._ %   2 D.D.1 v.S.S.S.S.S.Z...a.C.F D.D.    9 %.@     D.D.D.D.D.D.D.D.D.D.D.",
"D.D.D.D.D.D.D.D.D.b.S.C.f.r   a y.O.i v.S.S.S.S.S.Z.b.S.x.      > d.v.q.    D.D.D.D.D.D.D.D.D.D.D.D.",
"D.D.D.D.D.D.D.D.D.<.S.S.N.w.4 s v.u.9.v.S.S.S.S.S.S.S.S.x.    4 $.b.g.n     D.D.D.D.D.D.D.D.D.D.D.D.",
"D.D.D.D.D.D.D.D.D.A A.S.S.C.[ g S.N.u.v.S.S.S.S.S.S.S.S.x.  4 X.N.n.9.#   D.D.D.D.D.D.D.D.D.D.D.D.D.",
"D.D.D.D.D.D.D.D.D.D.C.S.S.S.m.1.A.S.A.A.S.S.S.S.S.S.S.S.m./ 2.N.S.v.x   D.D.D.D.D.D.D.D.D.D.D.D.D.D.",
"D.D.D.D.D.D.D.D.D.D.0.S.S.S.S.N.M.A.S.S.S.S.S.S.S.S.S.S.v.v.A.S.A. .> D.D.D.D.D.D.D.D.D.D.D.D.D.D.D.",
"D.D.D.D.D.D.D.D.D.D.D.S.S.S.S.S.C.A.S.S.S.S.S.S.S.S.S.S.S.S.S.S.Z.M   D.D.D.D.D.  : y 4 D.D.D.D.D.D.",
"D.D.D.D.D.D.D.D.D.D.D.b.S.S.S.S.S.S.S.S.S.S.S.S.S.S.S.S.S.S.S.A.k.N .     X X S B J 5 D.D.D.D.D.D.D.",
"D.D.D.D.D.D.D.D.D.D.D.k.S.S.S.S.S.S.S.S.S.S.S.S.S.S.S.S.S.S.S.Z.u.#.9 # 7 | :.X.h O D.D.D.D.D.D.D.D.",
"D.D.D.D.D.D.D.D.D.D.D.t.Z.S.S.S.S.S.S.S.S.S.S.S.S.S.S.S.S.S.Z.v.l.l.s.l.N.b.W     D.D.D.D.D.D.D.D.D.",
"D.D.D.D.D.D.D.D.D.D.D.v M.S.S.S.S.S.S.S.S.S.S.S.S.S.S.S.S.S.C.A.S.S.S.b.&.m O D.D.D.D.D.D.D.D.D.D.D.",
"D.D.D.D.J 2   D.D.D.D.1 M.S.S.S.S.S.S.S.S.S.S.S.S.S.S.S.S.S.S.S.S.S.b.&.% X D.D.D.D.D.D.D.D.D.D.D.D.",
"D.D.D.D.D.( { ; % D.  % ..C.S.S.S.S.S.S.S.S.S.S.S.S.S.S.S.S.S.S.S.S.v.< % % L @.@.9.0.k D.D.D.D.D.D.",
"D.D.D.D.D., [ &.6.C 8   c N.S.S.S.S.S.S.S.S.S.S.S.S.S.S.S.S.S.S.S.S.N.9.&.&.q.v.f.*.l D.D.D.D.D.D.D.",
"D.D.D.D.D.D.> +.w.v.0.z Q n.S.S.S.S.S.S.S.S.S.S.S.S.S.S.S.S.S.S.S.S.S.f.N.N.N.A.U 4 D.D.D.D.D.D.D.D.",
"D.D.D.D.D.D.D.O 9 #.N.b.5.e.S.S.S.S.S.S.S.S.S.S.S.S.S.S.S.S.S.S.S.S.S.A.S.S.Z.H X D.D.D.D.D.D.D.D.D.",
"D.D.D.D.D.D.D.D.  9 3.f.Z.v.S.S.S.S.S.S.S.S.S.S.S.S.S.S.S.S.S.S.S.S.S.S.n.n.^ . D.D.D.D.D.D.D.D.D.D.",
"D.D.D.D.D.D.D.D.D.  8 m r.d.b.b.Z.S.S.S.S.S.S.S.S.S.S.S.S.S.S.A.b.b.j.d.t t D.D.D.D.D.D.D.D.D.D.D.D.",
"D.D.D.D.D.D.D.D.D.D.D.X ; ; 1 1 3 ` ,.p.p.B.V.V.V.V.V.V.V.c.p.i.} { j :   D.D.D.D.D.D.D.D.D.D.D.D.D.",
"D.D.D.D.D.D.D.D.D.D.D.D.D.        O # # # = = = = = = = = = # # @ @ . D.D.D.D.D.D.D.D.D.D.D.D.D.D.D.",
"D.D.D.D.D.D.D.D.D.D.D.D.D.D.D.D.                                D.D.D.D.D.D.D.D.D.D.D.D.D.D.D.D.D.D.",
"D.D.D.D.D.D.D.D.D.D.D.D.D.D.D.D.D.D.D.D.D.D.D.              D.D.D.D.D.D.D.D.D.D.D.D.D.D.D.D.D.D.D.D.",
"D.D.D.D.D.D.D.D.D.D.D.D.D.D.D.D.D.D.D.D.D.D.D.D.D.D.D.D.D.D.D.D.D.D.D.D.D.D.D.D.D.D.D.D.D.D.D.D.D.D."
};
