/* XPM */
static char *result[] = {
/* columns rows colors chars-per-pixel */
"50 50 170 2 ",
"   c #000000",
".  c #070209",
"X  c #0B050C",
"o  c #10060F",
"O  c #0D0413",
"+  c #0F0910",
"@  c #110612",
"#  c #130A13",
"$  c #180A17",
"%  c #13061B",
"&  c #1D0C1C",
"*  c #1F121F",
"=  c #170721",
"-  c #1A0724",
";  c #1A0825",
":  c #250E24",
">  c #20092E",
",  c #241424",
"<  c #281027",
"1  c #2B1129",
"2  c #2E1B2F",
"3  c #30132E",
"4  c #260B35",
"5  c #270B38",
"6  c #2A0C3B",
"7  c #391737",
"8  c #341D34",
"9  c #3E1A3C",
"0  c #362036",
"q  c #3E253E",
"w  c #401D3E",
"e  c #2D0D40",
"r  c #310E46",
"t  c #340F49",
"y  c #36104D",
"u  c #38104F",
"i  c #3B1154",
"p  c #3E1259",
"a  c #431B40",
"s  c #481D45",
"d  c #4C1F4A",
"f  c #41135D",
"g  c #472646",
"h  c #4F204C",
"j  c #4B2D4C",
"k  c #432843",
"l  c #52224F",
"z  c #542351",
"x  c #582B56",
"c  c #553256",
"v  c #5B355C",
"b  c #60265C",
"n  c #61295E",
"m  c #451462",
"M  c #481567",
"N  c #4C166C",
"B  c #4F1771",
"V  c #511773",
"C  c #531876",
"Z  c #56197B",
"A  c #642860",
"S  c #6C2B67",
"D  c #6D2D6A",
"F  c #673766",
"G  c #693668",
"H  c #673D68",
"J  c #6A3B6A",
"K  c #773073",
"L  c #753D74",
"P  c #783E77",
"I  c #7C3277",
"U  c #6C406D",
"Y  c #714372",
"T  c #744D75",
"R  c #7D417C",
"E  c #7C527D",
"W  c #81347C",
"Q  c #863681",
"!  c #863B82",
"~  c #8C3D88",
"^  c #963D91",
"/  c #9A3E94",
"(  c #9E3F98",
")  c #814C82",
"_  c #8C4B8B",
"`  c #90478E",
"'  c #8D548F",
"]  c #8B5B8C",
"[  c #9B4C98",
"{  c #9B4396",
"}  c #915492",
"|  c #955896",
" . c #9B5B9C",
".. c #A1499D",
"X. c #A743A1",
"o. c #AA46A4",
"O. c #A549A1",
"+. c #AE46A8",
"@. c #AE4DA9",
"#. c #B44BAE",
"$. c #B147AA",
"%. c #A759A6",
"&. c #B451AF",
"*. c #BA4BB3",
"=. c #BF4DB8",
"-. c #B555B1",
";. c #B85FB6",
":. c #BE56B9",
">. c #BF5ABB",
",. c #AF61AF",
"<. c #A876A9",
"1. c #B46BB5",
"2. c #BF6BBF",
"3. c #BB67BB",
"4. c #AF79B1",
"5. c #C44FBC",
"6. c #C35ABF",
"7. c #BF7BC0",
"8. c #C655C0",
"9. c #CA52C2",
"0. c #C85CC4",
"q. c #C55FC1",
"w. c #D455CB",
"e. c #D957D1",
"r. c #E15CD9",
"t. c #C960C5",
"y. c #CE65CB",
"u. c #D762D1",
"i. c #DE60D7",
"p. c #D66AD2",
"a. c #DE67D9",
"s. c #DE6BDA",
"d. c #D374D3",
"f. c #D67BD6",
"g. c #DA7ADA",
"h. c #E26DDE",
"j. c #E074DE",
"k. c #EA5EE1",
"l. c #ED66E5",
"z. c #ED68E6",
"x. c #EF6EE9",
"c. c #E677E3",
"v. c #E37EE2",
"b. c #EC7BE9",
"n. c #F174ED",
"m. c #F379EF",
"M. c #F47DF2",
"N. c #BF8AC0",
"B. c #CE86D0",
"V. c #DA80DB",
"C. c #E783E8",
"Z. c #EC8AED",
"A. c #E485E5",
"S. c #EF8DF1",
"D. c #F785F6",
"F. c #F18BF2",
"G. c #F888F7",
"H. c #F98DFA",
"J. c #FC94FD",
"K. c #EBA9EC",
"L. c #FDB3FE",
"P. c #F4D2F4",
"I. c #F6DBF7",
"U. c #FED4FF",
"Y. c #FEDFFF",
"T. c #FEE2FF",
"R. c #FFEDFF",
"E. c #FFF2FF",
"W. c #FFFFFF",
"Q. c None",
/* pixels */
"Q.Q.Q.Q.Q.Q.Q.Q.Q.Q.Q.Q.Q.Q.Q.Q.Q.Q.Q.Q.Q.Q.Q.Q.Q.Q.Q.Q.Q.Q.Q.Q.Q.Q.Q.Q.Q.Q.Q.Q.Q.Q.Q.Q.Q.Q.Q.Q.Q.Q.",
"Q.Q.Q.Q.Q.Q.Q.Q.Q.Q.Q.Q.Q.Q.Q.Q.Q.Q.Q.Q.Q.Q.Q.Q.Q.Q.Q.Q.Q.Q.Q.Q.Q.Q.Q.Q.Q.Q.Q.Q.Q.Q.Q.Q.Q.Q.Q.Q.Q.Q.",
"Q.Q.Q.Q.Q.Q.Q.Q.Q.Q.Q.Q.Q.Q.Q.    X ( t.D.{ Q.Q.Q.Q.Q.Q.Q.Q.Q.Q.Q.Q.Q.Q.Q.Q.Q.Q.Q.Q.Q.Q.Q.Q.Q.Q.Q.Q.",
"Q.Q.Q.Q.Q.Q.Q.Q.Q.Q.Q.Q.Q.Q.Q.X : ^ d.f.F.f.Q.Q.Q.Q.Q.Q.Q.Q.Q.Q.Q.Q.Q.Q.Q.Q.Q.Q.Q.Q.Q.Q.Q.Q.Q.Q.Q.Q.",
"Q.Q.Q.Q.Q.Q.Q.Q.Q.Q.Q.Q.Q.Q.Q.D ..$   & :.f.Q.Q.Q.Q.Q.Q.Q.Q.Q.Q.Q.Q.Q.Q.Q.Q.Q.Q.Q.Q.Q.Q.Q.Q.Q.Q.Q.Q.",
"Q.Q.Q.Q.Q.Q.Q.Q.Q.Q.Q.Q.Q.Q.Q.7       G H.Y Q.Q.Q.Q.Q.Q.Q.Q.Q.Q.Q.Q.Q.Q.Q.Q.Q.Q.Q.Q.Q.Q.Q.Q.Q.Q.Q.Q.",
"Q.Q.Q.Q.Q.Q.Q.Q.Q.Q.Q.Q.Q.Q.Q.Q.Q.Q.3 y.F.Q.Q.Q.Q.Q.Q.Q.Q.Q.Q.Q.Q.Q.Q.Q.Q.Q.Q.Q.Q.Q.Q.Q.Q.Q.Q.Q.Q.Q.",
"Q.Q.Q.Q.Q.Q.Q.Q.Q.Q.Q.Q.Q.Q.Q.Q.Q.Q.a m.c   Q.Q.Q.Q.Q.Q.Q.Q.Q.Q.Q.Q.Q.Q.Q.Q.Q.Q.Q.Q.Q.Q.Q.Q.Q.Q.Q.Q.",
"Q.Q.Q.Q.Q.Q.Q.Q.Q.Q.Q.Q.Q.Q.Q.Q.Q.Q.: ;.` X Q.Q.Q.Q.Q.Q.Q.Q.Q.Q.Q.Q.Q.Q.Q.Q.Q.Q.Q.Q.Q.Q.Q.Q.Q.Q.Q.Q.",
"Q.Q.Q.Q.Q.Q.Q.Q.Q.Q.Q.Q.Q.Q.Q.Q.Q.Q.Q.8 8.W   Q.Q.Q.Q.Q.Q.Q.Q.Q.Q.Q.Q.Q.Q.Q.Q.Q.Q.Q.Q.Q.Q.Q.Q.Q.Q.Q.",
"Q.Q.Q.Q.Q.Q.Q.Q.Q.Q.Q.Q.Q.Q.Q.Q.Q.Q.Q.  $ 9.Q.Q.Q.Q.Q.Q.Q.Q.Q.Q.Q.Q.Q.Q.Q.Q.Q.Q.Q.Q.Q.Q.Q.Q.Q.Q.Q.Q.",
"Q.Q.Q.Q.Q.Q.Q.Q.Q.Q.Q.Q.Q.Q.Q.Q.Q.Q.Q.& *.^ Q.Q.Q.Q.Q.Q.Q.Q.Q.Q.Q.Q.Q.Q.Q.Q.Q.Q.Q.Q.Q.Q.Q.Q.Q.Q.Q.Q.",
"Q.Q.Q.Q.Q.Q.Q.Q.Q.Q.Q.Q.Q.Q.Q.Q.Q.Q.Q.-.M., Q.Q.Q.Q.Q.Q.Q.Q.Q.Q.Q.Q.Q.Q.Q.Q.Q.Q.Q.Q.Q.Q.Q.Q.Q.Q.Q.Q.",
"Q.Q.Q.Q.Q.Q.Q.Q.Q.Q.Q.Q.Q.Q.Q.Q.Q.Q.g M.P Q.Q.Q.Q.Q.Q.Q.Q.Q.Q.Q.Q.    Q.Q.Q.Q.Q.Q.Q.Q.Q.Q.Q.Q.Q.Q.Q.",
"Q.Q.Q.Q.X.Q.Q.Q.Q.Q.Q.Q.Q.Q.Q.Q.Q.Q.h.}   Q.Q.Q.Q.Q.Q.Q.Q.Q.Q.< i.z.z.z.$ Q.Q.Q.Q.Q.Q.Q.Q.Q.Q.Q.Q.Q.",
"Q.Q.Q.: 5.1   Q.Q.Q.Q.Q.Q.Q.Q.Q.Q.Q.Z.3.&   Q.Q.Q.Q.Q.Q.Q.Q.7 t.Z.' } S.@.  Q.Q.Q.Q.Q.Q.Q.Q.Q.Q.Q.Q.",
"Q.Q.Q.Q.k.$.< Q.Q.Q.Q.Q.Q.Q.Q.Q.Q.Q.' H.O.# Q.Q.Q.Q.Q.Q.Q.< q.F.H     v j   Q.Q.Q.Q.Q.Q.Q.Q.Q.Q.Q.Q.",
"Q.Q.Q.Q.x F.x   Q.Q.  9.n Q.Q.Q.Q.Q.k F.H.&.  Q.Q.Q.Q.Q.Q.u.F.v   Q.Q.Q.Q.Q.Q.Q.Q.Q.Q.Q.Q.Q.Q.Q.Q.Q.",
"Q.Q.Q.Q.. | d.# Q.Q.7 J.b.w Q.Q.Q.Q.Q.z j.v.1 Q.Q.Q.Q.Q.Q.:.[ $ Q.Q.Q.Q.Q.Q.Q.Q.Q.Q.Q.Q.Q.Q.Q.Q.Q.Q.",
"Q.Q.Q.Q.Q.} S.n     y.J.J.`   Q.Q.Q.Q.Q.b h.^   Q.Q.Q.Q.Q., 6.! Q.Q.Q.Q.Q.Q.  S A Q.Q.Q.Q.Q.Q.Q.Q.Q.",
"Q.Q.Q.Q.Q.~ G.d.    V.J.J.x.  Q.Q.Q.Q.Q.  l w.s Q.Q.Q.Q.Q.  } a.Q.Q.Q.Q.Q.Q.K D.D.t.$     Q.Q.Q.Q.Q.",
"Q.Q.Q.Q.Q.Q.b.V.@   V., ! r.o.  Q.Q.Q.Q.Q.& w.A Q.Q.Q.Q.Q.l c.q.Q.Q.Q.Q.Q.W 9., Y h.9.=.X.X.@.Q.Q.Q.",
"Q.Q.Q.Q.Q.Q.O.H.@.z A.    S 9.    Q.Q.Q.Q.  z n Q.Q.Q.Q.Q.z.6.1 Q.Q.Q.Q.a *.1     z ^ S     | [ Q.Q.",
"Q.Q.Q.Q.Q.Q.z F.H.M.J.      9.    Q.Q.Q.Q.Q.z A   Q.Q.Q.W 5.1 Q.Q.Q.Q.Q.a A                 @ L 7 Q.",
"Q.Q.Q.Q.Q.Q.Q.h.J.J.J.      9.l l   Q.Q.Q.Q.@ $     Q.  +.: Q.Q.Q.Q.Q.  X $                   x J   ",
"Q.Q.Q.Q.Q.Q.Q., H.J.J.Q.Q.  {       X &                 X.  Q.Q.Q.Q.  1 k.A                 . G c   ",
"Q.Q.Q.Q.Q.Q.Q.@ -.D. .Q.Q.Q.        < h   v J U U       b   Q.Q.Q.  7 a.9.7                 x z     ",
"Q.Q.Q.Q.Q.Q.Q.Q.& a X Q.Q.Q.Q.Q.        ) P.T.T.T.'         Q.Q.Q.s p.n.3                 K s     Q.",
"Q.Q.Q.Q.Q.Q.Q.Q.Q.Q.Q.Q.Q.Q.Q.Q.    X T P.W.W.W.W.I.] X         : R n.7             & $ s s .   Q.Q.",
"Q.Q.Q.Q.Q.Q.Q.Q.Q.Q.Q.Q.Q.Q.Q.Q.  . T U.W.W.W.W.W.W.T.E X     @ e.9.X.$             9.X.    Q.Q.Q.Q.",
"Q.Q.Q.Q.Q.Q.Q.Q.Q.Q.Q.Q.Q.Q.Q.    # K.W.W.W.W.W.W.W.W.L.,     @ e.Q                 x 5.d   Q.Q.Q.Q.",
"Q.Q.Q.Q.Q.  G Q.Q.Q.Q.Q.Q.Q.Q.    @ K.W.W.W.W.W.W.W.W.L.,     o $.1                 @ b.p.3 Q.Q.Q.Q.",
"Q.Q.Q.Q.Q.  ,.Q.Q.Q.Q.Q.Q.Q.Q.    # K.W.W.W.W.W.W.W.W.L.,       O ; @               1 Z.m.a Q.Q.Q.Q.",
"$ ..n.O.t.n 3.+ Q.Q.Q.Q.Q.Q.      X <.T.W.W.W.W.W.W.R.4.$       O m %           1 A s.D.=.Q.Q.Q.Q.Q.",
"8 G.| * } m._ X     5 Q.Q.Q.        * 4.R.W.W.W.W.E.N.*         e e X         Q -.M.F.L Q.Q.Q.Q.Q.Q.",
"8 J.j   X , X       . C > Q.          + 2.W.W.W.W.B.$         y V ;     5 % ~ H.J.) , Q.Q.Q.Q.Q.Q.Q.",
"Q.f.P .               X 5 %         X      .1.1.1.        . p Z i %   O >   )  .    Q.Q.Q.Q.Q.Q.Q.Q.",
"Q.2 6.W                 O 5 %       4 O                   = Z t     @ 6 O         Q.Q.Q.Q.Q.Q.Q.Q.Q.",
"Q.Q.3 9.X.X.3             X 6 4 O . 5 5 X               X m y X     e N Q.        Q.Q.Q.Q.Q.Q.Q.Q.Q.",
"Q.Q.Q.&.H.J.0.o % 6 O       . 6 =   O 6 =         O ;   m B ;     e Z Q.Q.  $ z.!   Q.    $ Q.Q.Q.Q.",
"Q.Q.Q.Q.O.-.<     O 5 % X     % 6 = O % p 4   O % e ;   4 % O % 6 Z f Q.Q.7 t.J.}       1 I Q.Q.Q.Q.",
"Q.Q.Q.Q.Q.1         i m e 6 r 5 4 e 5 = y B 5 4 f e ;   ; . 4 p Z f Q.Q.Q.` J.J L Q Q Q K & Q.Q.Q.Q.",
"Q.Q.Q.Q.Q.Q.  4 ; . O O e C C V B V V N C Z Z V Z 4 5 M m O f C M X Q.Q.Q.! H.  X } C.,.# Q.Q.Q.Q.Q.",
"Q.Q.Q.Q.Q.Q.Q.O m f y O % 5 r i N N Z m m Z Z Z Z p B u e e e 4 Q.Q.Q.Q.Q.Q D.7   Q.Q.Q.Q.Q.Q.Q.Q.Q.",
"Q.Q.Q.Q.Q.Q.Q.Q.Q.Q.r ; 4 6 e e e e m i 6 f Z N m m i 6 e 5 ; Q.Q.Q.Q.Q.Q.d g.y.  Q.Q.Q.Q.Q.Q.Q.Q.Q.",
"Q.Q.Q.Q.Q.Q.Q.Q.Q.Q.Q.Q.. O O ; e e e e r r i r e e e e 5 X Q.Q.Q.Q.Q.Q.Q.Q.8 q Q.Q.Q.Q.Q.Q.Q.Q.Q.Q.",
"Q.Q.Q.Q.Q.Q.Q.Q.Q.Q.Q.Q.Q.Q.Q.Q.. . @ 5 5 5 5 5 5 . . . Q.Q.Q.Q.Q.Q.Q.Q.Q.Q.Q.Q.Q.Q.Q.Q.Q.Q.Q.Q.Q.Q.",
"Q.Q.Q.Q.Q.Q.Q.Q.Q.Q.Q.Q.Q.Q.Q.Q.Q.Q.Q.Q.            Q.Q.Q.Q.Q.Q.Q.Q.Q.Q.Q.Q.Q.Q.Q.Q.Q.Q.Q.Q.Q.Q.Q.Q.",
"Q.Q.Q.Q.Q.Q.Q.Q.Q.Q.Q.Q.Q.Q.Q.Q.Q.Q.Q.Q.Q.Q.Q.Q.Q.Q.Q.Q.Q.Q.Q.Q.Q.Q.Q.Q.Q.Q.Q.Q.Q.Q.Q.Q.Q.Q.Q.Q.Q.Q.",
"Q.Q.Q.Q.Q.Q.Q.Q.Q.Q.Q.Q.Q.Q.Q.Q.Q.Q.Q.Q.Q.Q.Q.Q.Q.Q.Q.Q.Q.Q.Q.Q.Q.Q.Q.Q.Q.Q.Q.Q.Q.Q.Q.Q.Q.Q.Q.Q.Q.Q."
};
