/* XPM */
static char *result[] = {
/* columns rows colors chars-per-pixel */
"50 50 155 2 ",
"   c #000000",
".  c #060209",
"X  c #0A040C",
"o  c #0D080D",
"O  c #0D0412",
"+  c #0F0910",
"@  c #100614",
"#  c #150B15",
"$  c #14061C",
"%  c #1D0D1C",
"&  c #1E121E",
"*  c #170721",
"=  c #190724",
"-  c #1B0826",
";  c #1E092A",
":  c #230E22",
">  c #20092E",
",  c #231323",
"<  c #2C122A",
"1  c #2A192B",
"2  c #30132E",
"3  c #250B34",
"4  c #270B38",
"5  c #2A0C3B",
"6  c #331531",
"7  c #391737",
"8  c #331E34",
"9  c #362036",
"0  c #3E253E",
"q  c #2D0D40",
"w  c #310E45",
"e  c #340F4A",
"r  c #37104E",
"t  c #38104F",
"y  c #3B1154",
"u  c #3F1259",
"i  c #3F2540",
"p  c #431B40",
"a  c #481D45",
"s  c #42135E",
"d  c #462545",
"f  c #4F204C",
"g  c #492C4A",
"h  c #51214E",
"j  c #562353",
"k  c #582856",
"l  c #5B2759",
"z  c #512A5A",
"x  c #513052",
"c  c #5D375D",
"v  c #583858",
"b  c #60265C",
"n  c #461464",
"m  c #481566",
"M  c #4C166C",
"N  c #4F1770",
"B  c #511773",
"V  c #531876",
"C  c #56197B",
"Z  c #652A61",
"A  c #692A65",
"S  c #602E6F",
"D  c #6E2C6A",
"F  c #732E6E",
"G  c #633262",
"H  c #623A62",
"J  c #6F306C",
"K  c #673D68",
"L  c #773073",
"P  c #7B3376",
"I  c #703E70",
"U  c #7A3877",
"Y  c #7F337A",
"T  c #6C406D",
"R  c #6F4870",
"E  c #724372",
"W  c #7A477C",
"Q  c #82357D",
"!  c #863681",
"~  c #863C82",
"^  c #8E3B89",
"/  c #963C91",
"(  c #9A3E94",
")  c #9E3F98",
"_  c #844E85",
"`  c #8C488A",
"'  c #9B4497",
"]  c #915592",
"[  c #955896",
"{  c #9A5B9C",
"}  c #A5429F",
"|  c #A743A1",
" . c #AB45A4",
".. c #A94BA4",
"X. c #AF4BAA",
"o. c #B549AF",
"O. c #A55BA5",
"+. c #AD54AA",
"@. c #B250AD",
"#. c #BA4DB4",
"$. c #BF4DB8",
"%. c #B05FB0",
"&. c #A460A5",
"*. c #A763A8",
"=. c #AA64AB",
"-. c #B063B0",
";. c #B46BB5",
":. c #B86DB9",
">. c #C44FBC",
",. c #C650BF",
"<. c #BE71C0",
"1. c #CA52C3",
"2. c #CB59C5",
"3. c #CE5BC8",
"4. c #D053C8",
"5. c #C960C5",
"6. c #C868C6",
"7. c #CE64CA",
"8. c #D363CE",
"9. c #C977CA",
"0. c #CE7ACF",
"q. c #DC60D6",
"w. c #D569D1",
"e. c #DD6EDA",
"r. c #C971D4",
"t. c #D47CD5",
"y. c #D67CDB",
"u. c #DE79DD",
"i. c #E06CDC",
"p. c #EC64E4",
"a. c #EB6AE5",
"s. c #EF6EE9",
"d. c #ED7CEB",
"f. c #F174ED",
"g. c #F37AF0",
"h. c #C185C3",
"j. c #D880DA",
"k. c #E185E3",
"l. c #E786E8",
"z. c #E789E9",
"x. c #ED8CEE",
"c. c #E19EE2",
"v. c #F583F4",
"b. c #F48EF5",
"n. c #F888F7",
"m. c #F98CF9",
"M. c #F792F9",
"N. c #FC95FE",
"B. c #FDB3FE",
"V. c #EEC6EF",
"C. c #FEDBFF",
"Z. c #FCE9FC",
"A. c #FFF0FF",
"S. c #FFFEFF",
"D. c None",
/* pixels */
"D.D.D.D.D.D.D.D.D.D.D.D.D.D.D.D.D.D.D.D.D.D.D.D.D.D.D.D.D.D.D.D.D.D.D.D.D.D.D.D.D.D.D.D.D.D.D.D.D.D.",
"D.D.D.D.D.D.D.D.D.D.    D.D.D.    D.D.D.D.D.D.D.D.D.D.D.D.D.D.D.D.D.D.D.D.D.D.D.D.D.D.D.D.D.D.D.D.D.",
"D.D.D.D.D.D.D.D.D.D.  D.D.D.D.    D.D.D.D.D.D.D.D.D.D.D.D.D.D.D.D.D.D.D.D.D.D.D.D.D.D.D.D.D.D.D.D.D.",
"D.D.D.D.D.D.D.D.D.D.  D.D.D.D., D.D.D.D.D.D.D.D.D.D.D.D.D.D.D.D.D.D.D.D.D.D.D.D.D.D.D.D.D.D.D.D.D.D.",
"D.D.D.D.D.D.D.D.D.D.    D.D.D.D.D.D.D.D.    D.D.D.D.D.D.D.D.D.D.D.D.D.D.D.D.D.D.D.D.D.D.D.D.D.D.D.D.",
"D.D.D.D.D.D.D.D.D.D.D.  D.D.D.D.D.D.D.D.    D.D.D.D.D.D.D.D.D.D.D.D.D.D.D.D.D.D.D.D.D.D.D.D.D.D.D.D.",
"D.D.D.D.D.D.D.D.D.D.D.    D.D.D.D.D.D.D.D.+   D.D.D.D.D.D.D.D.D.D.D.D.D.D.D.D.D.D.D.D.D.D.D.D.D.D.D.",
"D.D.D.D.D.D.D.D.D.D.D.            D.D.D.D.D.#   D.D.D.D.D.D.D.D.D.D.D.D.D.D.D.D.D.D.D.D.D.D.D.D.D.D.",
"D.D.D.D.D.D.D.D.D.D.D.D.              D.D.D.&.  D.D.D.D.D.D.D.D.D.D.D.D.D.D.D.D.D.D.D.D.D.D.D.D.D.D.",
"D.D.D.D.D.D.D.# ` ! !                   D.D.D.] , D.D.D.D.D.D.D.D.D.D.D.D.D.D.D.D.D.D.D.D.D.D.D.D.D.",
"D.D.D.D.D.D.# 0.{ : 1.{ D.                D.D.N.9 D.D.D.D.D.D.D.D.D.D.D.D.D.D.D.D.D.D.D.D.D.D.D.D.D.",
"D.D.D.D.D., o. .b   ^ |                   D.D.D.9   D.D.D.D.D.D.D.D.D.D.D.D.D.D.D.D.D.D.D.D.D.D.D.D.",
"D.D.D.D.  ! Q .       1.7                 D.D.D.9     D.D.D.D.. _ <.N.v.w.7 D.D.D.D.D.D.D.D.D.D.D.D.",
"D.D.D.D.8 8.p         g.Z                 D.D.D.+       D.D.  _ M.N.[ g N.5.2 D.D.D.D.D.D.D.D.D.D.D.",
"D.D.D.. H e.7         u.p.p             D.D.D.D.          D.] m.X.      g g.l   D.D.D.D.D.D.D.D.D.D.",
"D.D.D., N.T           1 6.^ j         D.D.D.D.D.            ` q.@       1 0.s.j D.D.D.D.D.D.D.D.D.D.",
"D.D.D., N.T             i G j       D.D.D.D.D.D.            ! Q . D.D.D.  ] s.1.  D.D.D.D.D.D.D.D.D.",
"D.D.D.. H z.i       =.              D.D.D.D.D.D.          D.D.D.D.D.D.D.  ] f.< K y.t.#.A D.D.D.D.D.",
"D.D.D.D.d n.d       # # &           D.D.D.D.D.          D.D.D.D.D.D.D.D.  K l.i.b.m...% . D.D.D.D.D.",
"D.D.D.D.: >.Q . D.D.D.D.D.D.D.D.  D.D.D.D.D.D.        D.D.D.D.D.D.D.D.D.D.  K N.N.f.:   8 T c D.D.D.",
"D.D.D.D.  :  .@ D.D.D.D.D.D.D.D.D.D.D.D.D.D.D.D.  D.D.D.D.D.D.D.D.D.D.D.D.  L g g d ^ X T N.b.E D.D.",
"D.D.D.X.L   #   D.D.D.D.D.D.D.D.D.D.D.D.D.D.D.D.D.D.D.D.D.D.D.D.D.D.D.D.D.Q h       : ) J ' 2.7.E D.",
"D.D.;.{         D.D.D.D.D.D.D.D.D.D.D.D.D.D.D.D.D.D.D.D.D.D.D.D.D.D.D.D.< ,.Y           D.D.  7 7.D.",
"D.D.+.,           D.D.D.D.D.D.D.D.D.D.D.D.D.D.D.D.D.D.D.D.D.D.D.D.D.D.D.  7 >.F         D.D.D.  7 Y ",
"D.D.| :     L X     D.D.D.D.D.D.D.D.D.D.D.D.D.D.D.D.D.D.D.D.D.D.D.D.D.D.    : 1.          D.D.D.D.f ",
"D.D.D.D.D.  ( 7       D.D.D.D.D.D.D.D.D.D.D.D.D.D.D.D.D.D.D.D.D.D.D.D.D.      } 6 6 .     D.D.D.D.D.",
"D.D.D.D.D.  Z 4.b <   D.D.D.D.D.D.D.D.D.D.D.D.D.D.D.D.D.D.D.D.D.D.D.D.D.      # ! ! I g     D.D.D.D.",
"D.D.D.D.D.D.. k g.Z   D.D.D.D.D.D.D.D.D.D.D.D.D.D.D.D.D.D.D.D.D.D.D.D.{ _           0 G | %.{ D.D.D.",
"D.D.D.D.D.D.D.. U b     D.D.D.D.D.D.D.D.D.. , , .   D.D.D.D.D.D.D.D.D.M.{             . : ' t.[ D.D.",
"D.D.D.D.D.D.D.  T T     D.D.D.D.D.D.D.D.  v B.B.R     D.D.D.D.D.D.D.K r.- X                 , e.D.D.",
"D.D.D.# D.D.D.  T T     D.D.D.D.D.D.D.D.K V.S.S.C.E     D.D.D.D.D.    M C s O               : / D.D.",
"D.D.o &.N.t.0 & t.9.&     D.D.D.D.D.D.  *.Z.S.S.S.:.    D.D.D.D.    3 B y m *             X O./ D.D.",
"D.  O.a.j.x.k.x N.W X ;   D.D.D.D.D.D.  o h.A.A.c.o     D.D.D.D.  . r C q = O X       . , -.3.D.D.D.",
"D.  | 1.  ] N.N.y.S y 5       D.D.        # ] ] &       D.D.D.    3 C M q 5 M M O   . ~ n.s.: D.D.D.",
"D.7 D j   0 t.z.z y V r - .                             D.D.    . s C e ; m C M X   P d.N.v., D.D.D.",
"  o .       & , $ n C q q 4     $ 4 4 *                         4 s s O N C u 5   F v.a.p.n.<.  D.D.",
"                - n C y y 5 4 3 B m 3 5 =                   . r 5 M - $ C y 3       Q X   L d.@.D.D.",
"D.0 1         . 5 r s 5 O O 5 5 e y O $ $         w ;       X $ O e   M M ; .               2.v.Z D.",
"D.T g           O O 4 >     * M y M .           = C M u u 5   . y >   w r $                 1.@.% D.",
"D.  { &         . > 4       C C y w u O X       . q w M C V 4 O 4 ; ; q -         # %       >.Q D.D.",
"D.D.        - 3 y m X     - C y q w N n e .   O 4 q t B e y u y 5 4 t q       D.D.D.D..     |   D.D.",
"D.D.D.    - y s C C e 3   - 4 q q q y q -     O $ q 3 > 3 M M e q q q $       D.D.D.D.D.D.  a D.D.D.",
"D.D.D.D.$ V y r m e e B 3   . 4 4 q q q O     * 4 y . = w V u w q 5 s w -     D.D.D.D.D.D.D.D.D.D.D.",
"D.D.D.D.D.u M y 4 @ - r m ; O O . 4 u q * O X ; e . O @ ; q = e ; $ 5 M =     D.D.D.D.D.D.D.D.D.D.D.",
"D.D.D.D.D.D.D.N 3 $   - - - - O   * - 5 u q O   @ = q q X $ O =     - s       D.D.D.D.D.D.D.D.D.D.D.",
"D.D.D.D.D.D.D.D.D.O                   X = u ; D.D.q > O           O 4 $     D.D.D.D.D.D.D.D.D.D.D.D.",
"D.D.D.D.D.D.D.D.D.D.D.D.D.D.D.D.D.D.D.D.D.D.D.D.D.D.D.D.D.D.D.D.D.D.D.D.D.D.D.D.D.D.D.D.D.D.D.D.D.D.",
"D.D.D.D.D.D.D.D.D.D.D.D.D.D.D.D.D.D.D.D.D.D.D.D.D.D.D.D.D.D.D.D.D.D.D.D.D.D.D.D.D.D.D.D.D.D.D.D.D.D.",
"D.D.D.D.D.D.D.D.D.D.D.D.D.D.D.D.D.D.D.D.D.D.D.D.D.D.D.D.D.D.D.D.D.D.D.D.D.D.D.D.D.D.D.D.D.D.D.D.D.D.",
"D.D.D.D.D.D.D.D.D.D.D.D.D.D.D.D.D.D.D.D.D.D.D.D.D.D.D.D.D.D.D.D.D.D.D.D.D.D.D.D.D.D.D.D.D.D.D.D.D.D."
};
