/* XPM */
static char *result[] = {
/* columns rows colors chars-per-pixel */
"50 50 171 2 ",
"   c #000000",
".  c #070209",
"X  c #0B050C",
"o  c #0D080D",
"O  c #10060F",
"+  c #0D0413",
"@  c #0F0910",
"#  c #110612",
"$  c #130A13",
"%  c #180A17",
"&  c #13061B",
"*  c #1D0C1C",
"=  c #1F121F",
"-  c #170721",
";  c #1A0724",
":  c #1A0825",
">  c #240E23",
",  c #20092E",
"<  c #241424",
"1  c #281027",
"2  c #2B1129",
"3  c #2E1B2F",
"4  c #30132E",
"5  c #250B35",
"6  c #270B38",
"7  c #2A0C3B",
"8  c #391737",
"9  c #371C37",
"0  c #362036",
"q  c #3E253E",
"w  c #401D3E",
"e  c #2D0D40",
"r  c #310E46",
"t  c #340F49",
"y  c #36104D",
"u  c #38104F",
"i  c #3B1154",
"p  c #3E1259",
"a  c #431B40",
"s  c #481D45",
"d  c #4C1F4A",
"f  c #41135D",
"g  c #472646",
"h  c #4F204C",
"j  c #4B2D4C",
"k  c #432843",
"l  c #52224F",
"z  c #542351",
"x  c #5A2F59",
"c  c #572955",
"v  c #553256",
"b  c #5B355C",
"n  c #60265C",
"m  c #61295E",
"M  c #451462",
"N  c #481567",
"B  c #4C166C",
"V  c #4F1771",
"C  c #511773",
"Z  c #531876",
"A  c #56197B",
"S  c #642860",
"D  c #6C2B67",
"F  c #6D2D6A",
"G  c #732E6E",
"H  c #673766",
"J  c #693668",
"K  c #673D68",
"L  c #6A3B6A",
"P  c #773073",
"I  c #753D74",
"U  c #783E77",
"Y  c #7C3277",
"T  c #6C406D",
"R  c #714372",
"E  c #744D75",
"W  c #7D417C",
"Q  c #7C527D",
"!  c #81347C",
"~  c #863681",
"^  c #863B82",
"/  c #893F85",
"(  c #8F3A8A",
")  c #963D91",
"_  c #9A3E94",
"`  c #9E3F98",
"'  c #814C82",
"]  c #8C4B8B",
"[  c #90478E",
"{  c #8D548F",
"}  c #8B5B8C",
"|  c #9B4C98",
" . c #9B4396",
".. c #915492",
"X. c #955896",
"o. c #9B5B9C",
"O. c #A1499D",
"+. c #A743A1",
"@. c #AA46A4",
"#. c #A549A1",
"$. c #AE46A8",
"%. c #AE4DA9",
"&. c #B147AA",
"*. c #B44BAE",
"=. c #A759A6",
"-. c #B451AF",
";. c #BF4DB8",
":. c #BA4BB3",
">. c #B555B1",
",. c #B85FB6",
"<. c #BE56B9",
"1. c #BF5ABB",
"2. c #AF61AF",
"3. c #A876A9",
"4. c #B46BB5",
"5. c #BF6BBF",
"6. c #BB67BB",
"7. c #AF79B1",
"8. c #C44FBC",
"9. c #C35ABF",
"0. c #BF7BC0",
"q. c #C655C0",
"w. c #CA52C2",
"e. c #C55FC1",
"r. c #C85CC4",
"t. c #D455CB",
"y. c #D957D1",
"u. c #E15CD9",
"i. c #C960C5",
"p. c #CE65CB",
"a. c #D762D1",
"s. c #DE60D7",
"d. c #D66AD2",
"f. c #DE67D9",
"g. c #DE6BDA",
"h. c #D67BD6",
"j. c #D576D5",
"k. c #E26DDE",
"l. c #E074DE",
"z. c #EA5EE1",
"x. c #ED66E5",
"c. c #ED68E6",
"v. c #EF6EE9",
"b. c #E677E3",
"n. c #E37EE2",
"m. c #EC7BE9",
"M. c #F174ED",
"N. c #F379EF",
"B. c #F47DF2",
"V. c #BF8AC0",
"C. c #CE86D0",
"Z. c #DA80DB",
"A. c #E783E8",
"S. c #EC8AED",
"D. c #E485E5",
"F. c #EF8DF1",
"G. c #F785F6",
"H. c #F18BF2",
"J. c #F888F7",
"K. c #F98DFA",
"L. c #FC94FD",
"P. c #EBA9EC",
"I. c #FDB3FE",
"U. c #F4D2F4",
"Y. c #F6DBF7",
"T. c #FED4FF",
"R. c #FEDFFF",
"E. c #FEE2FF",
"W. c #FFEDFF",
"Q. c #FFF2FF",
"!. c #FFFFFF",
/* pixels */
"                                                                                                    ",
"                                      2 S o                                                         ",
"                                  X _ i.G. .                                                        ",
"                              X > ) j.h.H.h.                                                        ",
"                            X F +.%   * <.h.                                                        ",
"                            X 8       J K.R                                                         ",
"                                    4 p.H.<                                                         ",
"                                    a M.v                                                           ",
"                                    1 ,.[ X                                                         ",
"                                      3 q.!                                                         ",
"                                        % w.!                                                       ",
"                                      * :.)                                                         ",
"                                    > >.B.<                                                         ",
"                                    g B.U X                                                         ",
"      * +.                        O k...                      1 s.c.c.c.%                           ",
"      > 8.2                       $ S.6.*                   8 i.S...{ F.%.                          ",
"      > u.&.1                     X { K.#.$               1 e.H.L     b j                           ",
"        x H.v         w.m           k F.K.-.            * a.H.b                                     ",
"        . o.d.$     8 L.m.a           z l.n.2           % <.| %                                     ",
"          ..H.S     p.L.L.[             n k.)             < 9.^ .             D S 2                 ",
"          ] G.j.    Z.L.L.v.              l t.s             ..f.$           P J.G.i.%               ",
"          G m.h.$   Z.< ^ u.@.            * t.S           z b.r.X       X ! w.< R k.w.;.+.+.%.$     ",
"            #.K.%.z D.    D w.              z m         * c.9.2         w :.2     z ) F     X. .    ",
"            z H.K.B.L.      w.              z S         ! 8.2           a S                 $ U 8   ",
"            $ f.L.L.L.      w.h l           $ %         $.>             X %                   x L   ",
"              < L.L.L.      `       # *                 +.            2 z.S                 X J v   ",
"              $ >.B.o.              > d   b L T T       n           8 f.w.8                 c c     ",
"                * a X                   ' U.E.E.E.{               s d.M.4                 P s       ",
"                                    o E U.!.!.!.!.Y.} X         > W M.8             * % s s         ",
"                                    E T.!.!.!.!.!.!.E.Q X     $ y.w.+.%             w.+.            ",
"                                  $ P.!.!.!.!.!.!.!.!.I.<     # y.~                 n 8.d           ",
"            F X                   $ P.!.!.!.!.!.!.!.!.I.<     O &.2                 $ n.d.4         ",
"  X > * %   =.o                   $ P.!.!.!.!.!.!.!.!.I.<       + : &               2 S.B.a         ",
"% O.M.#.i.m 5.$     $             X 3.E.!.!.!.!.!.!.W.7.%       + M &           2 S g.G.;.>         ",
"3 J.X.< ..B.] X     6 5             < 3.W.!.!.!.!.Q.V.=         r 7 X         ~ >.B.H.I 8           ",
"0 L.j   X < X       . Z ,             @ 5.!.!.!.!.C.%         y C :     5 & ( K.L.' <               ",
"2 h.U X               X 6 -         X     o.4.4.4.        . i A i &   + :   ' o.                    ",
"  3 9.!                 + 5 &     . 5 +                   : A r     # 7 &                           ",
"    4 w.+.+.4             X 7 5 +   7 6 X               X M r .     e B                             ",
"      -.K.L.r.X & 7 +       . 6 -   + 7 -         + :   M V 5     e A +     % x./         %         ",
"      $ #.>.>     + 6 & X     & 7 - + & p 5   + & e :   5 & + & 7 A f X   8 i.L...      2 Y $       ",
"        * 2         i M e 7 r 5 5 e 6 - u V 6 5 f e :   : . 5 p A M +     ] K.T U ~ ~ ~ P *         ",
"              5 :   & + r C A V V C C B Z A A C A 5 6 N M + f Z N .       / J.  X ..A.2.$           ",
"              + M f y + & 6 r i B B A M M A A A A p V u e e e 5 .         ~ G.8   X $ X             ",
"                - r r : 5 7 e e e e M i e f A B M M i e e 6 : .           d h.p.                    ",
"                        . + + : e e e e e r i r e e e 7 6 X                 9 q                     ",
"                                . . # 6 6 6 6 6 5 . X . .                                           ",
"                                                                                                    ",
"                                                                                                    ",
"                                                                                                    "
};
