/* XPM */
static char *result[] = {
/* columns rows colors chars-per-pixel */
"50 50 183 2 ",
"   c black",
".  c #0E060E",
"X  c #7F337A",
"o  c #351533",
"O  c #431B40",
"+  c #642860",
"@  c #130812",
"#  c #1D0C1C",
"$  c #0A0409",
"%  c #210D20",
"&  c #30132E",
"*  c #A743A1",
"=  c #050205",
"-  c #4C1F4A",
";  c #62275E",
":  c #070307",
">  c #6B2B67",
",  c #963C91",
"<  c #562353",
"1  c #260F25",
"2  c #6E2C6A",
"3  c #110710",
"4  c #0C050C",
"5  c #B84AB1",
"6  c #4F204C",
"7  c #4C1F49",
"8  c #692A65",
"9  c #60265C",
"0  c #A2419C",
"q  c #481D45",
"w  c #240E23",
"e  c #672963",
"r  c #863681",
"t  c #3C183A",
"y  c #732E6E",
"u  c #391737",
"i  c #AC45A5",
"p  c #401A3E",
"a  c #AD46A7",
"s  c #230E21",
"d  c #8B3885",
"f  c #0B040A",
"g  c #702D6C",
"h  c #10060F",
"j  c #010001",
"k  c #61275D",
"l  c #411A3E",
"z  c #2B1129",
"x  c #8F3A8A",
"c  c #6C2B67",
"v  c #150915",
"b  c #240E22",
"n  c #642861",
"m  c #1A0B19",
"M  c #763072",
"N  c #0D050D",
"B  c #040103",
"V  c #200D1F",
"C  c #773073",
"Z  c #050208",
"A  c #0D0412",
"S  c #3D1256",
"D  c #461464",
"F  c #4B156A",
"G  c #190723",
"H  c #07020A",
"J  c #040105",
"K  c #2E0D42",
"L  c #4B166B",
"P  c #310E46",
"I  c #360F4C",
"U  c #541877",
"Y  c #15061E",
"T  c #2B0C3D",
"R  c #3F125A",
"E  c #36104C",
"W  c #82387E",
"Q  c #F47EF2",
"!  c #B555B1",
"~  c #0C0412",
"^  c #451462",
"/  c #2D0D40",
"(  c #42135D",
")  c #1B0826",
"_  c #3A1152",
"`  c #4B166A",
"'  c #340F49",
"]  c #300E44",
"[  c #20092D",
"{  c #170721",
"}  c #BF53B9",
"|  c #FB91FC",
" . c #E870E3",
".. c #2F132D",
"X. c #040106",
"o. c #340F4A",
"O. c #330F49",
"+. c #3C1155",
"@. c #1F092C",
"#. c #0E0414",
"$. c #220A30",
"%. c #541878",
"&. c #521875",
"*. c #20092E",
"=. c #100517",
"-. c #291127",
";. c #CA55C3",
":. c #60285D",
">. c #000001",
",. c #21092E",
"<. c #220A31",
"1. c #230A32",
"2. c #0F0416",
"3. c #0B0310",
"4. c #020102",
"5. c #5C2360",
"6. c #37104F",
"7. c #320E47",
"8. c #4C166D",
"9. c #3E1258",
"0. c #3B1154",
"q. c #562256",
"w. c #260B36",
"e. c #030104",
"r. c #250B34",
"t. c #180722",
"y. c #1C0828",
"u. c #471565",
"i. c #13061B",
"p. c #0C0310",
"a. c #491568",
"s. c #36104D",
"d. c #3D1257",
"f. c #050107",
"g. c #350F4C",
"h. c #160720",
"j. c #280B38",
"k. c #441461",
"l. c #120519",
"z. c #41135C",
"x. c #180A17",
"c. c #83357F",
"v. c #37104E",
"b. c #4F1771",
"n. c #290C3A",
"m. c #08020C",
"M. c #060208",
"N. c #210A30",
"B. c #2C0D3E",
"V. c #542251",
"C. c #2A0C3C",
"Z. c #2D0D3F",
"A. c #4E176F",
"S. c #0B030F",
"D. c #100516",
"F. c #391051",
"G. c #250B35",
"H. c #4D166E",
"J. c #110518",
"K. c #0C0411",
"L. c #531877",
"P. c #350F4B",
"I. c #09030D",
"U. c #81347C",
"Y. c #310E45",
"T. c #030105",
"R. c #1A0725",
"E. c #240A33",
"W. c #1E092A",
"Q. c #3E1259",
"!. c #1B0827",
"~. c #1E092B",
"^. c #230A31",
"/. c #1A0825",
"(. c #1D0929",
"). c #16071F",
"_. c #240B34",
"`. c #0A030E",
"'. c #3A1153",
"]. c #060209",
"[. c #43135F",
"{. c #2F0E44",
"}. c #020103",
/* pixels */
"                      . X o                                                                         ",
"                      O +                                                                           ",
"                      @ #                                                                           ",
"                      $ % $                                                                         ",
"                      & * &       o =                                                               ",
"                                - ; :                                                               ",
"                          > , < 1 $       2 3 :                                                     ",
"                          4 3 $           1 5 6                                                     ",
"                    <                                                                               ",
"              @ - 7 8 9                                                                             ",
"            . 0 @ @ = *                                                                             ",
"            , 3       & q                     9 w                                                   ",
"          - e :         7 1                                                                         ",
"          1 @           r O                 t q                           9 &                       ",
"                        y u                                             u <   i                     ",
"                                u .                                                                 ",
"                            @ r y .                                                 $ < u r @       ",
"                            = % .                                         8 p .   8 a s . % d f     ",
"                                                                          $ g d 1 $ h j     % k     ",
"                                                                              @ -           . l     ",
"                                                                                            $ z     ",
"    x #                                                                                             ",
"    c v                                                                         w b                 ",
"                                                                                + n                 ",
"                                                                                v X m               ",
"            M N                                                                     B V             ",
"                                                                                    $ <             ",
"                q q                                                                         C       ",
"                n +                                               Z A S D F F               & c     ",
"                q q   G G H               $ O #                 J K L P I L U Y                     ",
"      @ r u         T R R E               W Q ! #               ~ ^ / ( ) / _ `                     ",
"      $ O y z       ' ] [ { ]             } |  ...            X.o.O.+.@.H #.$.`             v , p   ",
"          $ = = @ H ^ %.&.*.=.            -.;.:.B             >.Z ,.<.j 1.2.3.`             4.3 :   ",
"            : ; 5.6.[ 7.7.8.9.3.                                            P 0.      # u           ",
"            : q.6.w.e.    ) ( r.3.J *.                                      #.t.y.    O r           ",
"            Z u.^ i.        p.{ 9.a.P s.Y                                     H d.*.  $ @           ",
"              f.T T f.      J K _ $.*.t.] g.      h.j.L k.l.            l./ *.9.z.*.        x.c.#   ",
"                =.=.        v.b.n.e.  m.M.        N.i.i.B.0.Y                 @.6.i.          V.+   ",
"            C.<./ )       Z.A.G S.                      D.F.G.                A A M.          V.+   ",
"        J v.H.M.J.C.K.  T L.`                           M.P.G.              I.              o U.    ",
"      Z K ^ Y.T.  R./     E.T                             #.Y   Z W.m.      Q.              9       ",
"      !._ ~.^.T.  3.i.              H /.T (.J.                J ] 6.i.).    /                       ",
"      _.$.e.X.>.                  `.'.) S.H X.                j S.].e.[.    f.                      ",
"      H {                         {.E.}.                              ~.                            ",
"                                  }.J.                                                              ",
"                                                                                                    ",
"                                                                                                    ",
"                                                                                                    ",
"                                                                                                    ",
"                                                                                                    "
};
