/* XPM */
static char *result[] = {
/* columns rows colors chars-per-pixel */
"49 50 136 2 ",
"   c black",
".  c #070307",
"X  c #5D255A",
"o  c #391737",
"O  c #72306F",
"+  c #EF7DED",
"@  c #8C4A8B",
"#  c #020102",
"$  c #50224D",
"%  c #CB59C5",
"&  c #EC7FEB",
"*  c #F58CF6",
"=  c #743371",
"-  c #3C193A",
";  c #E773E3",
":  c #FC95FE",
">  c #FC94FD",
",  c #D473D3",
"<  c #260F25",
"1  c #863681",
"2  c #D56BD2",
"3  c #FB93FD",
"4  c #F18DF3",
"5  c #612A5E",
"6  c #291127",
"7  c #CA5FC6",
"8  c #F98DFA",
"9  c #D568D2",
"0  c #10070F",
"q  c #1D0C1C",
"w  c #431B40",
"e  c #CC62C8",
"r  c #F98FFA",
"t  c #532F53",
"y  c #010001",
"u  c #0E060E",
"i  c #A1499D",
"p  c #F276EE",
"a  c #FB91FC",
"s  c #F98BF9",
"d  c #462445",
"f  c #110710",
"g  c #9E479A",
"h  c #F98CF9",
"j  c #FB92FC",
"k  c #FB92FD",
"l  c #AC5FAC",
"z  c #130812",
"x  c #050205",
"c  c #6A2E67",
"v  c #CB58C5",
"b  c #F387F3",
"n  c #D260CD",
"m  c #D96AD5",
"M  c #EE84EE",
"N  c #783375",
"B  c #F683F5",
"V  c #B555B1",
"C  c #482B49",
"Z  c #AF5BAE",
"A  c #4C1F49",
"S  c #F581F3",
"D  c #F37AF0",
"F  c #B554B1",
"G  c #2B1129",
"H  c #9E4D9B",
"J  c #522550",
"K  c #9B529A",
"L  c #231323",
"P  c #52234F",
"I  c #E677E3",
"U  c #D868D4",
"Y  c #3A1838",
"T  c #241424",
"R  c #E885E9",
"E  c #CB64C7",
"W  c #0F060E",
"Q  c #672F64",
"!  c #C655C0",
"~  c #180A17",
"^  c #F379EF",
"/  c #F88AF8",
"(  c #EB7CEA",
")  c #A743A1",
"_  c #30132E",
"`  c #542952",
"'  c #EF8CF0",
"]  c #B85FB6",
"[  c #6C406D",
"{  c #C55FC1",
"}  c #F47DF2",
"|  c #F276ED",
" . c #8D3E89",
".. c #562353",
"X. c #D26FD1",
"o. c #452244",
"O. c #CC66C9",
"+. c #BE56B9",
"@. c #FA8EFB",
"#. c #D880DA",
"$. c #924F92",
"%. c #110811",
"&. c #CE61CA",
"*. c #F889F8",
"=. c #D365CF",
"-. c #B84AB1",
";. c #DF83E1",
":. c #E980E8",
">. c #4F204C",
",. c #E686E8",
"<. c #8A4388",
"1. c #B46AB5",
"2. c #B160B0",
"3. c #F784F5",
"4. c #EF6EE9",
"5. c #481D45",
"6. c #D872D6",
"7. c #E878E6",
"8. c #82387E",
"9. c #210D20",
"0. c #6B3C6B",
"q. c #B265B3",
"w. c #7C3277",
"e. c #EB88EC",
"r. c #682D65",
"t. c #D169CE",
"y. c #DF70DC",
"u. c #EA76E7",
"i. c #371735",
"p. c #241524",
"a. c #733D73",
"s. c #231122",
"d. c #BD5AB9",
"f. c #321430",
"g. c #81347C",
"h. c #8F3A8A",
/* pixels */
"                                                                                                  ",
"                                                                                                  ",
"                                                                                                  ",
"                                                                                                  ",
"                                                                                                  ",
"                                                                                                  ",
"                                                                                                  ",
"                                                                                                  ",
"                                                                                                  ",
"                                                                                                  ",
"                                                                                                  ",
"                                                                                                  ",
"                                                                                                  ",
"                                                                            . X o                 ",
"                                                                            O + @                 ",
"                                                                      # $ % & * =                 ",
"                                                                      - ; : > ,                   ",
"                                                                  < 1 2 3 : 4 5                   ",
"                                                                6 7 8 3 : : 9 0                   ",
"                                                            q w e r : : : : t y                   ",
"                                                          u i p a : : : : s d                     ",
"                                                      . f g h : j k : : > l z                     ",
"                                                    x c v b : a n m : : M =                       ",
"                                                    N B : : s V z C : 3 Z                         ",
"                                    A z         A 1 S : : D F G z H : 4 J                         ",
"                                  u K L       P I 8 > 8 U Y z   T R : E W                         ",
"                                  Q ! ~   < w ^ : / ( ) _       ` ' : C                           ",
"                                z ] [   < { } h |  ...          X.3 B o.                          ",
"                                L h O.) +.@.: +.w z             #.: $.z                           ",
"                              %.&.: : 3 *.=.-.                q ;.:.>.                            ",
"                              J ,.: : I 1 o                   <.a 1.                              ",
"                              2.3 3.4.P                     5.6.: 1.                              ",
"                            ..7.n 8.9.x                     0.j > q.                              ",
"                            o w.z                           [ : e.r.                              ",
"                                                            [ : t.%.                              ",
"                                                          q y.u.i.#                               ",
"                                                          p.h a.#                                 ",
"                                                          s.d.f.                                  ",
"                                                          g.<                                     ",
"                                                          h.                                      ",
"                                                                                                  ",
"                                                                                                  ",
"                                                                                                  ",
"                                                                                                  ",
"                                                                                                  ",
"                                                                                                  ",
"                                                                                                  ",
"                                                                                                  ",
"                                                                                                  ",
"                                                                                                  "
};
