/* XPM */
static char *result[] = {
/* columns rows colors chars-per-pixel */
"50 50 163 2 ",
"   c #000000",
".  c #060209",
"X  c #0A040C",
"o  c #0D080D",
"O  c #0D0412",
"+  c #0F0910",
"@  c #100614",
"#  c #150B15",
"$  c #180A17",
"%  c #14061C",
"&  c #1C0D1C",
"*  c #1E121E",
"=  c #170721",
"-  c #190724",
";  c #1B0826",
":  c #1E092A",
">  c #230E22",
",  c #20092E",
"<  c #241324",
"1  c #2C122B",
"2  c #2B192C",
"3  c #30132E",
"4  c #250B34",
"5  c #270B38",
"6  c #2A0C3B",
"7  c #331531",
"8  c #391737",
"9  c #341D34",
"0  c #362036",
"q  c #3E253E",
"w  c #2D0D40",
"e  c #310E45",
"r  c #340F4A",
"t  c #37104E",
"y  c #38104F",
"u  c #3B1154",
"i  c #3F1259",
"p  c #3F2540",
"a  c #431C41",
"s  c #481D45",
"d  c #42135E",
"f  c #472546",
"g  c #452946",
"h  c #4F204C",
"j  c #4A2C4B",
"k  c #51214E",
"l  c #562353",
"z  c #582856",
"x  c #5B2759",
"c  c #512A5A",
"v  c #533154",
"b  c #5B355B",
"n  c #583858",
"m  c #60265C",
"M  c #461464",
"N  c #481566",
"B  c #4C166C",
"V  c #4F1770",
"C  c #511773",
"Z  c #531876",
"A  c #56197B",
"S  c #652A61",
"D  c #692A65",
"F  c #602E6F",
"G  c #6E2C6A",
"H  c #732E6E",
"J  c #623A62",
"K  c #6F306C",
"L  c #673D68",
"P  c #633262",
"I  c #773073",
"U  c #7B3376",
"Y  c #703E70",
"T  c #7A3877",
"R  c #7F337A",
"E  c #6C406D",
"W  c #6F4870",
"Q  c #724373",
"!  c #7A477C",
"~  c #7A497B",
"^  c #82357D",
"/  c #863681",
"(  c #863C82",
")  c #8A3885",
"_  c #8E3B89",
"`  c #923B8C",
"'  c #963C91",
"]  c #9A3E94",
"[  c #9E3F98",
"{  c #844E85",
"}  c #8C488A",
"|  c #8B528C",
" . c #9B4497",
".. c #915592",
"X. c #955896",
"o. c #9A5B9C",
"O. c #A5429F",
"+. c #A743A1",
"@. c #AB45A4",
"#. c #AF4BAA",
"$. c #A94BA4",
"%. c #B549AF",
"&. c #A55BA5",
"*. c #AD54AA",
"=. c #B250AD",
"-. c #BB4CB4",
";. c #BF4DB8",
":. c #B05FB0",
">. c #A460A5",
",. c #A763A8",
"<. c #AA64AB",
"1. c #B063B0",
"2. c #B86DB9",
"3. c #B46BB5",
"4. c #C44FBC",
"5. c #C650BF",
"6. c #BE71C0",
"7. c #C655C0",
"8. c #CA52C3",
"9. c #CB59C5",
"0. c #CE5BC8",
"q. c #D053C8",
"w. c #C960C5",
"e. c #C868C6",
"r. c #CE64CA",
"t. c #D363CE",
"y. c #C675C8",
"u. c #C977CA",
"i. c #CE7ACF",
"p. c #DC60D6",
"a. c #D569D1",
"s. c #DD6EDA",
"d. c #C971D4",
"f. c #D47CD5",
"g. c #D67CDB",
"h. c #DC7ADC",
"j. c #E06CDC",
"k. c #EA5EE1",
"l. c #EC64E4",
"z. c #EB6AE5",
"x. c #EF6EE9",
"c. c #ED7CEB",
"v. c #F174ED",
"b. c #F37AF0",
"n. c #C185C3",
"m. c #D880DA",
"M. c #E185E3",
"N. c #E786E8",
"B. c #E789E9",
"V. c #ED8CEE",
"C. c #E19EE2",
"Z. c #F583F4",
"A. c #F48EF5",
"S. c #F888F7",
"D. c #F98CF9",
"F. c #F792F9",
"G. c #FC95FE",
"H. c #FDB3FE",
"J. c #EEC6EF",
"K. c #FEDBFF",
"L. c #FCE9FC",
"P. c #FFF0FF",
"I. c #FFFEFF",
/* pixels */
"                        & `                                                                         ",
"                        / a         & S &                                                           ",
"                      9 h.f       _ -.k.-.$                                                         ",
"                      q V.J < < ^ -.1 > * .                                                         ",
"                        L B.G.Z.7.$                                                                 ",
"                          j E E 2                                                                   ",
"                                      . # o                                                         ",
"                                      v u.u.$                                                       ",
"                                          | >.                                                      ",
"              # } / /                     o ~ ..*                                                   ",
"            # i.o.> 8.o.                    b G.0                                                   ",
"          < %.@.m   ` +.                    b G.0                 * j a 3                           ",
"          / ^ .       8.8                   b G.0             . { 6.G.Z.a.8                         ",
"        9 t.a         b.S                   b X.#             { F.G.X.j G.w.3                       ",
"      . J s.8         h.l.a             * q |               ..D.#.      g b.x                       ",
"      < G.E           2 e._ l         2 f.|                 } p.@       2 i.x.l                     ",
"      < G.E             p P l         E G.<                 ( ^ .         ..x.7.                    ",
"      . J B.p       <.                E J .                 # .           ..v.1 L g.f.-.D           ",
"        f S.f       o # *             j L .                               L N.j.A.D.$.& .           ",
"        > 4.^ .       2 p               E J                                 L G.G.v.>   9 E b       ",
"          < @.@                           j ~                               I j j f _ X E G.A.Q     ",
"    * #.I   $   + +                       . $                           . ^ k       > [ K  .0.r.Q . ",
"    3.X.        g g                                                     1 5.^                 8 r.9 ",
"    *.<                                                                   8 4.H                 8 R ",
"    +.>     I X                                                             > 7.                D s ",
"            ] 8                                                               O.7 7 .           D 1 ",
"            S q.m 1                                                           # / / Y j             ",
"            . z v.S                                                   o.{           q P +.:.o.      ",
"              . T S                       . < < .                   ~ F.o.            . >  .f.X.X   ",
"                E E                       n H.H.W                   L d.; X                 < s.s   ",
"      # ..q     E E                     L J.I.I.K.Q                   B A d @               > '     ",
"    o >.G.f.q * f.y.*                   ,.L.I.I.I.2.                5 Z y N =             X &.'     ",
"    &.z.m.V.M.v G.! X :                 o n.P.P.C.o               . t A e ; X O       . < :.0.^     ",
"    +.7.  ..G.G.g.F i w                   # ....*                 5 A N w 6 N V O   . ( S.x.>       ",
"  8 G l   q f.B.c u Z r ; .                                     . M A r : M A B X   U c.G.S.<       ",
"  + .       * < % M A 6 w 5     % 5 5 =                         4 i M O V A i 6   H Z.z.l.D.2.      ",
"                ; M A u y 6 5 5 C M 5 w =                   . r 6 B : % A u 4       ^ X   U c.%.&   ",
"  p 2         . 6 t i 6 @ O 6 5 r i X % %         e :       X % O e   N N : .               9.Z.S   ",
"  E j           O O 5 4     = B u N .           ; A B i i 6   . u 4   e t %                 5.=.&   ",
"    o.*         . , 5       A Z i e i O X       . 6 e B A Z 6 O 6 ; : w :         # >       5.^     ",
"            ; 4 u N X     ; A u w e B M r .   O 5 w y Z r u i i 6 6 u 6           / ) X     +.      ",
"          ; u d A A r 4   ; 5 w w w u w ;     O % w 4 : 4 N B r w w 6 =           8 X       s       ",
"        % Z u t N e e C 5   . 5 5 w e w O     = 5 u   ; e Z i w w 6 d e ;                           ",
"        % i B u 6 @ : u M : O O . 5 i w = O X , r . O % : w ; r : % 5 V =                           ",
"            4 V 4 %   ; ; ; ; O   % ; 5 i w O   % - w w X % O ;     ; d                             ",
"              = O O                   O ; i ; % % 6 : O           O 5 %                             ",
"                                          X . .   .               . .                               ",
"                                                                                                    ",
"                                                                                                    ",
"                                                                                                    "
};
