/* XPM */
static char *result[] = {
/* columns rows colors chars-per-pixel */
"50 50 140 2 ",
"   c black",
".  c #83357E",
"X  c #C47BC5",
"o  c gray79",
"O  c #523153",
"+  c #E7DBE8",
"@  c #714372",
"#  c #918592",
"$  c #FFFAFF",
"%  c #C8B7C8",
"&  c #929292",
"*  c white",
"=  c #402641",
"-  c #DFBFDF",
";  c #5B565B",
":  c #FFF9FF",
">  c #F7E7F7",
",  c #7C527D",
"<  c #5B5B5B",
"1  c #673D68",
"2  c #150C15",
"3  c #B892B9",
"4  c #A994A9",
"5  c #9D639E",
"6  c #0A060A",
"7  c #050205",
"8  c #110811",
"9  c #120B12",
"0  c #A76EA9",
"q  c #FFECFF",
"w  c #999699",
"e  c #050305",
"r  c #080508",
"t  c gray5",
"y  c #FCEAFC",
"u  c #956196",
"i  c #241524",
"p  c #3F203D",
"a  c #E27ADF",
"s  c #EA8AEC",
"d  c #FAADFC",
"f  c #F6D4F7",
"g  c #5D3B5D",
"h  c #030203",
"j  c #211422",
"k  c #693E6A",
"l  c #553256",
"z  c gray63",
"x  c #FEE5FF",
"c  c #FDC2FF",
"v  c #815382",
"b  c #967797",
"n  c #FED2FF",
"m  c #FDB5FE",
"M  c #FFF6FF",
"N  c #FDB3FE",
"B  c #7A3877",
"V  c #481D45",
"C  c #3E253E",
"Z  c #764977",
"A  c #F3B9F4",
"S  c #916F91",
"D  c #252525",
"F  c #FED8FF",
"G  c #FEDFFF",
"H  c #FEE1FF",
"J  c #EE73E8",
"K  c #D872D6",
"L  c #CF9CD0",
"P  c #FED0FF",
"I  c #E9B7EA",
"U  c #3F3F3F",
"Y  c #241824",
"T  c #FECBFF",
"R  c #FDBEFF",
"E  c #FB9FFB",
"W  c #FFF0FF",
"Q  c #EEB4EF",
"!  c #2E1D2F",
"~  c #6D6D6D",
"^  c #FEC9FF",
"/  c #FFF4FF",
"(  c #FFEEFF",
")  c #494049",
"_  c #6D536D",
"`  c #F8B1F5",
"'  c #452244",
"]  c #1F121F",
"[  c #B1A4B1",
"{  c #F3A3EE",
"}  c #431B40",
"|  c #905591",
" . c #EFE7EF",
".. c #4C1F4A",
"X. c #8D4C8D",
"o. c #732E6E",
"O. c #482B49",
"+. c #130812",
"@. c #231323",
"#. c #E381E3",
"$. c #CE7ACF",
"%. c #EEC0EF",
"&. c #FDC5FF",
"*. c #FEC7FF",
"=. c #E38DE4",
"-. c #D887DA",
";. c #BC53B7",
":. c #BC56B7",
">. c #573458",
",. c #B596B6",
"<. c #F4D5F4",
"1. c #FDB0FE",
"2. c #FFF2FF",
"3. c #FDC0FF",
"4. c #FFFBFF",
"5. c #F9DFFA",
"6. c #BBB2BB",
"7. c #B6AFB6",
"8. c #281F28",
"9. c #834C83",
"0. c #EF81EE",
"q. c #FDAFFE",
"w. c #FDB8FE",
"e. c #FC95FE",
"r. c #DFBFE0",
"t. c #866187",
"y. c #401D3E",
"u. c #90478E",
"i. c #F99FF8",
"p. c #FDC4FF",
"a. c #F98DFA",
"s. c #EF6EE9",
"d. c #783E77",
"f. c #331E34",
"g. c #0E060E",
"h. c #242224",
"j. c #241924",
"k. c #241423",
"l. c #210D20",
"z. c #0A0409",
/* pixels */
"                                                                                                    ",
"                                                                                                    ",
"                                                                                                    ",
"                                                                                                    ",
"                                                                                                    ",
"                                                                                                    ",
"                                                                                                    ",
"                                                                                                    ",
"                                                                                                    ",
"                                                                                                    ",
"                                                                                                    ",
"                                                                                                    ",
"                                                                                                    ",
"                                                                                                    ",
"                                                                                                    ",
"                                                                                                    ",
"                                                                                                    ",
"                                                                                                    ",
"                                                                                                    ",
"                                                                                                    ",
"                                                .                                                   ",
"                                                X                                                   ",
"                                                o                                                   ",
"                                              O + @                                                 ",
"                                              # $ %                                                 ",
"                                              & * o                                                 ",
"                                              & * o                                                 ",
"                                            = - * o                                                 ",
"                                            ; : * > ,                                               ",
"                                            < * * * &                                               ",
"                          1               2 3 * * * &                                               ",
"                          4 5 6     7 8 9 0 q * * * w e           r r                               ",
"                          t y u i e p a s d * * * * f g e     h j k l                               ",
"                            z x c v b n m M * * * * * N B V C Z A S                                 ",
"                            D * * F G n H * * * * * * G J K L P I U                                 ",
"                            Y T * * * n H * * * * * * R E W : Q !                                   ",
"                              ~ * * * * * * * * * * * ^ / * ( )                                     ",
"                              _ x * * * * * * * * * * * * * ` '                                     ",
"                              ] [ * * * * * * * * * * * * * { }                                     ",
"                                | W * * * * * * * * * * * * { }                                     ",
"                                O  .* * * * * * * * * * * * ` '                                     ",
"                        ..X.o.  O  .* * * * * * * * * * * * c O.                                    ",
"                        +.@.#.$.%.M &.* * * * * * * * $ : * *.=.-.-.-.;.:.l                         ",
"                            9 >.,.<.1.( * * * * * * 2.1.3.* 4.5.6.7.7.8.8 r                         ",
"                                  9.0.q.2.* * * * n w.e.^ r.& t.6                                   ",
"                                  7 y.u.i./ * * p.a.s.d.O.f.                                        ",
"                                      g.@.h.D D j.k.l.z.                                            ",
"                                                                                                    ",
"                                                                                                    ",
"                                                                                                    "
};
