/* XPM */
static char *result[] = {
/* columns rows colors chars-per-pixel */
"50 50 110 2 ",
"   c black",
".  c #562353",
"X  c #0A0409",
"o  c #90498E",
"O  c #6A3969",
"+  c #231223",
"@  c #B759B3",
"#  c #2B1129",
"$  c #B34FAE",
"%  c #905591",
"&  c #180A17",
"*  c #E55CDC",
"=  c #732E6E",
"-  c #A743A1",
";  c #C951C1",
":  c #4C1F4A",
">  c #CD53C6",
",  c #050205",
"<  c #8D3987",
"1  c #EA5EE1",
"2  c #1D0C1C",
"3  c #3E193C",
"4  c #E35BDA",
"5  c #8B3885",
"6  c #AC45A5",
"7  c #431B40",
"8  c #30132E",
"9  c #D555CC",
"0  c #863681",
"q  c #9E3F98",
"w  c #4F204C",
"e  c #642860",
"r  c #642861",
"t  c #0E060E",
"y  c #210D20",
"u  c #BA4BB3",
"i  c #BF4DB8",
"p  c #110710",
"a  c #D957D1",
"s  c #672963",
"d  c #481D45",
"f  c #72306F",
"g  c #070307",
"h  c #60265C",
"j  c #D756CF",
"k  c #241524",
"l  c #F07FEE",
"z  c #5E295B",
"x  c #943B8E",
"c  c #FC95FE",
"v  c #A557A4",
"b  c #160915",
"n  c #ED68E6",
"m  c #943C8F",
"M  c #F888F7",
"N  c #9D4599",
"B  c #F276EE",
"V  c #F276ED",
"C  c #FA8FFB",
"Z  c #D254CA",
"A  c #EC65E5",
"S  c #F47DF1",
"D  c #EB61E3",
"F  c #F98DFA",
"G  c #A54AA1",
"H  c #130812",
"J  c #ED66E5",
"K  c #F47EF2",
"L  c #F98BF9",
"P  c #EB60E2",
"I  c #F57FF2",
"U  c #F88AF8",
"Y  c #EC64E4",
"T  c #EB62E3",
"R  c #F98CF9",
"E  c #ED67E6",
"W  c #FA8EFB",
"Q  c #F785F6",
"!  c #391737",
"~  c #FA8EFA",
"^  c #F175ED",
"/  c #DC80DD",
"(  c #5D375D",
")  c #F490F6",
"_  c #FB91FC",
"`  c #9C4899",
"'  c #050305",
"]  c #6F416F",
"[  c #E685E7",
"{  c #E25EDA",
"}  c #F784F5",
"|  c #AE57AB",
" . c #C953C2",
".. c #783E77",
"X. c #3C1839",
"o. c #BD4CB5",
"O. c #FB92FC",
"+. c #472847",
"@. c #020102",
"#. c #1A0B19",
"$. c #D06FCF",
"%. c #8A4388",
"&. c #D17AD2",
"*. c #913A8B",
"=. c #F683F4",
"-. c #6B3569",
";. c #E072DE",
":. c #2C132A",
">. c #231122",
",. c #BF5ABB",
/* pixels */
"                                                                                . .                 ",
"                                                                              X o O                 ",
"                                                                              + @ #                 ",
"                                                                              $ %                   ",
"                                                                            & * =                   ",
"                                                                            - ;                     ",
"                                                                          : > ;                     ",
"                                                                        , < 1 2                     ",
"                                                                        3 4 1                       ",
"                                                                        5 1 1                       ",
"                                                                        1 1 =                       ",
"                                                                      6 1 1 7                       ",
"                                                                    8 9 1 1 7                       ",
"                                                                    0 1 1 q 2                       ",
"                                                                  w 9 1 1 e                         ",
"                                                                  r 1 1 1 e                         ",
"                                                                t q 1 1 1 e                         ",
"                                                                y 1 1 1 u 2                         ",
"                                                              t i 1 1 1 -                           ",
"                                                              p a 1 1 1 -                           ",
"                                                              s 4 1 1 1 d                           ",
"                                          & f g             h j 1 1 1 1                             ",
"                                          k l z           X x 1 1 1 1 1                             ",
"                                          k c v b         7 1 1 1 n n m                             ",
"                                          k c M N         7 1 1 1 B V y                             ",
"                                          k c c C q     2 Z 1 1 A S D y                             ",
"                                          k c c c F G H y 1 1 1 J K 1 y                             ",
"                                          k c c c c L G x 1 1 P I K q t                             ",
"                                          k c c c c c U Y 1 1 T R E e                               ",
"                                          k c c c c c c W Y 1 Q F 1 e                               ",
"                                          k c c c c c c c Q 1 Q F i !                               ",
"                                          k c c c c c c c ~ K R ^ 0                                 ",
"                                          k c c c c c c / ( ) _ T 0                                 ",
"                                          k c c c c c c ` ' ] [ { h                                 ",
"                                          k c c c c c } +     |  .                                  ",
"                                          k c c c c c ..X     X.o.                                  ",
"                                          k c c c c O.+.      @.#.                                  ",
"                                          k c c c c $.#                                             ",
"                                          k c c c W %.                                              ",
"                                          k c c c &.2                                               ",
"                                          k c c c *.                                                ",
"                                          k c c =.                                                  ",
"                                          k c c -.                                                  ",
"                                          k c ;.:.                                                  ",
"                                          k C O                                                     ",
"                                          >.,.#                                                     ",
"                                          X #                                                       ",
"                                                                                                    ",
"                                                                                                    ",
"                                                                                                    "
};
