/* XPM */
static char *result[] = {
/* columns rows colors chars-per-pixel */
"50 50 44 1 ",
"  c black",
". c #30132E",
"X c #391737",
"o c #542251",
"O c #642860",
"+ c #0E060E",
"@ c #974493",
"# c #683266",
"$ c #210D20",
"% c #F072EC",
"& c #6C406D",
"* c #220F21",
"= c #F277EE",
"- c #241524",
"; c #FC95FE",
": c #764476",
"> c #040103",
", c #3E253E",
"< c #EA76E7",
"1 c #4B254A",
"2 c #4D2E4E",
"3 c #E9B0EA",
"4 c #FDC2FF",
"5 c #553256",
"6 c #DEAEDF",
"7 c #FFF9FF",
"8 c white",
"9 c #E6B7E7",
"0 c #523153",
"q c #6D676D",
"w c #FFFBFF",
"e c #FFFCFF",
"r c #928992",
"t c #483349",
"y c #FED4FF",
"u c #FEDFFF",
"i c #494949",
"p c #0A060A",
"a c #827382",
"s c #A192A1",
"d c #E9BFEA",
"f c #EEC7EF",
"g c #673D68",
"h c #482B49",
/* pixels */
"                                                  ",
"                                                  ",
"                                                  ",
"                                                  ",
"                                                  ",
"                                                  ",
"                                                  ",
"                                                  ",
"                                                  ",
"                                                  ",
"                                                  ",
"                                                  ",
"                                                  ",
"                                                  ",
"                                                  ",
"                                                  ",
"                                                  ",
"                                                  ",
"                                                  ",
"                                                  ",
"                                                  ",
"                                                  ",
"                                                  ",
"                                                  ",
"                                                  ",
"                                                  ",
"                                                  ",
"                      .X                          ",
"                      oO                          ",
"                      oO                          ",
"                     +@#                          ",
"                     $%&                          ",
"                     *=&                          ",
"                     -;&                          ",
"                     -;&                          ",
"                     -;:>                         ",
"                     ,;<1                         ",
"                    234445                        ",
"                   ,6788890                       ",
"                   qw8888er                       ",
"                  ty888888ut                      ",
"                  i88888888i                      ",
"                  ty888888ut                      ",
"                  paw8888esp                      ",
"                   2dw888fg                       ",
"                    234445                        ",
"                     ,hhh                         ",
"                                                  ",
"                                                  ",
"                                                  "
};
