/* XPM */
static char *result[] = {
/* columns rows colors chars-per-pixel */
"50 50 70 1 ",
"  c black",
". c #773073",
"X c #180A17",
"o c #943B8E",
"O c #050205",
"+ c #481D45",
"@ c #A743A1",
"# c #210D20",
"$ c #623461",
"% c #391737",
"& c #6E2C6A",
"* c #0E060E",
"= c #8D4C8C",
"- c #D066CC",
"; c #642861",
": c #431B40",
"> c #2A192B",
", c #DB7EDC",
"< c #F173EC",
"1 c #461E44",
"2 c #040103",
"3 c #63285F",
"4 c #EA5EE1",
"5 c #1D0C1C",
"6 c #351E35",
"7 c #FB92FD",
"8 c #DD6EDA",
"9 c #351533",
"0 c #110710",
"q c #D957D1",
"w c #BF4DB8",
"e c #260F25",
"r c #271727",
"t c #B85FB6",
"y c #F47CF1",
"u c #4C1F49",
"i c #E55CDC",
"p c #863681",
"a c #913F8D",
"s c #CE7ACF",
"d c #F57FF2",
"f c #682D65",
"g c #130812",
"h c #D978D9",
"j c #B24AAC",
"k c #9B4396",
"l c #EA79E8",
"z c #CB58C5",
"x c #6A2E67",
"c c #070307",
"v c #A54AA1",
"b c #F98DFA",
"n c #C05DBD",
"m c #90478E",
"M c #693668",
"N c #F98BF9",
"B c #FC95FE",
"V c #F98CF9",
"C c #F276EE",
"Z c #8D3E89",
"A c #CC69CA",
"S c #F98FFA",
"D c #B454B0",
"F c #402040",
"G c #FA8FFB",
"H c #C357BE",
"J c #190A18",
"K c #EC63E3",
"L c #C55FC1",
"P c #642860",
/* pixels */
"                                                  ",
"                                                  ",
"                                                  ",
"                                                  ",
"                                                  ",
"                                                  ",
"                                                  ",
"                                                  ",
"                                                  ",
"                                                  ",
"                                                  ",
"                                                  ",
"                                                  ",
"                                                  ",
"                                                  ",
"                     .                            ",
"                    Xo      O++                   ",
"                    @#      $@                    ",
"                   %&*    %=-+                    ",
"                   ;:    >,<1                     ",
"                 234:  56789                      ",
"                 0qwe rty8u                       ",
"                 oip asdf9                        ",
"                ghj#klzxc                         ",
"               5vbnmdk                            ",
"               MNBVCZ*                            ",
"              XABSD:g                             ",
"              FGbHJ                               ",
"              KLpg                                ",
"              P%                                  ",
"                                                  ",
"                                                  ",
"                                                  ",
"                                                  ",
"                                                  ",
"                                                  ",
"                                                  ",
"                                                  ",
"                                                  ",
"                                                  ",
"                                                  ",
"                                                  ",
"                                                  ",
"                                                  ",
"                                                  ",
"                                                  ",
"                                                  ",
"                                                  ",
"                                                  ",
"                                                  "
};
