/* XPM */
static char *result[] = {
/* columns rows colors chars-per-pixel */
"50 50 77 1 ",
"  c black",
". c #81347C",
"X c #0E060E",
"o c #2B1129",
"O c #050205",
"+ c #401A3E",
"@ c #070307",
"# c #60265C",
"$ c #732E6E",
"% c #180A17",
"& c #1D0C1C",
"* c #692A65",
"= c #1A0B19",
"- c #0E0414",
"; c #350F4B",
": c #0A030E",
"> c #020103",
", c #070209",
"< c #160915",
"1 c #100517",
"2 c #190723",
"3 c #07020A",
"4 c #12051A",
"5 c #050107",
"6 c #1A0724",
"7 c #391051",
"8 c #6B2B67",
"9 c #260F25",
"0 c #391737",
"q c #250B35",
"w c #0B030F",
"e c #16071F",
"r c #130812",
"t c #0F0416",
"y c #110518",
"u c #0B0310",
"i c #040105",
"p c #0C0412",
"a c #050208",
"s c #060208",
"d c #000001",
"f c #280C39",
"g c #270B38",
"h c #4F1771",
"j c #1E092A",
"k c #0F0415",
"l c #15061E",
"z c #09030D",
"x c #2C0D3F",
"c c #08020C",
"v c #320E47",
"b c #2F0E43",
"n c #060209",
"m c #1A0825",
"M c #230A31",
"N c #270B37",
"B c #461463",
"V c #350F4C",
"C c #40135B",
"Z c #120519",
"A c #20092D",
"S c #3E1259",
"D c #1B0826",
"F c #220A30",
"G c #2D0D40",
"H c #030104",
"J c #30132E",
"K c #2A0C3C",
"L c #240A33",
"P c #20092E",
"I c #020003",
"U c #180722",
"Y c #14061C",
"T c #050106",
"R c #300E44",
"E c #1C0828",
"W c #09030C",
/* pixels */
"                                                  ",
"                                                  ",
"                                                  ",
"                                                  ",
"                                                  ",
"                                                  ",
"              .                                   ",
"              X                                   ",
"                                                  ",
"                                                  ",
"                                                  ",
"      oO                                          ",
"      +@                                          ",
"                                                  ",
"                                                  ",
"                                                  ",
"                                             #$   ",
"                                             %&   ",
"                                                  ",
"                                                  ",
"                                                  ",
"                                                  ",
"                                                  ",
"                                                  ",
"                                         *=       ",
"                                                  ",
"                                                  ",
"                                                  ",
"                                 -;:>,>       O<  ",
"           123                    45676       %8  ",
"    90     2qwe                    e2q2           ",
"    r&        ty                   u   ii         ",
"       >pas5i>d>                       fg         ",
"       phje4k3    wl                              ",
"       zxc       ivb3                             ",
"       nm        iM,>     yNBV         C          ",
"             Zu             ASD         DF>       ",
"             Gy              3u          uH    J0 ",
"      Kj Lz  z5P-            is                %& ",
"   IwH2H                      eu     3i           ",
"   :7u           HU               uH gY           ",
"   H-            TRk              uH us           ",
"                 EWi                              ",
"                 H                                ",
"                                                  ",
"                                                  ",
"                                                  ",
"                                                  ",
"                                                  ",
"                                                  "
};
