/* XPM */
static char *result[] = {
/* columns rows colors chars-per-pixel */
"50 50 158 2 ",
"   c #000000",
".  c #0C050C",
"X  c #10070F",
"o  c #120A12",
"O  c #180A17",
"+  c #1C0C1B",
"@  c gray7",
"#  c #230E22",
"$  c #241324",
"%  c #241F24",
"&  c #2B1129",
"*  c #30132E",
"=  c #341532",
"-  c #391737",
";  c #3C183A",
":  c #252425",
">  c #362036",
",  c #401A3E",
"<  c #441D42",
"1  c #491F47",
"2  c #4C1F4A",
"3  c #4F224D",
"4  c #482B49",
"5  c #52224F",
"6  c #493C49",
"7  c #562353",
"8  c #582355",
"9  c #542952",
"0  c #543852",
"q  c #60295D",
"w  c #652A62",
"e  c #6A2C66",
"r  c #6C2E69",
"t  c #732E6E",
"y  c #683266",
"u  c #693668",
"i  c #6B3A6B",
"p  c #752F71",
"a  c #773073",
"s  c #7F337A",
"d  c #7C3C79",
"f  c #494949",
"g  c #6C406D",
"h  c #6D536D",
"j  c #7E447E",
"k  c #745A72",
"l  c #6D6D6D",
"z  c #81347C",
"x  c #853C82",
"c  c #893C85",
"v  c #8D3D89",
"b  c #963D91",
"n  c #894187",
"m  c #8C488A",
"M  c #90478E",
"N  c #8F518F",
"B  c #974393",
"V  c #994495",
"C  c #905591",
"Z  c #975898",
"A  c #A0409A",
"S  c #A1499D",
"D  c #A15D9D",
"F  c #8A7989",
"G  c #916B91",
"H  c #A847A3",
"J  c #A54AA1",
"K  c #AA4CA5",
"L  c #AC51A8",
"P  c #B35BAE",
"I  c #B94AB2",
"U  c #B356B0",
"Y  c #B953B4",
"T  c #BF5ABB",
"R  c #A260A3",
"E  c #AE64AC",
"W  c #B46AB5",
"Q  c #BE62BC",
"!  c #B265B3",
"~  c #B474B0",
"^  c #BA7DBB",
"/  c #C44FBC",
"(  c #C650BF",
")  c #C265BE",
"_  c #C074BB",
"`  c #CB5DC5",
"'  c #D555CC",
"]  c #CA6EC9",
"[  c #D365CF",
"{  c #C675C8",
"}  c #CD78CE",
"|  c #CA7DC5",
" . c #D46BD1",
".. c #DF64D9",
"X. c #DF6DDB",
"o. c #D37BD1",
"O. c #D878D7",
"+. c #DE75DB",
"@. c #D877D7",
"#. c #E066DB",
"$. c #E26ADE",
"%. c #E56CE1",
"&. c #EE6AE7",
"*. c #E77DE5",
"=. c #E97BE6",
"-. c #EC7EEB",
";. c #F275ED",
":. c #F47DF2",
">. c #B58BB6",
",. c #B6A1B6",
"<. c #B6B6B6",
"1. c #D882DA",
"2. c #D585D4",
"3. c #E38FDF",
"4. c #CBA9C9",
"5. c #E2A2DE",
"6. c #E686E3",
"7. c #EE82EC",
"8. c #E988EB",
"9. c #F386EE",
"0. c #F289EE",
"q. c #E99FEA",
"w. c #E794E7",
"e. c #F583F3",
"r. c #F68CF3",
"t. c #F98BF9",
"y. c #F492F3",
"u. c #F897F7",
"i. c #F39BF1",
"p. c #F89BF7",
"a. c #FB94FD",
"s. c #FC9BFE",
"d. c #EAA4EB",
"f. c #EBA9EC",
"g. c #EABBE9",
"h. c #F6A4F5",
"j. c #F5ADF0",
"k. c #FAA4FB",
"l. c #FDABFD",
"z. c #F8B1F5",
"x. c #F9BAF6",
"c. c #FDB4FE",
"v. c #FDBCFE",
"b. c #DFD7DF",
"n. c gray86",
"m. c #ECDCED",
"M. c #FDC3FE",
"N. c #FDCBFE",
"B. c #F9D1F6",
"V. c #F7DDF7",
"C. c #FED3FF",
"Z. c #FEDAFF",
"A. c #EDE3ED",
"S. c gray93",
"D. c #FEE4FF",
"F. c #FEEBFE",
"G. c #FFF3FF",
"H. c #FFFFFF",
/* pixels */
"                                                                                                    ",
"                                    .                                                               ",
"                                  X v                                                               ",
"                                  o R                                                               ",
"                                  o ] 3                                                             ",
"                                  o 8.N                                                             ",
"                                  o w.u.4                                                           ",
"                                  o f.C.4                                                           ",
"                                  o f.C.T O                                                         ",
"                                  o d.G.l.$                                                         ",
"                                  . ~ H.c.9                                                         ",
"                                    f H.Z.o.                                                        ",
"                                    f H.H.i.r                                                       ",
"                                    f H.H.F.E X                                                     ",
"                                    f H.H.G.t.y                                                     ",
"                                    f H.H.G.v.g                                                     ",
"        - 7                         f H.H.H.Z.$.&                                                   ",
"          x 4                       k H.H.H.Z.a.>         4 e                                       ",
"          m x .                   X w.H.H.H.D.l.>         4 g                                       ",
"          # Q B                   o f.H.H.H.H.M.Y       O T g                                       ",
"            ! O.o                 o q.G.H.H.H.N.a.      $ 7.9                                       ",
"            z h.J +               . U M.H.H.H.H.l.=     $ W                                         ",
"            @ m.t.u                 4 M.H.H.H.H.l.)     x W                                         ",
"            o f.M.] $               4 M.H.H.H.H.D.{     2.,.              .                         ",
"            . ) H.v...              4 M.H.H.H.H.H.} o O m.<.            . p =                       ",
"              : F.C.s.;             4 M.H.H.H.H.H.t.n L F.<.            z q                         ",
"              $ z.H.Z. .-           4 M.H.H.H.H.H.M.C W D.>.          t / &                         ",
"              . F H.H.a.[ =   5 I O 4 M.H.H.H.H.H.F.+.g.D.K         e 7.#                           ",
"                i N.H.D.k.i   g a.$.d M.H.H.H.H.H.F.N.H.n.      1 j.v.t.                            ",
"                - 4.H.H.Z.r.9 h M.s.e.M.H.H.H.H.H.H.H.H.n.    7 *.N.l.B                             ",
"                  G G.H.H.D. .l H.Z.s.M.H.H.H.H.H.H.H.H.n.  7 @.Z.C.e.$                             ",
"                  N D.H.H.H.V.5.G.H.G.G.H.H.H.H.H.H.H.H.V.` 6.Z.H.M.n                               ",
"                  q y.H.H.H.H.Z.C.G.H.H.H.H.H.H.H.H.H.H.M.M.G.H.G.O.1                               ",
"                    O.H.H.H.H.H.D.G.H.H.H.H.H.H.H.H.H.H.H.H.H.H.F.C               < a 7             ",
"                    T N.H.H.H.H.H.H.H.H.H.H.H.H.H.H.H.H.H.H.H.G.c.Z       o o H A I 8 =             ",
"                    + c.H.H.H.H.H.H.H.H.H.H.H.H.H.H.H.H.H.H.H.F.s.=.u $ 0 o.1.@.z #                 ",
"                      p.F.H.H.H.H.H.H.H.H.H.H.H.H.H.H.H.H.H.F.M.v.v.h.v.Z.N.^                       ",
"                      B C.H.H.H.H.H.H.H.H.H.H.H.H.H.H.H.H.H.D.G.H.H.H.N.;.S +           - #         ",
"      O I 5           4 C.H.H.H.H.H.H.H.H.H.H.H.H.H.H.H.H.H.H.H.H.H.N.;.* O       e I I z .         ",
"        = ' .., * O   = +.D.H.H.H.H.H.H.H.H.H.H.H.H.H.H.H.H.H.H.H.H.M.3 * * Y &.&.e.e.c             ",
"          2  .;.0.D q   m Z.H.H.H.H.H.H.H.H.H.H.H.H.H.H.H.H.H.H.H.H.Z.e.;.;.t.M.k.:.v .             ",
"            1 %.y.M.r.b / B.H.H.H.H.H.H.H.H.H.H.H.H.H.H.H.H.H.H.H.H.H.k.Z.Z.Z.G.E 7 .               ",
"              # e 6.C.N.0.u.H.H.H.H.H.H.H.H.H.H.H.H.H.H.H.H.H.H.H.H.H.G.H.H.F.P o                   ",
"                  e 7.k.F.M.H.H.H.H.H.H.H.H.H.H.H.H.H.H.H.H.H.H.H.H.H.H.B.B._ .                     ",
"                    w V i.j.N.M.F.H.H.H.H.H.H.H.H.H.H.H.H.H.H.G.N.N.x.j.p p #                       ",
"                      o , < 4 4 6 | 3.f.f.A.S.S.S.S.S.S.S.m.f.d.X...x <                             ",
"                                  + $ $ $ : : : : : : : : : $ $ # # .                               ",
"                                                                                                    ",
"                                                                                                    ",
"                                                                                                    "
};
