/* XPM */
static char *result[] = {
/* columns rows colors chars-per-pixel */
"50 50 89 1 ",
"  c #1D181B",
". c #1E191B",
"X c #1E1A1B",
"o c #1F1B1B",
"O c #1E191C",
"+ c #1F191C",
"@ c #1F1A1C",
"# c #1F1A1D",
"$ c #201A1C",
"% c #211A1C",
"& c #211B1C",
"* c #201B1D",
"= c #201C1C",
"- c #201D1C",
"; c #221C1D",
": c #231C1D",
"> c #211F1C",
", c #211D1E",
"< c #231E1F",
"1 c #251E1D",
"2 c #271F1E",
"3 c #291F1F",
"4 c #22201C",
"5 c #24231C",
"6 c #25251D",
"7 c #28221E",
"8 c #29261F",
"9 c #27281D",
"0 c #241F20",
"q c #252021",
"w c #262121",
"e c #272222",
"r c #282323",
"t c #2C2320",
"y c #2F2321",
"u c #292423",
"i c #2C2523",
"p c #2A2524",
"a c #2A2625",
"s c #2C2726",
"d c #2F2A22",
"f c #2D2C20",
"g c #2C2826",
"h c #2D2927",
"j c #2E2A28",
"k c #2F2B28",
"l c #312521",
"z c #342722",
"x c #342B22",
"c c #352E25",
"v c #3C2D25",
"b c #302B29",
"n c #312C2A",
"m c #322D2A",
"M c #322E2B",
"N c #332F2B",
"B c #323024",
"V c #383427",
"C c #34302C",
"Z c #35312D",
"A c #36312D",
"S c #37322E",
"D c #37332E",
"F c #3C322E",
"G c #38342F",
"H c #39352F",
"J c #3A3530",
"K c #3A3630",
"L c #3B3731",
"P c #3C3832",
"I c #3D3832",
"U c #3D3933",
"Y c #3E3A33",
"T c #3F3A34",
"R c #402E26",
"E c #45392D",
"W c #403B34",
"Q c #403C35",
"! c #413D35",
"~ c #423D36",
"^ c #483F31",
"/ c #433E39",
"( c #45403A",
") c #4E4A3F",
"_ c #565149",
"` c #8E8A76",
"' c #949079",
"] c #B1AF87",
"[ c None",
/* pixels */
"[[[[[[[[[[[[[[[[[[[[[[[[[[[[[[[[[[[[[[[[[[[[[[[[[[",
"[[[[[[[[[[[[[[[[[[[[[[[[[[[[[[[[[[[[[[[[[[[[[[[[[[",
"[[[[[[[[[[[[[[[[[[[[[[[[[[[[[[[[[[[[[[[[[[[[[[[[[[",
"[[[[[[[[[[[[[[[[[[[[[[[[[[[[[[[[[[[[[[[[[[[[[[[[[[",
"[[[[[[[[[[[[[[[[[[[[[[[[[[[[[[[[[[[[[[[[[[[[[[[[[[",
"[[[[[[[[[[[[[[[[[[[[[[[[[[[[[[[[[[[[[[[[[[[[[[[[[[",
"[[[[[[[[[[[[[[[[[[[[[[[[[[[[[[[[[[[[[[[[[[[[[[[[[[",
"[[[[[[[[[[[[[[[[[[[[[[[[[[[[[[[[[[[[[[[[[[[[[[[[[[",
"[[[[[[[[[[[[[[[[[[[[[[[[[[[[[[[[[[[[[[[[[[[[[[[[[[",
"[[[[[[[[[[[[[[[[[[[[[[[[[[[[[[[[[[[[[[[[[[[[[[[[[[",
"[[[[[[[[[[[[[[[[[[[[[[[[[[[[[[[[[[[[[[[[[[[[[[[[[[",
"[[[[[[[[[[[[[[[[[[[[[[[[[[[[[[[[[[[[[[[[[[[[[[[[[[",
"[[[[[[[[[[[[[[[[[[[[[[[[[[[[[[[[[[[[[[[[[[[[[[[[[[",
"[[[[~!QWTYUIPLKJHGDSAZCNMmnbkjhgsapurewq0<,*#O[[[[",
"[[[[                                          [[[[",
"[[[[::::+ +::::$ .::::::::::::::. $::::+ +::::i[[[",
"[  yRRRR3 3RRRRy :RRRRRRRRRRRRRR: yRRRR3 3RRRRy  [",
"[  yRRRR3 3RRRRy :RRRRRRRRRRRRRR: yRRRR3 3RRRRy  [",
"[55cEEEEd5dEEEEc58EEEEEEEEEEEEEE85cEEEEd5dEEEEc55[",
"[99V^^^^B9B^^^^V9f^^^^^^^^^^^^^^f9V^^^^B9B^^^^V99[",
"[99V^^^^B9B^^^^V9f^^^^^^^^^^^^^^f9V^^^^B9B^^^^V99[",
"[99V^^^^B9B^^^^V9f^^^^^^^^^^^^^^f9V^^^^B9B^^^^V99[",
"[99V^^^^B9B^^^^V9f^^^^^^^^^^^^^^f9V^^^^B9B^^^^V99[",
"[  yRRRR3 3RRRRy :RRRRRRRRRRRRRR: yRRRR3 3RRRRy  [",
"[  yRRRR3 3RRRRy :RRRRRRRRRRRRRR: yRRRR3 3RRRRy  [",
"[  :3333% %3333: +33333333333333+ :3333% %3333:  [",
"[                                                [",
"[  .oooo. .oooo.  oo  qAAAAq  oo  .oooo. .oooo.  [",
"[  49999- -99994 o99o )]]]]) o99o 49999- -99994  [",
"[  49999- -99994 o99o )]]]]) o99o 49999- -99994  [",
"[  tvvvv2 2vvvvt ;vv; (''''( ;vv; tvvvv2 2vvvvt  [",
"[  yRRRR3 3RRRRy :RR: /````/ :RR: yRRRR3 3RRRRy  [",
"[  yRRRR3 3RRRRy :RRlyF____FylRR: yRRRR3 3RRRRy  [",
"[  yRRRR3 3RRRRy :RRRRz    zRRRR: yRRRR3 3RRRRy  [",
"[  yRRRR3 3RRRRy :RRRRz    zRRRR: yRRRR3 3RRRRy  [",
"[  yRRRR3 3RRRRy :RRRRRRRRRRRRRR: yRRRR3 3RRRRy  [",
"[  yRRRR3 3RRRRy :RRRRRRRRRRRRRR: yRRRR3 3RRRRy  [",
"[55cEEEEd5dEEEEc58EEEEEEEEEEEEEE85cEEEEd5dEEEEc55[",
"[99V^^^^B9B^^^^V9f^^^^^^^^^^^^^^f9V^^^^B9B^^^^V99[",
"[99V^^^^B9B^^^^V9f^^^^^^^^^^^^^^f9V^^^^B9B^^^^V99[",
"[99V^^^^B9B^^^^V9f^^^^^^^^^^^^^^f9V^^^^B9B^^^^V99[",
"[99V^^^^B9B^^^^V9f^^^^^^^^^^^^^^f9V^^^^B9B^^^^V99[",
"[  yRRRR3 3RRRRy :RRRRRRRRRRRRRR: yRRRR3 3RRRRy  [",
"[  yRRRR3 3RRRRy :RRRRRRRRRRRRRR: yRRRR3 3RRRRy  [",
"[  7xxxx1 1xxxx7 &xxxxxxxxxxxxxx& 7xxxx1 1xxxx7  [",
"[  49999- -99994 o99999999999999o 49999- -99994  [",
"[# >6666= =6666> X66666666666666X >6666= =6666> @[",
"                                                  ",
"                                                  ",
"[[[[[[[[[[[[[[[[[[[[[[[[[[[[[[[[[[[[[[[[[[[[[[[[[["
};
