/* XPM */
static char *result[] = {
/* columns rows colors chars-per-pixel */
"30 30 155 2 ",
"   c #3B4344",
".  c #3C4444",
"X  c #3E4645",
"o  c #414946",
"O  c #424A47",
"+  c #434B47",
"@  c #444C47",
"#  c #414A48",
"$  c #444C48",
"%  c #474F48",
"&  c #4A5249",
"*  c #51594D",
"=  c #525A4C",
"-  c #525A4D",
";  c #4C5354",
":  c #525A52",
">  c #575E51",
",  c #505856",
"<  c #575F57",
"1  c #59614F",
"2  c #586051",
"3  c #5C6450",
"4  c #5C6451",
"5  c #5F6751",
"6  c #596257",
"7  c #5D6656",
"8  c #616953",
"9  c #636B57",
"0  c #646D5D",
"q  c #697159",
"w  c #69705D",
"e  c #6B745C",
"r  c #6B745D",
"t  c #596061",
"y  c #5C6363",
"u  c #646C61",
"i  c #616964",
"p  c #616865",
"a  c #656D65",
"s  c #666D67",
"d  c #646A6B",
"f  c #6C7360",
"g  c #6D7460",
"h  c #6C7562",
"j  c #6F7663",
"k  c #717A61",
"l  c #747C64",
"z  c #757E64",
"x  c #727A69",
"c  c #757D6B",
"v  c #757C6C",
"b  c #6C7273",
"n  c #717870",
"m  c #788167",
"M  c #7B8469",
"N  c #7B8569",
"B  c #79816C",
"V  c #7A816E",
"C  c #7B846D",
"Z  c #7E886C",
"A  c #7C8572",
"S  c #7D8378",
"D  c #818B6F",
"F  c #828B72",
"G  c #848E71",
"H  c #858D77",
"J  c #879174",
"K  c #889175",
"L  c #889276",
"P  c #8A9378",
"I  c #8B9479",
"U  c #8C957A",
"Y  c #8D967B",
"T  c #8A927C",
"R  c #8B927F",
"E  c #8E977D",
"W  c #90997F",
"Q  c #7D8283",
"!  c #7F8585",
"~  c #8D9480",
"^  c #929A81",
"/  c #909884",
"(  c #939A87",
")  c #949C84",
"_  c #959D85",
"`  c #979F88",
"'  c #999E92",
"]  c #999D9C",
"[  c #99A18A",
"{  c #99A18B",
"}  c #9AA28C",
"|  c #9AA08E",
" . c #9CA48E",
".. c #9FA792",
"X. c #A0A795",
"o. c #A1A894",
"O. c #A2A994",
"+. c #A3AA96",
"@. c #A5AB98",
"#. c #A6AD9A",
"$. c #A7AE9B",
"%. c #A4A89C",
"&. c #A6AA9E",
"*. c #A7AD9C",
"=. c #A8AE9C",
"-. c #A8AF9C",
";. c #A9AF9D",
":. c #A9B09D",
">. c #AAB09E",
",. c #AAB19F",
"<. c #ABB19F",
"1. c #AAADA9",
"2. c #ABB2A0",
"3. c #ACB2A0",
"4. c #ACB2A1",
"5. c #ADB3A1",
"6. c #ADB3A2",
"7. c #AFB3A8",
"8. c #B3B6B6",
"9. c #B9BDB3",
"0. c #BCBFB6",
"q. c #B7BAB8",
"w. c #BDC0B7",
"e. c #C2C7B8",
"r. c #BEC1C1",
"t. c #C1C4C2",
"y. c #C3C6C3",
"u. c #C2C4C4",
"i. c #C8CBC3",
"p. c #CACDC5",
"a. c #CBCEC7",
"s. c #CCCFC7",
"d. c #CDCFCF",
"f. c #D5D7D6",
"g. c #D6D7D7",
"h. c #D6D8D8",
"j. c #DEDFDB",
"k. c #E9EAE6",
"l. c #EFF0F0",
"z. c #F1F2F0",
"x. c #F2F2F0",
"c. c #F2F3F1",
"v. c #F6F7F5",
"b. c #F7F8F5",
"n. c #FAFBF9",
"m. c #FBFBFA",
"M. c #FCFCFB",
"N. c gray99",
"B. c #FCFDFC",
"V. c #FDFDFC",
"C. c #FDFDFD",
"Z. c #FEFEFE",
"A. c #FEFFFE",
"S. c white",
"D. c None",
/* pixels */
"D.D.D.D.D.D.D.D.D.D.D.S.S.S.S.S.S.S.S.D.D.D.D.D.D.D.D.D.D.D.",
"D.D.D.D.D.D.D.D.S.S.s.7.e.e.e.e.e.e.7.s.D.D.D.D.D.D.D.D.D.D.",
"D.D.D.D.D.D.D.D.S.S.w.5 G G G G G G 5 w.S.S.D.D.D.D.D.D.D.D.",
"D.D.D.D.D.D.S.0.5 D z 5 5 5 5 5 5 5 5 z D 5 9.B.D.D.D.D.D.D.",
"D.D.D.D.D.m.%.S & r k z ~ ~ ~ ~ ~ ~ z k r & S &.n.D.D.D.D.D.",
"D.D.D.D.D.z.w * # 9 l K 6.2.>.>.>.>.K l 9 # * w c.D.D.D.D.D.",
"D.D.D.S.p.5 X 6 G >.6.6.6.[ G G G G 6.6.>.G 6 X 5 p.m.D.D.D.",
"D.D.D.S.y.& 0 A  .3.6.6._ Y G G W  .6.6.3. .A 0 & y.b.D.D.D.",
"D.D.D.x.q.# F ` 6.6.6.6.K K K K } 6.6.6.6.6.` F # q.k.D.D.D.",
"D.D.S.V e G >.6.6.6.6.6.6.6.6.6.6.6.6.6.6.6.6.>.G e V S.D.D.",
"D.D.S.s u ..4.6.6.6.O.^ B B B B B B ^ O.6.6.6.4...u s S.D.D.",
"D.D.S.p a 6.6.,.#.5.{ Z 1 1 1 1 1 1 Z { 6.6.:.$.6.a p S.D.D.",
"D.D.S.V B 6.6. .G >.~ 5             5 ~ 6.6._ K 6.B V S.D.D.",
"D.D.S.V B 6.) U G >.~ 5             5 ~ <.^ P K 6.B V S.D.D.",
"D.D.S.v c 6.E L G >.~ 5             5 ~ ,.I J K 6.c v S.D.D.",
"D.D.S.y i 6.6. .G >.~ 5             5 ~ 6.6._ K 6.i y S.D.D.",
"D.D.S.y < E ,.;.+.4.~ 5             5 ~ 6.6.$.o.E < y S.D.D.",
"D.D.S.! n N ;.6.6.6./ q $ $ $ $ $ $ q / 6.6.6.;.N n ! v.D.D.",
"D.D.D.M.p.5 *.6.6.6. .G 5 5 5 5 5 5 G  .6.6.6.*.5 p.V.D.D.D.",
"D.D.D.C.t.@ j R 6.6.;.+.| | | M T | +.;.6.6.R j @ t.C.D.D.D.",
"D.D.D.N.u.b 2 x | 3.6.6.6.-.+.G [ 6.6.6.3.| x 2 b t.N.D.D.D.",
"D.D.D.D.D.Z.t : 3 X.=.>.6.[ G K } 6.>.=.X.3 : t A.D.D.D.D.D.",
"D.D.D.D.D.D.f.] + f C Y 6.[ G @.;.6.Y C f + ] g.D.D.D.D.D.D.",
"D.D.D.D.D.D.i.1.Q > 7 h ( H m ( ( ( h 7 > Q 1.a.D.D.D.D.D.D.",
"D.D.D.D.D.D.3 ' l.t ; ; g g g g g g ; ; t l.' 3 D.D.D.D.D.D.",
"D.D.D.D.D.D.+ , d d.h.h.j.j.j.j.j.j.h.h.d.d , + D.D.D.D.D.D.",
"D.D.D.D.D.D.% O   8.r.r.r.r.r.r.r.r.r.r.8.  O % D.D.D.D.D.D.",
"D.D.D.D.D.D.5 = o .                     . o - 8 D.D.D.D.D.D.",
"D.D.D.D.D.D.D.D.1 X                     X 1 4 D.D.D.D.D.D.D.",
"D.D.D.D.D.D.D.D.5 X                     X 5 D.D.D.D.D.D.D.D."
};
