/* XPM */
static char *result[] = {
/* columns rows colors chars-per-pixel */
"25 25 133 2 ",
"   c #676230",
".  c #686331",
"X  c #6D6633",
"o  c #716934",
"O  c #726A35",
"+  c #736A35",
"@  c #766C37",
"#  c #706B3C",
"$  c #786E38",
"%  c #7B7337",
"&  c #7E723A",
"*  c #807639",
"=  c #80763A",
"-  c #81763B",
";  c #82753C",
":  c #837B3E",
">  c #86793D",
",  c #86783E",
"<  c #847B3F",
"1  c #887E3B",
"2  c #887A3E",
"3  c #857C40",
"4  c #897A40",
"5  c #8B7B40",
"6  c #887F42",
"7  c #8C7C43",
"8  c #8E7D42",
"9  c #8C7E42",
"0  c #8F7E42",
"q  c #877D4B",
"w  c #907F43",
"e  c #917F43",
"r  c #8E823D",
"t  c #8D813E",
"y  c #8E813E",
"u  c #8F8345",
"i  c #948144",
"p  c #948245",
"a  c #958245",
"s  c #9A8647",
"d  c #9B8A47",
"f  c #9D8B46",
"g  c #8B8253",
"h  c #A08A4A",
"j  c #A48F4B",
"k  c #A09245",
"l  c #AE9E47",
"z  c #A1924A",
"x  c #A79448",
"c  c #A9934C",
"v  c #AA944C",
"b  c #B29C4D",
"n  c #B29D4D",
"m  c #B39D4D",
"M  c #B49E4F",
"N  c #AA9350",
"B  c #AA9651",
"V  c #AE9850",
"C  c #A9955B",
"Z  c #AD9958",
"A  c #B29B51",
"S  c #B09E52",
"D  c #B29B54",
"F  c #B39C55",
"G  c #B1A048",
"H  c #B8A64A",
"J  c #B9A34E",
"K  c #BAA54E",
"L  c #BAA84B",
"P  c #BDA84F",
"I  c #BCA656",
"U  c #BEA758",
"Y  c #BFA95C",
"T  c #C1AC4F",
"R  c #C3AE50",
"E  c #C1AC53",
"W  c #C1AB57",
"Q  c #C4AD5E",
"!  c #C8B350",
"~  c #CCB751",
"^  c #CEB953",
"/  c #CFBA54",
"(  c #D0BB55",
")  c #D1BC56",
"_  c #D4BF59",
"`  c #C6AF60",
"'  c #D2BB67",
"]  c #D6C05B",
"[  c #D6C15B",
"{  c #DAC45E",
"}  c #DCC55F",
"|  c #D7C265",
" . c #D8C360",
".. c #DEC862",
"X. c #DFC862",
"o. c #D9C16B",
"O. c #E0C963",
"+. c #E0CA64",
"@. c #E1CA64",
"#. c #E3CC66",
"$. c #E4CD67",
"%. c #E3CD6A",
"&. c #E6CF69",
"*. c #E0C86C",
"=. c #E8D06B",
"-. c #EBD36E",
";. c #E8D072",
":. c #EDD570",
">. c #EFD772",
",. c #E8D074",
"<. c #ECD476",
"1. c #EED576",
"2. c #F0D873",
"3. c #F1D974",
"4. c #F3DB75",
"5. c #F1D977",
"6. c #F4DC77",
"7. c #F5DD77",
"8. c #F0D778",
"9. c #F6DE78",
"0. c #F7DF79",
"q. c #F6DD7C",
"w. c #F8DF7A",
"e. c #F9E07B",
"r. c #FAE17C",
"t. c #FBE27D",
"y. c #FCE37E",
"u. c #B8B18E",
"i. c #FDE480",
"p. c #FEE580",
"a. c #FFE681",
"s. c #DBD3BC",
"d. c None",
/* pixels */
"d.d.d.d.d.d.d.d.d.d.d.d.d.d.d.d.d.d.d.d.d.d.d.d.d.",
"d.d.d.d.d.d.d.s.C K ~ ~ ~ ~ ~ P d.d.d.d.d.d.d.d.d.",
"d.d.d.d.d.d.d.R j h h h h h h h j R T d.d.d.d.d.d.",
"d.d.d.d.d., x J n U ` ` ` ` ` U n J x 7 d.d.d.d.d.",
"d.d.d.d.w X 4 c ! -.a.a.a.a.a.-.! c 4 X i d.d.d.d.",
"d.d.d.o * G | 1.6.t.t.{ ] ] ] #.6.1.| G = $ d.d.d.",
"d.d.d.t k  .4.a.a.4.=./ ~ ^ ..:.a.a.4. .k y d.d.d.",
"d.d.  l [ r.a.a.a.@.~ ~ ~ ) r.a.a.a.a.r.[ l   d.d.",
"d.d.L %.0.p.a.a.a.e.7.7.7.9.p.a.a.a.a.p.0.%.H Z d.",
"d.z +.9.a.a.a.t.:.*.o.o.o.o.o.*.:.t.a.a.a.9.+.d d.",
"d.6 a.a.a.a.a.7.) b h h h h h b ) 7.a.a.a.a.a.3   ",
"d.B a.a.0.{ >.1.A 2 O O O O O 2 A 1.a.t.X.#.a.B p ",
"h F a.w.:.( -.<.N &           & N <.t.3._ } a.F h ",
"d.F a.} ~ ~ -.<.N &           & N <.-.~ ~ } a.F d.",
"d.u a.w.:.( -.<.N &           & N <.t.3._ } a.u d.",
"d.< 7.y.0.{ >.<.N &           & N <.a.t.X.O.7.: d.",
"d.1 ~ 2.a.a.a.<.N &           & N <.a.a.a.2.~ % d.",
"d.d.m ;.a.a.a.5.E f 4 4 4 4 4 f E 5.a.a.a.;.b u.d.",
"d.d.d.' 8.i.a.0.{ W F F V v D W { 0.a.i.8.' a d.d.",
"d.d.d.e F q.a.a.a.a.a.a.&.) r.a.a.a.a.q.F 0   d.d.",
"d.d.d.; 9 Y ,.a.a.a.y.$.[ ) r.a.a.a.,.Y 9 q d.d.d.",
"d.d.d.d.@ s o.a.a.a.r.) ~ ) r.a.a.a.o.s + d.d.d.d.",
"d.d.d.d.d.. 4 c ! -.r.) &.a.a.-.! c 4 # d.d.d.d.d.",
"d.d.d.d.d.d.d.> r S Q M I ` ` S r - g d.d.d.d.d.d.",
"d.d.d.d.d.d.d.d.d.8 h h h h h 5 d.d.d.d.d.d.d.d.d."
};
