/* XPM */
static char *result[] = {
/* columns rows colors chars-per-pixel */
"30 30 197 2 ",
"   c #3B4344",
".  c #3C4444",
"X  c #3E4645",
"o  c #404846",
"O  c #414946",
"+  c #424A47",
"@  c #434B47",
"#  c #444C47",
"$  c #444C48",
"%  c #474F48",
"&  c #464E49",
"*  c #474F49",
"=  c #485049",
"-  c #4C544A",
";  c #4D554B",
":  c #4A524C",
">  c #50584C",
",  c #51594C",
"<  c #535B4D",
"1  c #535B4E",
"2  c #555D4E",
"3  c #565E4E",
"4  c #565E4F",
"5  c #474F50",
"6  c #4E5553",
"7  c #4C5354",
"8  c #505851",
"9  c #575F54",
"0  c #59614F",
"q  c #5A624F",
"w  c #5C6450",
"e  c #5F6751",
"r  c #586054",
"t  c #5C6457",
"y  c #5B625E",
"u  c #616954",
"i  c #626A54",
"p  c #626B54",
"a  c #656D56",
"s  c #656E57",
"d  c #666E58",
"f  c #666F5E",
"g  c #686F5B",
"h  c #687159",
"j  c #6A715F",
"k  c #6C735F",
"l  c #6B745D",
"z  c #6B745E",
"x  c #6C755D",
"c  c #596061",
"v  c #5C6363",
"b  c #5D6465",
"n  c #616964",
"m  c #656B67",
"M  c #666D66",
"N  c #646A6B",
"B  c #697160",
"V  c #6D7460",
"C  c #6F7760",
"Z  c #697166",
"A  c #6A716A",
"S  c #727B61",
"D  c #717962",
"F  c #747D63",
"G  c #737A65",
"H  c #727C66",
"J  c #757E64",
"K  c #737A69",
"L  c #747D68",
"P  c #767E6A",
"I  c #6C7273",
"U  c #757B76",
"Y  c #777D77",
"T  c #717778",
"R  c #788167",
"E  c #79816A",
"W  c #7A826B",
"Q  c #79816C",
"!  c #7B836D",
"~  c #7A816E",
"^  c #7E866F",
"/  c #7E886C",
"(  c #7C8572",
")  c #7E8673",
"_  c #808A6E",
"`  c #818B6F",
"'  c #808773",
"]  c #818971",
"[  c #848E71",
"{  c #858F72",
"}  c #838A74",
"|  c #858E75",
" . c #83897B",
".. c #878E79",
"X. c #868D7A",
"o. c #878D7D",
"O. c #879174",
"+. c #889175",
"@. c #899377",
"#. c #8B9479",
"$. c #8C957B",
"%. c #8D967B",
"&. c #8E977D",
"*. c #8E967E",
"=. c #7C8283",
"-. c #7D8283",
";. c #868D82",
":. c #898E8F",
">. c #8D9383",
",. c #8D9480",
"<. c #8E9583",
"1. c #8D9285",
"2. c #8F9485",
"3. c #8E938E",
"4. c #919A81",
"5. c #939A87",
"6. c #949C84",
"7. c #959D85",
"8. c #949C87",
"9. c #91978B",
"0. c #979F88",
"q. c #979E89",
"w. c #969D8B",
"e. c #999F8E",
"r. c #8C9091",
"t. c #989D93",
"y. c #939898",
"u. c #98A089",
"i. c #99A189",
"p. c #99A18A",
"a. c #99A08C",
"s. c #9AA28C",
"d. c #9BA28C",
"f. c #9AA08E",
"g. c #9AA18F",
"h. c #9CA48E",
"j. c #9AA193",
"k. c #9FA691",
"l. c #9FA792",
"z. c #9FA594",
"x. c #A0A893",
"c. c #A2A995",
"v. c #A2A896",
"b. c #A4AB98",
"n. c #A4AB99",
"m. c #A4AA9A",
"M. c #A5AC99",
"N. c #A6AC9A",
"B. c #A6AD9A",
"V. c #A6AC9B",
"C. c #A7AE9B",
"Z. c #A9AF9E",
"A. c #AAB09E",
"S. c #AAB09F",
"D. c #AAB19F",
"F. c #9DA1A2",
"G. c #ABAEAF",
"H. c #ADB3A2",
"J. c #AEB1B1",
"K. c #B3B7B3",
"L. c #B3B6B6",
"P. c #BCBFB6",
"I. c #BDC0B7",
"U. c #C5C7BF",
"Y. c #BDC0C1",
"T. c #BEC1C1",
"R. c #C9CCC4",
"E. c #CACDC5",
"W. c #CBCEC6",
"Q. c #CDCFCE",
"!. c #CDCFCF",
"~. c #CDD0CF",
"^. c #D0D3CA",
"/. c #D5D8CF",
"(. c #CED0D0",
"). c #CFD1D1",
"_. c #D1D3D3",
"`. c #D3D5D2",
"'. c #D4D7D4",
"]. c #D6D9D0",
"[. c #D6D8D3",
"{. c #D7D9D4",
"}. c #D9DBD5",
"|. c #DADCD7",
" X c #D6D8D8",
".X c #D9DADA",
"XX c #DDDFDB",
"oX c #DEDFDB",
"OX c #EFF0F0",
"+X c #F6F6F4",
"@X c #F8F8F7",
"#X c #F9F9F8",
"$X c #FCFDFC",
"%X c #FEFEFD",
"&X c #FEFEFE",
"*X c white",
"=X c None",
/* pixels */
"=X=X=X=X=X=X=X=X=X=X=X=X*X*X*X*X*X*X%X=X=X=X=X=X=X=X=X=X=X=X",
"=X=X=X=X=X=X=X=X=X=X=X=XE.^.].].]./.R.}.=X=X=X=X=X=X=X=X=X=X",
"=X=X=X=X=X=X=X=X=X*X*X*XV S [ [ [ ` e I.*X*X=X=X=X=X=X=X=X=X",
"=X=X=X=X=X=X=X=X*X>...i._ S s s s a e ] 6.~ W.*X=X=X=X=X=X=X",
"=X=X=X=X=X=X=X|.P.! z f F W ' ' ' ' ' E C > t.U.=X=X=X=X=X=X",
"=X=X=X=X=X=X#XE.e / f   w X.H.H.H.H.H.' 0   < o.*X=X=X=X=X=X",
"=X=X=X=X=X*X2.g e & A m.V.S.H.+.+.#.H.Z.g.w = : k {.*X=X=X=X",
"=X=X=X=X.XJ.K q > M ;.H.H.b.h.[ %.0.H.H.N.' t - > `.*X=X=X=X",
"=X=X=X*X(.  3 <   j.H.H.H.p.[ [ p.H.H.H.H.H.Q 3   (.*X=X=X=X",
"=X=X=X*X{.e $ n H.H.H.H.H.p.[ e e p [ h.H.H.H.f.e {.*X=X=X=X",
"=X=X=XJ.3.e $ n H.H.H.H.s.| S ; ; > S 8.A.p.B.f.e {.*X=X=X=X",
"=X=X*X-.# e $ n H.H.H.H.+.S e     X e ,.B.[ l.f.e {.*X=X=X=X",
"=X=X*X-.# e e Q H.#.7.H.d ;       X e J [ [ l.f.e {.*X=X=X=X",
"=X=X*X-.# e e D 7.O.7.H.d ;       X e } u.[ l.f.e {.*X=X=X=X",
"=X=X*X-.# e e x +.{ 7.H.d ;       X e ,.C.+.x.e.w [.*X=X=X=X",
"=X=X*X-.# e e Q H.#.7.H.d ;       X e ,.H.H.H.9.  (.*X=X=X=X",
"=X=X*X-.# e ; Z H.c.M.H.d ;     % 4 R q.H.H.d.(   (.*X=X=X=X",
"=X=X*Xr.y 0 @ n H.H.H.H.l 1 O O 1 h #.k.H.H.*.P v Q.#X=X=X=X",
"=X=X=X@X(.    n H.H.H.H.+.S e e S +.H.H.H.H.Q o.*X=X=X=X=X=X",
"=X=X=X&X(.    8 Q n.H.H.x.a.5.R / +.H.H.n.Q r U *X=X=X=X=X=X",
"=X=X=X+X~.I 5 # 3 z.H.H.H.H.H.[ @.4.H.v.<.3 m :.$X=X=X=X=X=X",
"=X=X=X=X=X*XI     j.H.H.H.H.H.[ p.H.H.' 0   Y.*X=X=X=X=X=X=X",
"=X=X=X=X=X=X).F.  B ^ &.D.H.H.[ @.$.G 9 y (.'.=X=X=X=X=X=X=X",
"=X=X=X=X=X=X[.K.I  .) H w.f.f.H H L o.Y =.!.=X=X=X=X=X=X=X=X",
"=X=X=X=X=X=Xw 1.OXOXG.7 j V V 7 7 c OXOX_.  , w =X=X=X=X=X=X",
"=X=X=X=X=X=X@ 6 N N y. XXXoXoX X X!.N N b   o + =X=X=X=X=X=X",
"=X=X=X=X=X=X* @     T T.T.T.T.T.T.L.        @ * =X=X=X=X=X=X",
"=X=X=X=X=X=Xe 2 O .                     . O 3 i =X=X=X=X=X=X",
"=X=X=X=X=X=X=Xu 0 o                     o 0 =X=X=X=X=X=X=X=X",
"=X=X=X=X=X=X=X=Xe O                     O e =X=X=X=X=X=X=X=X"
};
