/* XPM */
static char *result[] = {
/* columns rows colors chars-per-pixel */
"25 25 92 1 ",
"  c #676230",
". c #696431",
"X c #706834",
"o c #726A35",
"O c #736A35",
"+ c #7A703A",
"@ c #7E723A",
"# c #7E723B",
"$ c #7F733B",
"% c #82753C",
"& c #85773E",
"* c #83783A",
"= c #86783E",
"- c #897A3F",
"; c #897A40",
": c #8C7D43",
"> c #8F843D",
", c #90853D",
"< c #91853E",
"1 c #938343",
"2 c #958245",
"3 c #958345",
"4 c #978446",
"5 c #9B8B44",
"6 c #988A47",
"7 c #9D8B45",
"8 c #9E8B47",
"9 c #9A8D44",
"0 c #9B8A49",
"q c #9C8F4C",
"w c #9E914D",
"e c #A08A4A",
"r c #A28C4D",
"t c #A49544",
"y c #A79448",
"u c #A0934D",
"i c #A4964E",
"p c #A9934B",
"a c #AB954D",
"s c #AC9949",
"d c #B19C4B",
"f c #B09A4D",
"g c #B19B4D",
"h c #B19C4D",
"j c #B29C4D",
"k c #A49750",
"l c #AB9C54",
"z c #A6985C",
"x c #B39C55",
"c c #B6A24C",
"v c #BAA54E",
"b c #BDA752",
"n c #BAA456",
"m c #B8A358",
"M c #BBA659",
"N c #BFAA5D",
"B c #AB9C6C",
"V c #C3AE50",
"C c #C2AB5C",
"Z c #C4AD5C",
"A c #CCB751",
"S c #C8B258",
"D c #CFB959",
"F c #D0BB55",
"G c #D2BD57",
"H c #D4BF59",
"J c #C6AF60",
"K c #C8B664",
"L c #D6C05B",
"P c #D7C161",
"I c #DEC862",
"U c #DDC56D",
"Y c #E0CA64",
"T c #E1CA67",
"R c #E7CF6A",
"E c #EBD36E",
"W c #E1CC71",
"Q c #E5CF73",
"! c #EFD772",
"~ c #EAD275",
"^ c #ECD476",
"/ c #F3DB75",
"( c #F5DD77",
") c #F0D778",
"_ c #F4DB7A",
"` c #F7DE79",
"' c #F9E07B",
"] c #FBE27D",
"[ c #F9E17E",
"{ c #FBE27F",
"} c #FFE681",
"| c None",
/* pixels */
"|||||||||||||||||||||||||",
"||||||||||epAAAAje|||||||",
"|||||||ehAAVeeeeepAh|||||",
"|||||||gstcbJJJJJZv7=||||",
"||||||eVt 2x}}}}}^e@ e|||",
"||||eee*iW~)}ILL!{^m2o:r|",
"||||e4;wK}}]EGFY/}}UJ@&-|",
"||| e; W}}}(AAL}}}}}}e@ |",
"|||2owW[}}}(AfaxSI}}}^m3|",
"|||e k}}}}!Tv1;;yS}/E}Je|",
"| $e k}}}}LVeo  ;x}YA}Je|",
"| @e2N}IR}n8o.  ;aLFA}Je|",
"| @eeC(HY}x2    ;aLFA}Je|",
"| @eejAAY}x2    ;x}YA}Je|",
"| @eeC(HY}x2    ;x}'(}lO|",
"| @e2N}IR}x2  .o1n}}}(u |",
"| #e k}}}}x2  oevL}}}A, |",
"||+@ k}}}}Sd;;1vP!}}}jz||",
"|||  q^{}}IDxafAE}}_^2B||",
"|||  @e^}}}}}LAAE}}Je |||",
"|||| X@Q}}}}}LGE`_J0@||||",
"||||   W}}}}}LL}}^e% ||||",
"|||||| 2jA(}}LAAj2 ||||||",
"||||||||5<MJJ9>>6||||||||",
"||||||||| 2eeo  |||||||||"
};
