/* XPM */
static char *result[] = {
/* columns rows colors chars-per-pixel */
"30 30 182 2 ",
"   c #3B4344",
".  c #3C4444",
"X  c #3D4545",
"o  c #3E4645",
"O  c #3F4745",
"+  c #3E4647",
"@  c #404846",
"#  c #414946",
"$  c #424A47",
"%  c #434B47",
"&  c #444C47",
"*  c #444C48",
"=  c #454D48",
"-  c #474F48",
";  c #474F49",
":  c #474F4B",
">  c #454D4C",
",  c #495149",
"<  c #4A5249",
"1  c #4C544A",
"2  c #4D554B",
"3  c #4F574B",
"4  c #4D564F",
"5  c #50584D",
"6  c #535B4D",
"7  c #555D4E",
"8  c #565E4E",
"9  c #575F4E",
"0  c #4A5152",
"q  c #4E5650",
"w  c #4C5354",
"e  c #4E5654",
"r  c #535C53",
"t  c #575F53",
"y  c #555D54",
"u  c #515859",
"i  c #58604E",
"p  c #58604F",
"a  c #59614F",
"s  c #5C6450",
"d  c #5F6751",
"f  c #596257",
"g  c #5E6654",
"h  c #5F6855",
"j  c #626A57",
"k  c #656E57",
"l  c #646C58",
"z  c #676F58",
"x  c #676F59",
"c  c #62695C",
"v  c #676E5E",
"b  c #677058",
"n  c #687159",
"m  c #697159",
"M  c #68715B",
"N  c #69725B",
"B  c #6A725D",
"V  c #6B735D",
"C  c #6B745C",
"Z  c #6B755E",
"A  c #6D765D",
"S  c #6C745F",
"D  c #5A6061",
"F  c #5C6263",
"G  c #646A6B",
"H  c #6A7360",
"J  c #6C7562",
"K  c #6F7764",
"L  c #707A60",
"P  c #707962",
"I  c #727A63",
"U  c #757E64",
"Y  c #747E67",
"T  c #767F66",
"R  c #71796F",
"E  c #6B7172",
"W  c #6C7273",
"Q  c #707771",
"!  c #727875",
"~  c #787E7A",
"^  c #787E7E",
"/  c #788167",
"(  c #77806C",
")  c #78826A",
"_  c #79826A",
"`  c #7B8469",
"'  c #7B8569",
"]  c #7E886C",
"[  c #7C8373",
"{  c #80896D",
"}  c #818B6F",
"|  c #808970",
" . c #848E71",
".. c #858F72",
"X. c #828B75",
"o. c #83897B",
"O. c #878E79",
"+. c #858B7C",
"@. c #878D7D",
"#. c #889175",
"$. c #889077",
"%. c #899378",
"&. c #8B947A",
"*. c #8B947B",
"=. c #8D967B",
"-. c #8E977D",
";. c #90987F",
":. c #7D8283",
">. c #808686",
",. c #868C81",
"<. c #888F83",
"1. c #828788",
"2. c #898D8E",
"3. c #8C9387",
"4. c #929A81",
"5. c #939A87",
"6. c #959A8B",
"7. c #93998D",
"8. c #8D9192",
"9. c #929797",
"0. c #9A9E9F",
"q. c #99A18A",
"w. c #9BA38C",
"e. c #9BA38D",
"r. c #99A08E",
"t. c #9AA08E",
"y. c #9CA48E",
"u. c #9EA691",
"i. c #9FA792",
"p. c #A0A795",
"a. c #A0A893",
"s. c #A3AB95",
"d. c #A2A996",
"f. c #A3AA96",
"g. c #A4AB97",
"h. c #A3A998",
"j. c #A4AB99",
"k. c #A6AD9A",
"l. c #A9AF9D",
"z. c #A9B09C",
"x. c #AAB09E",
"c. c #AAB09F",
"v. c #ABAFA7",
"b. c #ACB2A1",
"n. c #ADB3A1",
"m. c #ADB3A2",
"M. c #ADB4A1",
"N. c #B2B6AB",
"B. c #B5BBAA",
"V. c #B4B8AC",
"C. c #B1B5B2",
"Z. c #B0B3B4",
"A. c #B8BBBC",
"S. c #BEC1B8",
"D. c #C2C7B8",
"F. c #C2C6BA",
"G. c #BEC1C1",
"H. c #C2C4C5",
"J. c #C6C8C9",
"K. c #CED0D0",
"L. c #D0D2D1",
"P. c #D4D6D6",
"I. c #D7D9D4",
"U. c #D6D8D8",
"Y. c #DBDDDA",
"T. c #DDDEDA",
"R. c #DFE2DB",
"E. c #E4E5E2",
"W. c #E8E9E5",
"Q. c #EFF0F0",
"!. c #F0F1F0",
"~. c #F1F2F0",
"^. c #F2F3F1",
"/. c #FAFAF9",
"(. c #FAFBF9",
"). c #FAFBFA",
"_. c #FBFBFA",
"`. c #FBFBFB",
"'. c #FBFCFB",
"]. c #FDFDFD",
"[. c white",
"{. c None",
/* pixels */
"{.{.{.{.{.{.{.{.{.{.{.{.{.[.[.[.[.[.[.{.{.{.{.{.{.{.{.{.{.{.",
"{.{.{.{.{.{.{.{.{.{.{.{.[.S.N.D.V.v.0.P.{.{.{.{.{.{.{.{.{.{.",
"{.{.{.{.{.{.{.{.{.{.{.{.[.6.k  .n 8   K.).{.{.{.{.{.{.{.{.{.",
"{.{.{.{.{.{.{.{.{.{.[.E.d / ] d d d d & E [.{.{.{.{.{.{.{.{.",
"{.{.{.{.{.{.{.{.{.{.[.W.U L M < [ O.U H 3.[.{.{.{.{.{.{.{.{.",
"{.{.{.{.{.{.{.{.{.{.~.R. .N p > 7.g.#...s.[.{.{.{.{.{.{.{.{.",
"{.{.{.{.{.{.{.{.{.[.6.k  .r e m.m.m.m.-.s.[.{.{.{.{.{.{.{.{.",
"{.{.{.{.{.{.{.{.{.[.h.P f R ,.m.w.e.m.a.B.[.{.{.{.{.{.{.{.{.",
"{.{.{.{.{.{.{.{.{.~.z._ o <.n.x.&.*.x.b.F.[.{.{.{.{.{.{.{.{.",
"{.{.{.{.{.{.{.`.^.d / ] d 5.k. .n m  .f.F.[.{.{.{.{.{.{.{.{.",
"{.{.{.{.{.{.{.`.^.d b I 5.j.d.C 5 t  .-.M.[.{.{.{.{.{.{.{.{.",
"{.{.{.{.{.{.{.`.^.d d S m.l.r.a % q  .{ u.[.{.{.{.{.{.{.{.{.",
"{.{.{.{.{.{.{._.^.d d S m.4.)     q  .n @.[.{.{.{.{.{.{.{.{.",
"{.{.{.{.{.{.{._.!.- 9 S m.4.)     q  .n @.[.{.{.{.{.{.{.{.{.",
"{.{.{.{.{.{.{._.Q.  6 V k.;.)     q  .l o.[.{.{.{.{.{.{.{.{.",
"{.{.{.{.{.{.{._.Q.  6 k  . .)     q  .4 W [.{.{.{.{.{.{.{.{.",
"{.{.{.{.{.{.{._.Q.  6 B f.-.)   3 j  .4 W [.{.{.{.{.{.{.{.{.",
"{.{.{.{.{.{.{._.Q.  6 S m.q.X.* h A ' Q 2.'.{.{.{.{.{.{.{.{.",
"{.{.{.{.{.{.{.(.Q.  6 S m.m.p.d ` ' d I.[.{.{.{.{.{.{.{.{.{.",
"{.{.{.{.{.{.{.(.Q.  6 x -.f.c.t.%.Y & L.[.{.{.{.{.{.{.{.{.{.",
"{.{.{.{.{.{.{.(.Q.  2 g  .i.m.m.$.( E L.].{.{.{.{.{.{.{.{.{.",
"{.{.{.{.{.{.{./.Q.    : } y.x.x.K +.[.{.{.{.{.{.{.{.{.{.{.{.",
"{.{.{.{.{.{.{./.Q.    $ z | =.=.y ! [.^ & d {.{.{.{.{.{.{.{.",
"{.{.{.{.{.{.{.C.A.:.u O 6 Z T J ~ 8.G.F # 6 {.{.{.{.{.{.{.{.",
"{.{.{.{.{.{.s , 0 Q.1.w w c v w J.H.      o 7 s {.{.{.{.{.{.",
"{.{.{.{.{.{.$ o + G Z.U.U.Y.T.U.>.D       . # $ {.{.{.{.{.{.",
"{.{.{.{.{.{.; @     9.G.G.G.G.G.F         . = ; {.{.{.{.{.{.",
"{.{.{.{.{.{.d 1 #                       X % i {.{.{.{.{.{.{.",
"{.{.{.{.{.{.{.a 8                       $ a {.{.{.{.{.{.{.{.",
"{.{.{.{.{.{.{.{.s                       * {.{.{.{.{.{.{.{.{."
};
