/* XPM */
static char *result[] = {
/* columns rows colors chars-per-pixel */
"25 25 132 2 ",
"   c #676230",
".  c #686331",
"X  c #6C6532",
"o  c #6D6633",
"O  c #6A6534",
"+  c #6B6736",
"@  c #6D6838",
"#  c #716B33",
"$  c #716935",
"%  c #736A35",
"&  c #736B35",
"*  c #756C36",
"=  c #766F38",
"-  c #716D3E",
";  c #7B7337",
":  c #7C7437",
">  c #7B7238",
",  c #7C7039",
"<  c #7D794E",
"1  c #83763C",
"2  c #84763D",
"3  c #84773D",
"4  c #847A3B",
"5  c #897A40",
"6  c #8E7E41",
"7  c #8F7F43",
"8  c #8F833D",
"9  c #8F833E",
"0  c #90843D",
"q  c #958245",
"w  c #978446",
"e  c #9A8647",
"r  c #968940",
"t  c #968941",
"y  c #9A8D41",
"u  c #9F8949",
"i  c #9F8C4B",
"p  c #848058",
"a  c #A08A4A",
"s  c #A48E4B",
"d  c #A48F4B",
"f  c #A18B4C",
"g  c #A28C4D",
"h  c #A28D4F",
"j  c #A19045",
"k  c #A29047",
"l  c #A49347",
"z  c #A49544",
"x  c #A49545",
"c  c #A49644",
"v  c #A5904B",
"b  c #A59548",
"n  c #A7954E",
"m  c #A4974F",
"M  c #AB974A",
"N  c #A9934C",
"B  c #AA954C",
"V  c #A99848",
"C  c #AC984B",
"Z  c #AE9A4B",
"A  c #AD9C48",
"S  c #AD984D",
"D  c #AF9A4C",
"F  c #B09A4D",
"G  c #B29C4D",
"H  c #B29D4D",
"J  c #A38E51",
"K  c #AA9350",
"L  c #AB9651",
"P  c #AA9B53",
"I  c #A79358",
"U  c #A3935D",
"Y  c #A9955B",
"T  c #B39E50",
"R  c #B69F55",
"E  c #B6A14D",
"W  c #B6A24C",
"Q  c #B6A14E",
"!  c #B7A24E",
"~  c #B8A24E",
"^  c #BAA44E",
"/  c #BAA54E",
"(  c #BEA84F",
")  c #B9A352",
"_  c #BBA552",
"`  c #BAA757",
"'  c #BEA758",
"]  c #C2AF4E",
"[  c #C3AF4E",
"{  c #C1AB54",
"}  c #C1AB59",
"|  c #C0AA5D",
" . c #C8B350",
".. c #C8B351",
"X. c #CAB451",
"o. c #CCB751",
"O. c #CDB852",
"+. c #CFBA54",
"@. c #D1BC56",
"#. c #D2BC59",
"$. c #D4BF59",
"%. c #D5BF5A",
"&. c #CCB463",
"*. c #D0B866",
"=. c #D3BC65",
"-. c #D1BE69",
";. c #DAC45E",
":. c #D9C16B",
">. c #DDC668",
",. c #E1CA64",
"<. c #E5CE68",
"1. c #E7D06A",
"2. c #EBD36E",
"3. c #E4CE72",
"4. c #EDD570",
"5. c #F1D974",
"6. c #F3DB75",
"7. c #F0D979",
"8. c #F6DE78",
"9. c #F7DF79",
"0. c #F4DC7B",
"q. c #F6DD7C",
"w. c #F7DF7C",
"e. c #FAE17C",
"r. c #FBE27D",
"t. c #F9E07E",
"y. c #FCE37E",
"u. c #FCE37F",
"i. c #FDE47F",
"p. c #FEE580",
"a. c #FFE681",
"s. c None",
/* pixels */
"s.s.s.s.s.s.s.s.s.s.s.s.s.s.s.s.s.s.s.s.s.s.s.s.s.",
"s.s.s.s.s.s.s.s.s.s.s.a Q  .d 5   s.s.s.s.s.s.s.s.",
"s.s.s.s.s.s.s.s.s.J s  .Q a a a e & O s.s.s.s.s.s.",
"s.s.s.s.s.s.s.s.s.G H ^ k 7 | ' Z r 8 s.s.s.s.s.s.",
"s.s.s.s.s.s.s.s.s.o. .d 2 = 7.2.o.o.o.s.s.s.s.s.s.",
"s.s.s.s.s.s.s.s.h ( [ > P 3.u.r.5.$.o.s.s.s.s.s.s.",
"s.s.s.s.s.s.s.s.T V x m -.i.4.6.y.1.s.s.s.s.s.s.s.",
"s.s.s.s.s.s.s.s.o.0 = 7.a.e.@.,.a.a.a.s.s.s.s.s.s.",
"s.s.s.s.s.s.Y B ..M i 0.2.#.S _ ;.9.a.s.s.s.s.s.s.",
"s.s.s.s.s.s.g v ~ } &.t.>.E 6 l +.<.2.s.s.s.s.s.s.",
"s.s.s.s.s.s.g a a :.a.a.*.e o 0 o.o.o.s.s.s.s.s.s.",
"s.s.s.s.s.s.I a a :.r.;.b $ . 0 ..F L s.s.s.s.s.s.",
"s.s.s.s.s.s.U w u :.e.@.y     0  .N a s.s.s.s.s.s.",
"s.s.s.s.s.s.p % e :.e.@.y     0  .N s.s.s.s.s.s.s.",
"s.s.s.s.s.s.< % e { %.O.y     0 [ 4 s.s.s.s.s.s.s.",
"s.s.s.s.s.s.+ % e { %.O.y . $ t ] ;   s.s.s.s.s.s.",
"s.s.s.s.s.s.  % e :.e.@.y o e G ] : @ s.s.s.s.s.s.",
"s.s.s.s.s.s.s.% e :.i.4.` 6 E ! D s.s.s.s.s.s.s.s.",
"s.s.s.s.s.s.s.% e =.8.p.:.R X.W q s.s.s.s.s.s.s.s.",
"s.s.s.s.s.s.  % e / @.e.a.e.@.c   s.s.s.s.s.s.s.s.",
"s.s.s.s.s.s.  X , A @.e.a.w.) n s.s.s.s.s.s.s.s.s.",
"s.s.s.s.s.s.      z @.e.a.q.K f s.s.s.s.s.s.s.s.s.",
"s.s.s.s.s.s.      5 d  .o.] #   s.s.s.s.s.s.s.s.s.",
"s.s.s.s.s.s.s.-   * 1 C j 9 s.s.s.s.s.s.s.s.s.s.s.",
"s.s.s.s.s.s.s.s.    o e 3   s.s.s.s.s.s.s.s.s.s.s."
};
