/* XPM */
static char *result[] = {
/* columns rows colors chars-per-pixel */
"30 30 58 1 ",
"  c #3B4344",
". c #3C4444",
"X c #3E4645",
"o c #404846",
"O c #414946",
"+ c #434B47",
"@ c #444C47",
"# c #454D47",
"$ c #474F48",
"% c #464D4E",
"& c #495149",
"* c #4A5249",
"= c #51594C",
"- c #535B4D",
"; c #545C4D",
": c #575F4E",
"> c #59614F",
", c #5C6450",
"< c #5E6651",
"1 c #5F6751",
"2 c #626A54",
"3 c #656E57",
"4 c #687059",
"5 c #6B745C",
"6 c #5C6363",
"7 c #646A6B",
"8 c #727B61",
"9 c #6C7273",
"0 c #707676",
"q c #788167",
"w c #808A6D",
"e c #848E71",
"r c #7D8282",
"t c #959A8B",
"y c #979C8D",
"u c #8D9192",
"i c #A9AF9D",
"p c #A8ABAC",
"a c #A8ACAC",
"s c #ADB4A1",
"d c #BDC0C1",
"f c #BEC1C1",
"g c #C8CBC4",
"h c #CCCFC7",
"j c #CED0D0",
"k c #CED0D1",
"l c #D6D8D3",
"z c #D7D9D4",
"x c #DADCD6",
"c c #DADCDB",
"v c #DCDED8",
"b c #E0E3DC",
"n c #DFE0E0",
"m c #E1E2E3",
"M c #FAFBFA",
"N c #FDFDFD",
"B c white",
"V c None",
/* pixels */
"VVVVVVVVVVVVVMNBVVVVVVVVVVVVVV",
"VVVVVVVVVVVVVhgdcVVVVVVVVVVVVV",
"VVVVVVVVVVVVBt> jBVVVVVVVVVVVV",
"VVVVVVVVVVVVBiq>lBVVVVVVVVVVVV",
"VVVVVVVVVVVVBsw5xBVVVVVVVVVVVV",
"VVVVVVVVVVVVBseebBVVVVVVVVVVVV",
"VVVVVVVVVVVVBseebBVVVVVVVVVVVV",
"VVVVVVVVVVVVBseebBVVVVVVVVVVVV",
"VVVVVVVVVVVVBseebBVVVVVVVVVVVV",
"VVVVVVVVVVVVBy4ebBVVVVVVVVVVVV",
"VVVVVVVVVVVVBt3ebBVVVVVVVVVVVV",
"VVVVVVVVVVVVBt3ebBVVVVVVVVVVVV",
"VVVVVVVVVVVVBt3ebBVVVVVVVVVVVV",
"VVVVVVVVVVVVBt28vBVVVVVVVVVVVV",
"VVVVVVVVVVVVBt11zBVVVVVVVVVVVV",
"VVVVVVVVVVVVBt11zBVVVVVVVVVVVV",
"VVVVVVVVVVVVBt11zBVVVVVVVVVVVV",
"VVVVVVVVVVVVBt11zBVVVVVVVVVVVV",
"VVVVVVVVVVVVBrO1zBVVVVVVVVVVVV",
"VVVVVVVVVVVVBrO1zBVVVVVVVVVVVV",
"VVVVVVVVVVVVBrO1zBVVVVVVVVVVVV",
"VVVVVVVVVVVVBrO1zBVVVVVVVVVVVV",
"VVVVVVVV,  0BrO1zm VVVVVVVVVVV",
"VVVVVVV<>  6BrO,lk  +,VVVVVVVV",
"VVVVVV1*   6Br  jk   X:1VVVVVV",
"VVVVVV$o   %raffu9   .#$VVVVVV",
"VVVVVVOX     pnn7    .oOVVVVVV",
"VVVVVV1&             X:1VVVVVV",
"VVVVVVV;=           O-VVVVVVVV",
"VVVVVVVV,           @1VVVVVVVV"
};
