/* XPM */
static char *result[] = {
/* columns rows colors chars-per-pixel */
"25 25 18 1 ",
"  c #676230",
". c #696431",
"X c #6D6633",
"o c #7C7039",
"O c #81743C",
"+ c #9A8647",
"@ c #9D8848",
"# c #A08A4A",
"$ c #A48E4B",
"% c #A48F4B",
"& c #AC974C",
"* c #B49F4D",
"= c #C0AA4F",
"- c #C8B350",
"; c #C8B351",
": c #C9B451",
"> c #CCB751",
", c None",
/* pixels */
",,,,,,,,,,,,,,,,,,,,,,,,,",
",,,,,,,,,,,,+X,,,,,,,,,,,",
",,,,,,,,,,,,-%,,,,,,,,,,,",
",,,,,,,,,,,,:*,,,,,,,,,,,",
",,,,,,,,,,,,>>,,,,,,,,,,,",
",,,,,,,,,,,,>>,,,,,,,,,,,",
",,,,,,,,,,,,>>,,,,,,,,,,,",
",,,,,,,,,,,,>>,,,,,,,,,,,",
",,,,,,,,,,,,&;,,,,,,,,,,,",
",,,,,,,,,,,,%-,,,,,,,,,,,",
",,,,,,,,,,,,%-,,,,,,,,,,,",
",,,,,,,,,,,,%-,,,,,,,,,,,",
",,,,,,,,,,,,$=,,,,,,,,,,,",
",,,,,,,,,,,,##,,,,,,,,,,,",
",,,,,,,,,,,,##,,,,,,,,,,,",
",,,,,,,,,,,,##,,,,,,,,,,,",
",,,,,,,,,,,,##,,,,,,,,,,,",
",,,,,,,,,,,,O@,,,,,,,,,,,",
",,,,,,,,,,,,X+,,,,,,,,,,,",
",,,,,,,,,,,,X+,,,,,,,,,,,",
",,,,,,,,,,,,X+,,,,,,,,,,,",
",,,,,,,,,,,,X+,,,,,,,,,,,",
",,,,,,,,,,,,X+,,,,,,,,,,,",
",,,,,,,,,,,,.o,,,,,,,,,,,",
",,,,,,,,,,,,  ,,,,,,,,,,,"
};
