/* XPM */
static char *result[] = {
/* columns rows colors chars-per-pixel */
"30 30 208 2 ",
"   c #3B4344",
".  c #3C4444",
"X  c #3D4545",
"o  c #3E4645",
"O  c #3E4646",
"+  c #3F4746",
"@  c #3E4647",
"#  c #404846",
"$  c #414946",
"%  c #404847",
"&  c #414947",
"*  c #444C47",
"=  c #424A4B",
"-  c #464E48",
";  c #474F48",
":  c #474F49",
">  c #434B4C",
",  c #464E4C",
"<  c #4B534A",
"1  c #4C544A",
"2  c #4D554A",
"3  c #4D554B",
"4  c #4E564B",
"5  c #4C554D",
"6  c #50584C",
"7  c #535B4C",
"8  c #535B4D",
"9  c #565E4E",
"0  c #575F4F",
"q  c #4C5353",
"w  c #4B5354",
"e  c #4D5454",
"r  c #545C53",
"t  c #515859",
"y  c #58604E",
"u  c #586050",
"i  c #5A6151",
"p  c #5B6350",
"a  c #5C6450",
"s  c #5D6550",
"d  c #5F6751",
"f  c #5A6357",
"g  c #5B6456",
"h  c #5C6554",
"j  c #5F6754",
"k  c #5B635A",
"l  c #5B6458",
"z  c #5D645A",
"x  c #5B625D",
"c  c #5C645C",
"v  c #616953",
"b  c #636B56",
"n  c #656E57",
"m  c #666E57",
"M  c #646D5B",
"N  c #666F5B",
"B  c #636B5D",
"V  c #666F5F",
"C  c #67705F",
"Z  c #6A725B",
"A  c #68715C",
"S  c #6A735C",
"D  c #6C745C",
"F  c #6C755E",
"G  c #6F775F",
"H  c #6F785F",
"J  c #585F60",
"K  c #5B6262",
"L  c #616768",
"P  c #6C7460",
"I  c #6D7560",
"U  c #6C7561",
"Y  c #6E7661",
"T  c #6C7462",
"R  c #6C7562",
"E  c #697166",
"W  c #6B7464",
"Q  c #687069",
"!  c #717962",
"~  c #727B62",
"^  c #737C62",
"/  c #747D63",
"(  c #727A64",
")  c #737B65",
"_  c #747D64",
"`  c #757C65",
"'  c #757E64",
"]  c #777E6B",
"[  c #727778",
"{  c #777C7D",
"}  c #778066",
"|  c #788167",
" . c #788169",
".. c #78806A",
"X. c #7A836A",
"o. c #7A846B",
"O. c #79816C",
"+. c #7B856C",
"@. c #7C856D",
"#. c #7C866C",
"$. c #7D866C",
"%. c #7E886D",
"&. c #7F896E",
"*. c #7E857B",
"=. c #80896D",
"-. c #80896F",
";. c #808A6E",
":. c #818B6E",
">. c #818B6F",
",. c #838C70",
"<. c #848E71",
"1. c #848E72",
"2. c #818874",
"3. c #828977",
"4. c #858D75",
"5. c #868F74",
"6. c #869073",
"7. c #879076",
"8. c #899277",
"9. c #8D967B",
"0. c #8D967C",
"q. c #7A7F80",
"w. c #7D8283",
"e. c #868D82",
"r. c #878E83",
"t. c #8B9280",
"y. c #8D9481",
"u. c #8F9780",
"i. c #909980",
"p. c #919A80",
"a. c #929A82",
"s. c #929B82",
"d. c #939B84",
"f. c #949C84",
"g. c #959D85",
"h. c #959E86",
"j. c #969D88",
"k. c #8D9292",
"l. c #909495",
"z. c #929797",
"x. c #959A95",
"c. c #989C9C",
"v. c #9B9E9F",
"b. c #9AA18E",
"n. c #9CA48E",
"m. c #9DA58F",
"M. c #9EA58F",
"N. c #9FA694",
"B. c #A0A697",
"V. c #A1A893",
"C. c #A1A995",
"Z. c #A3AA96",
"A. c #A1A699",
"S. c #A2A79A",
"D. c #A5AB99",
"F. c #A7AD9A",
"G. c #A7AD9B",
"H. c #A6AA9E",
"J. c #A9AF9E",
"K. c #A9B09E",
"L. c #AAB09E",
"P. c #AAB19F",
"I. c #9CA0A0",
"U. c #9DA1A2",
"Y. c #A2A6A7",
"T. c #A3A7A7",
"R. c #A9AEA9",
"E. c #AAB0A0",
"W. c #ABB0A1",
"Q. c #ABB2A0",
"!. c #ACB2A0",
"~. c #ADB3A2",
"^. c #AFB3A8",
"/. c #B8BDAC",
"(. c #AEB1B1",
"). c #B8BBBC",
"_. c #B9BCBC",
"`. c #BABDBD",
"'. c #C2C7B8",
"]. c #BEC1C1",
"[. c #BFC2C2",
"{. c #C3C6C2",
"}. c #C4C7C3",
"|. c #C5C8C3",
" X c #CACEC2",
".X c #C9CCC4",
"XX c #CACDC5",
"oX c #CBCEC7",
"OX c #CDD1C6",
"+X c #CED1C9",
"@X c #CFD2C9",
"#X c #D2D5CF",
"$X c #D5D8CE",
"%X c #D1D3D3",
"&X c #D3D5D5",
"*X c #D6D9D1",
"=X c #D6DAD0",
"-X c #D9DBDB",
";X c #DFE0E0",
":X c #E6E7E6",
">X c #E7E8E8",
",X c #EEEFEE",
"<X c #F7F8F7",
"1X c #F8F8F7",
"2X c #F8F9F7",
"3X c #F9F9F8",
"4X c white",
"5X c None",
/* pixels */
"5X5X5X5X5X5X5X5X5X5X4X4X4X4X4X5X5X5X5X5X5X5X5X5X5X5X5X5X5X5X",
"5X5X5X5X5X5X5X5X5X&X[.|.+X$X@X#X5X5X5X5X5X5X5X5X5X5X5X5X5X5X",
"5X5X5X5X5X5X5X5X5X`.q 6 D =.H A.<X5X5X5X5X5X5X5X5X5X5X5X5X5X",
"5X5X5X5X5X5X5X4XT.x i s v m / @.3.oX5X5X5X5X5X5X5X5X5X5X5X5X",
"5X5X5X5X5X5X5X4XR.g S ) T u A ^ ..+X4X5X5X5X5X5X5X5X5X5X5X5X",
"5X5X5X5X5X5X5X4X'.<.6.n.r., 6 H 0.=X4X5X5X5X5X5X5X5X5X5X5X5X",
"5X5X5X5X5X5X5X4X'.p.F.!.E.B.Q l &.` H.<X5X5X5X5X5X5X5X5X5X5X",
"5X5X5X5X5X5X5X4X Xm.P.Z.C.J.e.E C F W.2X5X5X5X5X5X5X5X5X5X5X",
"5X5X5X5X5X5X5X4X*X~.Q.h.s.L.~.*., R /.3X5X5X5X5X5X5X5X5X5X5X",
"5X5X5X5X5X5X5X4X*XV.8.~ G 5.M.t.b } X.] .X5X5X5X5X5X5X5X5X5X",
"5X5X5X5X5X5X5X4XOXf.1.N h _ j.b.2. .D I XX5X5X5X5X5X5X5X5X5X",
"5X5X5X5X5X5X5X4X'.<.>.f : j y.~.G.O.d P XX5X5X5X5X5X5X5X5X5X",
"5X5X5X5X5X5X5X4X^.D %.f   O V h.D.O.d P XX5X5X5X5X5X5X5X5X5X",
"5X5X5X5X5X5X5X4X^.D %.f   O V h.D.O.y z }.5X5X5X5X5X5X5X5X5X",
"5X5X5X5X5X5X5X4X^.D %.f   O V h.D.O.6 e ].5X5X5X5X5X5X5X5X5X",
"5X5X5X5X5X5X5X4XU.r +.f   O V <.:.D 6 e ].5X5X5X5X5X5X5X5X5X",
"5X5X5X5X5X5X5X4XU.r #.M ; % V 9.d.( 6 e ].5X5X5X5X5X5X5X5X5X",
"5X5X5X5X5X5X5X4XI.r $.H 8 & V h.D.O.6 e ].5X5X5X5X5X5X5X5X5X",
"5X5X5X5X5X5X5X5X5XXXY ' | n y.~.G.O.6 e ].5X5X5X5X5X5X5X5X5X",
"5X5X5X5X5X5X5X5X5X{.k U 7.y.N.Z.a.! 6 e ].5X5X5X5X5X5X5X5X5X",
"5X5X5X5X5X5X5X5X5X[.K W i.K.~.n.,.Z 4 e ].5X5X5X5X5X5X5X5X5X",
"5X5X5X5X5X5X5X5X5X5X1XS.O.G.~.n.-.r   w ].5X5X5X5X5X5X5X5X5X",
"5X5X5X5X5X5X5X5X3 c.,Xx.B u.g.4.F 5   w ].5X5X5X5X5X5X5X5X5X",
"5X5X5X5X5X5X5Xa 1 { -Xl.c o.;.~ p - = J ).:X5X5X5X5X5X5X5X5X",
"5X5X5X5X5X5X9 +     > (.].e 6 6 X   k.>Xw.2 d 5X5X5X5X5X5X5X",
"5X5X5X5X5X5X* X     @ L z._.|.|.].].Y.q.t $ ; 5X5X5X5X5X5X5X",
"5X5X5X5X5X5X# .         [ %X;X;X;X;Xv.=   o $ 5X5X5X5X5X5X5X",
"5X5X5X5X5X5X9 #                           3 d 5X5X5X5X5X5X5X",
"5X5X5X5X5X5X5X8 ;                     X < 0 5X5X5X5X5X5X5X5X",
"5X5X5X5X5X5X5Xd 3                     o 7 5X5X5X5X5X5X5X5X5X"
};
