/* XPM */
static char *result[] = {
/* columns rows colors chars-per-pixel */
"25 25 133 2 ",
"   c #676230",
".  c #676231",
"X  c #686331",
"o  c #6C6532",
"O  c #6D6633",
"+  c #6A6534",
"@  c #6C6837",
"#  c #706834",
"$  c #716935",
"%  c #736A35",
"&  c #786E38",
"*  c #796F38",
"=  c #7B7337",
"-  c #7C7437",
";  c #7E723A",
":  c #797549",
">  c #807639",
",  c #84763D",
"<  c #887A3E",
"1  c #8A7F3C",
"2  c #857C40",
"3  c #877D41",
"4  c #897A40",
"5  c #907E42",
"6  c #907F43",
"7  c #8E803F",
"8  c #8F843D",
"9  c #90843D",
"0  c #91853F",
"q  c #93863F",
"w  c #928144",
"e  c #958245",
"r  c #978446",
"t  c #998646",
"y  c #9A8647",
"u  c #968940",
"i  c #9E8B47",
"p  c #A08D47",
"a  c #A08A4A",
"s  c #A38F48",
"d  c #A48F4B",
"f  c #A89846",
"g  c #A7914B",
"h  c #A6924B",
"j  c #A3904C",
"k  c #A9934C",
"l  c #A9944C",
"z  c #AB964C",
"x  c #AA954F",
"c  c #A99848",
"v  c #AE9A4B",
"b  c #AD984D",
"n  c #AE994C",
"m  c #B19B4D",
"M  c #B29C4D",
"N  c #B39D4D",
"B  c #B49F4D",
"V  c #B49E4F",
"C  c #B5A34B",
"Z  c #B6A44B",
"A  c #B0A14D",
"S  c #B8A64A",
"D  c #B8A34D",
"F  c #BAA54E",
"G  c #BBA54E",
"H  c #BEA94F",
"J  c #BDAB4F",
"K  c #BFAB4E",
"L  c #BFAA4F",
"P  c #BAA454",
"I  c #BAA456",
"U  c #BEA758",
"Y  c #B8A85A",
"T  c #A89865",
"R  c #B8A66A",
"E  c #C3AE50",
"W  c #C4AF50",
"Q  c #C1AB59",
"!  c #C4AD5E",
"~  c #C8B350",
"^  c #C8B351",
"/  c #C9B451",
"(  c #CAB551",
")  c #CCB751",
"_  c #CBB554",
"`  c #CDB852",
"'  c #CEB956",
"]  c #CEB957",
"[  c #CDB858",
"{  c #D0BB55",
"}  c #D1BC56",
"|  c #D3BD5A",
" . c #D5BF5A",
".. c #C6AF60",
"X. c #CEB865",
"o. c #CEBC67",
"O. c #D1BF63",
"+. c #D6C05B",
"@. c #D6C15B",
"#. c #D8C25D",
"$. c #DAC45E",
"%. c #DEC862",
"&. c #D9C16B",
"*. c #DCC46A",
"=. c #E1CA64",
"-. c #E1CB68",
";. c #E2CB6D",
":. c #E6CF6C",
">. c #E7D06A",
",. c #EBD36E",
"<. c #E3CD72",
"1. c #E7CF72",
"2. c #E7D174",
"3. c #EDD570",
"4. c #EBD375",
"5. c #ECD574",
"6. c #F0D777",
"7. c #F0D873",
"8. c #F3DB75",
"9. c #F5DD77",
"0. c #F0D979",
"q. c #F4DB7A",
"w. c #F6DE78",
"e. c #F7DF79",
"r. c #F7DF7D",
"t. c #FAE17C",
"y. c #FBE27D",
"u. c #FCE37F",
"i. c #FDE47F",
"p. c #FEE580",
"a. c #FFE681",
"s. c #FFE785",
"d. c None",
/* pixels */
"d.d.d.d.d.d.d.d.: T R O.x d.d.d.d.d.d.d.d.d.d.d.d.",
"d.d.d.d.d.d.d.d.% r g E n k d.d.d.d.d.d.d.d.d.d.d.",
"d.d.d.d.d.d.X ; a a a a E E a d.d.d.d.d.d.d.d.d.d.",
"d.d.d.d.d.d.A C L *.X.& s m L d.d.d.d.d.d.d.d.d.d.",
"d.d.d.d.d.d.' { @.e.2.2 w p ) d.d.d.d.d.d.d.d.d.d.",
"d.d.d.d.d.d.] %.t.p.u.0.3 > ) N a d.d.d.d.d.d.d.d.",
"d.d.d.d.d.d.5.8.a.>.>.a.o.Y 9 c G d.d.d.d.d.d.d.d.",
"d.d.d.d.d.d.s.y.9.[ [ 9.i.<.% f ( d.d.d.d.d.d.d.d.",
"d.d.d.d.d.d.s.3.} b b } w.4.y D W a d.d.d.d.d.d.d.",
"d.d.d.d.d.d.-.#.) 7 < M 6.r.&.Q n a d.d.d.d.d.d.d.",
"d.d.d.d.d.d.^ / ) = $ y 1.y.a...a a d.d.d.d.d.d.d.",
"d.d.d.d.d.d.d B ) = X O J $.a...a a d.d.d.d.d.d.d.",
"d.d.d.d.d.d.a M ) =     S +.a...y , d.d.d.d.d.d.d.",
"d.d.d.d.d.d.y v ) =     S  .t.! e   d.d.d.d.d.d.d.",
"d.d.d.d.d.d.O q ) =     S ` } V e   d.d.d.d.d.d.d.",
"d.d.d.d.d.d.  8 ) 7 *   S { =.P e   d.d.d.d.d.d.d.",
"d.d.d.d.d.d.@ 0 ~ z t O J $.a...e   d.d.d.d.d.d.d.",
"d.d.d.d.d.d.d.d.l H F e ;.e.a...e   d.d.d.d.d.d.d.",
"d.d.d.d.d.d.d.d.4 K _ ..q.y.,.U e   d.d.d.d.d.d.d.",
"d.d.d.d.d.d.d.d.+ Z | a.a.9.) v 6   d.d.d.d.d.d.d.",
"d.d.d.d.d.d.d.d.d.h I a.a.9.) u #   d.d.d.d.d.d.d.",
"d.d.d.d.d.d.d.d.d.5 j 7.7.:.L 1     d.d.d.d.d.d.d.",
"d.d.d.d.d.d.d.d.d.  = ) ) E a ;     d.d.d.d.d.d.d.",
"d.d.d.d.d.d.d.d.d.d.d.- p i % o . d.d.d.d.d.d.d.d.",
"d.d.d.d.d.d.d.d.d.d.d.  e e       d.d.d.d.d.d.d.d."
};
