/* XPM */
static char *result[] = {
/* columns rows colors chars-per-pixel */
"30 30 230 2 ",
"   c #3B4344",
".  c #3C4444",
"X  c #3D4545",
"o  c #3E4645",
"O  c #3D4546",
"+  c #3F4746",
"@  c #404846",
"#  c #414946",
"$  c #444C47",
"%  c #424A4B",
"&  c #444C48",
"*  c #464E48",
"=  c #474F48",
"-  c #474F49",
";  c #4A524A",
":  c #4B534A",
">  c #4C544A",
",  c #4D554B",
"<  c #48504C",
"1  c #4F574C",
"2  c #50584C",
"3  c #525A4D",
"4  c #535B4D",
"5  c #555D4E",
"6  c #565E4E",
"7  c #575F4F",
"8  c #474F50",
"9  c #505753",
"0  c #555D52",
"q  c #525A54",
"w  c #575F54",
"e  c #515859",
"r  c #51595A",
"t  c #575E58",
"y  c #545B5C",
"u  c #58604E",
"i  c #58604F",
"p  c #5B6350",
"a  c #5A6251",
"s  c #5C6450",
"d  c #5F6751",
"f  c #596156",
"g  c #5A6357",
"h  c #5C6554",
"j  c #5F6754",
"k  c #5C6457",
"l  c #5F6856",
"z  c #5D655B",
"x  c #616953",
"c  c #626A54",
"v  c #636B54",
"b  c #626A55",
"n  c #646C55",
"m  c #646C56",
"M  c #646C57",
"N  c #646D57",
"B  c #656E57",
"V  c #616859",
"C  c #60695B",
"Z  c #666D58",
"A  c #656E5A",
"S  c #62695C",
"D  c #6A725F",
"F  c #6C745C",
"G  c #6F785F",
"H  c #5C6263",
"J  c #666D62",
"K  c #616964",
"L  c #626865",
"P  c #6C7560",
"I  c #6D7560",
"U  c #6E7661",
"Y  c #6A7267",
"T  c #6B726B",
"R  c #707766",
"E  c #707960",
"W  c #727B61",
"Q  c #707964",
"!  c #737A66",
"~  c #737A67",
"^  c #737C65",
"/  c #747D64",
"(  c #757E64",
")  c #767F65",
"_  c #757E66",
"`  c #777F6B",
"'  c #717870",
"]  c #747B73",
"[  c #747A7B",
"{  c #778066",
"}  c #788167",
"|  c #778068",
" . c #788168",
".. c #79816A",
"X. c #79816C",
"o. c #79806E",
"O. c #7C846D",
"+. c #7E886D",
"@. c #7F896D",
"#. c #7E886E",
"$. c #7B8270",
"%. c #7C8370",
"&. c #7D8472",
"*. c #7E8472",
"=. c #7D8476",
"-. c #7B8278",
";. c #7C817D",
":. c #808A6F",
">. c #848E71",
",. c #838A74",
"<. c #818876",
"1. c #858E75",
"2. c #858D77",
"3. c #858E76",
"4. c #848B79",
"5. c #868D7A",
"6. c #878D7C",
"7. c #869073",
"8. c #869074",
"9. c #879074",
"0. c #879175",
"q. c #889175",
"w. c #899277",
"e. c #899377",
"r. c #899278",
"t. c #89917B",
"y. c #8C947D",
"u. c #8E977D",
"i. c #8C947E",
"p. c #8F987E",
"a. c #90987E",
"s. c #90997F",
"d. c #7D8282",
"f. c #7F8485",
"g. c #8D9481",
"h. c #8F9583",
"j. c #929A81",
"k. c #929B82",
"l. c #939A86",
"z. c #939A87",
"x. c #959E86",
"c. c #91988B",
"v. c #969D88",
"b. c #979F88",
"n. c #969D8A",
"m. c #8D9292",
"M. c #9B9E9F",
"N. c #99A18A",
"B. c #99A08C",
"V. c #9AA18D",
"C. c #9BA38D",
"Z. c #9CA38E",
"A. c #9CA48E",
"S. c #9DA48F",
"D. c #9DA58F",
"F. c #9EA58F",
"G. c #9EA590",
"H. c #9EA690",
"J. c #9FA691",
"K. c #A0A792",
"L. c #A1A893",
"P. c #A3AA96",
"I. c #A3AA98",
"U. c #A4AB98",
"Y. c #A5AB98",
"T. c #A4AA9A",
"R. c #A5AB9B",
"E. c #A6AD9A",
"W. c #A6AD9B",
"Q. c #A7AD9B",
"!. c #A7AE9B",
"~. c #A7AD9C",
"^. c #A7AD9D",
"/. c #A8AF9C",
"(. c #A8AE9D",
"). c #A9AF9D",
"_. c #A9AF9E",
"`. c #AAB09F",
"'. c #ABB19F",
"]. c #9DA1A2",
"[. c #9EA2A2",
"{. c #9FA3A2",
"}. c #A1A5A5",
"|. c #A2A6A7",
" X c #A5A9A4",
".X c #AAAFA2",
"XX c #ABB1A0",
"oX c #ABB2A0",
"OX c #ACB2A1",
"+X c #ADB3A2",
"@X c #ACB0A7",
"#X c #AEB2A7",
"$X c #AFB3A8",
"%X c #B2B6AB",
"&X c #B2B5B5",
"*X c #B2B5B6",
"=X c #BEC1C1",
"-X c #C2C5C2",
";X c #C5C8C3",
":X c #C8CBC3",
">X c #C9CCC5",
",X c #CACDC5",
"<X c #CBCEC6",
"1X c #C9CBCC",
"2X c #C9CCCC",
"3X c #D1D4CB",
"4X c #CED0D1",
"5X c #D3D5D2",
"6X c #D5D7D2",
"7X c #D5D8D0",
"8X c #D6D9D0",
"9X c #D6D8D3",
"0X c #D7D9D3",
"qX c #D7D9D4",
"wX c #D8DAD4",
"eX c #D7D9D8",
"rX c #DCDED9",
"tX c #DADCDC",
"yX c #DFE0E0",
"uX c #EBECEC",
"iX c #F2F2F1",
"pX c gray97",
"aX c #F9F9F8",
"sX c #FCFDFC",
"dX c #FDFDFC",
"fX c #FDFDFD",
"gX c #FEFEFE",
"hX c #FEFFFE",
"jX c white",
"kX c None",
/* pixels */
"kXkXkXkXkXkXkXkXkXkXgXjXjXjXjXjXjXkXkXkXkXkXkXkXkXkXkXkXkXkX",
"kXkXkXkXkXkXkXkXkX7X<X3X8X8X8X3X<XrXkXkXkXkXkXkXkXkXkXkXkXkX",
"kXkXkXkXkXkXkXjXjX,XU ( >.>.>.( I :XjXsXkXkXkXkXkXkXkXkXkXkX",
"kXkXkXkXkXkXwX6.t.3.m v B B B E @.s.i.4.<XkXkXkXkXkXkXkXkXkX",
"kXkXkXkXkX9X@XS A  .X.X.X.X.X...{ Q P ^ .X6XkXkXkXkXkXkXkXkX",
"kXkXkXkXgX$X6 @ , X.Q.+X+X+X+Xg.j - g +.F #XjXkXkXkXkXkXkXkX",
"kXkXkX0X&.0 * i <._.XXb.q.w.F.`.~.R.-.< 5 Z *.wXkXkXkXkXkXkX",
"kXkXkX5XJ , w o.n.+XOXJ.a.9.k.P.OX+Xc.T f u ~ qXkXkXkXkXkXkX",
"kXkXkX4Xy , ! I.+X+X+X+XK.q.>.x.oX+X+XT.K , ~ qXkXkXkXkXkXkX",
"kXkXkX9XR <.(.OX+XL.r./ N n ) x.oX+X+XOX^.' & V %XjXkXkXkXkX",
"kXkXkXqX~ 5.).H.U.V. .l 2 3 A 1.Z.!.+X+X+X] @ 6 $XjXkXkXkXkX",
"kXkXkXqX~ 5.P.e.N.z.M ;   X 2 G 8.K.+X+X+X] @ 6 $XjXkXkXkXkX",
"kXkXkXqX~ 5.P.e.>.} x ;       ; M z.A.e.K.5.d d , e 1XkXkXkX",
"kXkXkXqX~ 5.P.e.u.2.b ;       ; M z.A.q.j.O.d d , y 4XkXkXkX",
"kXkXkXqX~ 5.P.e.N.z.M ;       ; M z.A.7.>.W d d , y 4XkXkXkX",
"kXkXkX4Xy ] +X+X+Xz.M ;       ; M z.A.e.K.5.d d , y 4XkXkXkX",
"kXkXkX4Xy Y G.'.+XB._ h = X   ; M z.Y.C.E.=.1 p , y 4XkXkXkX",
"kXkXkX2Xr C p./.+XK.8.G 4 o   ; M z.+X+X+X] @ 6 , y 4XkXkXkX",
"kXkXkXkXdX$X! I.+X+XoXx.} c d G 8.K.+X+X+X]     ].sXkXkXkXkX",
"kXkXkXkXjX Xw o.n.+XoXx.@.{ ,.l.S.!.+X_.h.z     ].gXkXkXkXkX",
"kXkXkXkXhX[.9 a <._.XXb.8.7.A.+X+X+X+XW.` > O 8 }.fXkXkXkXkX",
"kXkXkXkXkXaX4Xy , X.Q.+XK.e.A.+X+X+X+XT.K   y 4XkXkXkXkXkXkX",
"kXkXkXkXkXkXeX&X;.k %.i.a.0.A.+XXXD.i.$.q [ *XtXkXkXkXkXkXkX",
"kXkXkXkXkXkXkXuX].t D | #.:.v.~.I.y.| D t {.iXkXkXkXkXkXkXkX",
"kXkXkXkXkXkX6 @ ].jXpXm.  X 2 d s - m.pXjX$Xd kXkXkXkXkXkXkX",
"kXkXkXkXkXkX$ X H d.f.|.=X=X;X,X>X-X|.f.d.L = kXkXkXkXkXkXkX",
"kXkXkXkXkXkX@ .     % M.yXyXyXyXyXyXM.%   o # kXkXkXkXkXkXkX",
"kXkXkXkXkXkX6 +                           , d kXkXkXkXkXkXkX",
"kXkXkXkXkXkXkX4 =                     X : 7 kXkXkXkXkXkXkXkX",
"kXkXkXkXkXkXkXd ,                     o 4 kXkXkXkXkXkXkXkXkX"
};
