/* XPM */
static char *result[] = {
/* columns rows colors chars-per-pixel */
"25 25 170 2 ",
"   c #676230",
".  c #686331",
"X  c #6D6633",
"o  c #6A6534",
"O  c #6A6535",
"+  c #6D6939",
"@  c #6E693A",
"#  c #716935",
"$  c #726A35",
"%  c #736A35",
"&  c #756C36",
"*  c #786E37",
"=  c #706B3C",
"-  c #786E38",
";  c #796F38",
":  c #7B7337",
">  c #7E723A",
",  c #7F7539",
"<  c #767144",
"1  c #7E7A4F",
"2  c #84763D",
"3  c #837B3E",
"4  c #87783F",
"5  c #807541",
"6  c #817642",
"7  c #857C40",
"8  c #897A40",
"9  c #8A7A40",
"0  c #8B7B40",
"q  c #8B7C42",
"w  c #8E7F40",
"e  c #8E7E41",
"r  c #8C7E42",
"t  c #8F7E42",
"y  c #907E42",
"u  c #8F843D",
"i  c #90843D",
"p  c #8F8043",
"a  c #8F8345",
"s  c #938343",
"d  c #928640",
"f  c #928044",
"g  c #948245",
"h  c #958245",
"j  c #998546",
"k  c #9A8647",
"l  c #958841",
"z  c #9E8B47",
"x  c #9B8D44",
"c  c #988949",
"v  c #9E8849",
"b  c #9B8E4E",
"n  c #8B8459",
"m  c #A08A4A",
"M  c #A18B4B",
"N  c #A48F4B",
"B  c #A29047",
"V  c #A89846",
"C  c #A6924F",
"Z  c #A1944F",
"A  c #A9934C",
"S  c #AA944C",
"D  c #AC974C",
"F  c #A99848",
"G  c #B19D4B",
"H  c #B19C4D",
"J  c #B29C4D",
"K  c #A48E51",
"L  c #A69155",
"P  c #AA9350",
"I  c #AE9850",
"U  c #AB975E",
"Y  c #AA995D",
"T  c #B29B51",
"R  c #B29B54",
"E  c #B19D55",
"W  c #B39C55",
"Q  c #B6A14D",
"!  c #B6A14E",
"~  c #B8A34D",
"^  c #BAA54E",
"/  c #BBA64E",
"(  c #B6A051",
")  c #B7A056",
"_  c #BFAA51",
"`  c #B5A559",
"'  c #B7A65A",
"]  c #B8A85A",
"[  c #BFA95C",
"{  c #8A8660",
"}  c #9B9260",
"|  c #A69A6E",
" . c #A99968",
".. c #B09E69",
"X. c #B19F6A",
"o. c #B6A574",
"O. c #B8A777",
"+. c #C3AE50",
"@. c #C1AC53",
"#. c #C0AA57",
"$. c #C1AB59",
"%. c #C5AF58",
"&. c #C1AB5D",
"*. c #C8B350",
"=. c #C8B351",
"-. c #CCB751",
";. c #CEB953",
":. c #CFBA54",
">. c #CFB95A",
",. c #D0BB55",
"<. c #D1BC56",
"1. c #D5BF5A",
"2. c #D3BC5E",
"3. c #C6AF60",
"4. c #C2B161",
"5. c #CBB461",
"6. c #D6BF63",
"7. c #D0B866",
"8. c #D2BA67",
"9. c #D2BB67",
"0. c #D3BC65",
"q. c #D5BE69",
"w. c #D6C05B",
"e. c #D6C15B",
"r. c #DAC45E",
"t. c #DBC55F",
"y. c #DCC55F",
"u. c #D9C16B",
"i. c #DBC66E",
"p. c #E1CA64",
"a. c #E4CD67",
"s. c #E1CA68",
"d. c #E6CF69",
"f. c #E7D06A",
"g. c #E8D06B",
"h. c #EBD36E",
"j. c #E3CA71",
"k. c #E3CB71",
"l. c #E3CD72",
"z. c #E7D174",
"x. c #E8D072",
"c. c #EDD570",
"v. c #EFD772",
"b. c #E8D074",
"n. c #EBD375",
"m. c #ECD476",
"M. c #EED576",
"N. c #F0D873",
"B. c #F1D974",
"V. c #F3DB75",
"C. c #F1D977",
"Z. c #F5DD77",
"A. c #F0D778",
"S. c #F0D979",
"D. c #F2DA7A",
"F. c #F7DF79",
"G. c #F6DD7C",
"H. c #F7DF7D",
"J. c #F8DF7A",
"K. c #F9E07B",
"L. c #FAE17C",
"P. c #FBE27D",
"I. c #F9E07E",
"U. c #FCE37E",
"Y. c #FCE37F",
"T. c #FDE47F",
"R. c #FDE480",
"E. c #FEE580",
"W. c #FFE681",
"Q. c None",
/* pixels */
"Q.Q.Q.Q.Q.Q.Q.Q.Q.Q.Q.Q.Q.Q.Q.Q.Q.Q.Q.Q.Q.Q.Q.Q.Q.",
"Q.Q.Q.Q.Q.Q.Q.M A *.-.-.-.! K Q.Q.Q.Q.Q.Q.Q.Q.Q.Q.",
"Q.Q.Q.Q.m A *.J m m m m m ! -.-./ m Q.Q.Q.Q.Q.Q.Q.",
"Q.Q.Q.Q.9 s Q $.3.3.3.3.3.#.~ V F H Q.Q.Q.Q.Q.Q.Q.",
"Q.Q.Q.m - % k u.W.W.W.W.W.7.k % i *.A Q.Q.Q.Q.Q.Q.",
"Q.L g $ 0 C k.H.F.r.w.r.P.G.n.l.] , j m m Q.Q.Q.Q.",
"Q.q 4 > E 8.I.W.K.a.e.:.g.Z.W.W.i.Z p f m Q.Q.Q.Q.",
"Q.@ % m j.W.W.W.W.W.d.-.-.d.W.W.W.S.7 > m Q.Q.Q.Q.",
"Q. .C m.I.W.W.f.>.) I D =.d.W.W.W.Y.z.` $ f Q.Q.Q.",
"Q.O.W W.B.v.T.6.G e 8 e Q 2.c.P.W.W.W.4.  h m Q.Q.",
"Q.o.W W.y.e.L.3.h X   X k ! <.Z.W.W.W.4.  h m Q.Q.",
"Q.X.W W.y.;.1.( h X   . # w T M.v.r.F.q.h v f   Q.",
"Q...W W.y.;.1.( h X       2 P m.h.,.c.0.m m t   Q.",
"Q.U W W.y.e.L.3.h X       2 P m.h.-.-.^ m m t   Q.",
"Q.n a W.J.F.E.3.h X       2 P m.h.,.c.0.m m t   Q.",
"Q.{ 3 Z.U.W.W.5.z * X     2 P m.v.r.F.q.h v t   Q.",
"Q.1 : -.N.W.W.p.+.N 2     2 P m.W.W.W.4.  h y   Q.",
"Q.Q.} J x.W.W.V.s._ B 8 8 B @.C.W.W.W.4.  ; 5 Q.Q.",
"Q.Q.Q.h 9.A.R.W.Z.<.^ S R %.r.F.W.R.A.'     < Q.Q.",
"Q.Q.Q.  t W G.W.Z.<.-.<.L.W.W.W.W.G.W 8     + Q.Q.",
"Q.Q.Q.Q.6 r [ b.P.c.t.<.L.W.W.W.W.D.c &   = Q.Q.Q.",
"Q.Q.Q.Q.  % k u.W.W.d.<.L.W.W.W.W.S.7     Q.Q.Q.Q.",
"Q.Q.Q.Q.Q.Q.. 8 A *.-.<.L.W.L.e.^ k % O Q.Q.Q.Q.Q.",
"Q.Q.Q.Q.Q.Q.Q.| Y d u l &.3.&.x b Q.Q.Q.Q.Q.Q.Q.Q.",
"Q.Q.Q.Q.Q.Q.Q.Q.Q.    X k m k % o Q.Q.Q.Q.Q.Q.Q.Q."
};
