/* XPM */
static char *result[] = {
/* columns rows colors chars-per-pixel */
"50 50 154 2 ",
"   c #2F2F2E",
".  c #312F2D",
"X  c #3F2F2E",
"o  c #2F302E",
"O  c #32312E",
"+  c #3D332B",
"@  c #323432",
"#  c #363D35",
"$  c #373838",
"%  c #4D2F2F",
"&  c #512F2F",
"*  c #433327",
"=  c #4E3826",
"-  c #42342C",
";  c #4E3529",
":  c #463D2E",
">  c #49392B",
",  c #563727",
"<  c #523B27",
"1  c #5B3B27",
"2  c #52342B",
"3  c #5B312E",
"4  c #543C2B",
"5  c #5B3B2A",
"6  c #433230",
"7  c #463932",
"8  c #573D30",
"9  c #5C3D3C",
"0  c #5C3231",
"q  c #623A25",
"w  c #62302F",
"e  c #623E2B",
"r  c #6D3C23",
"t  c #703D23",
"y  c #7B3F21",
"u  c #6D3131",
"i  c #6A3838",
"p  c #673332",
"a  c #733131",
"s  c #7E3030",
"d  c #394237",
"f  c #394438",
"g  c #4D442E",
"h  c #51472F",
"j  c #40403F",
"k  c #5B4234",
"l  c #654226",
"z  c #6F4827",
"x  c #624328",
"c  c #74432A",
"v  c #7A462C",
"b  c #794124",
"n  c #634333",
"m  c #6B4531",
"M  c #6C4938",
"N  c #734C39",
"B  c #736031",
"V  c #7A6531",
"C  c #2E3847",
"Z  c #2D3F59",
"A  c #3F4042",
"S  c #2B4B78",
"D  c #434445",
"F  c #4C4D4B",
"G  c #524947",
"H  c #5C5047",
"J  c #5D534D",
"K  c #4F5154",
"L  c #535453",
"P  c #50565D",
"I  c #57595D",
"U  c #595958",
"Y  c #545953",
"T  c #644C42",
"R  c #724343",
"E  c #61524A",
"W  c #765747",
"Q  c #7F5845",
"!  c #765C4F",
"~  c #6A605B",
"^  c #73645B",
"/  c #5B5E62",
"(  c #5C6066",
")  c #5D636B",
"_  c #646464",
"`  c #686967",
"'  c gray42",
"]  c #6E716E",
"[  c #6E747C",
"{  c #72767C",
"}  c #7C7C7C",
"|  c #727271",
" . c #843433",
".. c #883333",
"X. c #943535",
"o. c #983636",
"O. c #814121",
"+. c #8C4C2C",
"@. c #834B2E",
"#. c #894E30",
"$. c #864D31",
"%. c #845137",
"&. c #89563C",
"*. c #8E583D",
"=. c #935333",
"-. c #945A3C",
";. c #9B5B3B",
":. c #92742D",
">. c #846B31",
",. c #967832",
"<. c #805946",
"1. c #93634A",
"2. c #A06040",
"3. c #A5822E",
"4. c #B89134",
"5. c #9D8376",
"6. c #AC8673",
"7. c #B38C79",
"8. c #2A4E82",
"9. c #295491",
"0. c #2D5EA7",
"q. c #285DAB",
"w. c #2B65BB",
"e. c #717780",
"r. c #757A83",
"t. c #2C67C0",
"y. c #2D6AC4",
"u. c #7E848C",
"i. c #7E8590",
"p. c #848484",
"a. c #8A8A89",
"s. c #818790",
"d. c #828994",
"f. c #8E8E90",
"g. c #8B929C",
"h. c #9B9B9B",
"j. c #939193",
"k. c #B69C8F",
"l. c #9299A4",
"z. c #9FA5AE",
"x. c #ADADAC",
"c. c #B7A8A0",
"v. c #AAAEB6",
"b. c #B3B3B4",
"n. c #B9B9BA",
"m. c #CCB3A6",
"M. c #C2C2C3",
"N. c #D4D4D7",
"B. c #DEDEDF",
"V. c #DEDEE1",
"C. c #E4E4E6",
"Z. c #EEEEEF",
"A. c gray99",
"S. c None",
/* pixels */
"S.S.S.S.S.S.S.S.S.S.S.S.S.S.S.S.S.S.S.S.S.S.S.S.S.S.S.S.S.S.S.S.S.S.S.S.S.S.S.S.S.S.S.S.S.S.S.S.S.S.",
"S.S.S.S.S.S.S.S.S.S.S.S.S.S.S.S.S.S.S.S.S.S.S.S.S.S.S.S.S.S.S.S.S.S.S.S.S.S.S.S.S.S.S.S.S.S.S.S.S.S.",
"S.S.S.S.S.S.S.S.S.S.S.S.S.S.S.S.S.S.S.S.S.S.S.S.S.S.S.S.S.S.S.S.S.S.S.S.S.S.S.S.S.S.S.S.S.S.S.S.S.S.",
"S.S.S.S.S.S.S.S.S.S.S.S.S.S.S.S.S.S.S.S.S.S.S.S.S.S.S.S.S.S.S.S.S.S.S.S.S.S.S.S.S.S.S.S.S.S.S.S.S.S.",
"S.S.S.S.S.S.S.S.S.S.S.S.S.S.S.S.S.S.S.S.S.S.S.S.S.S.S.S.S.S.S.S.S.S.S.S.S.S.S.S.S.S.S.S.S.S.S.S.S.S.",
"S.S.S.S.S.S.S.S.S.S.S.S.S.S.S.S.S.S.S.S.S.S.S.S.S.S.S.S.S.S.S.S.S.S.S.S.S.S.S.S.S.S.S.S.S.S.S.S.S.S.",
"S.S.S.S.S.S.S.S.S.S.S.S.S.S.S.S.S.S.S.S.S.S.S.S.S.S.S.S.S.S.S.S.S.S.S.S.S.S.S.S.S.S.S.S.S.S.S.S.S.S.",
"S.S.S.S.S.S.S.S.S.S.S.S.S.S.S.S.S.S.S.S.S.S.S.S.S.S.S.S.S.S.S.S.S.S.S.S.S.S.S.S.S.S.S.S.S.S.S.S.S.S.",
"S.S.S.S.S.S.S.S.S.S.S.S.S.S.S.S.S.S.S.S.S.S.S.S.S.S.S.S.S.S.S.S.S.S.S.S.S.S.S.S.S.S.S.S.S.S.S.S.S.S.",
"S.S.S.S.S.S.S.S.S.S.S.S.S.S.S.S.S.S.S.S.S.S.S.S.S.S.S.S.S.S.S.S.S.S.S.S.S.S.S.S.S.S.S.S.S.S.S.S.S.S.",
"S.S.S.S.S.S.S.S.S.S.S.S.S.S.S.S.S.S.S.S.S.S.S.S.S.S.S.S.S.S.S.S.S.S.S.S.S.S.S.S.S.S.S.S.S.S.S.S.S.S.",
"S.S.S.S.S.S.S.S.S.S.S.S.S.S.S.S.      S.S.S.S.S.S.S.S.S.S.S.S.S.S.S.S.S.S.S.S.S.S.S.S.S.S.S.S.S.S.S.",
"S.S.S.S.S.S.S.S.S.S.S.S.S.  o p  . . .6 @     S.S.S.S.S.S.S.S.S.S.S.S.S.S.S.S.S.S.S.S.S.S.S.S.S.S.S.",
"S.S.S.S.S.S.S.S.S.S.S.S.0 o.X...s s X.o.o.o. .  O S.S.S.S.S.S.S.S.S.S.S.S.S.S.S.S.S.S.S.S.S.S.S.S.S.",
"S.S.S.S.S.S.S.S.S.S.S.& s ....s s s X.o.o.o.o.o. .o S.S.S.S.S.S.S.S.S.S.S.S.S.S.S.S.S.S.S.S.S.S.S.S.",
"S.S.S.S.S.S.S.S.S.S.% s s ..s 9 9 s s s X.o.o.o.o...6 D D S.S.S.S.S.S.S.S.S.S.S.S.S.S.S.S.S.S.S.S.S.",
"S.S.S.S.S.S.S.S.S.& s s s s & } } i s a u  . ...o.o.R } } S.S.S.S.S.S.S.S.S.S.S.S.S.S.S.S.S.S.S.S.S.",
"S.S.S.S.S.S.S.S.& s s s a u % } B.U w - 6 - + - a a p.C.} S.S.S.S.S.S.S.S.S.S.S.S.S.S.S.S.S.S.S.S.S.",
"S.S.S.S.S.S.S.  s s  .u 3 = + } C.h.7 v +.+.+.@.8 2 ^ x.} S.S.S.S.S.S.S.S.S.S.S.S.S.S.S.S.S.S.S.S.S.",
"S.S.S.S.S.S.S.  s s s 3 = O.2 { B.A.U <.2.2.2.2.;.#.c E ` S.S.S.S.S.S.S.S.S.S.S.S.S.S.S.S.S.S.S.S.S.",
"S.S.S.S.S.S.S.. s s s u & q , ! n.A.h.W 2.2.2.2.2.2.;.c > S.S.S.S.S.S.S.S.S.S.S.S.S.S.S.S.S.S.S.S.S.",
"S.S.S.S.S.S.q . s s s s a 3 2 , Q 6.7.<.+.2.2.2.=.;.=.=.q d S.S.S.S.S.S.S.S.S.S.S.S.S.S.S.S.S.S.S.S.",
"S.S.S.S.S., O.1 3 s s s s s & q y O.O.e 5.+.=.;.O.#.+.1.^ S.S.S.S.S.S.S.S.S.S.S.S.S.S.S.S.S.S.S.S.S.",
"S.S.S.S.1 +.=.O.X s s s s s & q O.O.O.+ x.m.k.x O.b ! c.h.S.S.S.S.S.S.S.S.S.S.S.S.S.S.S.S.S.S.S.S.S.",
"S.S.S.  %.2.1.;.w %  .s s s a & r O.O.t F U H t O.O.e K T ; S.S.S.S.S.S.S.S.S.S.S.S.S.S.S.S.S.S.S.S.",
"S.S.S.  &.2.2.2.r * s s s s s & q O.O.y t t *.;.;.;.-.&.$.; S.S.S.S.S.S.S.S.S.S.S.S.S.S.S.S.S.S.S.S.",
"S.S.S.  =.2.2.2.t * s s s s s a & t O.O.O.y +.2.2.2.2.2.=.2 S.S.S.S.S.S.S.S.S.S.S.S.S.S.    S.S.S.S.",
"S.S.S.O &.2.2.2.y w % s s s s s & r O.O.O.O.O.v 7 7 7 7 5 ; S.S.S.S.S.S.S.S.S.      o + 4 - S.S.S.S.",
"S.S.S.@ &.;.2.2.O.t * s s s s s s X t O.O.O.r O         o o S.S.S.S.S.S.    $ P P P H > @ d S.S.S.S.",
"S.S.S.O t ;.2.O.O.t * s s s s  .s s X t O.O.t > ,.    B ,.o S.S.O .     P P ) l.l.l.l.l.I # S.S.S.S.",
"S.S.S.@ c O.+.O.O.t . 2 a s s s s s s % 6 t q : :.h h V >.. + + F ( ) ) z.z.v.N.N.N.N.N.p.F S.S.S.S.",
"S.S.S.. c ;.2.2.O.r * q 2 u u a s s  . .o.6 - . g 3.4.>.+ + h x x j.z.z.N.N.N.N.N.N.N.N.N.f.U L S.S.",
"S.S.S.  &.2.2.2.=.r ; O.q * + 3 a  .X. . . .a + + + O - l l < + o h.b.N.N.N.N.N.N.N.N.N.N.N.N.n.L S.",
"S.S.S.  &.2.2.2.&.+ q O.O.O.+.4 % u u ; > > = 1 h 4 * 4 k k + d S.S.o N.N.N.N.N.N.N.N.N.N.N.C.L S.S.",
"S.S.S.  *.2.2.2.*.; 2 1 q 1 m 5 > > > 1 4 4 4 X . . q +.=.=.8 d S.S.] N.N.N.N.N.N.N.N.N.V.C.b.L S.S.",
"S.S.S.S.M ;.2.2.;.y 1 > > > = k l 1 h * < ; k - o * r y y  .; d S.o M.C.C.N.N.N.N.N.B.C.M.x.Y S.S.S.",
"S.S.S.S.  &.2.2.+.t + z l < > > * M e q O.=.;.t   S.- < 2 ; : S.S.o | p.p.Z.Z.Z.Z.Z.M.p._ S.S.S.S.S.",
"S.S.S.S.o &.2.2.+.t O > * * m N N @.O.y O.+.*.; S.S.S.S.S.S.S.S.S.S.S.S.S.p.a.a.a.p.] S.S.S.S.S.S.S.",
"S.S.@ + . v 1.2.;.y 4 . o 2 +.=.2.e < ; ; =.v   S.S.S.S.S.S.S.S.S.S.S.S.S.S.S.S.S.S.S.S.S.S.S.S.S.S.",
"S.4 x + . + O.+.O. .t K u._ - - 7 { e.[ [ 7 - S.S.S.S.S.S.S.S.S.S.S.S.S.S.S.S.S.S.S.S.S.S.S.S.S.S.S.",
"S.+ + S.S.S.* + * + + $ D / u.r.[ g.d.i.i.[ {   S.S.S.S.S.S.S.S.S.S.S.S.S.S.S.S.S.S.S.S.S.S.S.S.S.S.",
"S.S.S.S.S.S.S.S.S.S.S.> b k D A D s.d.i.s.C D . S.S.S.S.S.S.S.S.S.S.S.S.S.S.S.S.S.S.S.S.S.S.S.S.S.S.",
"S.S.S.S.S.S.S.S.S.S.- O.=.2.;.2.k       . y.0.O   S.S.S.S.S.S.S.S.S.S.S.S.S.S.S.S.S.S.S.S.S.S.S.S.S.",
"S.S.S.S.S.S.S.S.O + y +.1.2.2.k S t.y.y.y.y.7 2.&.  S.S.S.S.S.S.S.S.S.S.S.S.S.S.S.S.S.S.S.S.S.S.S.S.",
"S.S.S.S.S.S.S.  * y O.+.2.2.2.n S w.y.y.t.q.7 2.*.7 S.S.S.S.S.S.S.S.S.S.S.S.S.S.S.S.S.S.S.S.S.S.S.S.",
"S.S.S.S.S.S.S.  X O.O.+.;.;.&.G 8.q.t.y.q.9.8 2.2.%.  S.S.S.S.S.S.S.S.S.S.S.S.S.S.S.S.S.S.S.S.S.S.S.",
"S.S.S.S.S.S.S.  + O.O.y v T C S q.q.w.q.9.+ O.;.=.t   S.S.S.S.S.S.S.S.S.S.S.S.S.S.S.S.S.S.S.S.S.S.S.",
"S.S.S.S.S.S.S.  X q 1 2 @ Z S S S S S S   q y q 1 5 S.S.S.S.S.S.S.S.S.S.S.S.S.S.S.S.S.S.S.S.S.S.S.S.",
"S.S.S.S.S.S.S.S.o o o S.S.S.o               ,     @ S.S.S.S.S.S.S.S.S.S.S.S.S.S.S.S.S.S.S.S.S.S.S.S.",
"S.S.S.S.S.S.S.S.S.S.S.S.S.S.S.S.S.S.S.S.S.S.      S.S.S.S.S.S.S.S.S.S.S.S.S.S.S.S.S.S.S.S.S.S.S.S.S."
};
