/* XPM */
static char *result[] = {
/* columns rows colors chars-per-pixel */
"50 50 156 2 ",
"   c #2F2F2E",
".  c #312F2D",
"X  c #3D2F2E",
"o  c #2F302E",
"O  c #33312E",
"+  c #3E332C",
"@  c #3D3126",
"#  c #323531",
"$  c #343933",
"%  c #373838",
"&  c #482F2F",
"*  c #443326",
"=  c #42342C",
"-  c #4D3529",
";  c #49392B",
":  c #563727",
">  c #553B26",
",  c #5B3D26",
"<  c #533529",
"1  c #5D302F",
"2  c #543C2B",
"3  c #5B3C29",
"4  c #433130",
"5  c #453932",
"6  c #493C33",
"7  c #573231",
"8  c #5B3430",
"9  c #613926",
"0  c #6D3C23",
"q  c #65302F",
"w  c #723D23",
"e  c #7B3F21",
"r  c #653332",
"t  c #6E3030",
"y  c #723030",
"u  c #7E3030",
"i  c #394338",
"p  c #4C432E",
"a  c #51472F",
"s  c #5D4F2E",
"d  c #404637",
"f  c #5C4335",
"g  c #564438",
"h  c #6F4827",
"j  c #624328",
"k  c #694527",
"l  c #73432A",
"z  c #79472E",
"x  c #794124",
"c  c #624333",
"v  c #6B4531",
"b  c #674838",
"n  c #6A4936",
"m  c #704732",
"M  c #7C4C34",
"N  c #734C39",
"B  c #2E3847",
"V  c #3F4042",
"C  c #2C405B",
"Z  c #364054",
"A  c #2E476A",
"S  c #2C4160",
"D  c #2B4B78",
"F  c #424445",
"G  c #4B4B4A",
"H  c #43464A",
"J  c #514542",
"K  c #574B45",
"L  c #4A4F54",
"P  c #4F5255",
"I  c #525151",
"U  c #5D5050",
"Y  c #50565D",
"T  c #595A59",
"R  c #57595D",
"E  c #604C41",
"W  c #765C4F",
"Q  c #655754",
"!  c #7B6A5E",
"~  c #585C61",
"^  c #5D636B",
"/  c #626261",
"(  c gray42",
")  c #7C6D64",
"_  c #6F7170",
"`  c #6E747C",
"'  c #717171",
"]  c #7C7C7C",
"[  c #843433",
"{  c #8A3333",
"}  c #933535",
"|  c #983636",
" . c #814121",
".. c #824A2D",
"X. c #8C4C2C",
"o. c #845137",
"O. c #86553C",
"+. c #8A563C",
"@. c #8E583D",
"#. c #925232",
"$. c #92583B",
"%. c #9B5B3B",
"&. c #8C702D",
"*. c #955F45",
"=. c #94644B",
"-. c #99735F",
";. c #A06040",
":. c #A16C52",
">. c #896F62",
",. c #907669",
"<. c #9A7360",
"1. c #7F807F",
"2. c #A3802D",
"3. c #B48D32",
"4. c #B89134",
"5. c #DAA935",
"6. c #9D8376",
"7. c #B38C79",
"8. c #2E5289",
"9. c #295491",
"0. c #2959A0",
"q. c #285DAA",
"w. c #2960AF",
"e. c #2A63B7",
"r. c #757B84",
"t. c #787E86",
"y. c #2D6AC5",
"u. c #7D838B",
"i. c #7E8590",
"p. c #838383",
"a. c #8B8B8B",
"s. c #8E908F",
"d. c #858C95",
"f. c #8A919C",
"g. c #909090",
"h. c #9C9C9C",
"j. c #999491",
"k. c #B2998E",
"l. c #9299A4",
"z. c #9FA5AE",
"x. c #ACACAB",
"c. c #B1B1B1",
"v. c #BABABC",
"b. c #C1AAA1",
"n. c #C7B3A8",
"m. c #BFC1C7",
"M. c #C1C1C1",
"N. c #C7C7C9",
"B. c #CBCDCE",
"V. c #D4D4D7",
"C. c #D7D7DA",
"Z. c #DCDCDD",
"A. c #E5E5E7",
"S. c #EEEEEF",
"D. c white",
"F. c None",
/* pixels */
"F.F.F.F.F.F.F.F.F.F.F.F.F.F.F.F.F.F.F.F.F.F.F.F.F.F.F.F.F.F.F.F.F.F.F.F.F.F.F.F.F.F.F.F.F.F.F.F.F.F.",
"F.F.F.F.F.F.F.F.F.F.F.F.F.F.F.F.F.F.F.F.F.F.F.F.F.F.F.F.F.F.F.F.F.F.F.F.F.F.F.F.F.F.F.F.F.F.F.F.F.F.",
"F.F.F.F.F.F.F.F.F.F.F.F.F.F.F.F.F.F.F.F.F.F.F.F.F.F.F.F.F.F.F.F.F.F.F.F.F.F.F.F.F.F.F.F.F.F.F.F.F.F.",
"F.F.F.F.F.F.F.F.F.F.F.F.F.F.F.F.F.F.F.F.F.F.F.F.F.F.F.F.F.F.F.F.F.F.F.F.F.F.F.F.F.F.F.F.F.F.F.F.F.F.",
"F.F.F.F.F.F.F.F.F.F.F.F.F.F.F.F.F.F.F.F.F.F.F.F.F.F.F.F.F.F.F.F.F.F.F.F.F.F.F.F.F.F.F.F.F.F.F.F.F.F.",
"F.F.F.F.F.F.F.F.F.F.F.F.F.F.F.F.F.F.F.F.F.F.F.F.F.F.F.F.F.F.F.F.F.F.F.F.F.F.F.F.F.F.F.F.F.F.F.F.F.F.",
"F.F.F.F.F.F.F.F.F.F.F.F.F.F.F.F.F.F.F.F.F.F.F.F.F.F.F.F.F.F.F.F.F.F.F.F.F.F.F.F.F.F.F.F.F.F.F.F.F.F.",
"F.F.F.F.F.F.F.F.F.F.F.F.F.F.F.F.F.F.F.F.F.F.F.F.F.F.F.F.F.F.F.F.F.F.F.F.F.F.F.F.F.F.F.F.F.F.F.F.F.F.",
"F.F.F.F.F.F.F.F.F.F.F.F.F.F.F.F.F.F.F.F.F.F.F.F.F.F.F.F.F.F.F.F.F.F.F.F.F.F.F.F.F.F.F.F.F.F.F.F.F.F.",
"F.F.F.F.F.F.F.F.F.F.F.F.F.F.F.F.F.F.F.F.F.F.F.F.F.F.F.F.F.F.F.F.F.F.F.F.F.F.F.F.F.F.F.F.F.F.F.F.F.F.",
"F.F.F.F.F.F.F.F.F.F.F.F.F.F.F.F.F.F.F.F.F.F.F.F.F.F.F.F.F.F.F.F.F.F.F.F.F.F.F.F.F.F.F.F.F.F.F.F.F.F.",
"F.F.F.F.F.F.F.F.F.F.F.F.F.F.F.F.    . F.F.F.F.F.F.F.F.F.F.F.F.F.F.F.F.F.F.F.F.F.F.F.F.F.F.F.F.F.F.F.",
"F.F.F.F.F.F.F.F.F.F.F.F.F.    4 [ [ [ r .     F.F.F.F.F.F.F.F.F.F.F.F.F.F.F.F.F.F.F.F.F.F.F.F.F.F.F.",
"F.F.F.F.F.F.F.F.F.F.F.F.# | | } u u { | | | | 7   F.F.F.F.F.F.F.F.F.F.F.F.F.F.F.F.F.F.F.F.F.F.F.F.F.",
"F.F.F.F.F.F.F.F.F.F.F.  t u | u u u { | | | | | | 4 F.F.F.F.F.F.F.F.F.F.F.F.F.F.F.F.F.F.F.F.F.F.F.F.",
"F.F.F.F.F.F.F.F.F.F.= y u u } r J y u u [ | | | | | 7 F.G F.F.F.F.F.F.F.F.F.F.F.F.F.F.F.F.F.F.F.F.F.",
"F.F.F.F.F.F.F.F.F.= y u u u u G l.U u y t u [ [ { | { Q c.  F.F.F.F.F.F.F.F.F.F.F.F.F.F.F.F.F.F.F.F.",
"F.F.F.F.F.F.F.F.4 q u u u t t J M.C.- 1 + * + + r [ 4 V.x.  F.F.F.F.F.F.F.F.F.F.F.F.F.F.F.F.F.F.F.F.",
"F.F.F.F.F.F.F.  1 u u u q - < H v.A./ 2 X.X.X.X.c 2 - j.c.. F.F.F.F.F.F.F.F.F.F.F.F.F.F.F.F.F.F.F.F.",
"F.F.F.F.F.F.F.F.1 u u u X  . .H M.D.x.f ;.;.;.;.;.#.X.3 ] $ F.F.F.F.F.F.F.F.F.F.F.F.F.F.F.F.F.F.F.F.",
"F.F.F.F.F.F.F.  1 u u u < 9 9 f g.A.B.) O.;.;.;.;.;.;.#.< F.F.F.F.F.F.F.F.F.F.F.F.F.F.F.F.F.F.F.F.F.",
"F.F.F.F.F.F.- = 1 u u u [ 1 1 < v <.7.-.M %.;.;.#.%.#.%.x . F.F.F.F.F.F.F.F.F.F.F.F.F.F.F.F.F.F.F.F.",
"F.F.F.F.F.- 0 0 < t u u u u u +  . . .w W =.X.%.X.X.#.X.6.  F.F.F.F.F.F.F.F.F.F.F.F.F.F.F.F.F.F.F.F.",
"F.F.F.F.- x #...< 1 u u u u u +  . . ., / n.n.>.e e c ,.Z.. F.F.F.F.F.F.F.F.F.F.F.F.F.F.F.F.F.F.F.F.",
"F.F.F.F.f %.;.;...< y u u u u q -  . .e j I T n e  .w g T w $ F.F.F.F.F.F.F.F.F.F.F.F.F.F.F.F.F.F.F.",
"F.F.F.F.f *.;.;.X.- t u u u u t @  . .e x w M %.%.%.%.+.+.e # F.F.F.F.F.F.F.F.F.F.F.F.F.F.F.F.F.F.F.",
"F.F.F.F.c ;.;.;.X.- t u u u u u q -  . . .e  .#.;.;.;.;.;.x # F.F.F.F.F.F.F.F.F.F.F.F.F.# # o F.F.F.",
"F.F.F.F.f ;.;.;.X.e ; y u u u u t @  . . . .e  .2 5 5 5 ;  .  F.F.F.F.F.F.F.F.#       o * 3 # F.F.F.",
"F.F.F.F.f ;.;.;.X. .* t u u u u u t <  . . . .-     o o .   # F.F.F.F.F.i     L Y Y Y h     F.F.F.F.",
"F.F.F.F.- X.;.X. . .@ t u u u u u u 1 - e [  .> 2.p o o 5.  # F.F.      H Y Y d.l.l.l.l.u.# F.F.F.F.",
"F.F.F.F.<  . .X. . .* @ q u u u u u u q 4 9 w = &.s a a 4.o i + 5 R ^ ^ d.z.z.B.V.V.V.V.v.G F.F.F.F.",
"F.F.F.F.< #.;.;.X.[ X w * t t y u u [ [ { r 4 #   &.3.4.+ + ; k j ! z.z.m.V.V.V.V.V.V.V.V.v.I I I F.",
"F.F.F.F.f ;.;.;.;...- w  .+ + - y [ { } [ [ [ < + + O o j j f @ o ( c.M.V.V.V.V.V.V.V.V.V.V.V.N.p.F.",
"F.F.F.F.f ;.;.;.;.f : e  . .e z . q t 1 ; ; ; > f > @ - f f b _ F.F.o ' V.V.V.V.V.V.V.V.V.V.C.h.o F.",
"F.F.F.F.f ;.;.;.;.m < , 9 , 9 v ; ; ; > a > > ; . . - w #.#.:.B.F.F.T h.V.V.V.V.V.V.V.V.C.A.Z.a.F.F.",
"F.F.F.F.g +.;.;.;.X.9 - - ; ; 2 h , a ; * Q ' E O $ : x  .e O.s.F.F.] A.A.Z.V.V.V.V.V.A.Z.x.h.F.F.F.",
"F.F.F.F.F.c ;.;.#. .@ s h > ; ; 5 = v 9 0 k.b.=.* F.F.- < - - F.F.F.I p.p.M.S.S.S.S.S.p.1.F.F.F.F.F.",
"F.F.F.F.o f ;.;.%...* @ ; . 9 N N M .. .[ =.:.m d F.F.F.F.F.F.F.F.F.F.F.F.' p.p.p.p.p.F.F.F.F.F.F.F.",
"F.F.o + O 2 #.;.;.X.k @   o  .X.%.@.- - > h X.2 F.F.F.F.F.F.F.F.F.F.F.F.F.F.% F.F.F.F.F.F.F.F.F.F.F.",
"F.+ j a . O 9 ..X. .[ + ` u.* = 5 g u.` ` U 5 + F.F.F.F.F.F.F.F.F.F.F.F.F.F.F.F.F.F.F.F.F.F.F.F.F.F.",
"F.F.+ + F.F.+ + * X * . B H p.u.] r.f.i.i.r.r.R F.F.F.F.F.F.F.F.F.F.F.F.F.F.F.F.F.F.F.F.F.F.F.F.F.F.",
"F.F.F.F.F.F.F.F.F.O 9 w w w F F B P f.u.i.~ F % F.F.F.F.F.F.F.F.F.F.F.F.F.F.F.F.F.F.F.F.F.F.F.F.F.F.",
"o $ F.F.F.F.F.F.o ,  .%.;.;.. q.q.9.    O 8.y.A   F.F.F.F.F.F.F.F.F.F.F.F.F.F.F.F.F.F.F.F.F.F.F.F.F.",
"o # F.F.F.F.F.  9  .%.;.;.*.. q.q.w.y.y.y.y.A N ;.5 F.F.F.F.F.F.F.F.F.F.F.F.F.F.F.F.F.F.F.F.F.F.F.F.",
"F.F.F.F.F.F.  9  . .%.;.;.;.. q.q.q.y.y.e.A 9 #.;.f F.F.F.F.F.F.F.F.F.F.F.F.F.F.F.F.F.F.F.F.F.F.F.F.",
"F.F.F.F.F.F.  9  . .#.;.$.+.B q.q.e.y.e.0.B 0 #.;.%.5 F.F.F.F.F.F.F.F.F.F.F.F.F.F.F.F.F.F.F.F.F.F.F.",
"F.F.F.F.F.F.  9 e  .w o.6 . q.q.q.q.e.q.D 9  .X.%...+ F.F.F.F.F.F.F.F.F.F.F.F.F.F.F.F.F.F.F.F.F.F.F.",
"F.F.F.F.F.F.. - 9 9 +   F.F.D D D D D 8.B - w 0 9 9 + F.F.F.F.F.F.F.F.F.F.F.F.F.F.F.F.F.F.F.F.F.F.F.",
"F.F.F.F.F.F.F.      F.F.F.F.      o $ # o   : =     F.F.F.F.F.F.F.F.F.F.F.F.F.F.F.F.F.F.F.F.F.F.F.F.",
"F.F.F.F.F.F.F.F.F.F.F.F.F.F.F.F.F.F.F.F.F.F.F.  o $ F.F.F.F.F.F.F.F.F.F.F.F.F.F.F.F.F.F.F.F.F.F.F.F."
};
