/* XPM */
static char *result[] = {
/* columns rows colors chars-per-pixel */
"50 50 162 2 ",
"   c #2F2F2E",
".  c #312F2D",
"X  c #3F2F2E",
"o  c #3B3027",
"O  c #32302E",
"+  c #3D322C",
"@  c #3D382F",
"#  c #333532",
"$  c #353B34",
"%  c #4D2F2F",
"&  c #522F2F",
"*  c #433327",
"=  c #4E3826",
"-  c #42342C",
";  c #4E3529",
":  c #463F2E",
">  c #4A392B",
",  c #563727",
"<  c #523B27",
"1  c #5B3A27",
"2  c #53332B",
"3  c #5B312E",
"4  c #543D2B",
"5  c #5D3C2B",
"6  c #443331",
"7  c #463932",
"8  c #5C3D3C",
"9  c #5C3231",
"0  c #623A25",
"q  c #62302F",
"w  c #623E2B",
"e  c #6D3C23",
"r  c #703D23",
"t  c #7B3F21",
"y  c #6D3131",
"u  c #6A3838",
"i  c #733131",
"p  c #7E3030",
"a  c #374036",
"s  c #3D4B3C",
"d  c #4D442E",
"f  c #51472F",
"g  c #40403F",
"h  c #424133",
"j  c #5B4234",
"k  c #654226",
"l  c #6F4827",
"z  c #624328",
"x  c #74432A",
"c  c #7A462C",
"v  c #794124",
"b  c #644433",
"n  c #6B4531",
"m  c #6A4937",
"M  c #734C39",
"N  c #736031",
"B  c #7A6531",
"V  c #2E3847",
"C  c #3F4042",
"Z  c #2C4467",
"A  c #2B4B78",
"S  c #424345",
"D  c #4B4C4A",
"F  c #524947",
"G  c #4C504B",
"H  c #5C5047",
"J  c #5D534D",
"K  c #4F5154",
"L  c #535353",
"P  c #50565D",
"I  c #595958",
"U  c #57595D",
"Y  c #6D4F40",
"T  c #624D43",
"R  c #724343",
"E  c #61524A",
"W  c #765747",
"Q  c #7F5845",
"!  c #765C4F",
"~  c #60655F",
"^  c #6A605B",
"/  c #73645B",
"(  c #7F6559",
")  c #5B5E62",
"_  c #5D636B",
"`  c #5C6066",
"'  c #656465",
"]  c #686868",
"[  c #6B726A",
"{  c #6E747C",
"}  c #73787F",
"|  c #7C7C7C",
" . c #737476",
".. c #843433",
"X. c #883333",
"o. c #943535",
"O. c #983636",
"+. c #814121",
"@. c #844A2D",
"#. c #8C4C2C",
"$. c #894E30",
"%. c #864D31",
"&. c #855237",
"*. c #89563C",
"=. c #8E583D",
"-. c #935333",
";. c #955A3C",
":. c #9B5B3B",
">. c #92742D",
",. c #846B31",
"<. c #967832",
"1. c #805946",
"2. c #94644B",
"3. c #A06040",
"4. c #A5822E",
"5. c #B89134",
"6. c #9D8376",
"7. c #AC8673",
"8. c #B38C79",
"9. c #2A4E82",
"0. c #295491",
"q. c #285DAA",
"w. c #2D5EA7",
"e. c #2B65BB",
"r. c #717780",
"t. c #757A83",
"y. c #2C67C0",
"u. c #2D6AC4",
"i. c #7E848C",
"p. c #7E8590",
"a. c #838383",
"s. c #8D8D8F",
"d. c #8D908E",
"f. c #818790",
"g. c #828994",
"h. c #8B929C",
"j. c #9F9591",
"k. c #9A9A9A",
"l. c #939193",
"z. c #B49B8F",
"x. c #B39182",
"c. c #9299A4",
"v. c #9FA5AE",
"b. c #ADADAC",
"n. c #A4A4A5",
"m. c #B7A8A0",
"M. c #AAAEB6",
"N. c #B3B3B4",
"B. c #B9B9BB",
"V. c #B9B4B4",
"C. c #C0B0AB",
"Z. c #CCB3A6",
"A. c #BAC1BC",
"S. c #C2C4C3",
"D. c #C7C7C9",
"F. c #D4D4D7",
"G. c #DEDEDF",
"H. c #DEDEE1",
"J. c #E4E4E6",
"K. c #EEEEEF",
"L. c gray99",
"P. c None",
/* pixels */
"P.P.P.P.P.P.P.P.P.P.P.P.P.P.P.P.P.P.P.P.P.P.P.P.P.P.P.P.P.P.P.P.P.P.P.P.P.P.P.P.P.P.P.P.P.P.P.P.P.P.",
"P.P.P.P.P.P.P.P.P.P.P.P.P.P.P.P.P.P.P.P.P.P.P.P.P.P.P.P.P.P.P.P.P.P.P.P.P.P.P.P.P.P.P.P.P.P.P.P.P.P.",
"P.P.P.P.P.P.P.P.P.P.P.P.P.P.P.P.P.P.P.P.P.P.P.P.P.P.P.P.P.P.P.P.P.P.P.P.P.P.P.P.P.P.P.P.P.P.P.P.P.P.",
"P.P.P.P.P.P.P.P.P.P.P.P.P.P.P.P.P.P.P.P.P.P.P.P.P.P.P.P.P.P.P.P.P.P.P.P.P.P.P.P.P.P.P.P.P.P.P.P.P.P.",
"P.P.P.P.P.P.P.P.P.P.P.P.P.P.P.P.P.P.P.P.P.P.P.P.P.P.P.P.P.P.P.P.P.P.P.P.P.P.P.P.P.P.P.P.P.P.P.P.P.P.",
"P.P.P.P.P.P.P.P.P.P.P.P.P.P.P.P.P.P.P.P.P.P.P.P.P.P.P.P.P.P.P.P.P.P.P.P.P.P.P.P.P.P.P.P.P.P.P.P.P.P.",
"P.P.P.P.P.P.P.P.P.P.P.P.P.P.P.P.P.P.P.P.P.P.P.P.P.P.P.P.P.P.P.P.P.P.P.P.P.P.P.P.P.P.P.P.P.P.P.P.P.P.",
"P.P.P.P.P.P.P.P.P.P.P.P.P.P.P.P.P.P.P.P.P.P.P.P.P.P.P.P.P.P.P.P.P.P.P.P.P.P.P.P.P.P.P.P.P.P.P.P.P.P.",
"P.P.P.P.P.P.P.P.P.P.P.P.P.P.P.P.P.P.P.P.P.P.P.P.P.P.P.P.P.P.P.P.P.P.P.P.P.P.P.P.P.P.P.P.P.P.P.P.P.P.",
"P.P.P.P.P.P.P.P.P.P.P.P.P.P.P.P.P.P.P.P.P.P.P.P.P.P.P.P.P.P.P.P.P.P.P.P.P.P.P.P.P.P.P.P.P.P.P.P.P.P.",
"P.P.P.P.P.P.P.P.P.P.P.P.P.P.P.P.P.P.P.P.P.P.P.P.P.P.P.P.P.P.P.P.P.P.P.P.P.P.P.P.P.P.P.P.P.P.P.P.P.P.",
"P.P.P.P.P.P.P.P.P.P.P.P.P.P.P.P.P.P.P.P.P.P.P.P.P.P.P.P.P.P.P.    O $ P.P.P.P.P.P.P.P.P.P.P.P.P.P.P.",
"P.P.P.P.P.P.P.P.P.P.P.P.P.P.P.P.P.P.P.P.P.P.P.P.P.P.P.$     6 ......u   # P.P.P.P.P.P.P.P.P.P.P.P.P.",
"P.P.P.P.P.P.P.P.P.P.P.P.P.P.P.P.P.P.P.P.P.P.P.P.P.$   ..O.O.O.o.p p X.o.o.9 P.P.P.P.P.P.P.P.P.P.P.P.",
"P.P.P.P.P.P.P.P.P.P.P.P.P.P.P.P.P.P.P.P.P.P.P.P.# ..O.O.O.O.O.o.p p p X.X.p % P.P.P.P.P.P.P.P.P.P.P.",
"P.P.P.P.P.P.P.P.P.P.P.P.P.P.P.P.P.P.P.P.P.D P.7 X.O.O.O.O.o.p p p 8 8 p X.p p 2 P.P.P.P.P.P.P.P.P.P.",
"P.P.P.P.P.P.P.P.P.P.P.P.P.P.P.P.P.P.P.P.P.| | R o.o.......y i p u 2.p.6 p p p p & P.P.P.P.P.P.P.P.P.",
"P.P.P.P.P.P.P.P.P.P.P.P.P.P.P.P.P.P.P.P.P.| G.a.i i ; + + - - q I G.i.X i i p p p % P.P.P.P.P.P.P.P.",
"P.P.P.P.P.P.P.P.P.P.P.P.P.P.P.P.P.P.P.P.P.| b./ ; j %.#.#.#.c C k.G.| o ; 9 i p p p . P.P.P.P.P.P.P.",
"P.P.P.P.P.P.P.P.P.P.P.P.P.P.P.P.P.P.P.P.P.] E x #.:.3.3.3.3.*.I L.G.| ; +.; 9 p p p   P.P.P.P.P.P.P.",
"P.P.P.P.P.P.P.P.P.P.P.P.P.P.P.P.P.P.P.P.P.: x :.3.3.3.3.3.3.W k.L.V.^ , 0 2 y p p p   P.P.P.P.P.P.P.",
"P.P.P.P.P.P.P.P.P.P.P.P.P.P.P.P.P.P.P.P.P.0 -.-.:.-.:.:.3.-.1.8.7.M 1 3 3 i p p p p   e P.P.P.P.P.P.",
"P.P.P.P.P.P.P.P.P.P.P.P.P.P.P.P.P.P.P.P.P./ 2.-.-.+.:.-.#.6.w ..+.+.0 % p p p p p & 0 t 1 P.P.P.P.P.",
"P.P.P.P.P.P.P.P.P.P.P.P.P.P.P.P.P.P.P.P.P.k.m.! v +.n z.Z.b.* t +.t 0 & p p p p p 6 ..-.$.1 P.P.P.P.",
"P.P.P.P.P.P.P.P.P.P.P.P.P.P.P.P.P.P.P.P.; T D b t +.r J I D r +.+.0 2 i p ..p p % 0 :.3.:.&.  P.P.P.",
"P.P.P.P.P.P.P.P.P.P.P.P.P.P.P.P.P.P.P.P.; %.*.;.:.:.:.;.r r +.+.+.0 & p p p p p - r 3.3.3.*.  P.P.P.",
"P.P.P.P.    P.P.P.P.P.P.P.P.P.P.P.P.P.s ; -.:.3.:.2.3.#.+.+.+.+.r 2 i p p p p p X r 3.3.3.*.  P.P.P.",
"P.P.P.P.- < +         P.P.P.P.P.P.P.P.s 2 5 7 : d 7 v +.+.t +.+.e & p p p p p % 0 t 3.3.3.*.  P.P.P.",
"P.P.P.P.s   > H P P P #     P.P.P.P.P.a         . O   r +.t +.r X p p p p p p - r +.3.3.3.&.. P.P.P.",
"P.P.P.P.$ ) c.c.c.c.c._ P )         P.P.  <.N   . <.d r +.+.e * p p p p p p p + r ..+.3.:.r . P.P.P.",
"P.P.P.P.G a.F.F.F.F.F.M.v.v._ _ ` G + @ # ,.B f d >.- 0 e * % p p p p p p i 2 O v +.+.#.@.r O P.P.P.",
"P.P.I I s.F.F.F.F.F.F.F.F.F.v.n.l.z k 4 + + ,.5.4.d   X % o.X...p p p y i & k + r +.3.:.:.x   P.P.P.",
"P.L B.F.F.F.F.F.F.F.F.F.F.F.F.N.n.  O = z z - O + - + i ......o...i 3 - - 0 +.; e -.3.3.3.*.O P.P.P.",
"P.P.L J.F.F.F.F.F.F.F.F.F.F.F.  P.P.P.7 j j , * > f j ; > ; 4 y y % , @.t +.+.0 + *.3.3.3.*.  P.P.P.",
"P.P.L N.J.H.F.F.F.F.F.F.F.F.F.| P.P.P.( -.-.#.0 O O o < 4 f 1 > > > 5 m 1 0 0 < ; =.:.3.3.*.# P.P.P.",
"P.P.P.' b.S.J.G.F.F.F.F.F.J.J.S.  P.P.C.2.+.+.e h O * j ; = * 4 < k j ; > > > 1 t :.3.3.;.m P.P.P.P.",
"P.P.P.P.P.' a.S.K.K.K.K.K.a.a. .# P.A.F.j.; 2 P.P.$ x x.z.t 0 w m o ; ; = z l + r #.3.3.*.  P.P.P.P.",
"P.P.P.P.P.P.P.[ a.a.a.a.a.P.P.P.P.P.P.S.B.P.P.P.P.P.; V.F.+.+.+.#.M M n * - > O r -.3.3.*.  P.P.P.P.",
"P.P.P.P.P.P.P.P.P.P.P.P.P.P.P.P.P.P.P.P.P.P.P.P.P.P.d.D.F.2 = = z 3.;.@.2 O   , t :.3.3.c O + # P.P.",
"P.P.P.P.P.P.P.P.P.P.P.P.P.P.P.P.P.P.P.P.P.P.P.P.P.P.P.I G { { } } 7 - - ' i.K r +.+.+.@.+ O + z 4 P.",
"P.P.P.P.P.P.P.P.P.P.P.P.P.P.P.P.P.P.P.P.P.P.P.P.P.P.  t.{ p.p.g.h.r.} f.) S $ + + - - + P.P.P.+ + P.",
"P.P.P.P.P.P.P.P.P.P.P.P.P.P.P.P.P.P.P.P.P.P.P.P.P.P.  7 C p.p.g.g.$ S S W c r o   P.P.P.P.P.P.P.P.P.",
"P.P.P.P.P.P.P.P.P.P.P.P.P.P.P.P.P.P.P.P.P.P.P.P.P.P.. w.u.      V q.A j 3.#.+.* P.P.P.P.P.P.P.P.P.P.",
"P.P.P.P.P.P.P.P.P.P.P.P.P.P.P.P.P.P.P.P.P.P.P.P.O 1.2.7 u.u.u.u.y.q.A j 3.3.#.+.+ . P.P.P.P.P.P.P.P.",
"P.P.P.P.P.P.P.P.P.P.P.P.P.P.P.P.P.P.P.P.P.P.P.P.7 ;.3.7 q.y.u.u.e.q.A j 2.3.#.+...-   P.    P.P.P.P.",
"P.P.P.P.P.P.P.P.P.P.P.P.P.P.P.P.P.P.P.P.P.P.P.  &.3.3.4 0.q.y.y.q.q.9.F :.:.#.+.t +   P.# # P.P.P.P.",
"P.P.P.P.P.P.P.P.P.P.P.P.P.P.P.P.P.P.P.P.P.P.P.  r -.:.+.  q.q.e.q.q.q.A b @.+.+.+.o   P.P.P.P.P.P.P.",
"P.P.P.P.P.P.P.P.P.P.P.P.P.P.P.P.P.P.P.P.P.P.P.P.1 0 0 t # A A A A A A Z   < 0 1 k o O P.P.P.P.P.P.P.",
"P.P.P.P.P.P.P.P.P.P.P.P.P.P.P.P.P.P.P.P.P.P.P.P.O     , #       . . . P.P.s $ $ $ # P.P.P.P.P.P.P.P.",
"P.P.P.P.P.P.P.P.P.P.P.P.P.P.P.P.P.P.P.P.P.P.P.P.P.    P.P.P.P.P.P.P.P.P.P.P.P.P.P.P.P.P.P.P.P.P.P.P."
};
