/* XPM */
static char *result[] = {
/* columns rows colors chars-per-pixel */
"50 50 162 2 ",
"   c #2F2F2E",
".  c #3E2F2E",
"X  c #322F2C",
"o  c #2F302E",
"O  c #3C3027",
"+  c #33302D",
"@  c #3E332C",
"#  c #2E353D",
"$  c #323531",
"%  c #353C34",
"&  c #3F3C31",
"*  c #432F2F",
"=  c #433226",
"-  c #4E3826",
";  c #43352C",
":  c #4E3529",
">  c #46382B",
",  c #4D392B",
"<  c #563727",
"1  c #593827",
"2  c #54342A",
"3  c #5D302F",
"4  c #543C2B",
"5  c #5A3D29",
"6  c #543C27",
"7  c #443330",
"8  c #463932",
"9  c #4C3C33",
"0  c #593231",
"q  c #563C31",
"w  c #5B3F30",
"e  c #553231",
"r  c #613A26",
"t  c #6D3C23",
"y  c #65302F",
"u  c #633D29",
"i  c #713D23",
"p  c #7C3F21",
"a  c #673432",
"s  c #6D3030",
"d  c #723030",
"f  c #7E3030",
"g  c #374036",
"h  c #384136",
"j  c #3D4B3B",
"k  c #4C432E",
"l  c #444837",
"z  c #5D4335",
"x  c #584439",
"c  c #664326",
"v  c #6D4727",
"b  c #6F4827",
"n  c #624328",
"m  c #69402C",
"M  c #7B4225",
"N  c #74432A",
"B  c #7B452A",
"V  c #654535",
"C  c #6F4935",
"Z  c #664737",
"A  c #7C4B32",
"S  c #734C39",
"D  c #7A4F39",
"F  c #2E3847",
"G  c #2F3E53",
"H  c #2C4160",
"J  c #2D476C",
"K  c #2B4B78",
"L  c #344E73",
"P  c #3B5274",
"I  c #45494D",
"U  c #494948",
"Y  c #544748",
"T  c #455C43",
"R  c #494E54",
"E  c #4F5155",
"W  c #5D5050",
"Q  c #51565C",
"!  c #56595D",
"~  c #565C55",
"^  c #6D4F40",
"/  c #644E44",
"(  c #6D564A",
")  c #765C4F",
"_  c #615151",
"`  c #625A56",
"'  c #7D6859",
"]  c #60775F",
"[  c #5D6166",
"{  c #626261",
"}  c #62666D",
"|  c #68696B",
" . c #7C6D64",
".. c #6A6F75",
"X. c gray45",
"o. c #7B7B7B",
"O. c #853434",
"+. c #8A3333",
"@. c #943535",
"#. c #983636",
"$. c #814121",
"%. c #8C4C2C",
"&. c #894E30",
"*. c #845137",
"=. c #8B573C",
"-. c #8E583D",
";. c #85543C",
":. c #935333",
">. c #945A3D",
",. c #9A5A3A",
"<. c #915E45",
"1. c #93634A",
"2. c #99735F",
"3. c #A06040",
"4. c #A5745D",
"5. c #896F62",
"6. c #907669",
"7. c #9A7360",
"8. c #8C7D76",
"9. c #A3802D",
"0. c #DAA935",
"q. c #D5A533",
"w. c #9D8376",
"e. c #B38C79",
"r. c #2E5289",
"t. c #295696",
"y. c #285DAB",
"u. c #295BA3",
"i. c #2B61AE",
"p. c #2B65BB",
"a. c #2A62B5",
"s. c #787E88",
"d. c #2D6AC5",
"f. c #7E848C",
"g. c #7E8590",
"h. c #838383",
"j. c #829482",
"k. c #858C96",
"l. c #8F9297",
"z. c #8A919C",
"x. c #929292",
"c. c #979798",
"v. c #9E9F9E",
"b. c #999491",
"n. c #AD9E98",
"m. c #9299A4",
"M. c #ACACAB",
"N. c #B1B1B2",
"B. c #B6B9B8",
"V. c #BABAB9",
"C. c #C7B3A8",
"Z. c #BABCC3",
"A. c #C0C0C0",
"S. c #C4C9C6",
"D. c #C6C9CA",
"F. c #CBCDCE",
"G. c #D4D4D7",
"H. c #D6D6D9",
"J. c #DDDDDE",
"K. c #E6E6E6",
"L. c white",
"P. c None",
/* pixels */
"P.P.P.P.P.P.P.P.P.P.P.P.P.P.P.P.P.P.P.P.P.P.P.P.P.P.P.P.P.P.P.P.P.P.P.P.P.P.P.P.P.P.P.P.P.P.P.P.P.P.",
"P.P.P.P.P.P.P.P.P.P.P.P.P.P.P.P.P.P.P.P.P.P.P.P.P.P.P.P.P.P.P.P.P.P.P.P.P.P.P.P.P.P.P.P.P.P.P.P.P.P.",
"P.P.P.P.P.P.P.P.P.P.P.P.P.P.P.P.P.P.P.P.P.P.P.P.P.P.P.P.P.P.P.P.P.P.P.P.P.P.P.P.P.P.P.P.P.P.P.P.P.P.",
"P.P.P.P.P.P.P.P.P.P.P.P.P.P.P.P.P.P.P.P.P.P.P.P.P.P.P.P.P.P.P.P.P.P.P.P.P.P.P.P.P.P.P.P.P.P.P.P.P.P.",
"P.P.P.P.P.P.P.P.P.P.P.P.P.P.P.P.P.P.P.P.P.P.P.P.P.P.P.P.P.P.P.P.P.P.P.P.P.P.P.P.P.P.P.P.P.P.P.P.P.P.",
"P.P.P.P.P.P.P.P.P.P.P.P.P.P.P.P.P.P.P.P.P.P.P.P.P.P.P.P.P.P.P.P.P.P.P.P.P.P.P.P.P.P.P.P.P.P.P.P.P.P.",
"P.P.P.P.P.P.P.P.P.P.P.P.P.P.P.P.P.P.P.P.P.P.P.P.P.P.P.P.P.P.P.P.P.P.P.P.P.P.P.P.P.P.P.P.P.P.P.P.P.P.",
"P.P.P.P.P.P.P.P.P.P.P.P.P.P.P.P.P.P.P.P.P.P.P.P.P.P.P.P.P.P.P.P.P.P.P.P.P.P.P.P.P.P.P.P.P.P.P.P.P.P.",
"P.P.P.P.P.P.P.P.P.P.P.P.P.P.P.P.P.P.P.P.P.P.P.P.P.P.P.P.P.P.P.P.P.P.P.P.P.P.P.P.P.P.P.P.P.P.P.P.P.P.",
"P.P.P.P.P.P.P.P.P.P.P.P.P.P.P.P.P.P.P.P.P.P.P.P.P.P.P.P.P.P.P.P.P.P.P.P.P.P.P.P.P.P.P.P.P.P.P.P.P.P.",
"P.P.P.P.P.P.P.P.P.P.P.P.P.P.P.P.+   o % P.P.P.P.P.P.P.P.P.P.P.P.P.P.P.P.P.P.P.P.P.P.P.P.P.P.P.P.P.P.",
"P.P.P.P.P.P.P.P.P.P.P.P.P.    7 #.#.#.s     $ % P.P.P.P.P.P.P.P.P.P.P.P.P.P.P.P.P.P.P.P.P.P.P.P.P.P.",
"P.P.P.P.P.P.P.P.P.P.P.P.* @.#.@.f f O.#.#.#.#.a 7 P.P.P.P.P.P.P.P.P.P.P.P.P.P.P.P.P.P.P.P.P.P.P.P.P.",
"P.P.P.P.P.P.P.P.P.P.P.* d f @.f d f O.@.@.#.#.#.#.e P.P.P.P.P.P.P.P.P.P.P.P.P.P.P.P.P.P.P.P.P.P.P.P.",
"P.P.P.P.P.P.P.P.P.P.* d f f @.a Y d f f O.@.#.@.#.#.0 P.U P.P.P.P.P.P.P.P.P.P.P.P.P.P.P.P.P.P.P.P.P.",
"P.P.P.P.P.P.P.P.P.P.d f f f f U v.W d f s f O.O.@.#.O._ N.  P.P.P.P.P.P.P.P.P.P.P.P.P.P.P.P.P.P.P.P.",
"P.P.P.P.P.P.P.P.* s f f f 3 y U V.G.* 2 - - - , 3 s . G.M.  P.P.P.P.P.P.P.P.P.P.P.P.P.P.P.P.P.P.P.P.",
"P.P.P.P.P.P.P.P.y f f f y - - U A.K.{ 4 %.%.%.%.V 4 < b.N.  P.P.P.P.P.P.P.P.P.P.P.P.P.P.P.P.P.P.P.P.",
"P.P.P.P.P.P.P.P.3 f f f @ $.O.l A.L.M.z 3.3.3.3.1.:.%.r o.$ P.P.P.P.P.P.P.P.P.P.P.P.P.P.P.P.P.P.P.P.",
"P.P.P.P.P.P.P.  3 f f f 0 r 1 x x.K.F. .;.3.3.3.3.3.3.:.: g P.P.P.P.P.P.P.P.P.P.P.P.P.P.P.P.P.P.P.P.",
"P.P.P.P.P.P.: ; 3 f f f f 3 3 2 m 7.e.2.A ,.3.3.%.,.:.,.$.  P.P.P.P.P.P.P.P.P.P.P.P.P.P.P.P.P.P.P.P.",
"P.P.P.P.P.4 t t 2 s f f f f f ; p O.p i ) 1.%.,.%.%.:.%.w.  P.P.P.P.P.P.P.P.P.P.P.P.P.P.P.P.P.P.P.P.",
"P.P.P.P.: N :.%.2 3 O.f f f f = $.$.$.r { C.C.5.i $.V 6.J.  P.P.P.P.P.P.P.P.P.P.P.P.P.P.P.P.P.P.P.P.",
"P.P.P.P.u ,.<.:.N 2 d f f f f 1 6 $.$.p Z X.h.( p $.t ` h.r P.P.P.P.P.P.P.P.P.P.P.P.P.P.P.P.P.P.P.P.",
"P.P.P.P.z 3.3.3.%.- s f f f f s O $.$.$.p i A >.,.,.,.=.=.$.o P.P.P.P.P.P.P.P.P.P.P.P.P.P.P.P.P.P.P.",
"P.P.P.P.V 1.3.3.%.- s f f f f f y - $.p $.$.$.,.3.3.3.3.,.$.$ P.P.P.P.P.P.P.P.P.P.P.P.P.o + $ P.P.P.",
"P.P.P.P.V 3.3.3.%.p ; d f f f f s * $.$.$.$.$.$.4 8 8 8 8 $.$ P.P.P.P.P.P.P.P.$ o o   o = n $ P.P.P.",
"P.P.P.P.V 3.3.3.%.O.= s f f f f f y 1 $.$.$.p 1 +         @ $ P.P.P.P.P.P.  o I R R R n + @ P.P.P.P.",
"P.P.P.P.: %.3.%.$.$.= s f f f f f f 3 - $.$.p - 9.k     0.  $ P.P.$     I Q Q k.m.m.m.m.g.o P.P.P.P.",
"P.P.P.P.: p $.$.$.$.@ o s f f f f f f 3   r $.2 9.k     0.  P.  # Q Q Q s.m.m.D.H.G.G.G.N.o P.P.P.P.",
"P.P.P.T 2 %.3.3.%.$.. i = f f f f f f f +.0       9.q.0.o + @ b N ' m.m.Z.G.G.G.G.G.G.G.G.N.  o % P.",
"P.P.P.T z 3.3.3.,.%.* t $.    . f f +.#.#.#.@.0         b b c O   ..G.G.G.G.G.G.G.G.G.G.G.G.G.G.c.h ",
"P.P.P.P.z 3.3.3.3.z r p O.p $.M @ s O.a @ @ @ k c n = = 8 8 7 $ P.P.+ X.G.G.G.G.G.G.G.G.G.H.H.c.g P.",
"P.P.P.P.V 1.3.3.3.m = r i i i D @ @ @ , n n n - + + @ i ,.,.*.o P.P.P.h.G.G.G.G.G.G.G.G.H.J.J.v.g P.",
"P.P.P.P.z >.3.3.3.%.i > @ O O k c c c 6 O @ > ; + % u p $.$.i   P.P.o.J.J.H.G.H.G.G.G.J.J.G.B.P.P.P.",
"P.P.P.P.P.V 3.3.,.%.@ n v n n n n O > O 5 $.>.%.@ ] ~ m i <.r P.P.P.X.G.G.J.J.J.J.J.J.G.V.$ $ P.P.P.",
"P.P.P.P.P.z 3.3.:.$.; , k O - z z V %.O.p %.,.A l B.D.P.P.G.P.P.P.P.P.P.P.x.M.M.M.M.M.$ + P.P.P.P.P.",
"P.P.P.P.+ q ,.3.3.%.1 + + o $.:.3.>.r r r B 4.8.j.S.P.P.P.G.P.P.P.P.P.P.P.P.P.P.P.P.P.P.P.P.P.P.P.P.",
"P.P., > O ; N :.:.%.$.= E ! r u S ^ ! E E / n.G.G.G.P.P.P.P.G.G.F.P.P.P.P.P.P.P.P.P.P.P.P.P.P.P.P.P.",
"P.& 4 4 P.o : 1 1 r 5 O [ ..! ! R [ z.g.g.} x.F.G.S.P.P.P.P.F.G.D.P.P.P.P.P.P.P.P.P.P.P.P.P.P.P.P.P.",
"P.P.P.P.P.P.P.P.P.    < C S ! ! R [ z.g.g.} ! | P.P.P.P.P.P.P.P.P.P.P.P.P.P.P.P.P.P.P.P.P.P.P.P.P.P.",
"P.P.P.P.P.P.P.P.P.P.  i ,.3.S # K L Q E E P r.G   P.P.P.P.P.P.P.P.P.P.P.P.P.P.P.P.P.P.P.P.P.P.P.P.P.",
"P.P.P.P.P.P.P.P.P.P.1 &.,.3.3.F y.u.r.r.r.i.d.J Z 8 P.P.P.P.P.P.P.P.P.P.P.P.P.P.P.P.P.P.P.P.P.P.P.P.",
"P.P.P.P.P.P.P.P.P.  i %.,.3.3.F y.i.d.d.d.p.r.Y <.8 P.P.P.P.P.P.P.P.P.P.P.P.P.P.P.P.P.P.P.P.P.P.P.P.",
"P.P.P.P.P.P.P.P.P.P.i $.,.3.3.F y.y.p.d.p.y.H S 3.>.9 P.P.P.P.P.P.P.P.P.P.P.P.P.P.P.P.P.P.P.P.P.P.P.",
"P.P.P.P.P.P.P.P.P.P.i $.%.$.8 t.y.y.a.p.i.y.H S 3.%.; P.P.P.P.P.P.P.P.P.P.P.P.P.P.P.P.P.P.P.P.P.P.P.",
"P.P.P.P.P.P.P.P.P.P.i $.$.$.$ y.y.y.y.i.y.J q M $.$.@ P.P.P.P.P.P.P.P.P.P.P.P.P.P.P.P.P.P.P.P.P.P.P.",
"P.P.P.P.P.P.P.P.P.P.i p : .   y.y.y.y.y.y.H r 1 ; @ P.P.P.P.P.P.P.P.P.P.P.P.P.P.P.P.P.P.P.P.P.P.P.P.",
"P.P.P.P.P.P.P.P.P.P.+       P.            j $ + o   P.P.P.P.P.P.P.P.P.P.P.P.P.P.P.P.P.P.P.P.P.P.P.P.",
"P.P.P.P.P.P.P.P.P.P.P.P.P.P.P.P.P.P.P.P.P.P.P.P.P.P.P.P.P.P.P.P.P.P.P.P.P.P.P.P.P.P.P.P.P.P.P.P.P.P."
};
