/* XPM */
static char *result[] = {
/* columns rows colors chars-per-pixel */
"50 50 156 2 ",
"   c #2F2F2E",
".  c #312F2D",
"X  c #3D2F2E",
"o  c #2F302E",
"O  c #33312E",
"+  c #3E332C",
"@  c #3D3126",
"#  c #323531",
"$  c #343933",
"%  c #373838",
"&  c #482F2F",
"*  c #443326",
"=  c #42342C",
"-  c #4D3529",
";  c #49392B",
":  c #563727",
">  c #553B26",
",  c #5B3D26",
"<  c #533529",
"1  c #5D302F",
"2  c #543C2B",
"3  c #5B3C29",
"4  c #433130",
"5  c #453932",
"6  c #493C33",
"7  c #573231",
"8  c #5B3430",
"9  c #613926",
"0  c #6D3C23",
"q  c #65302F",
"w  c #723D23",
"e  c #7B3F21",
"r  c #653332",
"t  c #6E3030",
"y  c #723030",
"u  c #7E3030",
"i  c #394338",
"p  c #4C432E",
"a  c #51472F",
"s  c #5D4F2E",
"d  c #404637",
"f  c #5C4335",
"g  c #564438",
"h  c #6F4827",
"j  c #624328",
"k  c #694527",
"l  c #73432A",
"z  c #79472E",
"x  c #794124",
"c  c #624333",
"v  c #6B4531",
"b  c #674838",
"n  c #6A4936",
"m  c #704732",
"M  c #7C4C34",
"N  c #734C39",
"B  c #2E3847",
"V  c #3F4042",
"C  c #2C405B",
"Z  c #364054",
"A  c #2E476A",
"S  c #2C4160",
"D  c #2B4B78",
"F  c #424445",
"G  c #4B4B4A",
"H  c #43464A",
"J  c #514542",
"K  c #574B45",
"L  c #4A4F54",
"P  c #4F5255",
"I  c #525151",
"U  c #5D5050",
"Y  c #50565D",
"T  c #595A59",
"R  c #57595D",
"E  c #604C41",
"W  c #765C4F",
"Q  c #655754",
"!  c #7B6A5E",
"~  c #585C61",
"^  c #5D636B",
"/  c #626261",
"(  c gray42",
")  c #7C6D64",
"_  c #6F7170",
"`  c #6E747C",
"'  c #717171",
"]  c #7C7C7C",
"[  c #843433",
"{  c #8A3333",
"}  c #933535",
"|  c #983636",
" . c #814121",
".. c #824A2D",
"X. c #8C4C2C",
"o. c #845137",
"O. c #86553C",
"+. c #8A563C",
"@. c #8E583D",
"#. c #925232",
"$. c #92583B",
"%. c #9B5B3B",
"&. c #8C702D",
"*. c #955F45",
"=. c #94644B",
"-. c #99735F",
";. c #A06040",
":. c #A16C52",
">. c #896F62",
",. c #907669",
"<. c #9A7360",
"1. c #7F807F",
"2. c #A3802D",
"3. c #B48D32",
"4. c #B89134",
"5. c #DAA935",
"6. c #9D8376",
"7. c #B38C79",
"8. c #2E5289",
"9. c #295491",
"0. c #2959A0",
"q. c #285DAA",
"w. c #2960AF",
"e. c #2A63B7",
"r. c #757B84",
"t. c #787E86",
"y. c #2D6AC5",
"u. c #7D838B",
"i. c #7E8590",
"p. c #838383",
"a. c #8B8B8B",
"s. c #8E908F",
"d. c #858C95",
"f. c #8A919C",
"g. c #909090",
"h. c #9C9C9C",
"j. c #999491",
"k. c #B2998E",
"l. c #9299A4",
"z. c #9FA5AE",
"x. c #ACACAB",
"c. c #B1B1B1",
"v. c #BABABC",
"b. c #C1AAA1",
"n. c #C7B3A8",
"m. c #BFC1C7",
"M. c #C1C1C1",
"N. c #C7C7C9",
"B. c #CBCDCE",
"V. c #D4D4D7",
"C. c #D7D7DA",
"Z. c #DCDCDD",
"A. c #E5E5E7",
"S. c #EEEEEF",
"D. c white",
"F. c None",
/* pixels */
"F.F.F.F.F.F.F.F.F.F.F.F.F.F.F.F.F.F.F.F.F.F.F.F.F.F.F.F.F.F.F.F.F.F.F.F.F.F.F.F.F.F.F.F.F.F.F.F.F.F.",
"F.F.F.F.F.F.F.F.F.F.F.F.F.F.F.F.F.F.F.F.F.F.F.F.F.F.F.F.F.F.F.F.F.F.F.F.F.F.F.F.F.F.F.F.F.F.F.F.F.F.",
"F.F.F.F.F.F.F.F.F.F.F.F.F.F.F.F.F.F.F.F.F.F.F.F.F.F.F.F.F.F.F.F.F.F.F.F.F.F.F.F.F.F.F.F.F.F.F.F.F.F.",
"F.F.F.F.F.F.F.F.F.F.F.F.F.F.F.F.F.F.F.F.F.F.F.F.F.F.F.F.F.F.F.F.F.F.F.F.F.F.F.F.F.F.F.F.F.F.F.F.F.F.",
"F.F.F.F.F.F.F.F.F.F.F.F.F.F.F.F.F.F.F.F.F.F.F.F.F.F.F.F.F.F.F.F.F.F.F.F.F.F.F.F.F.F.F.F.F.F.F.F.F.F.",
"F.F.F.F.F.F.F.F.F.F.F.F.F.F.F.F.F.F.F.F.F.F.F.F.F.F.F.F.F.F.F.F.F.F.F.F.F.F.F.F.F.F.F.F.F.F.F.F.F.F.",
"F.F.F.F.F.F.F.F.F.F.F.F.F.F.F.F.F.F.F.F.F.F.F.F.F.F.F.F.F.F.F.F.F.F.F.F.F.F.F.F.F.F.F.F.F.F.F.F.F.F.",
"F.F.F.F.F.F.F.F.F.F.F.F.F.F.F.F.F.F.F.F.F.F.F.F.F.F.F.F.F.F.F.F.F.F.F.F.F.F.F.F.F.F.F.F.F.F.F.F.F.F.",
"F.F.F.F.F.F.F.F.F.F.F.F.F.F.F.F.F.F.F.F.F.F.F.F.F.F.F.F.F.F.F.F.F.F.F.F.F.F.F.F.F.F.F.F.F.F.F.F.F.F.",
"F.F.F.F.F.F.F.F.F.F.F.F.F.F.F.F.F.F.F.F.F.F.F.F.F.F.F.F.F.F.F.F.F.F.F.F.F.F.F.F.F.F.F.F.F.F.F.F.F.F.",
"F.F.F.F.F.F.F.F.F.F.F.F.F.F.F.F.F.F.F.F.F.F.F.F.F.F.F.F.F.F.F.F.F.F.F.F.F.F.F.F.F.F.F.F.F.F.F.F.F.F.",
"F.F.F.F.F.F.F.F.F.F.F.F.F.F.F.F.F.F.F.F.F.F.F.F.F.F.F.F.F.F.F.      F.F.F.F.F.F.F.F.F.F.F.F.F.F.F.F.",
"F.F.F.F.F.F.F.F.F.F.F.F.F.F.F.F.F.F.F.F.F.F.F.F.F.F.F.      r [ [ [ 4     F.F.F.F.F.F.F.F.F.F.F.F.F.",
"F.F.F.F.F.F.F.F.F.F.F.F.F.F.F.F.F.F.F.F.F.F.F.F.F.  7 | | | | { u u } | | # F.F.F.F.F.F.F.F.F.F.F.F.",
"F.F.F.F.F.F.F.F.F.F.F.F.F.F.F.F.F.F.F.F.F.F.F.F.4 | | | | | | { u u u | u t o F.F.F.F.F.F.F.F.F.F.F.",
"F.F.F.F.F.F.F.F.F.F.F.F.F.F.F.F.F.F.F.F.F.G F.7 | | | | } { u u y J r } u u y 4 F.F.F.F.F.F.F.F.F.F.",
"F.F.F.F.F.F.F.F.F.F.F.F.F.F.F.F.F.F.F.F.  c.Q { | { [ [ u t y y U h.G u u u u y 4 F.F.F.F.F.F.F.F.F.",
"F.F.F.F.F.F.F.F.F.F.F.F.F.F.F.F.F.F.F.F.  c.V.X [ r + = + + q & V.M.G t t u u u q X F.F.F.F.F.F.F.F.",
"F.F.F.F.F.F.F.F.F.F.F.F.F.F.F.F.F.F.F.F.. c.j.< < b X.X.X.X.2 / A.M.G < : q u u u 1   F.F.F.F.F.F.F.",
"F.F.F.F.F.F.F.F.F.F.F.F.F.F.F.F.F.F.F.F.$ ] , X.#.%.;.;.;.=.f x.D.M.H  .e @ u [ u 1 F.F.F.F.F.F.F.F.",
"F.F.F.F.F.F.F.F.F.F.F.F.F.F.F.F.F.F.F.F.F.< #.;.;.;.;.;.;.+.) B.A.g.g 9 , 1 u u u 1   F.F.F.F.F.F.F.",
"F.F.F.F.F.F.F.F.F.F.F.F.F.F.F.F.F.F.F.F.O e %.#.%.X.;.;.%...-.7.<.0 < 1 1 u u u u q = - F.F.F.F.F.F.",
"F.F.F.F.F.F.F.F.F.F.F.F.F.F.F.F.F.F.F.F.  6.X.#.X. .%.X.=.W l  . . .* u u u u u t < 0 w - F.F.F.F.F.",
"F.F.F.F.F.F.F.F.F.F.F.F.F.F.F.F.F.F.F.F.  Z.,.c  .x >.n.n./ ,  .e  .X u u u u u 1 - ..#.l - F.F.F.F.",
"F.F.F.F.F.F.F.F.F.F.F.F.F.F.F.F.F.F.F.# 0 T J x  . .b T I c e [  .- q u u u u y < ..%.;.%.f F.F.F.F.",
"F.F.F.F.F.F.F.F.F.F.F.F.F.F.F.F.F.F.F.#  .+.+.%.%.%.$...w x  .e  .@ t u u u u t < X.;.;.;.f F.F.F.F.",
"F.F.F.o # O F.F.F.F.F.F.F.F.F.F.F.F.F.# e ;.%.;.;.;.%. . . . . .- q u u u u u t - X.;.;.;.f F.F.F.F.",
"F.F.F.O 3 * # o     # F.F.F.F.F.F.F.F.o  .; 5 5 5 2  . . . .e  .X t u u u u y & x X.;.;.;.f F.F.F.F.",
"F.F.F.F.    h Y Y Y L   o i F.F.F.F.F.O o o     O + -  . . . .> t u u u u u t =  .X.;.;.;.f F.F.F.F.",
"F.F.F.F.  u.l.l.l.l.d.Y Y H o o o F.F.# o 5.    p &.<  . .e : : u u u u u u t +  .e X.;.X.- F.F.F.F.",
"F.F.F.F.G v.V.V.V.V.B.z.z.d.^ ^ R 5 + i o 4.a a s &.- 0 : @ q u u u u u u q + +  . . .X. .- F.F.F.F.",
"F.I P I v.V.V.V.V.V.V.V.V.m.z.z.) j j ; + + 4.3.&.O . & t { { u u u y t t - w =  .#.;.;.#.2 F.F.F.F.",
"F.p.N.C.V.V.V.V.V.V.V.V.V.V.M.c.( o @ f j j o O + @ 1 [ [ [ } { [ y = = = e w - ..;.;.;.;.f F.F.F.F.",
"F.o h.C.V.V.V.V.V.V.V.V.V.V.'   F.F._ E f f - @ 2 a > ; - - 3 y 1 X z  . . .e : f ;.;.;.;.f F.F.F.F.",
"F.F.a.Z.A.C.V.V.V.V.V.V.V.V.h.R F.F.B.:.#.X.x -   O ; 2 2 a 2 ; ; ; v 9 9 , , < m ;.;.;.;.f F.F.F.F.",
"F.F.F.h.x.C.A.C.V.C.V.V.Z.A.A.] F.F.g.o. . .e , # + K _ Q * ; > f h - ; ; ; - 9 X.;.;.;.O.g F.F.F.F.",
"F.F.F.F.F.1.p.S.S.S.S.S.M.p.p.I F.F.F.- - < - F.F.+ *.b.k.0 9 v * * ; ; > h j +  .#.;.;.c F.F.F.F.F.",
"F.F.F.F.F.F.F.p.p.p.p.p._ F.F.F.F.F.F.F.F.F.F.F.F.d m :.=. . ...N N N 9 O ; * + X.%.;.;.f o F.F.F.F.",
"F.F.F.F.F.F.F.F.F.F.F.$ F.F.F.F.F.F.F.F.F.F.F.F.F.F.2 X.z < - < $.%.#. .O o @ 0 X.;.;.%.2 O # O F.F.",
"F.F.F.F.F.F.F.F.F.F.F.F.F.F.F.F.F.F.F.F.F.F.F.F.F.F.+ 5 I ` ` t.J 6 = + u.` + x  . . .3 O O 3 j + F.",
"F.F.F.F.F.F.F.F.F.F.F.F.F.F.F.F.F.F.F.F.F.F.F.F.F.F.R t.r.i.u.f.r.` u.u.J B . @ = = + + F.F.+ + F.F.",
"F.F.F.F.F.F.F.F.F.F.F.F.F.F.F.F.F.F.F.F.F.F.F.F.F.F.% F ~ i.i.f.P V F F w w w 0 # F.F.F.F.F.F.F.F.F.",
"F.F.F.F.F.F.F.F.F.F.F.F.F.F.F.F.F.F.F.F.F.F.F.F.F.  A y.8.o     9.q.q.  ;.;.%. .9 . F.F.F.F.F.F.# # ",
"F.F.F.F.F.F.F.F.F.F.F.F.F.F.F.F.F.F.F.F.F.F.F.F.5 ;.N A y.y.y.y.q.q.q.O ;.;.;.%. .9   F.F.F.F.F.#   ",
"F.F.F.F.F.F.F.F.F.F.F.F.F.F.F.F.F.F.F.F.F.F.F.F.f ;.#.9 S e.y.y.w.q.q.o ;.;.;.%. . .9   F.F.F.F.F.F.",
"F.F.F.F.F.F.F.F.F.F.F.F.F.F.F.F.F.F.F.F.F.F.F.5 %.;.#.9 Z 0.e.y.w.q.q.B O.@.=.#.e [ 3   F.F.F.F.F.F.",
"F.F.F.F.F.F.F.F.F.F.F.F.F.F.F.F.F.F.F.F.F.F.F.+  .%.#. .9 D q.e.q.q.q.q.o p ..e  . .3 . F.F.F.F.F.F.",
"F.F.F.F.F.F.F.F.F.F.F.F.F.F.F.F.F.F.F.F.F.F.F.= 9 9 0 w - C D D D D D D F.F.o @ 9 9 - # F.F.F.F.F.F.",
"F.F.F.F.F.F.F.F.F.F.F.F.F.F.F.F.F.F.F.F.F.F.F.F.    = :     # $ o o     F.F.F.F.      F.F.F.F.F.F.F.",
"F.F.F.F.F.F.F.F.F.F.F.F.F.F.F.F.F.F.F.F.F.F.F.F.$ O   F.F.F.F.F.F.F.F.F.F.F.F.F.F.F.F.F.F.F.F.F.F.F."
};
