/* XPM */
static char *result[] = {
/* columns rows colors chars-per-pixel */
"50 50 162 2 ",
"   c #2F2F2E",
".  c #312F2D",
"X  c #3F2F2E",
"o  c #3B3027",
"O  c #32302E",
"+  c #3D322C",
"@  c #3D382F",
"#  c #333532",
"$  c #353B34",
"%  c #4D2F2F",
"&  c #522F2F",
"*  c #433327",
"=  c #4E3826",
"-  c #42342C",
";  c #4E3529",
":  c #463F2E",
">  c #4A392B",
",  c #563727",
"<  c #523B27",
"1  c #5B3A27",
"2  c #53332B",
"3  c #5B312E",
"4  c #543D2B",
"5  c #5D3C2B",
"6  c #443331",
"7  c #463932",
"8  c #5C3D3C",
"9  c #5C3231",
"0  c #623A25",
"q  c #62302F",
"w  c #623E2B",
"e  c #6D3C23",
"r  c #703D23",
"t  c #7B3F21",
"y  c #6D3131",
"u  c #6A3838",
"i  c #733131",
"p  c #7E3030",
"a  c #374036",
"s  c #3D4B3C",
"d  c #4D442E",
"f  c #51472F",
"g  c #40403F",
"h  c #424133",
"j  c #5B4234",
"k  c #654226",
"l  c #6F4827",
"z  c #624328",
"x  c #74432A",
"c  c #7A462C",
"v  c #794124",
"b  c #644433",
"n  c #6B4531",
"m  c #6A4937",
"M  c #734C39",
"N  c #736031",
"B  c #7A6531",
"V  c #2E3847",
"C  c #3F4042",
"Z  c #2C4467",
"A  c #2B4B78",
"S  c #424345",
"D  c #4B4C4A",
"F  c #524947",
"G  c #4C504B",
"H  c #5C5047",
"J  c #5D534D",
"K  c #4F5154",
"L  c #535353",
"P  c #50565D",
"I  c #595958",
"U  c #57595D",
"Y  c #6D4F40",
"T  c #624D43",
"R  c #724343",
"E  c #61524A",
"W  c #765747",
"Q  c #7F5845",
"!  c #765C4F",
"~  c #60655F",
"^  c #6A605B",
"/  c #73645B",
"(  c #7F6559",
")  c #5B5E62",
"_  c #5D636B",
"`  c #5C6066",
"'  c #656465",
"]  c #686868",
"[  c #6B726A",
"{  c #6E747C",
"}  c #73787F",
"|  c #7C7C7C",
" . c #737476",
".. c #843433",
"X. c #883333",
"o. c #943535",
"O. c #983636",
"+. c #814121",
"@. c #844A2D",
"#. c #8C4C2C",
"$. c #894E30",
"%. c #864D31",
"&. c #855237",
"*. c #89563C",
"=. c #8E583D",
"-. c #935333",
";. c #955A3C",
":. c #9B5B3B",
">. c #92742D",
",. c #846B31",
"<. c #967832",
"1. c #805946",
"2. c #94644B",
"3. c #A06040",
"4. c #A5822E",
"5. c #B89134",
"6. c #9D8376",
"7. c #AC8673",
"8. c #B38C79",
"9. c #2A4E82",
"0. c #295491",
"q. c #285DAA",
"w. c #2D5EA7",
"e. c #2B65BB",
"r. c #717780",
"t. c #757A83",
"y. c #2C67C0",
"u. c #2D6AC4",
"i. c #7E848C",
"p. c #7E8590",
"a. c #838383",
"s. c #8D8D8F",
"d. c #8D908E",
"f. c #818790",
"g. c #828994",
"h. c #8B929C",
"j. c #9F9591",
"k. c #9A9A9A",
"l. c #939193",
"z. c #B49B8F",
"x. c #B39182",
"c. c #9299A4",
"v. c #9FA5AE",
"b. c #ADADAC",
"n. c #A4A4A5",
"m. c #B7A8A0",
"M. c #AAAEB6",
"N. c #B3B3B4",
"B. c #B9B9BB",
"V. c #B9B4B4",
"C. c #C0B0AB",
"Z. c #CCB3A6",
"A. c #BAC1BC",
"S. c #C2C4C3",
"D. c #C7C7C9",
"F. c #D4D4D7",
"G. c #DEDEDF",
"H. c #DEDEE1",
"J. c #E4E4E6",
"K. c #EEEEEF",
"L. c gray99",
"P. c None",
/* pixels */
"P.P.P.P.P.P.P.P.P.P.P.P.P.P.P.P.P.P.P.P.P.P.P.P.P.P.P.P.P.P.P.P.P.P.P.P.P.P.P.P.P.P.P.P.P.P.P.P.P.P.",
"P.P.P.P.P.P.P.P.P.P.P.P.P.P.P.P.P.P.P.P.P.P.P.P.P.P.P.P.P.P.P.P.P.P.P.P.P.P.P.P.P.P.P.P.P.P.P.P.P.P.",
"P.P.P.P.P.P.P.P.P.P.P.P.P.P.P.P.P.P.P.P.P.P.P.P.P.P.P.P.P.P.P.P.P.P.P.P.P.P.P.P.P.P.P.P.P.P.P.P.P.P.",
"P.P.P.P.P.P.P.P.P.P.P.P.P.P.P.P.P.P.P.P.P.P.P.P.P.P.P.P.P.P.P.P.P.P.P.P.P.P.P.P.P.P.P.P.P.P.P.P.P.P.",
"P.P.P.P.P.P.P.P.P.P.P.P.P.P.P.P.P.P.P.P.P.P.P.P.P.P.P.P.P.P.P.P.P.P.P.P.P.P.P.P.P.P.P.P.P.P.P.P.P.P.",
"P.P.P.P.P.P.P.P.P.P.P.P.P.P.P.P.P.P.P.P.P.P.P.P.P.P.P.P.P.P.P.P.P.P.P.P.P.P.P.P.P.P.P.P.P.P.P.P.P.P.",
"P.P.P.P.P.P.P.P.P.P.P.P.P.P.P.P.P.P.P.P.P.P.P.P.P.P.P.P.P.P.P.P.P.P.P.P.P.P.P.P.P.P.P.P.P.P.P.P.P.P.",
"P.P.P.P.P.P.P.P.P.P.P.P.P.P.P.P.P.P.P.P.P.P.P.P.P.P.P.P.P.P.P.P.P.P.P.P.P.P.P.P.P.P.P.P.P.P.P.P.P.P.",
"P.P.P.P.P.P.P.P.P.P.P.P.P.P.P.P.P.P.P.P.P.P.P.P.P.P.P.P.P.P.P.P.P.P.P.P.P.P.P.P.P.P.P.P.P.P.P.P.P.P.",
"P.P.P.P.P.P.P.P.P.P.P.P.P.P.P.P.P.P.P.P.P.P.P.P.P.P.P.P.P.P.P.P.P.P.P.P.P.P.P.P.P.P.P.P.P.P.P.P.P.P.",
"P.P.P.P.P.P.P.P.P.P.P.P.P.P.P.P.P.P.P.P.P.P.P.P.P.P.P.P.P.P.P.P.P.P.P.P.P.P.P.P.P.P.P.P.P.P.P.P.P.P.",
"P.P.P.P.P.P.P.P.P.P.P.P.P.P.P.$       P.P.P.P.P.P.P.P.P.P.P.P.P.P.P.P.P.P.P.P.P.P.P.P.P.P.P.P.P.P.P.",
"P.P.P.P.P.P.P.P.P.P.P.P.P.    u ......6 O   $ P.P.P.P.P.P.P.P.P.P.P.P.P.P.P.P.P.P.P.P.P.P.P.P.P.P.P.",
"P.P.P.P.P.P.P.P.P.P.P.P.9 O.o.X.p p o.O.O.O...  $ P.P.P.P.P.P.P.P.P.P.P.P.P.P.P.P.P.P.P.P.P.P.P.P.P.",
"P.P.P.P.P.P.P.P.P.P.P.& p X.X.p p p o.O.o.O.O.O...# P.P.P.P.P.P.P.P.P.P.P.P.P.P.P.P.P.P.P.P.P.P.P.P.",
"P.P.P.P.P.P.P.P.P.P.% p p X.p 8 8 p p p o.O.O.O.O.X.7 P.D P.P.P.P.P.P.P.P.P.P.P.P.P.P.P.P.P.P.P.P.P.",
"P.P.P.P.P.P.P.P.P.& p p p p & t.| u p i y ....X.O.O.R | | P.P.P.P.P.P.P.P.P.P.P.P.P.P.P.P.P.P.P.P.P.",
"P.P.P.P.P.P.P.P.% p p p p y % a.G.I q - + - - - y i a.H.| P.P.P.P.P.P.P.P.P.P.P.P.P.P.P.P.P.P.P.P.P.",
"P.P.P.P.P.P.P.  ..p p i & 2 $ t.J.k.7 c #.#.#.%.8 < / b.| P.P.P.P.P.P.P.P.P.P.P.P.P.P.P.P.P.P.P.P.P.",
"P.P.P.P.P.P.P.. p p p 3 = +.7 2.G.L.I 1.3.3.3.3.:.#.x E ] P.P.P.P.P.P.P.P.P.P.P.P.P.P.P.P.P.P.P.P.P.",
"P.P.P.P.P.P.P.. p p p y & 0 , ^ B.L.k.W 3.3.3.3.3.3.;.x d P.P.P.P.P.P.P.P.P.P.P.P.P.P.P.P.P.P.P.P.P.",
"P.P.P.P.P.P.0 O p p p p i 3 2 , Q 7.8.1.#.3.3.:.-.:.-.-.0 P.P.P.P.P.P.P.P.P.P.P.P.P.P.P.P.P.P.P.P.P.",
"P.P.P.P.P.1 +.0 3 p p p p p % 0 t +.+.w 7.#.-.:.+.#.-.2./ P.P.P.P.P.P.P.P.P.P.P.P.P.P.P.P.P.P.P.P.P.",
"P.P.P.P.0 $.#.t X p p p p p & 0 +.+.+.o M.Z.z.z +.v ! m.k.P.P.P.P.P.P.P.P.P.P.P.P.P.P.P.P.P.P.P.P.P.",
"P.P.P.  &.3.3.:.0 % ..p p p i & e +.+.r D L H t ..t b D T ; P.P.P.P.P.P.P.P.P.P.P.P.P.P.P.P.P.P.P.P.",
"P.P.P.  *.2.3.3.r * p p p p p & 0 +.+.+.r l =.:.:.:.;.*.%.; P.P.P.P.P.P.P.P.P.P.P.P.P.P.P.P.P.P.P.P.",
"P.P.P.  -.3.3.3.r o p p p p p i ; r +.t t +.#.:.3.:.3.3.-.< s P.P.P.P.P.P.P.P.P.P.P.P.P.    P.P.P.P.",
"P.P.P.  *.3.3.3.+.0 % p p p p p & e +.+.+.+.+.v > : : 7 5 ; s P.P.P.P.P.P.P.P.      O o < - P.P.P.P.",
"P.P.P.  *.:.3.3.+.r o p p p p p p * e +.+.+.r .             $ P.P.P.P.P.    $ P P P H > # s P.P.P.P.",
"P.P.P.  r :.3.+.+.r * p p p p p p p * e t ..r d 4.    N <.  P.P.. . .   P P _ c.c.c.c.c.U $ P.P.P.P.",
"P.P.P.  r #.@.+.t r . & i p p p p p p % 6 e 0 : >.d f B ,.# @ @ G ) _ _ v.v.M.F.F.F.F.F.a.G P.P.P.P.",
"P.P.P.  t :.3.3.X.e * 0 & i i i p p ....O.6 - O h 4.5.,.+ + 4 k z l.v.v.F.F.F.F.F.F.F.F.F.s.I I P.P.",
"P.P.P.  *.3.3.3.:.0 ; ..e * o 1 i ..o.......i @ + o . - z z > o   n.N.F.F.F.F.F.F.F.F.F.F.F.F.B.L P.",
"P.P.P.  *.3.3.3.*.o 0 t t t #.4 % y y ; > > > 1 f < * 4 j j 7 P.P.P.  F.F.F.F.F.F.F.F.F.F.F.J.L P.P.",
"P.P.P.O *.3.3.3.;.; < 0 1 1 n 5 > > > 1 f < < X   o 0 #.-.-.1.P.P.P.| F.F.F.F.F.F.F.F.F.H.J.N.L P.P.",
"P.P.P.P.n :.3.3.:.t , > > = = j e f 4 - 2 = 5 >   h e ..@.2.C.P.P.  S.J.J.F.F.F.F.F.G.J.S.b.~ P.P.P.",
"P.P.P.P.  *.3.3.#.r + l k < > > + m w 0 +.z.x.r $ P.P.< > j.F.A.P.   .a.a.K.K.K.K.K.S.a.' P.P.P.P.P.",
"P.P.P.P.  *.3.3.#.r O > * > n M M %.+.+.+.F.V.> P.P.P.P.P.B.D.P.P.P.P.P.P.a.a.a.a.a.[ P.P.P.P.P.P.P.",
"P.P.$ o O c 2.3.:.t ,     2 @.-.3.w ; < 2 F.D.d.P.P.P.P.P.P.P.P.P.P.P.P.P.P.P.P.P.P.P.P.P.P.P.P.P.P.",
"P.4 z + . + +.#.+.v r K i.' + > 7  .r.{ { G U P.P.P.P.P.P.P.P.P.P.P.P.P.P.P.P.P.P.P.P.P.P.P.P.P.P.P.",
"P.@ @ P.P.P.+ - * - + @ S ` i.i.{ h.g.p.p.{ t.  P.P.P.P.P.P.P.P.P.P.P.P.P.P.P.P.P.P.P.P.P.P.P.P.P.P.",
"P.P.P.P.P.P.P.P.P.# o r c M C a C g.g.p.p.C 7 . P.P.P.P.P.P.P.P.P.P.P.P.P.P.P.P.P.P.P.P.P.P.P.P.P.P.",
"P.P.P.P.P.P.P.P.P.P.- t -.3.j A q.V       u.w.. P.P.P.P.P.P.P.P.P.P.P.P.P.P.P.P.P.P.P.P.P.P.P.P.P.P.",
"P.P.P.P.P.P.P.P.  + ..#.3.2.j A q.y.u.u.u.u.7 2.=.  P.P.P.P.P.P.P.P.P.P.P.P.P.P.P.P.P.P.P.P.P.P.P.P.",
"P.P.P.P.    P.  * t +.#.3.3.j A q.e.u.u.y.q.7 3.=.7 P.P.P.P.P.P.P.P.P.P.P.P.P.P.P.P.P.P.P.P.P.P.P.P.",
"P.P.P.P.# # P.  X +.+.#.:.:.F 9.q.q.y.y.q.0.5 3.2.$.O P.P.P.P.P.P.P.P.P.P.P.P.P.P.P.P.P.P.P.P.P.P.P.",
"P.P.P.P.P.P.P.  o +.t +.@.b A q.q.q.e.q.q.  @.-.-.r O P.P.P.P.P.P.P.P.P.P.P.P.P.P.P.P.P.P.P.P.P.P.P.",
"P.P.P.P.P.P.P.  X 0 0 0 f O Z A A A A A A   t 5 0 1 P.P.P.P.P.P.P.P.P.P.P.P.P.P.P.P.P.P.P.P.P.P.P.P.",
"P.P.P.P.P.P.P.P.# # # a s P.P.            # 1     O P.P.P.P.P.P.P.P.P.P.P.P.P.P.P.P.P.P.P.P.P.P.P.P.",
"P.P.P.P.P.P.P.P.P.P.P.P.P.P.P.P.P.P.P.P.P.P.P.    P.P.P.P.P.P.P.P.P.P.P.P.P.P.P.P.P.P.P.P.P.P.P.P.P."
};
