/* XPM */
static char *result[] = {
/* columns rows colors chars-per-pixel */
"50 50 145 2 ",
"   c #2F2F2E",
".  c #332F2D",
"X  c #3F2F2E",
"o  c #2F302E",
"O  c #3C3027",
"+  c #32302E",
"@  c #3E322C",
"#  c #2F3133",
"$  c #2E3338",
"%  c #323432",
"&  c #333832",
"*  c #3E3930",
"=  c #402F2F",
"-  c #4A2F2F",
";  c #403125",
":  c #493525",
">  c #42332C",
",  c #4D3529",
"<  c #423A2D",
"1  c #4B392C",
"2  c #563727",
"3  c #5A3A27",
"4  c #52332B",
"5  c #5A312E",
"6  c #543C2C",
"7  c #5B3E29",
"8  c #553A24",
"9  c #443130",
"0  c #463932",
"q  c #4C3B39",
"w  c #543231",
"e  c #5A3231",
"r  c #533F34",
"t  c #583F3E",
"y  c #633A25",
"u  c #6D3C23",
"i  c #65302F",
"p  c #713D23",
"a  c #7D3F21",
"s  c #653232",
"d  c #6E3030",
"f  c #753131",
"g  c #7E3030",
"h  c #5E4027",
"j  c #53452F",
"k  c #5D4F2E",
"l  c #5B4234",
"z  c #664326",
"x  c #6F4827",
"c  c #624328",
"v  c #6C412B",
"b  c #7D4225",
"n  c #754329",
"m  c #7B472D",
"M  c #755F2E",
"N  c #664534",
"B  c #6C4D3E",
"V  c #734C39",
"C  c #7A4E39",
"Z  c #7B533E",
"A  c #746131",
"S  c #2E3847",
"D  c #3F4142",
"F  c #2D4262",
"G  c #2E476A",
"H  c #394A64",
"J  c #414346",
"K  c #43464A",
"L  c #47494A",
"P  c #4A4A4A",
"I  c #574A4D",
"U  c #5D534D",
"Y  c #4F5155",
"T  c #515151",
"R  c #54575B",
"E  c #56595D",
"W  c #625A56",
"Q  c #74655A",
"!  c #41526A",
"~  c #5E6166",
"^  c #5E6369",
"/  c #62666D",
"(  c #62686F",
")  c #636362",
"_  c #736E6D",
"`  c #7B746F",
"'  c #666A70",
"]  c #696E74",
"[  c #6C727A",
"{  c #737374",
"}  c #7F7F7E",
"|  c #833333",
" . c #8B3333",
".. c #943535",
"X. c #983636",
"o. c #814121",
"O. c #844A2D",
"+. c #8C4C2C",
"@. c #865035",
"#. c #885237",
"$. c #8A563C",
"%. c #935333",
"&. c #95593B",
"*. c #9B5B3B",
"=. c #80682D",
"-. c #927631",
";. c #967832",
":. c #915E44",
">. c #99664D",
",. c #A06040",
"<. c #847972",
"1. c #A28474",
"2. c #2B4F82",
"3. c #2E538B",
"4. c #295BA3",
"5. c #285EAB",
"6. c #2B61AE",
"7. c #2A62B5",
"8. c #2B66BC",
"9. c #787E88",
"0. c #2D6AC5",
"q. c #7E8590",
"w. c #858484",
"e. c #878989",
"r. c #858C96",
"t. c #8A919C",
"y. c #9D9D9D",
"u. c #939392",
"i. c #A39D99",
"p. c #9F9FA1",
"a. c #9EA0A5",
"s. c #ACACAB",
"d. c #ACB0B7",
"f. c #B3B3B4",
"g. c #B8B4B4",
"h. c #BCBCBC",
"j. c #BABCC3",
"k. c #C0C0C0",
"l. c #C7C8CD",
"z. c #CECED1",
"x. c #D4D4D7",
"c. c #DDDDDF",
"v. c gray97",
"b. c white",
"n. c None",
/* pixels */
"n.n.n.n.n.n.n.n.n.n.n.n.n.n.n.n.n.n.n.n.n.n.n.n.n.n.n.n.n.n.n.n.n.n.n.n.n.n.n.n.n.n.n.n.n.n.n.n.n.n.",
"n.n.n.n.n.n.n.n.n.n.n.n.n.n.n.n.n.n.n.n.n.n.n.n.n.n.n.n.n.n.n.n.n.n.n.n.n.n.n.n.n.n.n.n.n.n.n.n.n.n.",
"n.n.n.n.n.n.n.n.n.n.n.n.n.n.n.n.n.n.n.n.n.n.n.n.n.n.n.n.n.n.n.n.n.n.n.n.n.n.n.n.n.n.n.n.n.n.n.n.n.n.",
"n.n.n.n.n.n.n.n.n.n.n.n.n.n.n.n.n.n.n.n.n.n.n.n.n.n.n.n.n.n.n.n.n.n.n.n.n.n.n.n.n.n.n.n.n.n.n.n.n.n.",
"n.n.n.n.n.n.n.n.n.n.n.n.n.n.n.n.n.n.n.n.n.n.n.n.n.n.n.n.n.n.n.n.n.n.n.n.n.n.n.n.n.n.n.n.n.n.n.n.n.n.",
"n.n.n.n.n.n.n.n.n.n.n.n.n.n.n.n.n.n.n.n.n.n.n.n.n.n.n.n.n.n.n.n.n.n.n.n.n.n.n.n.n.n.n.n.n.n.n.n.n.n.",
"n.n.n.n.n.n.n.n.n.n.n.n.n.n.n.n.n.n.n.n.n.n.n.n.n.n.n.n.n.n.n.n.n.n.n.n.n.n.n.n.n.n.n.n.n.n.n.n.n.n.",
"n.n.n.n.n.n.n.n.n.n.n.n.n.n.n.n.n.n.n.n.n.n.n.n.n.n.n.n.n.n.n.n.n.n.n.n.n.n.n.n.n.n.n.n.n.n.n.n.n.n.",
"n.n.n.n.n.n.n.n.n.n.n.n.n.n.n.n.n.n.n.n.n.n.n.n.n.n.n.n.n.n.n.n.n.n.n.n.n.n.n.n.n.n.n.n.n.n.n.n.n.n.",
"n.n.n.n.n.n.n.n.n.n.n.n.n.n.n.n.n.n.n.n.n.n.n.n.n.n.n.n.n.n.n.n.n.n.n.n.n.n.n.n.n.n.n.n.n.n.n.n.n.n.",
"n.n.n.n.n.n.n.n.n.n.n.n.n.n.n.n.n.n.n.n.n.n.n.n.n.n.n.n.n.n.n.n.n.n.n.n.n.n.n.n.n.n.n.n.n.n.n.n.n.n.",
"n.n.n.n.n.n.n.n.n.n.n.n.n.n.n.n.n.n.n.n.n.n.n.n.n.n.n.n.n.n.n.n.n.n.n.n.n.n.n.n.n.n.n.n.n.n.n.n.n.n.",
"n.n.n.n.n.n.n.n.n.n.n.n.n.n.n.n.n.n.n.n.n.n.n.n.n.n.n.n.n.n.w e e e = n.n.n.n.n.n.n.n.n.n.n.n.n.n.n.",
"n.n.n.n.n.n.n.n.n.n.n.n.n.n.n.n.n.n.n.n.n.n.n.n.n.n.q e e e g .... .s e e n.n.n.n.n.n.n.n.n.n.n.n.n.",
"n.n.n.n.n.n.n.n.n.n.n.n.n.n.n.n.n.n.n.n.n.n.n.n.> d | X.X.X.X. .g g | X. .5 n.n.n.n.n.n.n.n.n.n.n.n.",
"n.n.n.n.n.n.n.n.n.n.n.n.n.n.n.n.n.n.n.n.n.% n.9 f X.X.X.X. .| | g 5 f X.g f e n.n.n.n.n.n.n.n.n.n.n.",
"n.n.n.n.n.n.n.n.n.n.n.n.n.n.n.n.n.n.n.n.  } 0 f X.X.X.X...| g g 5 _ l | g g f 5 n.n.n.n.n.n.n.n.n.n.",
"n.n.n.n.n.n.n.n.n.n.n.n.n.n.n.n.n.n.n.n.+ f.f.w X.f 9 9 = X i 5 g.g.L g | g g g 5 n.n.n.n.n.n.n.n.n.",
"n.n.n.n.n.n.n.n.n.n.n.n.n.n.n.n.n.n.n.n.. s.x.+ > , p p p p 4 . x.k.P O X g g g f 5 n.n.n.n.n.n.n.n.",
"n.n.n.n.n.n.n.n.n.n.n.n.n.n.n.n.n.n.n.n.. f.U p n $.*.*.*.*.r u.v.k.P u u - g | | 5 n.n.n.n.n.n.n.n.",
"n.n.n.n.n.n.n.n.n.n.n.n.n.n.n.n.n.n.n.n.n.  o.,.,.,.,.,.,.,.N s.b.h.P | o.O g g g 5   n.n.n.n.n.n.n.",
"n.n.n.n.n.n.n.n.n.n.n.n.n.n.n.n.n.n.n.n.  o.,.,.,.,.,.:.,.r s.b.j.q p . . g g g g i   n.n.n.n.n.n.n.",
"n.n.n.n.n.n.n.n.n.n.n.n.n.n.n.n.n.n.n.n.  $.&.+.%.+.*.*.&.#.O.o.o.o.O g g g g g f 5 > @ n.n.n.n.n.n.",
"n.n.n.n.n.n.n.n.n.n.n.n.n.n.n.n.n.n.n.n.  j.$.#.o.| :.>.1.) y o.o.o.; g g g g g 5 4 a 3 @ n.n.n.n.n.",
"n.n.n.n.n.n.n.n.n.n.n.n.n.n.n.n.n.n.n.n.@ x.1., o.a ` x.h.W u a o.p - g g g | g 5 3 o.O.3 n.n.n.n.n.",
"n.n.n.n.n.n.n.n.n.n.n.n.n.n.n.n.n.n.n.  b * 0 O.o.o.x < @ y o.o.o.; d | g g g d 2 o.%.,.%.6 n.n.n.n.",
"n.n.n.n.n.n.n.n.n.n.n.n.n.n.n.n.n.n.n.  o.>.*.,.,.*.*.+.o.o.a o.y 4 f | g g g d , +.,.,.,.l n.n.n.n.",
"n.n.n.n.n.n.n.n.n.n.n.n.n.n.n.n.n.n.n.. a m V V C C +.o.o.a o.o.O d g g g g g d 4 +.,.,.,.l n.n.n.n.",
"n.n.n.  < + n.n.n.n.n.n.n.n.n.n.n.n.n.  y o o     O u o.a o.a u 4 f g g | g f 5 y +.,.,.,.l n.n.n.n.",
"n.n.n.n.1 O 7 K K K K     n.n.n.n.n.n.  o ;.    < M , a o.o.y 2 f | g g g g d X o.+.,.,.,.l n.n.n.n.",
"n.n.n.n.% ~ <.9.9.9.[ K K D &     n.n.n.;.A + < M k , o.u 4 2 f g g g g g f - > o.o.%.,.%.7 n.n.n.n.",
"n.n.n.n.% a.j.j.j.j.d.9.9.' K K K &   n.A ;.-.=.k + O 8 5 i d g g g g g g 4 8 > o.o.O.+.O., n.n.n.n.",
"n.n.  + p.z.x.x.x.x.x.l.l.d.r.r.Q c c @ # j j j | | | |  .X...| g g - X O p p ; o.+.*.*.+.2 n.n.n.n.",
"n.e.f.f.z.x.x.x.x.x.x.x.x.z.l.l._ @ : h f.h + + > - s X.X.X.X.X.| - y p p o.p ; +.*.,.,.*.r n.n.n.n.",
"n.P p.x.x.x.x.x.x.x.x.x.x.x.e.Y n.n.+ @ x.@ P i.c c 6 9 = = - > = C &.o.a o.a z c ,.,.,.,.l n.n.n.n.",
"n.  s.c.x.x.x.x.x.x.x.x.x.x.] n.n.n.# f.x.>.>.s.o + 8 x x x 1 .   . #.o.o.o.u o l ,.,.,.,.l n.n.n.n.",
"n.n.% x.b.c.x.x.x.x.x.x.x.x.x.{ n.n.  f.x.a >.x.f.o       @ 7 x x x @       @ | +.,.,.,.,.l n.n.n.n.",
"n.n.n.# o h.x.c.c.c.c.c.c.x.x.{ n.n.  y.u u y T f.@ O.*.+.2 @ ; ; 7 c c z x c @ +.*.,.,.l n.n.n.n.n.",
"n.n.n.n.n.+ o x.x.x.x.x.y.  .   n.n.n.  +   + n.n.n.l %.b p p p 1 1 > > O z 7 @ o.%.,.,.l + n.n.n.n.",
"n.n.n.n.n.n.n.  o +     n.n.n.n.n.n.n.n.n.n.n.n.n.n., m U q J J Q +.p p J J . : +.,.>.*.l + n.n.n.n.",
"n.n.n.n.n.n.n.n.n.n.n.n.n.n.n.n.n.n.n.n.n.n.n.n.n.n.T R / q.r.t.~ T E E ] ) > b +.%.%.n > + 1 1 n.n.",
"n.n.n.n.n.n.n.n.n.n.n.n.n.n.n.n.n.n.n.n.n.n.n.n.n.n.L ' ] q.q.t.] ~ ' [ l r 2 y y y y :   # 1 7 @ n.",
"n.n.n.n.n.n.n.n.n.n.n.n.n.n.n.n.n.n.n.n.n.n.n.n.n.  S G ! ~ ~ ( H $ r l ,.*.p o       n.n.n.n.n.n.n.",
"n.n.n.n.n.n.n.n.n.n.n.n.n.n.n.n.n.n.n.n.n.n.n.n.0 V I 3.6.3.3.3.4.S $.,.*.*.u o n.n.n.n.n.n.n.n.n.n.",
"n.n.n.n.n.n.n.n.n.n.n.n.n.n.n.n.n.n.n.n.n.n.n.@ v ,.V F 8.0.0.0.7.S $.:.,.+.p o n.n.n.n.n.n.n.n.n.n.",
"n.n.n.n.n.n.n.n.n.n.n.n.n.n.n.n.n.n.n.n.n.n.n.; O.,.@.q 2.7.8.8.5.S O.+.+.p 2 n.n.n.n.n.n.n.n.n.n.n.",
"n.n.n.n.n.n.n.n.n.n.n.n.n.n.n.n.n.n.n.n.n.n.n.* o.o.o.y F 5.5.5.5.S p o.o.u o n.n.n.n.n.n.n.n.n.n.n.",
"n.n.n.n.n.n.n.n.n.n.n.n.n.n.n.n.n.n.n.n.n.n.n.@ o.| o.y $ S S S S # O > o.p o n.n.n.n.n.n.n.n.n.n.n.",
"n.n.n.n.n.n.n.n.n.n.n.n.n.n.n.n.n.n.n.n.n.n.n.n.> > @ @ n.n.n.n.n.n.    > > n.n.n.n.n.n.n.n.n.n.n.n.",
"n.n.n.n.n.n.n.n.n.n.n.n.n.n.n.n.n.n.n.n.n.n.n.n.n.n.n.n.n.n.n.n.n.n.n.n.n.n.n.n.n.n.n.n.n.n.n.n.n.n."
};
