/* XPM */
static char *result[] = {
/* columns rows colors chars-per-pixel */
"50 50 145 2 ",
"   c #2F2F2E",
".  c #332F2D",
"X  c #3F2F2E",
"o  c #2F302E",
"O  c #3C3027",
"+  c #32302E",
"@  c #3E322C",
"#  c #2F3133",
"$  c #2E3338",
"%  c #323432",
"&  c #333832",
"*  c #3E3930",
"=  c #402F2F",
"-  c #4A2F2F",
";  c #403125",
":  c #493525",
">  c #42332C",
",  c #4D3529",
"<  c #423A2D",
"1  c #4B392C",
"2  c #563727",
"3  c #5A3A27",
"4  c #52332B",
"5  c #5A312E",
"6  c #543C2C",
"7  c #5B3E29",
"8  c #553A24",
"9  c #443130",
"0  c #463932",
"q  c #4C3B39",
"w  c #543231",
"e  c #5A3231",
"r  c #533F34",
"t  c #583F3E",
"y  c #633A25",
"u  c #6D3C23",
"i  c #65302F",
"p  c #713D23",
"a  c #7D3F21",
"s  c #653232",
"d  c #6E3030",
"f  c #753131",
"g  c #7E3030",
"h  c #5E4027",
"j  c #53452F",
"k  c #5D4F2E",
"l  c #5B4234",
"z  c #664326",
"x  c #6F4827",
"c  c #624328",
"v  c #6C412B",
"b  c #7D4225",
"n  c #754329",
"m  c #7B472D",
"M  c #755F2E",
"N  c #664534",
"B  c #6C4D3E",
"V  c #734C39",
"C  c #7A4E39",
"Z  c #7B533E",
"A  c #746131",
"S  c #2E3847",
"D  c #3F4142",
"F  c #2D4262",
"G  c #2E476A",
"H  c #394A64",
"J  c #414346",
"K  c #43464A",
"L  c #47494A",
"P  c #4A4A4A",
"I  c #574A4D",
"U  c #5D534D",
"Y  c #4F5155",
"T  c #515151",
"R  c #54575B",
"E  c #56595D",
"W  c #625A56",
"Q  c #74655A",
"!  c #41526A",
"~  c #5E6166",
"^  c #5E6369",
"/  c #62666D",
"(  c #62686F",
")  c #636362",
"_  c #736E6D",
"`  c #7B746F",
"'  c #666A70",
"]  c #696E74",
"[  c #6C727A",
"{  c #737374",
"}  c #7F7F7E",
"|  c #833333",
" . c #8B3333",
".. c #943535",
"X. c #983636",
"o. c #814121",
"O. c #844A2D",
"+. c #8C4C2C",
"@. c #865035",
"#. c #885237",
"$. c #8A563C",
"%. c #935333",
"&. c #95593B",
"*. c #9B5B3B",
"=. c #80682D",
"-. c #927631",
";. c #967832",
":. c #915E44",
">. c #99664D",
",. c #A06040",
"<. c #847972",
"1. c #A28474",
"2. c #2B4F82",
"3. c #2E538B",
"4. c #295BA3",
"5. c #285EAB",
"6. c #2B61AE",
"7. c #2A62B5",
"8. c #2B66BC",
"9. c #787E88",
"0. c #2D6AC5",
"q. c #7E8590",
"w. c #858484",
"e. c #878989",
"r. c #858C96",
"t. c #8A919C",
"y. c #9D9D9D",
"u. c #939392",
"i. c #A39D99",
"p. c #9F9FA1",
"a. c #9EA0A5",
"s. c #ACACAB",
"d. c #ACB0B7",
"f. c #B3B3B4",
"g. c #B8B4B4",
"h. c #BCBCBC",
"j. c #BABCC3",
"k. c #C0C0C0",
"l. c #C7C8CD",
"z. c #CECED1",
"x. c #D4D4D7",
"c. c #DDDDDF",
"v. c gray97",
"b. c white",
"n. c None",
/* pixels */
"n.n.n.n.n.n.n.n.n.n.n.n.n.n.n.n.n.n.n.n.n.n.n.n.n.n.n.n.n.n.n.n.n.n.n.n.n.n.n.n.n.n.n.n.n.n.n.n.n.n.",
"n.n.n.n.n.n.n.n.n.n.n.n.n.n.n.n.n.n.n.n.n.n.n.n.n.n.n.n.n.n.n.n.n.n.n.n.n.n.n.n.n.n.n.n.n.n.n.n.n.n.",
"n.n.n.n.n.n.n.n.n.n.n.n.n.n.n.n.n.n.n.n.n.n.n.n.n.n.n.n.n.n.n.n.n.n.n.n.n.n.n.n.n.n.n.n.n.n.n.n.n.n.",
"n.n.n.n.n.n.n.n.n.n.n.n.n.n.n.n.n.n.n.n.n.n.n.n.n.n.n.n.n.n.n.n.n.n.n.n.n.n.n.n.n.n.n.n.n.n.n.n.n.n.",
"n.n.n.n.n.n.n.n.n.n.n.n.n.n.n.n.n.n.n.n.n.n.n.n.n.n.n.n.n.n.n.n.n.n.n.n.n.n.n.n.n.n.n.n.n.n.n.n.n.n.",
"n.n.n.n.n.n.n.n.n.n.n.n.n.n.n.n.n.n.n.n.n.n.n.n.n.n.n.n.n.n.n.n.n.n.n.n.n.n.n.n.n.n.n.n.n.n.n.n.n.n.",
"n.n.n.n.n.n.n.n.n.n.n.n.n.n.n.n.n.n.n.n.n.n.n.n.n.n.n.n.n.n.n.n.n.n.n.n.n.n.n.n.n.n.n.n.n.n.n.n.n.n.",
"n.n.n.n.n.n.n.n.n.n.n.n.n.n.n.n.n.n.n.n.n.n.n.n.n.n.n.n.n.n.n.n.n.n.n.n.n.n.n.n.n.n.n.n.n.n.n.n.n.n.",
"n.n.n.n.n.n.n.n.n.n.n.n.n.n.n.n.n.n.n.n.n.n.n.n.n.n.n.n.n.n.n.n.n.n.n.n.n.n.n.n.n.n.n.n.n.n.n.n.n.n.",
"n.n.n.n.n.n.n.n.n.n.n.n.n.n.n.n.n.n.n.n.n.n.n.n.n.n.n.n.n.n.n.n.n.n.n.n.n.n.n.n.n.n.n.n.n.n.n.n.n.n.",
"n.n.n.n.n.n.n.n.n.n.n.n.n.n.n.n.n.n.n.n.n.n.n.n.n.n.n.n.n.n.n.n.n.n.n.n.n.n.n.n.n.n.n.n.n.n.n.n.n.n.",
"n.n.n.n.n.n.n.n.n.n.n.n.n.n.n.n.n.n.n.n.n.n.n.n.n.n.n.n.n.n.n.n.n.n.n.n.n.n.n.n.n.n.n.n.n.n.n.n.n.n.",
"n.n.n.n.n.n.n.n.n.n.n.n.n.n.n.X e e e w n.n.n.n.n.n.n.n.n.n.n.n.n.n.n.n.n.n.n.n.n.n.n.n.n.n.n.n.n.n.",
"n.n.n.n.n.n.n.n.n.n.n.n.n.e e i .. ...g e e e q n.n.n.n.n.n.n.n.n.n.n.n.n.n.n.n.n.n.n.n.n.n.n.n.n.n.",
"n.n.n.n.n.n.n.n.n.n.n.n.5  .X.| g g  .X.X.X.X.g d 9 n.n.n.n.n.n.n.n.n.n.n.n.n.n.n.n.n.n.n.n.n.n.n.n.",
"n.n.n.n.n.n.n.n.n.n.n.5 f g X.f e g g  ...X.X.X.X.f 9 n.  n.n.n.n.n.n.n.n.n.n.n.n.n.n.n.n.n.n.n.n.n.",
"n.n.n.n.n.n.n.n.n.n.5 g g g  .t { w g g | ..X.X.X.X.f 9 <.o n.n.n.n.n.n.n.n.n.n.n.n.n.n.n.n.n.n.n.n.",
"n.n.n.n.n.n.n.n.n.5 f g g g | P g.g.5 i X > = = f X.w g.f.# n.n.n.n.n.n.n.n.n.n.n.n.n.n.n.n.n.n.n.n.",
"n.n.n.n.n.n.n.n.5 f g g g O = P k.x.+ 4 u p p p , 9 . x.f.  n.n.n.n.n.n.n.n.n.n.n.n.n.n.n.n.n.n.n.n.",
"n.n.n.n.n.n.n.n.5 g g | - p p P k.v.u.l *.*.*.*.$.p p W s.o n.n.n.n.n.n.n.n.n.n.n.n.n.n.n.n.n.n.n.n.",
"n.n.n.n.n.n.n.  i g g | X o.o.J k.b.s.l ,.,.,.,.,.,.,.o.% n.n.n.n.n.n.n.n.n.n.n.n.n.n.n.n.n.n.n.n.n.",
"n.n.n.n.n.n.n.o 5 g g g g     u P k.b.s.l ,.,.,.,.,.,.,.a . n.n.n.n.n.n.n.n.n.n.n.n.n.n.n.n.n.n.n.n.",
"n.n.n.n.n.n.@ X 5 g g g g g | O o.o.o.o.$.&.*.*.+.%.+.%.$.  n.n.n.n.n.n.n.n.n.n.n.n.n.n.n.n.n.n.n.n.",
"n.n.n.n.n.@ 3 o., 5 g g g g g X o.a o.3 ) 1.>.:.o.o.#.$.k.  n.n.n.n.n.n.n.n.n.n.n.n.n.n.n.n.n.n.n.n.",
"n.n.n.n.n.3 o.o.3 5 g g g g g : p o.o.y W h.x.` p o., w.x.> n.n.n.n.n.n.n.n.n.n.n.n.n.n.n.n.n.n.n.n.",
"n.n.n.n.6 %.,.%.o., d g g g g d ; o.o.o.y ; > v o.O.o.6 0 o.. n.n.n.n.n.n.n.n.n.n.n.n.n.n.n.n.n.n.n.",
"n.n.n.n.l ,.,.,.+.2 d g g | g f 4 y a o.o.o.+.*.,.,.,.,.,.a   n.n.n.n.n.n.n.n.n.n.n.n.n.n.n.n.n.n.n.",
"n.n.n.n.l ,.,.,.+., d g g g g g d ; o.o.o.o.o.+.Z C V V V o.  n.n.n.n.n.n.n.n.n.n.n.n.n.n.n.n.n.n.n.",
"n.n.n.n.l ,.,.,.+.y 2 g g g g g f 4 u a o.a o.u @ o     . 3 . n.n.n.n.n.n.n.n.n.n.n.n.n.@ @ o n.n.n.",
"n.n.n.n.l ,.,.,.+.o.; d g g g g g g 5 y o.o.o., M *     ;.    n.n.n.n.n.n.  . J K K K j O 1 n.n.n.n.",
"n.n.n.n.6 %.,.&.| o.O - f g | g g g d 2 4 u o., k M < o A ;.n.n.n.    & D K K [ 9.9.9.<./ o n.n.n.n.",
"n.n.n.n.4 o.%.o.o.o.O 2 4 | g g g g g f s 3 , @ + k =.-.;.A n.  & K K K ' 9.9.d.j.j.j.j.a.% n.n.n.n.",
"n.n.n.n.6 +.*.*.+.b > u p = = - g g | ..X. .|  .| | j j j o @ c c Q r.r.d.l.l.x.x.x.x.x.z.p.  # n.n.",
"n.n.n.n.l *.*.,.*.+.O p o.p p y - | X.X.X.X.X.s 9 9 . # c g.h : @ _ l.l.z.x.x.x.x.x.x.x.x.z.f.d.e.n.",
"n.n.n.n.l ,.,.,.,.N y a o.o.o.*.C X 9 > = 9 9 6 c c i.L O x.@ + n.n.Y e.x.x.x.x.x.x.x.x.x.x.x.p.P n.",
"n.n.n.n.l ,.,.,.,.l . p a a o.#.    . 1 x x x 2 .   f.:.>.x.f.  n.n.n.{ x.x.x.x.x.x.x.x.x.x.c.s.o n.",
"n.n.n.n.l ,.,.,.,.+.o.O .     O n x x h O .   .   f.x.:.o.x.f.  n.n.{ x.x.x.x.x.x.x.x.x.c.b.x.% n.n.",
"n.n.n.n.n.N ,.,.*.+.@ c x z c c 7 ; > O 3 #.*.O.O f.T y p p y.  n.n.{ x.x.c.c.c.c.c.c.x.h.    n.n.n.",
"n.n.n.n.# l *.,.%.o.; 7 c O O > 1 r p u p b %.r n.n.n.#       n.n.n.      y.x.x.x.x.x.  + n.n.n.n.n.",
"n.n.n.n.. l *.,.,.+.: + D J n n %.U K j S B m , n.n.n.n.n.n.n.n.n.n.n.n.n.n.+   o +   n.n.n.n.n.n.n.",
"n.n., > O > n %.%.+.a @ ~ ] E E Y ~ t.q.q./ E T n.n.n.n.n.n.n.n.n.n.n.n.n.n.n.n.n.n.n.n.n.n.n.n.n.n.",
"n.@ j j # + > y 3 y y 4 l l ] ] ^ ] t.q.q.] ' L n.n.n.n.n.n.n.n.n.n.n.n.n.n.n.n.n.n.n.n.n.n.n.n.n.n.",
"n.n.n.n.n.n.n.  .     p *.,.l j $ H ' ^ ^ ! G S   n.n.n.n.n.n.n.n.n.n.n.n.n.n.n.n.n.n.n.n.n.n.n.n.n.",
"n.n.n.n.n.n.n.n.n.n.  p *.,.,.$.S 4.3.3.3.5.3.I V 0 n.n.n.n.n.n.n.n.n.n.n.n.n.n.n.n.n.n.n.n.n.n.n.n.",
"n.n.n.n.n.n.n.n.n.n.o n +.,.,.$.S 5.0.0.0.8.G V ,.v > n.n.n.n.n.n.n.n.n.n.n.n.n.n.n.n.n.n.n.n.n.n.n.",
"n.n.n.n.n.n.n.n.n.n.n.1 p +.+.m S 5.8.8.7.2.q #.,.o.> n.n.n.n.n.n.n.n.n.n.n.n.n.n.n.n.n.n.n.n.n.n.n.",
"n.n.n.n.n.n.n.n.n.n.n.o p a o.p S 5.5.5.5.F y o.o.o.@ n.n.n.n.n.n.n.n.n.n.n.n.n.n.n.n.n.n.n.n.n.n.n.",
"n.n.n.n.n.n.n.n.n.n.n.o p | > O $ S S S S $ y o.o.o.@ n.n.n.n.n.n.n.n.n.n.n.n.n.n.n.n.n.n.n.n.n.n.n.",
"n.n.n.n.n.n.n.n.n.n.n.n.> > o o n.n.n.n.n.n.O > > > n.n.n.n.n.n.n.n.n.n.n.n.n.n.n.n.n.n.n.n.n.n.n.n.",
"n.n.n.n.n.n.n.n.n.n.n.n.n.n.n.n.n.n.n.n.n.n.n.n.n.n.n.n.n.n.n.n.n.n.n.n.n.n.n.n.n.n.n.n.n.n.n.n.n.n."
};
