/* XPM */
static char *result[] = {
/* columns rows colors chars-per-pixel */
"50 50 162 2 ",
"   c #2F2F2E",
".  c #3E2F2E",
"X  c #322F2C",
"o  c #2F302E",
"O  c #3C3027",
"+  c #33302D",
"@  c #3E332C",
"#  c #2E353D",
"$  c #323531",
"%  c #353C34",
"&  c #3F3C31",
"*  c #432F2F",
"=  c #433226",
"-  c #4E3826",
";  c #43352C",
":  c #4E3529",
">  c #46382B",
",  c #4D392B",
"<  c #563727",
"1  c #593827",
"2  c #54342A",
"3  c #5D302F",
"4  c #543C2B",
"5  c #5A3D29",
"6  c #543C27",
"7  c #443330",
"8  c #463932",
"9  c #4C3C33",
"0  c #593231",
"q  c #563C31",
"w  c #5B3F30",
"e  c #553231",
"r  c #613A26",
"t  c #6D3C23",
"y  c #65302F",
"u  c #633D29",
"i  c #713D23",
"p  c #7C3F21",
"a  c #673432",
"s  c #6D3030",
"d  c #723030",
"f  c #7E3030",
"g  c #374036",
"h  c #384136",
"j  c #3D4B3B",
"k  c #4C432E",
"l  c #444837",
"z  c #5D4335",
"x  c #584439",
"c  c #664326",
"v  c #6D4727",
"b  c #6F4827",
"n  c #624328",
"m  c #69402C",
"M  c #7B4225",
"N  c #74432A",
"B  c #7B452A",
"V  c #654535",
"C  c #6F4935",
"Z  c #664737",
"A  c #7C4B32",
"S  c #734C39",
"D  c #7A4F39",
"F  c #2E3847",
"G  c #2F3E53",
"H  c #2C4160",
"J  c #2D476C",
"K  c #2B4B78",
"L  c #344E73",
"P  c #3B5274",
"I  c #45494D",
"U  c #494948",
"Y  c #544748",
"T  c #455C43",
"R  c #494E54",
"E  c #4F5155",
"W  c #5D5050",
"Q  c #51565C",
"!  c #56595D",
"~  c #565C55",
"^  c #6D4F40",
"/  c #644E44",
"(  c #6D564A",
")  c #765C4F",
"_  c #615151",
"`  c #625A56",
"'  c #7D6859",
"]  c #60775F",
"[  c #5D6166",
"{  c #626261",
"}  c #62666D",
"|  c #68696B",
" . c #7C6D64",
".. c #6A6F75",
"X. c gray45",
"o. c #7B7B7B",
"O. c #853434",
"+. c #8A3333",
"@. c #943535",
"#. c #983636",
"$. c #814121",
"%. c #8C4C2C",
"&. c #894E30",
"*. c #845137",
"=. c #8B573C",
"-. c #8E583D",
";. c #85543C",
":. c #935333",
">. c #945A3D",
",. c #9A5A3A",
"<. c #915E45",
"1. c #93634A",
"2. c #99735F",
"3. c #A06040",
"4. c #A5745D",
"5. c #896F62",
"6. c #907669",
"7. c #9A7360",
"8. c #8C7D76",
"9. c #A3802D",
"0. c #DAA935",
"q. c #D5A533",
"w. c #9D8376",
"e. c #B38C79",
"r. c #2E5289",
"t. c #295696",
"y. c #285DAB",
"u. c #295BA3",
"i. c #2B61AE",
"p. c #2B65BB",
"a. c #2A62B5",
"s. c #787E88",
"d. c #2D6AC5",
"f. c #7E848C",
"g. c #7E8590",
"h. c #838383",
"j. c #829482",
"k. c #858C96",
"l. c #8F9297",
"z. c #8A919C",
"x. c #929292",
"c. c #979798",
"v. c #9E9F9E",
"b. c #999491",
"n. c #AD9E98",
"m. c #9299A4",
"M. c #ACACAB",
"N. c #B1B1B2",
"B. c #B6B9B8",
"V. c #BABAB9",
"C. c #C7B3A8",
"Z. c #BABCC3",
"A. c #C0C0C0",
"S. c #C4C9C6",
"D. c #C6C9CA",
"F. c #CBCDCE",
"G. c #D4D4D7",
"H. c #D6D6D9",
"J. c #DDDDDE",
"K. c #E6E6E6",
"L. c white",
"P. c None",
/* pixels */
"P.P.P.P.P.P.P.P.P.P.P.P.P.P.P.P.P.P.P.P.P.P.P.P.P.P.P.P.P.P.P.P.P.P.P.P.P.P.P.P.P.P.P.P.P.P.P.P.P.P.",
"P.P.P.P.P.P.P.P.P.P.P.P.P.P.P.P.P.P.P.P.P.P.P.P.P.P.P.P.P.P.P.P.P.P.P.P.P.P.P.P.P.P.P.P.P.P.P.P.P.P.",
"P.P.P.P.P.P.P.P.P.P.P.P.P.P.P.P.P.P.P.P.P.P.P.P.P.P.P.P.P.P.P.P.P.P.P.P.P.P.P.P.P.P.P.P.P.P.P.P.P.P.",
"P.P.P.P.P.P.P.P.P.P.P.P.P.P.P.P.P.P.P.P.P.P.P.P.P.P.P.P.P.P.P.P.P.P.P.P.P.P.P.P.P.P.P.P.P.P.P.P.P.P.",
"P.P.P.P.P.P.P.P.P.P.P.P.P.P.P.P.P.P.P.P.P.P.P.P.P.P.P.P.P.P.P.P.P.P.P.P.P.P.P.P.P.P.P.P.P.P.P.P.P.P.",
"P.P.P.P.P.P.P.P.P.P.P.P.P.P.P.P.P.P.P.P.P.P.P.P.P.P.P.P.P.P.P.P.P.P.P.P.P.P.P.P.P.P.P.P.P.P.P.P.P.P.",
"P.P.P.P.P.P.P.P.P.P.P.P.P.P.P.P.P.P.P.P.P.P.P.P.P.P.P.P.P.P.P.P.P.P.P.P.P.P.P.P.P.P.P.P.P.P.P.P.P.P.",
"P.P.P.P.P.P.P.P.P.P.P.P.P.P.P.P.P.P.P.P.P.P.P.P.P.P.P.P.P.P.P.P.P.P.P.P.P.P.P.P.P.P.P.P.P.P.P.P.P.P.",
"P.P.P.P.P.P.P.P.P.P.P.P.P.P.P.P.P.P.P.P.P.P.P.P.P.P.P.P.P.P.P.P.P.P.P.P.P.P.P.P.P.P.P.P.P.P.P.P.P.P.",
"P.P.P.P.P.P.P.P.P.P.P.P.P.P.P.P.P.P.P.P.P.P.P.P.P.P.P.P.P.P.P.P.P.P.P.P.P.P.P.P.P.P.P.P.P.P.P.P.P.P.",
"P.P.P.P.P.P.P.P.P.P.P.P.P.P.P.P.P.P.P.P.P.P.P.P.P.P.P.P.P.P.%       P.P.P.P.P.P.P.P.P.P.P.P.P.P.P.P.",
"P.P.P.P.P.P.P.P.P.P.P.P.P.P.P.P.P.P.P.P.P.P.P.P.P.P.% o   $ s #.#.#.7     P.P.P.P.P.P.P.P.P.P.P.P.P.",
"P.P.P.P.P.P.P.P.P.P.P.P.P.P.P.P.P.P.P.P.P.P.P.P.P.7 a #.#.#.#.+.f f +.#.@.* P.P.P.P.P.P.P.P.P.P.P.P.",
"P.P.P.P.P.P.P.P.P.P.P.P.P.P.P.P.P.P.P.P.P.P.P.P.0 #.@.#.#.@.@.O.f d f #.f d * P.P.P.P.P.P.P.P.P.P.P.",
"P.P.P.P.P.P.P.P.P.P.P.P.P.P.P.P.P.P.P.P.P.U P.0 #.#.@.#.@.O.f f d Y a @.f f d * P.P.P.P.P.P.P.P.P.P.",
"P.P.P.P.P.P.P.P.P.P.P.P.P.P.P.P.P.P.P.P.  N._ O.@.@.O.O.f s f d W v.U f f f f d P.P.P.P.P.P.P.P.P.P.",
"P.P.P.P.P.P.P.P.P.P.P.P.P.P.P.P.P.P.P.P.  N.G.. a 3 - - - : 3 * G.A.U 3 3 O.f f s * P.P.P.P.P.P.P.P.",
"P.P.P.P.P.P.P.P.P.P.P.P.P.P.P.P.P.P.P.P.  N.b.- 2 V :.%.%.%.4 { K.A.U : - y f f f 3 P.P.P.P.P.P.P.P.",
"P.P.P.P.P.P.P.P.P.P.P.P.P.P.P.P.P.P.P.P.$ o.5 %.:.3.3.3.3.,.z M.L.V.U $.p . f f f 3 P.P.P.P.P.P.P.P.",
"P.P.P.P.P.P.P.P.P.P.P.P.P.P.P.P.P.P.P.P.g 2 :.,.,.3.3.3.3.;. .F.K.x.z r r 3 f f f y   P.P.P.P.P.P.P.",
"P.P.P.P.P.P.P.P.P.P.P.P.P.P.P.P.P.P.P.P.  $.,.:.,.:.3.3.,.A 7.e.2.m < 3 3 f f f f 3 = : P.P.P.P.P.P.",
"P.P.P.P.P.P.P.P.P.P.P.P.P.P.P.P.P.P.P.P.  w.%.:.%.$.,.%.1.) N M $.$.@ f f f f f s 2 i i , P.P.P.P.P.",
"P.P.P.P.P.P.P.P.P.P.P.P.P.P.P.P.P.P.P.P.  J.6.V $.M 5.C.C.{ r $.$.$.* f f f f f 3 2 %.:.N , P.P.P.P.",
"P.P.P.P.P.P.P.P.P.P.P.P.P.P.P.P.P.P.P.P.r h.` t $.p ( f.X.Z i $.p < 3 f f f O.d 2 N :.1.,.5 P.P.P.P.",
"P.P.P.P.P.P.P.P.P.P.P.P.P.P.P.P.P.P.P.o p =.=.,.,.,.>.A i p p $.p = s f f f f s 2 %.3.3.1.V P.P.P.P.",
"P.P.P.$     P.P.P.P.P.P.P.P.P.P.P.P.P.+ p 3.3.3.3.3.,.$.$.$.$.$.: y f f f f f d , %.3.3.3.z P.P.P.P.",
"P.P.P.% 5 = $       $ P.P.P.P.P.P.P.P.$ $.k > > 8 4 $.$.$.p $.$.O s f f f f d = i %.3.3.3.V P.P.P.P.",
"P.P.P.P.@ + n R R R I     P.P.P.P.P.P.$ O o o o   + 1 $.$.$.$.1 y f f f f f s . $.%.3.3.,.V P.P.P.P.",
"P.P.P.P.o g.m.m.m.m.k.Q Q I     o P.P.$ o 0.o o k 9.2 $.$.$.- 3 f O.f f f f s O $.$.%.3.%.< P.P.P.P.",
"P.P.P.P.o B.G.G.G.G.D.m.m.s.Q Q Q %   P.o 0.o o k 3.- p r   3 f f f f f f s   ; $.$.$.$.p < P.P.P.P.",
"P.%     B.G.G.G.G.G.G.G.G.Z.m.m.' b b @ o o 0.q.9.+     3 +.O.f f f f f f * i @ $.%.3.3.%.< T P.P.P.",
"% c.G.G.G.G.G.G.G.G.G.G.G.G.G.G.X.  = n b b o o X X 3 #.@.@.@.+.f f .   X p i ; %.3.3.3.1.z T P.P.P.",
"P.g c.H.G.G.G.G.G.G.G.G.G.G.X.o P.P.$ 8 8 8 ; = n c 6 @ @ @ a O.s . N M M $.p r z 3.3.3.3.z P.P.P.P.",
"P.% v.J.J.H.G.G.G.G.G.G.G.G.h.P.P.P.o *.,.,.i @   X - n n c , @ @ @ D t i t t @ V 3.3.3.3.z P.P.P.P.",
"P.P.P.V.G.J.J.H.G.G.G.H.H.J.J.o.P.P.+ i M p p u % + ; 8 ; @ 6 n n v > @ @ @ > i %.3.3.3.>.z P.P.P.P.",
"P.P.P.$ + V.G.J.J.J.J.J.J.G.H.X.P.P.P.r <.i t ~ ] @ %.:.$.1 ; 7 O n n n c b c @ %.,.3.3.V P.P.P.P.P.",
"P.P.P.P.P.$ $ M.M.M.M.M.l.P.P.P.P.P.P.P.G.P.P.D.B.l A >.%.$.p %.Z z z , @ 6 4 @ $.:.3.3.z P.P.P.P.P.",
"P.P.P.P.P.P.P.P.P.P.P.P.P.P.P.P.P.P.P.P.G.P.P.P.S.j.8.4.B 1 r r >.3.:.$.  + + 1 :.3.3.,.q + P.P.P.P.",
"P.P.P.P.P.P.P.P.P.P.P.P.P.P.P.P.P.F.G.G.P.P.P.P.G.G.G.n./ R E Q S S 5 r ! E @ $.%.:.:.N ; + > , P.P.",
"P.P.P.P.P.P.P.P.P.P.P.P.P.P.P.P.P.D.G.F.P.P.P.P.S.G.F.l.} k.h.z.[ E ! ! ..[ @ 1 r 1 1 :   P.4 6 & P.",
"P.P.P.P.P.P.P.P.P.P.P.P.P.P.P.P.P.P.P.P.P.P.P.P.P.P.| ! } g.g.z.[ E ! ! S C <   X P.P.P.P.P.P.P.P.P.",
"P.P.P.P.P.P.P.P.P.P.P.P.P.P.P.P.P.P.P.P.P.P.P.P.P.  G r.P E E Q L K # S 3.,.t   P.P.P.P.P.P.P.P.P.P.",
"P.P.P.P.P.P.P.P.P.P.P.P.P.P.P.P.P.P.P.P.P.P.P.P.8 Z J d.i.r.r.r.u.y.F 3.3.,.%.1 P.P.P.P.P.P.P.P.P.P.",
"P.P.P.P.P.P.P.P.P.P.P.P.P.P.P.P.P.P.P.P.P.P.P.P.8 ,.Y r.p.d.d.d.i.y.F 3.3.,.%.i   P.P.P.P.P.P.P.P.P.",
"P.P.P.P.P.P.P.P.P.P.P.P.P.P.P.P.P.P.P.P.P.P.P.9 -.3.S H y.p.d.p.y.y.F 3.,.,.$.i P.P.P.P.P.P.P.P.P.P.",
"P.P.P.P.P.P.P.P.P.P.P.P.P.P.P.P.P.P.P.P.P.P.P.@ %.3.S H y.i.p.p.y.y.t.8 %.$.$.i P.P.P.P.P.P.P.P.P.P.",
"P.P.P.P.P.P.P.P.P.P.P.P.P.P.P.P.P.P.P.P.P.P.P.; p %.M q J y.y.y.y.y.y.o $.$.M i P.P.P.P.P.P.P.P.P.P.",
"P.P.P.P.P.P.P.P.P.P.P.P.P.P.P.P.P.P.P.P.P.P.P.P.. @ 1 r H y.y.y.y.y.y.  . - $.i P.P.P.P.P.P.P.P.P.P.",
"P.P.P.P.P.P.P.P.P.P.P.P.P.P.P.P.P.P.P.P.P.P.P.P.o     $ j + o         P.      + P.P.P.P.P.P.P.P.P.P.",
"P.P.P.P.P.P.P.P.P.P.P.P.P.P.P.P.P.P.P.P.P.P.P.P.P.P.P.P.P.P.P.P.P.P.P.P.P.P.P.P.P.P.P.P.P.P.P.P.P.P."
};
