/* XPM */
static char *result[] = {
/* columns rows colors chars-per-pixel */
"50 50 154 2 ",
"   c #2F2F2E",
".  c #312F2D",
"X  c #3F2F2E",
"o  c #2F302E",
"O  c #32312E",
"+  c #3D332B",
"@  c #323432",
"#  c #363D35",
"$  c #373838",
"%  c #4D2F2F",
"&  c #512F2F",
"*  c #433327",
"=  c #4E3826",
"-  c #42342C",
";  c #4E3529",
":  c #463D2E",
">  c #49392B",
",  c #563727",
"<  c #523B27",
"1  c #5B3B27",
"2  c #52342B",
"3  c #5B312E",
"4  c #543C2B",
"5  c #5B3B2A",
"6  c #433230",
"7  c #463932",
"8  c #573D30",
"9  c #5C3D3C",
"0  c #5C3231",
"q  c #623A25",
"w  c #62302F",
"e  c #623E2B",
"r  c #6D3C23",
"t  c #703D23",
"y  c #7B3F21",
"u  c #6D3131",
"i  c #6A3838",
"p  c #673332",
"a  c #733131",
"s  c #7E3030",
"d  c #394237",
"f  c #394438",
"g  c #4D442E",
"h  c #51472F",
"j  c #40403F",
"k  c #5B4234",
"l  c #654226",
"z  c #6F4827",
"x  c #624328",
"c  c #74432A",
"v  c #7A462C",
"b  c #794124",
"n  c #634333",
"m  c #6B4531",
"M  c #6C4938",
"N  c #734C39",
"B  c #736031",
"V  c #7A6531",
"C  c #2E3847",
"Z  c #2D3F59",
"A  c #3F4042",
"S  c #2B4B78",
"D  c #434445",
"F  c #4C4D4B",
"G  c #524947",
"H  c #5C5047",
"J  c #5D534D",
"K  c #4F5154",
"L  c #535453",
"P  c #50565D",
"I  c #57595D",
"U  c #595958",
"Y  c #545953",
"T  c #644C42",
"R  c #724343",
"E  c #61524A",
"W  c #765747",
"Q  c #7F5845",
"!  c #765C4F",
"~  c #6A605B",
"^  c #73645B",
"/  c #5B5E62",
"(  c #5C6066",
")  c #5D636B",
"_  c #646464",
"`  c #686967",
"'  c gray42",
"]  c #6E716E",
"[  c #6E747C",
"{  c #72767C",
"}  c #7C7C7C",
"|  c #727271",
" . c #843433",
".. c #883333",
"X. c #943535",
"o. c #983636",
"O. c #814121",
"+. c #8C4C2C",
"@. c #834B2E",
"#. c #894E30",
"$. c #864D31",
"%. c #845137",
"&. c #89563C",
"*. c #8E583D",
"=. c #935333",
"-. c #945A3C",
";. c #9B5B3B",
":. c #92742D",
">. c #846B31",
",. c #967832",
"<. c #805946",
"1. c #93634A",
"2. c #A06040",
"3. c #A5822E",
"4. c #B89134",
"5. c #9D8376",
"6. c #AC8673",
"7. c #B38C79",
"8. c #2A4E82",
"9. c #295491",
"0. c #2D5EA7",
"q. c #285DAB",
"w. c #2B65BB",
"e. c #717780",
"r. c #757A83",
"t. c #2C67C0",
"y. c #2D6AC4",
"u. c #7E848C",
"i. c #7E8590",
"p. c #848484",
"a. c #8A8A89",
"s. c #818790",
"d. c #828994",
"f. c #8E8E90",
"g. c #8B929C",
"h. c #9B9B9B",
"j. c #939193",
"k. c #B69C8F",
"l. c #9299A4",
"z. c #9FA5AE",
"x. c #ADADAC",
"c. c #B7A8A0",
"v. c #AAAEB6",
"b. c #B3B3B4",
"n. c #B9B9BA",
"m. c #CCB3A6",
"M. c #C2C2C3",
"N. c #D4D4D7",
"B. c #DEDEDF",
"V. c #DEDEE1",
"C. c #E4E4E6",
"Z. c #EEEEEF",
"A. c gray99",
"S. c None",
/* pixels */
"S.S.S.S.S.S.S.S.S.S.S.S.S.S.S.S.S.S.S.S.S.S.S.S.S.S.S.S.S.S.S.S.S.S.S.S.S.S.S.S.S.S.S.S.S.S.S.S.S.S.",
"S.S.S.S.S.S.S.S.S.S.S.S.S.S.S.S.S.S.S.S.S.S.S.S.S.S.S.S.S.S.S.S.S.S.S.S.S.S.S.S.S.S.S.S.S.S.S.S.S.S.",
"S.S.S.S.S.S.S.S.S.S.S.S.S.S.S.S.S.S.S.S.S.S.S.S.S.S.S.S.S.S.S.S.S.S.S.S.S.S.S.S.S.S.S.S.S.S.S.S.S.S.",
"S.S.S.S.S.S.S.S.S.S.S.S.S.S.S.S.S.S.S.S.S.S.S.S.S.S.S.S.S.S.S.S.S.S.S.S.S.S.S.S.S.S.S.S.S.S.S.S.S.S.",
"S.S.S.S.S.S.S.S.S.S.S.S.S.S.S.S.S.S.S.S.S.S.S.S.S.S.S.S.S.S.S.S.S.S.S.S.S.S.S.S.S.S.S.S.S.S.S.S.S.S.",
"S.S.S.S.S.S.S.S.S.S.S.S.S.S.S.S.S.S.S.S.S.S.S.S.S.S.S.S.S.S.S.S.S.S.S.S.S.S.S.S.S.S.S.S.S.S.S.S.S.S.",
"S.S.S.S.S.S.S.S.S.S.S.S.S.S.S.S.S.S.S.S.S.S.S.S.S.S.S.S.S.S.S.S.S.S.S.S.S.S.S.S.S.S.S.S.S.S.S.S.S.S.",
"S.S.S.S.S.S.S.S.S.S.S.S.S.S.S.S.S.S.S.S.S.S.S.S.S.S.S.S.S.S.S.S.S.S.S.S.S.S.S.S.S.S.S.S.S.S.S.S.S.S.",
"S.S.S.S.S.S.S.S.S.S.S.S.S.S.S.S.S.S.S.S.S.S.S.S.S.S.S.S.S.S.S.S.S.S.S.S.S.S.S.S.S.S.S.S.S.S.S.S.S.S.",
"S.S.S.S.S.S.S.S.S.S.S.S.S.S.S.S.S.S.S.S.S.S.S.S.S.S.S.S.S.S.S.S.S.S.S.S.S.S.S.S.S.S.S.S.S.S.S.S.S.S.",
"S.S.S.S.S.S.S.S.S.S.S.S.S.S.S.S.S.S.S.S.S.S.S.S.S.S.S.S.S.S.S.S.S.S.S.S.S.S.S.S.S.S.S.S.S.S.S.S.S.S.",
"S.S.S.S.S.S.S.S.S.S.S.S.S.S.S.S.S.S.S.S.S.S.S.S.S.S.S.S.S.S.S.      S.S.S.S.S.S.S.S.S.S.S.S.S.S.S.S.",
"S.S.S.S.S.S.S.S.S.S.S.S.S.S.S.S.S.S.S.S.S.S.S.S.S.S.S.      6  . . .p o . S.S.S.S.S.S.S.S.S.S.S.S.S.",
"S.S.S.S.S.S.S.S.S.S.S.S.S.S.S.S.S.S.S.S.S.S.S.S.S.     .o.o.o.X.s s ..X.o.0 S.S.S.S.S.S.S.S.S.S.S.S.",
"S.S.S.S.S.S.S.S.S.S.S.S.S.S.S.S.S.S.S.S.S.S.S.S.   .o.o.o.o.o.X.s s s ....s & S.S.S.S.S.S.S.S.S.S.S.",
"S.S.S.S.S.S.S.S.S.S.S.S.S.S.S.S.S.S.S.S.S.D D 6 ..o.o.o.o.X.s s s 9 9 s ..s s % S.S.S.S.S.S.S.S.S.S.",
"S.S.S.S.S.S.S.S.S.S.S.S.S.S.S.S.S.S.S.S.S.} } T ..X. . . .u a s i } } &  .s s s % S.S.S.S.S.S.S.S.S.",
"S.S.S.S.S.S.S.S.S.S.S.S.S.S.S.S.S.S.S.S.S.} C.5.a u % * + + % 3 U B.} - u s s s s & S.S.S.S.S.S.S.S.",
"S.S.S.S.S.S.S.S.S.S.S.S.S.S.S.S.S.S.S.S.S.} x.^ ; 9 @.+.+.+.v $ h.B.} + ; 2 a s s s . S.S.S.S.S.S.S.",
"S.S.S.S.S.S.S.S.S.S.S.S.S.S.S.S.S.S.S.S.S.` E c #.2.2.2.2.2.*.U A.B.} 2 y 2 w s s s   S.S.S.S.S.S.S.",
"S.S.S.S.S.S.S.S.S.S.S.S.S.S.S.S.S.S.S.S.S.> c ;.2.2.2.2.2.2.W h.A.M._ , q 2 u s s s   S.S.S.S.S.S.S.",
"S.S.S.S.S.S.S.S.S.S.S.S.S.S.S.S.S.S.S.S.f q =.=.;.=.;.2.2.=.<.7.1.%.1 3 3 u s s s s . q S.S.S.S.S.S.",
"S.S.S.S.S.S.S.S.S.S.S.S.S.S.S.S.S.S.S.S.S.^ 1.=.#.O.;.=.+.5.n O.O.y q &  .s s  .s & q O.1 S.S.S.S.S.",
"S.S.S.S.S.S.S.S.S.S.S.S.S.S.S.S.S.S.S.S.S.h.c.! y  .x k.m.b.* y O.y q % s s s s s 6 O.=.#.1 S.S.S.S.",
"S.S.S.S.S.S.S.S.S.S.S.S.S.S.S.S.S.S.S.S.2 T F e y O.t J U F t O.O.r 2 a s s s s % q ;.2.;.%.  S.S.S.",
"S.S.S.S.S.S.S.S.S.S.S.S.S.S.S.S.S.S.S.S.= #.&.;.;.;.;.*.t t O.O.O.q % s s s s s 6 t 2.2.2.&.  S.S.S.",
"S.S.S.S.    S.S.S.S.S.S.S.S.S.S.S.S.S.S.; =.1.2.;.;.2.+.O.O.O.O.t & a s s s s s + t 2.2.2.&.  S.S.S.",
"S.S.S.S.- < +         S.S.S.S.S.S.S.S.S.< 5 7 7 g : v O.O.O.O.y t % s s s s s % q y 2.2.2.&.O S.S.S.",
"S.S.S.S.f o > H P P P $     S.S.S.S.S.S.            . t O.O.O.t X s s s s s s X t O.2.2.2.&.@ S.S.S.",
"S.S.S.S.# I l.l.l.l.l.) P P       @ S.S.o ,.B     3.> t y O.r * s s s s s s s * t  .O.2.;.t @ S.S.S.",
"S.S.S.S.F p.N.N.N.N.N.v.z.z.) ) ( F + + @ >.V h g :.- q r * % s s s s s s a 2 O t O.O.+.O.t @ S.S.S.",
"S.S.Y U f.N.N.N.N.N.N.N.N.N.z.x.j.x x 4 + + >.4.3.:   X % X. . .s s s u a & l * t O.2.2.;.c o S.S.S.",
"S.L n.N.N.N.N.N.N.N.N.N.N.N.N.b.h.@ O < x x - . + + + a  . . .X. .a 3 + + r y = q =.2.2.2.&.o S.S.S.",
"S.S.L C.N.N.N.N.N.N.N.N.N.N.N.  S.S.# - k k 4 * < 4 x > > ; 4 u u % 2 +. .y O.r + &.2.2.2.&.o S.S.S.",
"S.S.L b.C.V.N.N.N.N.N.N.N.N.N.' S.S.d 8 =.=.+.q .   + = 4 h 5 > = = k m q q 1 , = *.;.2.2.&.o S.S.S.",
"S.S.S.Y x.M.C.B.N.N.N.N.N.C.C.M.  S.d ; O.O.y r +   > k = 2 * h < l k > > > > 1 y ;.2.2.-.M S.S.S.S.",
"S.S.S.S.S._ p.M.Z.Z.Z.Z.Z.p.p.]   S.S.: < ; 2 - S.. t ;.=.O.q q M + - = = l z + t +.2.2.&.o S.S.S.S.",
"S.S.S.S.S.S.S.] a.p.a.a.p.S.S.S.S.S.S.S.S.S.S.S.S.S.; *.+.b O.O.@.N N m * - > . t =.2.2.&.@ S.S.S.S.",
"S.S.S.S.S.S.S.S.S.S.S.S.S.S.S.S.S.S.S.S.S.S.S.S.S.S.  v =.2 = ; x ;.;.+.<     , y ;.2.2.v O + O S.S.",
"S.S.S.S.S.S.S.S.S.S.S.S.S.S.S.S.S.S.S.S.S.S.S.S.S.S.S.- 7 { [ { { 7 7 + _ s.K t O.O.O.@.+ o + x 4 S.",
"S.S.S.S.S.S.S.S.S.S.S.S.S.S.S.S.S.S.S.S.S.S.S.S.S.S.o { [ i.i.d.g.{ r.u./ D $ + * * + - S.S.S.+ + S.",
"S.S.S.S.S.S.S.S.S.S.S.S.S.S.S.S.S.S.S.S.S.S.S.S.S.S.o A C i.i.d.s.C D D 8 r ; S.S.S.S.S.S.S.S.S.S.S.",
"S.S.S.S.S.S.S.S.S.S.S.S.S.S.S.S.S.S.S.S.S.S.S.S.S.  O 0.y.+     O n 2.2.2.+.O.* S.S.S.S.S.S.S.S.S.S.",
"S.S.S.S.S.S.S.S.S.S.S.S.S.S.S.S.S.S.S.S.S.S.S.S.O &.2.7 y.y.y.y.y.S n 2.2.2.+.y + . S.S.S.S.S.S.S.S.",
"S.S.S.S.S.S.S.S.S.S.S.S.S.S.S.S.S.S.S.S.S.S.S.S.7 &.2.7 q.t.y.y.w.S k 2.2.2.+.O.y -   S.S.S.S.S.S.S.",
"S.S.S.S.S.S.S.S.S.S.S.S.S.S.S.S.S.S.S.S.S.S.S.  %.2.1.8 9.q.y.t.q.8.G &.1.;.+.O. .+   S.S.S.S.S.S.S.",
"S.S.S.S.S.S.S.S.S.S.S.S.S.S.S.S.S.S.S.S.S.S.S.. t =.;.O.+ 9.q.w.q.q.S C H c y y O.+ o S.S.S.S.S.S.S.",
"S.S.S.S.S.S.S.S.S.S.S.S.S.S.S.S.S.S.S.S.S.S.S.S.1 q q O.q o S S S S S S A O = q q + o S.S.S.S.S.S.S.",
"S.S.S.S.S.S.S.S.S.S.S.S.S.S.S.S.S.S.S.S.S.S.S.S.O o   ,                 S.S.S.      S.S.S.S.S.S.S.S.",
"S.S.S.S.S.S.S.S.S.S.S.S.S.S.S.S.S.S.S.S.S.S.S.S.S.      S.S.S.S.S.S.S.S.S.S.S.S.S.S.S.S.S.S.S.S.S.S."
};
