/* XPM */
static char *result[] = {
/* columns rows colors chars-per-pixel */
"50 50 48 1 ",
"  c #3B4344",
". c #3C4444",
"X c #3D4545",
"o c #3F4745",
"O c #414946",
"+ c #454D48",
"@ c #464E48",
"# c #474F48",
"$ c #464D4E",
"% c #4A5249",
"& c #4D554B",
"* c #535B4D",
"= c #545C4D",
"- c #4B5354",
"; c #58604F",
": c #59614F",
"> c #5F6751",
", c #5D6552",
"< c #656E56",
"1 c #6B745C",
"2 c #6B745E",
"3 c #6F785F",
"4 c #5C6263",
"5 c #727B61",
"6 c #788166",
"7 c #7A8368",
"8 c #7A806E",
"9 c #7F8672",
"0 c #848E71",
"q c #7C8282",
"w c #8E9680",
"e c #949998",
"r c #99A189",
"t c #9DA1A2",
"y c #A8ABAC",
"u c #B7BABA",
"i c #BEC0C1",
"p c #C9CBCB",
"a c #DEE0DB",
"s c #DEE0E0",
"d c #E2E4E1",
"f c #E4E6E2",
"g c #F3F4F2",
"h c #F8F9F7",
"j c #FDFDFD",
"k c #FEFEFE",
"l c white",
"z c None",
/* pixels */
"zzzzzzzzzzzzzzzzzzzzzzghjllzzzzzzzzzzzzzzzzzzzzzzz",
"zzzzzzzzzzzzzzzzzzzzzzkllllzzzzzzzzzzzzzzzzzzzzzzz",
"zzzzzzzzzzzzzzzzzzzzzzafdsszzzzzzzzzzzzzzzzzzzzzzz",
"zzzzzzzzzzzzzzzzzzzzll8>*  llzzzzzzzzzzzzzzzzzzzzz",
"zzzzzzzzzzzzzzzzzzzzll8>*  llzzzzzzzzzzzzzzzzzzzzz",
"zzzzzzzzzzzzzzzzzzzzllw62**llzzzzzzzzzzzzzzzzzzzzz",
"zzzzzzzzzzzzzzzzzzzzllr06>>llzzzzzzzzzzzzzzzzzzzzz",
"zzzzzzzzzzzzzzzzzzzzllr07<<llzzzzzzzzzzzzzzzzzzzzz",
"zzzzzzzzzzzzzzzzzzzzllr0000llzzzzzzzzzzzzzzzzzzzzz",
"zzzzzzzzzzzzzzzzzzzzllr0000llzzzzzzzzzzzzzzzzzzzzz",
"zzzzzzzzzzzzzzzzzzzzllr0000llzzzzzzzzzzzzzzzzzzzzz",
"zzzzzzzzzzzzzzzzzzzzllr0000llzzzzzzzzzzzzzzzzzzzzz",
"zzzzzzzzzzzzzzzzzzzzllr0000llzzzzzzzzzzzzzzzzzzzzz",
"zzzzzzzzzzzzzzzzzzzzllr0000llzzzzzzzzzzzzzzzzzzzzz",
"zzzzzzzzzzzzzzzzzzzzllr0000llzzzzzzzzzzzzzzzzzzzzz",
"zzzzzzzzzzzzzzzzzzzzll9<300llzzzzzzzzzzzzzzzzzzzzz",
"zzzzzzzzzzzzzzzzzzzzll8>100llzzzzzzzzzzzzzzzzzzzzz",
"zzzzzzzzzzzzzzzzzzzzll8>100llzzzzzzzzzzzzzzzzzzzzz",
"zzzzzzzzzzzzzzzzzzzzll8>100llzzzzzzzzzzzzzzzzzzzzz",
"zzzzzzzzzzzzzzzzzzzzll8>100llzzzzzzzzzzzzzzzzzzzzz",
"zzzzzzzzzzzzzzzzzzzzll8>100llzzzzzzzzzzzzzzzzzzzzz",
"zzzzzzzzzzzzzzzzzzzzll8>100llzzzzzzzzzzzzzzzzzzzzz",
"zzzzzzzzzzzzzzzzzzzzll8><55llzzzzzzzzzzzzzzzzzzzzz",
"zzzzzzzzzzzzzzzzzzzzll8>>>>llzzzzzzzzzzzzzzzzzzzzz",
"zzzzzzzzzzzzzzzzzzzzll8>>>>llzzzzzzzzzzzzzzzzzzzzz",
"zzzzzzzzzzzzzzzzzzzzll8>>>>llzzzzzzzzzzzzzzzzzzzzz",
"zzzzzzzzzzzzzzzzzzzzll8>>>>llzzzzzzzzzzzzzzzzzzzzz",
"zzzzzzzzzzzzzzzzzzzzll8>>>>llzzzzzzzzzzzzzzzzzzzzz",
"zzzzzzzzzzzzzzzzzzzzll8>>>>llzzzzzzzzzzzzzzzzzzzzz",
"zzzzzzzzzzzzzzzzzzzzll8>>>>llzzzzzzzzzzzzzzzzzzzzz",
"zzzzzzzzzzzzzzzzzzzzll4 #>>llzzzzzzzzzzzzzzzzzzzzz",
"zzzzzzzzzzzzzzzzzzzzll4 #>>llzzzzzzzzzzzzzzzzzzzzz",
"zzzzzzzzzzzzzzzzzzzzll4 #>>llzzzzzzzzzzzzzzzzzzzzz",
"zzzzzzzzzzzzzzzzzzzzll4 #>>llzzzzzzzzzzzzzzzzzzzzz",
"zzzzzzzzzzzzzzzzzzzzll4 #>>llzzzzzzzzzzzzzzzzzzzzz",
"zzzzzzzzzzzzzzzzzzzzll4 #>>llzzzzzzzzzzzzzzzzzzzzz",
"zzzzzzzzzzzzzzzzzzzzll4 #>>llzzzzzzzzzzzzzzzzzzzzz",
"zzzzzzzzzzzzz>:    ell4 #>>llu zzzzzzzzzzzzzzzzzzz",
"zzzzzzzzzzzz>>:    qll4 #>>llt    &>>zzzzzzzzzzzzz",
"zzzzzzzzzzzz,:=    qll4 +::llt    %:;zzzzzzzzzzzzz",
"zzzzzzzzzz>>#      qll4    llt      O>>zzzzzzzzzzz",
"zzzzzzzzzz>>#      qll4    llt      O>>zzzzzzzzzzz",
"zzzzzzzzzzOOX      $44pssss44-      .OOzzzzzzzzzzz",
"zzzzzzzzzz            sllll            zzzzzzzzzzz",
"zzzzzzzzzz##o         yiiii         X##zzzzzzzzzzz",
"zzzzzzzzzz>>#                       O>>zzzzzzzzzzz",
"zzzzzzzzzz>>@                       O>>zzzzzzzzzzz",
"zzzzzzzzzzzz::=                   %::zzzzzzzzzzzzz",
"zzzzzzzzzzzz>>:                   &>>zzzzzzzzzzzzz",
"zzzzzzzzzzzzzzzzzzzzzzzzzzzzzzzzzzzzzzzzzzzzzzzzzz"
};
