/* XPM */
static char *result[] = {
/* columns rows colors chars-per-pixel */
"50 50 120 2 ",
"   c #3B4344",
".  c #3F4745",
"X  c #404846",
"o  c #414946",
"O  c #434B47",
"+  c #454D48",
"@  c #474F48",
"#  c #47504C",
"$  c #495149",
"%  c #4A5249",
"&  c #4C544A",
"*  c #4D554A",
"=  c #4D554B",
"-  c #535B4D",
";  c #4E5654",
":  c #515A51",
">  c #535C53",
",  c #555D50",
"<  c #515859",
"1  c #565D5E",
"2  c #59614F",
"3  c #5A624F",
"4  c #5F6751",
"5  c #5F6855",
"6  c #5F6857",
"7  c #606955",
"8  c #646C55",
"9  c #656E56",
"0  c #60695B",
"q  c #636C59",
"w  c #656E58",
"e  c #636C5C",
"r  c #6B745C",
"t  c #6D765D",
"y  c #5C6263",
"u  c #616863",
"i  c #6C7560",
"p  c #6C7562",
"a  c #6E7763",
"s  c #727B61",
"d  c #747C67",
"f  c #70766A",
"g  c #757B6C",
"h  c #717778",
"j  c #787E7B",
"k  c #788166",
"l  c #79806B",
"z  c #79806C",
"x  c #7A806E",
"c  c #7E886C",
"v  c #7F8775",
"b  c #7E857B",
"n  c #848E71",
"m  c #858D77",
"M  c #868D7B",
"N  c #899276",
"B  c #8B9479",
"V  c #7C8282",
"C  c #878E81",
"Z  c #878E83",
"A  c #878C8D",
"S  c #8E9680",
"D  c #929A81",
"F  c #929A83",
"G  c #939A87",
"H  c #949D84",
"J  c #959C89",
"K  c #949A8D",
"L  c #8D9192",
"P  c #969A9B",
"I  c #999D9E",
"U  c #99A189",
"Y  c #99A18A",
"T  c #9CA48E",
"R  c #9AA092",
"E  c #9BA193",
"W  c #9FA792",
"Q  c #A0A695",
"!  c #A2A994",
"~  c #A6AD9A",
"^  c #ABB19F",
"/  c #9B9FA0",
"(  c #9DA1A2",
")  c #A6AAA5",
"_  c #A9ADA6",
"`  c #ABB1A0",
"'  c #ADB3A2",
"]  c #ACB0A7",
"[  c #AFB3A8",
"{  c #B3B7AD",
"}  c #B5BAAD",
"|  c #B5BAB1",
" . c #B8BBB9",
".. c #BBC0B3",
"X. c #C2C7B8",
"o. c #C4C8BC",
"O. c #C5CABC",
"+. c #BEC0C1",
"@. c #CACCC5",
"#. c #CFD3C8",
"$. c #D2D5CC",
"%. c #D6D9D0",
"&. c #D6D9D1",
"*. c #DEE0E0",
"=. c #DFE1E0",
"-. c #E3E5E1",
";. c #E4E5E1",
":. c #E4E6E2",
">. c #F1F2EF",
",. c #F3F4F1",
"<. c #F8F8F6",
"1. c #F8F8F7",
"2. c #F8F9F7",
"3. c #F9F9F8",
"4. c #F9FAF8",
"5. c #F9FAF9",
"6. c #FAFAF9",
"7. c #FEFEFE",
"8. c white",
"9. c None",
/* pixels */
"9.9.9.9.9.9.9.9.9.9.9.9.9.9.9.9.9.9.9.9.9.9.8.8.8.8.8.8.8.8.8.8.9.9.9.9.9.9.9.9.9.9.9.9.9.9.9.9.9.9.",
"9.9.9.9.9.9.9.9.9.9.9.9.9.9.9.9.9.9.9.9.9.9.8.8.8.8.8.8.8.8.8.8.9.9.9.9.9.9.9.9.9.9.9.9.9.9.9.9.9.9.",
"9.9.9.9.9.9.9.9.9.9.9.9.9.9.9.9.9.9.9.9.8.8.{ [ } X.X.[ [ ) ( P 9.9.9.9.9.9.9.9.9.9.9.9.9.9.9.9.9.9.",
"9.9.9.9.9.9.9.9.9.9.9.9.9.9.9.9.9.9.9.9.8.8.x 4 r n n 4 4 =     8.8.>.9.9.9.9.9.9.9.9.9.9.9.9.9.9.9.",
"9.9.9.9.9.9.9.9.9.9.9.9.9.9.9.9.9.9.9.9.8.8.x 4 r n n 4 4 =     8.8.,.9.9.9.9.9.9.9.9.9.9.9.9.9.9.9.",
"9.9.9.9.9.9.9.9.9.9.9.9.9.9.9.9.9.8.8.@.4 4 c n k 4 4 4 4 4 4 4     I 8.7.9.9.9.9.9.9.9.9.9.9.9.9.9.",
"9.9.9.9.9.9.9.9.9.9.9.9.9.9.9.9.9.8.8.@.4 4 c n k 4 4 4 4 4 4 4     ( 8.7.9.9.9.9.9.9.9.9.9.9.9.9.9.",
"9.9.9.9.9.9.9.9.9.9.9.9.9.9.9.9.9.8.8.$.k k t r 5 @ @ G G m k k p p | 8.8.9.9.9.9.9.9.9.9.9.9.9.9.9.",
"9.9.9.9.9.9.9.9.9.9.9.9.9.9.9.9.9.8.8.%.n n 9 4 -     ' ' Y n n n n X.8.8.9.9.9.9.9.9.9.9.9.9.9.9.9.",
"9.9.9.9.9.9.9.9.9.9.9.9.9.9.9.9.9.;.:.o.n n 7 2 , ; ; ' ' T B B n n X.8.8.9.9.9.9.9.9.9.9.9.9.9.9.9.",
"9.9.9.9.9.9.9.9.9.9.9.9.9.9.9.8.8.x 4 r n n #   u ' ' ' ' ' ' ' n n X.8.8.9.9.9.9.9.9.9.9.9.9.9.9.9.",
"9.9.9.9.9.9.9.9.9.9.9.9.9.9.9.8.8.x 4 r n n #   u ' ' ' ' ' ' ' n n X.8.8.9.9.9.9.9.9.9.9.9.9.9.9.9.",
"9.9.9.9.9.9.9.9.9.9.9.9.9.9.9.8.8.S k i > > b Z K ' ' D D W ' ' W W #.8.8.9.9.9.9.9.9.9.9.9.9.9.9.9.",
"9.9.9.9.9.9.9.9.9.9.9.9.9.9.9.8.8.U n p     R ' ' ' ' n n Y ' ' ' ' &.8.8.9.9.9.9.9.9.9.9.9.9.9.9.9.",
"9.9.9.9.9.9.9.9.9.9.9.9.9.9.9.-.:.H n a o o E ' ^ ~ ~ c c F ~ ~ ' ' &.8.8.9.9.9.9.9.9.9.9.9.9.9.9.9.",
"9.9.9.9.9.9.9.9.9.9.9.9.6.8.:.4 4 c n k 4 4 Q ' W n n 4 4 s n n ' ' &.8.8.9.9.9.9.9.9.9.9.9.9.9.9.9.",
"9.9.9.9.9.9.9.9.9.9.9.9.6.8.:.4 4 c n k 4 4 Q ' W n n 4 4 s n n ' ' &.8.8.9.9.9.9.9.9.9.9.9.9.9.9.9.",
"9.9.9.9.9.9.9.9.9.9.9.9.6.8.:.4 4 8 9 l Q Q ` ' J 9 9 o o e n n B B O.8.8.9.9.9.9.9.9.9.9.9.9.9.9.9.",
"9.9.9.9.9.9.9.9.9.9.9.9.6.8.:.4 4 4 4 z ' ' ' ' G 4 4     0 n n n n X.8.8.9.9.9.9.9.9.9.9.9.9.9.9.9.",
"9.9.9.9.9.9.9.9.9.9.9.9.5.8.:.4 4 4 4 z ' ' ! W M - -     0 n n k k ..8.8.9.9.9.9.9.9.9.9.9.9.9.9.9.",
"9.9.9.9.9.9.9.9.9.9.9.9.5.8.:.4 4 4 4 z ' ' B n p         0 n n 4 4 [ 8.8.9.9.9.9.9.9.9.9.9.9.9.9.9.",
"9.9.9.9.9.9.9.9.9.9.9.9.4.8.:.4 4 4 4 z ' ' B n p         0 n n 4 4 [ 8.8.9.9.9.9.9.9.9.9.9.9.9.9.9.",
"9.9.9.9.9.9.9.9.9.9.9.9.4.8.=.o o 3 4 z ' ' B n p         0 n n 4 4 [ 8.8.9.9.9.9.9.9.9.9.9.9.9.9.9.",
"9.9.9.9.9.9.9.9.9.9.9.9.4.8.*.    2 4 z ' ' B n p         0 n n 4 4 [ 8.8.9.9.9.9.9.9.9.9.9.9.9.9.9.",
"9.9.9.9.9.9.9.9.9.9.9.9.4.8.*.    2 4 d W W N n p         0 n n - - _ 8.8.9.9.9.9.9.9.9.9.9.9.9.9.9.",
"9.9.9.9.9.9.9.9.9.9.9.9.3.8.*.    2 4 r n n n n p         0 n n     ( 8.8.9.9.9.9.9.9.9.9.9.9.9.9.9.",
"9.9.9.9.9.9.9.9.9.9.9.9.3.8.*.    2 4 r n n n n p         0 n n     ( 8.8.9.9.9.9.9.9.9.9.9.9.9.9.9.",
"9.9.9.9.9.9.9.9.9.9.9.9.3.8.*.    2 4 z ' ' B n p     4 4 s n n     ( 8.8.9.9.9.9.9.9.9.9.9.9.9.9.9.",
"9.9.9.9.9.9.9.9.9.9.9.9.3.8.*.    2 4 z ' ' B n p     4 4 s n n     ( 8.8.9.9.9.9.9.9.9.9.9.9.9.9.9.",
"9.9.9.9.9.9.9.9.9.9.9.9.3.8.*.    2 4 z ' ' T Y v = = s s s s s ( (  .>.9.9.9.9.9.9.9.9.9.9.9.9.9.9.",
"9.9.9.9.9.9.9.9.9.9.9.9.2.8.*.    2 4 z ' ' ' ' G 4 4 n n s 4 4 8.8.9.9.9.9.9.9.9.9.9.9.9.9.9.9.9.9.",
"9.9.9.9.9.9.9.9.9.9.9.9.2.8.*.    2 4 z ' ' ' ' G 4 4 n n s 4 4 8.8.9.9.9.9.9.9.9.9.9.9.9.9.9.9.9.9.",
"9.9.9.9.9.9.9.9.9.9.9.9.2.8.*.    2 4 r n n ~ ' ' ' ' n n 0     8.8.9.9.9.9.9.9.9.9.9.9.9.9.9.9.9.9.",
"9.9.9.9.9.9.9.9.9.9.9.9.2.8.*.    2 4 r n n ~ ' ' ' ' n n 0     8.8.9.9.9.9.9.9.9.9.9.9.9.9.9.9.9.9.",
"9.9.9.9.9.9.9.9.9.9.9.9.2.8.*.    % = 6 n n ~ ' ' ' ' s s C ( / >.2.9.9.9.9.9.9.9.9.9.9.9.9.9.9.9.9.",
"9.9.9.9.9.9.9.9.9.9.9.9.1.8.*.        > n n ~ ' ' ' ' 4 4 [ 8.8.9.9.9.9.9.9.9.9.9.9.9.9.9.9.9.9.9.9.",
"9.9.9.9.9.9.9.9.9.9.9.9.1.8.*.        : c c W ~ ~ ~ ~ 2 2 ] 8.8.9.9.9.9.9.9.9.9.9.9.9.9.9.9.9.9.9.9.",
"9.9.9.9.9.9.9.9.9.9.9.9.1.8.*.        @ 4 4 c n n n n     ( 8.8.    * 4 4 9.9.9.9.9.9.9.9.9.9.9.9.9.",
"9.9.9.9.9.9.9.9.9.9.9.9.<.8.*.        @ 4 4 c n n n n     ( 8.8.    = 4 4 9.9.9.9.9.9.9.9.9.9.9.9.9.",
"9.9.9.9.9.9.9.9.9.9.9.9.j V A +.+.<   . @ @ w r q > > +.+.( V V     o @ $ 4 9.9.9.9.9.9.9.9.9.9.9.9.",
"9.9.9.9.9.9.9.9.9.9.4 4 @   y 8.8.y         2 4 -     8.8.(             o 4 4 9.9.9.9.9.9.9.9.9.9.9.",
"9.9.9.9.9.9.9.9.9.9.2 2 +   1 *.*.h y y y y g x f y y *.*.L             X 2 2 9.9.9.9.9.9.9.9.9.9.9.",
"9.9.9.9.9.9.9.9.9.9.              *.8.8.8.8.8.8.8.8.8.                        9.9.9.9.9.9.9.9.9.9.9.",
"9.9.9.9.9.9.9.9.9.9.              *.8.8.8.8.8.8.8.8.8.                        9.9.9.9.9.9.9.9.9.9.9.",
"9.9.9.9.9.9.9.9.9.9.- - O         h V V V V V V V V V                   . - - 9.9.9.9.9.9.9.9.9.9.9.",
"9.9.9.9.9.9.9.9.9.9.4 4 @                                               o 4 4 9.9.9.9.9.9.9.9.9.9.9.",
"9.9.9.9.9.9.9.9.9.9.4 4 & @ +                                       o @ $ 4 4 9.9.9.9.9.9.9.9.9.9.9.",
"9.9.9.9.9.9.9.9.9.9.9.9.4 4 2                                       = 4 4 9.9.9.9.9.9.9.9.9.9.9.9.9.",
"9.9.9.9.9.9.9.9.9.9.9.9.4 4 2                                       = 4 4 9.9.9.9.9.9.9.9.9.9.9.9.9.",
"9.9.9.9.9.9.9.9.9.9.9.9.9.9.9.9.9.9.9.9.9.9.9.9.9.9.9.9.9.9.9.9.9.9.9.9.9.9.9.9.9.9.9.9.9.9.9.9.9.9."
};
