/* XPM */
static char *result[] = {
/* columns rows colors chars-per-pixel */
"50 50 132 2 ",
"   c #3B4344",
".  c #3C4444",
"X  c #3D4545",
"o  c #414946",
"O  c #474F48",
"+  c #47504C",
"@  c #4B534A",
"#  c #4D554B",
"$  c #4B534C",
"%  c #535B4D",
"&  c #535B4E",
"*  c #575F4F",
"=  c #4E5654",
"-  c #535C53",
";  c #525A54",
":  c #59614F",
">  c #5A624F",
",  c #586050",
"<  c #5F6751",
"1  c #586057",
"2  c #5A6259",
"3  c #5B625C",
"4  c #606852",
"5  c #636B55",
"6  c #656E56",
"7  c #60685A",
"8  c #626A5B",
"9  c #656E58",
"0  c #666E5B",
"q  c #666F5E",
"w  c #6B745C",
"e  c #6C745F",
"r  c #6F785F",
"t  c #5C6263",
"y  c #6C7562",
"u  c #707767",
"i  c #727B61",
"p  c #727A64",
"a  c #767F67",
"s  c #717778",
"d  c #737979",
"f  c #788166",
"g  c #78826A",
"h  c #79806C",
"j  c #7A806E",
"k  c #7E886C",
"l  c #7D8672",
"z  c #7B8175",
"x  c #808972",
"c  c #848E71",
"v  c #868D7A",
"b  c #858B7F",
"n  c #869074",
"m  c #899276",
"M  c #8B9479",
"N  c #8D967C",
"B  c #7C8282",
"V  c #808684",
"C  c #848A85",
"Z  c #8C9288",
"A  c #919980",
"S  c #929A81",
"D  c #939A87",
"F  c #969E87",
"G  c #949B89",
"H  c #94998A",
"J  c #949A8B",
"K  c #959B8C",
"L  c #969B97",
"P  c #99A18A",
"I  c #99A08C",
"U  c #9BA28E",
"Y  c #9CA48E",
"T  c #9FA792",
"R  c #9FA396",
"E  c #A0A695",
"W  c #A0A597",
"Q  c #A2A994",
"!  c #A2A996",
"~  c #A3AA96",
"^  c #A3AA97",
"/  c #A4AB97",
"(  c #A2A79D",
")  c #A6AD9A",
"_  c #A7AD9B",
"`  c #A7AE9B",
"'  c #A8AF9D",
"]  c #AAB09E",
"[  c #ABB19F",
"{  c #9CA0A1",
"}  c #9DA1A2",
"|  c #ACB2A1",
" . c #ADB3A2",
".. c #AFB3A8",
"X. c #ACB0AE",
"o. c #AFB3B2",
"O. c #C0C5B7",
"+. c #C1C6B8",
"@. c #C2C7B8",
"#. c #BEC0C1",
"$. c #C5C8C0",
"%. c #CACCC5",
"&. c #CBCEC5",
"*. c #CACDC9",
"=. c #CDD0C8",
"-. c #CFD2CC",
";. c #D5D7CF",
":. c #D4D6D2",
">. c #E1E4DD",
",. c #DEE0E0",
"<. c #E0E2E1",
"1. c #E4E6E2",
"2. c #E6E7E3",
"3. c #E8EAE4",
"4. c #ECEEE9",
"5. c #F1F3EF",
"6. c #F2F3F0",
"7. c #F5F6F4",
"8. c #F6F7F4",
"9. c #F6F7F5",
"0. c #F7F7F5",
"q. c #F8F8F6",
"w. c #F9F9F8",
"e. c #FAFAF9",
"r. c #FBFBFA",
"t. c #FBFCFB",
"y. c gray99",
"u. c #FCFDFC",
"i. c #FDFDFD",
"p. c #FDFEFD",
"a. c white",
"s. c None",
/* pixels */
"s.s.s.s.s.s.s.s.s.s.s.s.s.s.s.s.s.s.a.a.a.a.a.a.a.a.a.a.a.a.a.a.s.s.s.s.s.s.s.s.s.s.s.s.s.s.s.s.s.s.",
"s.s.s.s.s.s.s.s.s.s.s.s.s.s.s.s.s.s.a.a.a.a.a.a.a.a.a.a.a.a.a.a.s.s.s.s.s.s.s.s.s.s.s.s.s.s.s.s.s.s.",
"s.s.s.s.s.s.s.s.s.s.s.s.s.a.a.a.a.&.....@.@.@.@.@.@.@.@.@.@.....=.i.s.s.s.s.s.s.s.s.s.s.s.s.s.s.s.s.",
"s.s.s.s.s.s.s.s.s.s.s.s.s.a.a.a.a.%.< < c c c c c c c c c c < < %.a.a.a.a.s.s.s.s.s.s.s.s.s.s.s.s.s.",
"s.s.s.s.s.s.s.s.s.s.s.s.s.a.a.a.a.%.< < c c c c c c c c c c < < %.a.a.a.a.s.s.s.s.s.s.s.s.s.s.s.s.s.",
"s.s.s.s.s.s.s.s.s.s.a.a.%.< < k c f < < < < < < < < < < < < < < f c k < < $.a.p.s.s.s.s.s.s.s.s.s.s.",
"s.s.s.s.s.s.s.s.s.s.a.a.%.< < k c f < < < < < < < < < < < < < < f c k < < %.a.9.s.s.s.s.s.s.s.s.s.s.",
"s.s.s.s.s.s.s.s.a.6.R J z O O 9 w r f f D D D D D D D D D D f f r w 9 O O z J W 8.s.s.s.s.s.s.s.s.s.",
"s.s.s.s.s.s.s.s.a.a.j < %     : < w c c  . . . . . . . . . .c c w < :     % < j a.a.s.s.s.s.s.s.s.s.",
"s.s.s.s.s.s.s.+.1.1.u : & + + 0 e a M M  . .] ) ) ) ) ) ) ) M M a e 0 + + & : u 1.1.O.s.s.s.s.s.s.s.",
"s.s.s.s.s.a.a.1.< < o   - c c )  . . . . . .P c c c c c c c  . . . .) c c -   o < < 1.a.q.s.s.s.s.s.",
"s.s.s.s.s.a.a.1.< < o   - c c )  . . . . . .P c c c c c c c  . . . .) c c -   o < < 1.a.5.s.s.s.s.s.",
"s.s.s.s.s.a.a.<.O O q y l T T [  . . . .S S M c c c c S T T  . . . .[ T T l y q O O <.a.4.s.s.s.s.s.",
"s.s.s.s.s.a.a.,.    g c S  . . . . . . .c c c c c c c P  . . . . . . . . .S c g     ,.a.3.s.s.s.s.s.",
"s.s.s.s.s.2.1.*.+ + x M F  . . . . . . .M M M M M M M Y  . . . . . . . . .F M x + + *.1.;.s.s.s.s.s.",
"s.s.s.a.a.J < 6 c c )  . . . . . . . . . . . . . . . . . . . . . . . . . . . .) c c 6 < J a.a.s.s.s.",
"s.s.s.a.a.J < 6 c c )  . . . . . . . . . . . . . . . . . . . . . . . . . . . .) c c 6 < J a.a.s.s.s.",
"s.s.s.a.a.V o ; ) ) |  . . . . . .Q M M e e e e e e e e e e M M Q  . . . . . .| ) ) ; o V a.a.s.s.s.",
"s.s.s.a.a.B   =  . . . . . . . . .T c c < < < < < < < < < < c c T  . . . . . . . . .=   B a.a.s.s.s.",
"s.s.s.a.a.C O 1  . . . .' T T [  .U f f % % % % % % % % % % f f U  . . . ./ T Q  . .1 O C a.a.s.s.s.",
"s.s.s.a.a.J < e  . . . .T c c )  .D < <                     < < D  . . . .S c M  . .e < J a.a.s.s.s.",
"s.s.s.a.a.J < e  . . . .T c c )  .D < <                     < < D  . . . .S c M  . .e < J a.a.s.s.s.",
"s.s.s.a.a.J < e  . .A M m c c )  .D < <                     < < D  .` M M n c M  . .e < J a.a.s.s.s.",
"s.s.s.a.a.J < e  . .M c c c c )  .D < <                     < < D  .) c c c c M  . .e < J a.a.s.s.s.",
"s.s.s.a.a.Z % 8  . .F S N c c )  .D < <                     < < D  .' S S m c M  . .8 % Z a.a.s.s.s.",
"s.s.s.a.a.B   =  . . . .T c c )  .D < <                     < < D  . . . .S c M  . .=   B a.a.s.s.s.",
"s.s.s.a.a.B   =  . . . .T c c )  .D < <                     < < D  . . . .S c M  . .=   B a.a.s.s.s.",
"s.s.s.a.a.B   + c c )  . . . . . .D < <                     < < D  . . . . . .) c c +   B a.a.s.s.s.",
"s.s.s.a.a.B   + c c )  . . . . . .D < <                     < < D  . . . . . .) c c +   B a.a.s.s.s.",
"s.s.s.s.s.o.} L i i ^  . . . . . .I i i # # # # # # # # # # i i I  . . . . . .^ i i L } X.>.6.s.s.s.",
"s.s.s.s.s.0.a.1.< < E  . . . . . .T c c < < < < < < < < < < c c T  . . . . . .E < < 1.a.w.s.s.s.s.s.",
"s.s.s.s.s.w.a.1.< < E  . . . . . .T c c < < < < < < < < < < c c T  . . . . . .E < < 1.a.e.s.s.s.s.s.",
"s.s.s.s.s.r.a.,.    : < h  . . . . . . . . . . . .c c P  . . . . . . . . .h < :     ,.a.r.s.s.s.s.s.",
"s.s.s.s.s.i.a.,.    : < h  . . . . . . . . . . . .c c P  . . . . . . . . .h < :     ,.a.y.s.s.s.s.s.",
"s.s.s.s.s.s.7.:.} } 2 # 7 v v _  . . . . . .~ P P c c P  . . . . . ._ v v 7 # 2 } { -.0.s.s.s.s.s.s.",
"s.s.s.s.s.s.s.s.a.a.t   O < < E  . . . . . .P c c c c P  . . . . . .E < < O   t a.a.s.s.s.s.s.s.s.s.",
"s.s.s.s.s.s.s.s.a.t.d t 3 : : G E ! ) )  . .P c c M M Y  . .) ) ! E G : : 3 t d u.a.s.s.s.s.s.s.s.s.",
"s.s.s.s.s.s.s.s.s.s.0.a.#.    : < w c c  . .P c c  . . . . .c c w < :     #.a.i.s.s.s.s.s.s.s.s.s.s.",
"s.s.s.s.s.s.s.s.s.s.w.a.#.    : < w c c  . .P c c  . . . . .c c w < :     #.a.a.s.s.s.s.s.s.s.s.s.s.",
"s.s.s.s.s.s.s.s.s.s.H J ( #.#.3 O $ - - h h p w w h h h h h - - $ O 3 #.#.( J K s.s.s.s.s.s.s.s.s.s.",
"s.s.s.s.s.s.s.s.s.s.4 < J a.a.t         < < < < < < < < < <         t a.a.J < < s.s.s.s.s.s.s.s.s.s.",
"s.s.s.s.s.s.s.s.s.s.> : b ,.,.s t t t t j j j j j j j j j j t t t t s ,.,.b : : s.s.s.s.s.s.s.s.s.s.",
"s.s.s.s.s.s.s.s.s.s..         ,.a.a.a.a.a.a.a.a.a.a.a.a.a.a.a.a.a.a.,.          s.s.s.s.s.s.s.s.s.s.",
"s.s.s.s.s.s.s.s.s.s.          ,.a.a.a.a.a.a.a.a.a.a.a.a.a.a.a.a.a.a.,.          s.s.s.s.s.s.s.s.s.s.",
"s.s.s.s.s.s.s.s.s.s.% % @     s B B B B B B B B B B B B B B B B B B s     @ % % s.s.s.s.s.s.s.s.s.s.",
"s.s.s.s.s.s.s.s.s.s.< < %                                                 % < < s.s.s.s.s.s.s.s.s.s.",
"s.s.s.s.s.s.s.s.s.s.s.< * O O X                                     X O O , 5 s.s.s.s.s.s.s.s.s.s.s.",
"s.s.s.s.s.s.s.s.s.s.s.s.s.< < o                                     o < < s.s.s.s.s.s.s.s.s.s.s.s.s.",
"s.s.s.s.s.s.s.s.s.s.s.s.s.< < o                                     o < < s.s.s.s.s.s.s.s.s.s.s.s.s.",
"s.s.s.s.s.s.s.s.s.s.s.s.s.s.s.s.s.s.s.s.s.s.s.s.s.s.s.s.s.s.s.s.s.s.s.s.s.s.s.s.s.s.s.s.s.s.s.s.s.s."
};
