/* XPM */
static char *_9320fa208ae4b14c28279a861f8fa650BvZREAco4wlvy5X[] = {
/* columns rows colors chars-per-pixel */
"50 50 177 2 ",
"   c #1E0F15",
".  c #181015",
"X  c #14141D",
"o  c #1D141D",
"O  c #1F1A1D",
"+  c #22151C",
"@  c #251D1D",
"#  c #2D1B1A",
"$  c #3E1B16",
"%  c #341C1C",
"&  c #391A1B",
"*  c #2E2119",
"=  c #35221C",
"-  c #3E211D",
";  c #0F1622",
":  c #111521",
">  c #1B1621",
",  c #1F1A23",
"<  c #251920",
"1  c #2F1B20",
"2  c #272025",
"3  c #3F2E26",
"4  c #4F2416",
"5  c #43221A",
"6  c #4F231B",
"7  c #442A1C",
"8  c #492A1B",
"9  c #522317",
"0  c #562619",
"q  c #5C331D",
"w  c #622716",
"e  c #632D16",
"r  c #642718",
"t  c #603315",
"y  c #6D3013",
"u  c #693B1B",
"i  c #7C3417",
"p  c #783218",
"a  c #703918",
"s  c #493221",
"d  c #6F431D",
"f  c #69491D",
"g  c #71431F",
"h  c #7D5416",
"j  c #74511D",
"k  c #574023",
"l  c #694820",
"z  c #863717",
"x  c #833815",
"c  c #9A3D14",
"v  c #8D4317",
"b  c #834B1E",
"n  c #8C4F1F",
"m  c #855918",
"M  c #895918",
"N  c #9F5918",
"B  c #BB4B0E",
"V  c #A54714",
"C  c #A94913",
"Z  c #B54C13",
"A  c #AD5411",
"S  c #A65C13",
"D  c #A15D1A",
"F  c #BD5115",
"G  c #BB5E16",
"H  c #95601A",
"J  c #A36B1B",
"K  c #AB6E19",
"L  c #A17A1C",
"P  c #AC791F",
"I  c #B47D1E",
"U  c #CF4703",
"Y  c #CE4803",
"T  c #D54B05",
"R  c #D94E06",
"E  c #D44B08",
"W  c #DA4E09",
"Q  c #CB560F",
"!  c #D55206",
"~  c #DB5406",
"^  c #DD5A06",
"/  c #D4560C",
"(  c #DB5408",
")  c #D55C0D",
"_  c #DD5B0A",
"`  c #C44E11",
"'  c #CF5811",
"]  c #E15606",
"[  c #E25B05",
"{  c #E95E06",
"}  c #E35709",
"|  c #E25908",
" . c #DD6407",
".. c #DC630A",
"X. c #DC6D09",
"o. c #CD6114",
"O. c #C66D15",
"+. c #C86E15",
"@. c #C37A12",
"#. c #CB7D18",
"$. c #DA7410",
"%. c #D97B12",
"&. c #DD7C19",
"*. c #E36306",
"=. c #EB6506",
"-. c #E56806",
";. c #EA6B06",
":. c #E36309",
">. c #EA6508",
",. c #E56C0B",
"<. c #EB6C0A",
"1. c #F06703",
"2. c #F36D06",
"3. c #E57407",
"4. c #E87306",
"5. c #E47B06",
"6. c #EB7E07",
"7. c #E67009",
"8. c #EC7508",
"9. c #E67B0B",
"0. c #EC7C0A",
"q. c #F67306",
"w. c #F97406",
"e. c #F67B06",
"r. c #F87D06",
"t. c #F47309",
"y. c #F57B0A",
"u. c #E56610",
"i. c #EB7511",
"p. c #E57910",
"a. c #EA7D15",
"s. c #C5861C",
"d. c #D88212",
"f. c #DA8C12",
"g. c #D6871B",
"h. c #E48204",
"j. c #E6800C",
"k. c #EE8209",
"l. c #EF8B0B",
"z. c #F68305",
"x. c #F98504",
"c. c #F68B05",
"v. c #F98C05",
"b. c #F38509",
"n. c #FB8509",
"m. c #F38C0A",
"M. c #FB8A09",
"N. c #ED930E",
"B. c #F69306",
"V. c #FA9405",
"C. c #F69D05",
"Z. c #FB9C05",
"A. c #F39409",
"S. c #F89409",
"D. c #F59B0B",
"F. c #FA9C0A",
"G. c #EB8413",
"H. c #ED8B10",
"J. c #E1851B",
"K. c #F08814",
"L. c #F49C12",
"P. c #F6A006",
"I. c #FCA404",
"U. c #F7AF06",
"Y. c #FDAB04",
"T. c #F4A30B",
"R. c #FCA40A",
"E. c #F7AD08",
"W. c #FDAC0B",
"Q. c #FEB404",
"!. c #FEBA03",
"~. c #FDB30A",
"^. c #FEBA09",
"/. c #EEA21B",
"(. c #FBC107",
"). c #FDC60C",
"_. c #FCD20B",
/* pixels */
": : : : : : : : : : : : : : : : : : : : : : : : : : : : : X : : : : : : : : : : : : : : : : : : : : ",
": : : : : : : : : : : : : : : : : : : : : : : : : : : : : : : : : : : : : : : : : : ; X : ; : : : : ",
": : : : ; : : X : : : : : : : : : : : : : : : : : : : : : : : : : : : : : : : : : : ; : X ; : : : : ",
": : : : : : : ; : : : : : : : : : : : : : : : : : : : : : : : : : : : : : : : : : : : : ; : : : : : ",
": : : : : : : : : : : : : : : : : : : : : : : : : : : : : : ; : : : : : : : : : : : : : : : : : ; X ",
": : : : : : : : : : : : : : : : : : : : : : : : : : : : : : : : : : : : : : : : : : : : : : ; ; ; : ",
": : : ; : ; : : : : : : : : : : : : : : : : : : : : : : : : : : : : : : : : : : : : : ; : : : X : : ",
"X : : : : X : : : : : : : : : : ; : : : : : : : 2 q j h m h f 3 , : : : : : : : : : X ; : : : : : : ",
"; : : : : : : : : : : : : : : : : : > : > s D d.T.R.Z.Z.Z.V.Z.Z.A.K s : : > : : : : : : : : : : : : ",
": : : : : : : : : : : ; : : : : : ; : 7 N $.S.F.I.I.Z.Z.Z.Z.V.V.Z.I.f.j < ; : : : : : : : : : : : : ",
": : ; : X ; : ; : : : X : : : : ; 1 n 0.x.S.I.I.Z.Z.Z.Z.V.V.Z.Z.Z.Z.I.T.I > ; : : : : : : : : : : : ",
": : : : : : : : : : : ; : : : : 7 O.b.c.V.I.I.C.V.k.0.4.e.x.V.Z.Z.I.Z.I.~.L X : : : : : : : : : : : ",
": X : : : : : : : ; : : : : : q G.x.x.F.R.C.0._ T E E T T T T 0.B.I.I.!.!.^.M o : : : : : : : : : : ",
": ; ; : : : : : : : : : ; > u 9.z.M.F.C.0._ ~ ~ R R R T T T T E ..A.Q.!.!.!.T.v < : : : : : : : X : ",
": : : : X : : : : : : : : t a.z.v.I.T. .~ ~ ^ ( R ! ( ~ T T T T ~  .~.!.!.Q.~.9.z : : : : : : : ; : ",
": : : : ; : : : : : : : 8 a.z.S.I.N._ ~ | ^ R [ 8.v.V.M.,.T T ( _ _ 9.Q.!.!.~.L.( 0 : : : : : : ; ; ",
": : : : : : : : : : > o O.n.C.R.D.) ( [ ] ~ [ e.v.v.v.V.v.*._ _ ^ ( ^ ~.Q.!.Q.W.*.` % : : : : : : : ",
": : : : : : : : : : : b m.C.I.D...( [ ^ ] ~ e.v.v.v.v.V.Z.4._ [ ^ ^ ! A.!.Q.Q.~.-.| r : : : : : : : ",
": : : : : : : : : : % %.F.I.C.j.R ] [ ~ ~ ] x.v.v.V.V.Z.W.3._ ^ ( ( ( h.Q.Q.Q.Q.-.{ V . : : : : : : ",
": : : : : : : : : : J R.C.C.L.! ^ ] ] ^ { ;.v.v.v.V.I.Y.N.*.[ ^ ( ( ! 5.Q.Q.Q.~.;.{ ` & : : : : ; : ",
": : : : : : : : : = /.Z.Z.D.X.R ] ] { y.x.x.v.v.B.Y.Y.U.Y.R.5.( ~ ~ T 5.Q.Q.Q.R.;.=./ 9 ; : : : : ; ",
": : : : : : : : : l C.C.Z.A./ R ] >.r.x.x.v.v.Z.Y.Y.Y.Y.Y.Y.Y. .~ ~ R A.Q.Q.Y.Z.2.=._ e : : : : : X ",
": : ; : ; : : : ; N Z.Z.V.G.U ] ] q.z.x.v.x.C.R.Y.E.Y.Y.Y.Y.Y.,.~ ! ! R.Y.Y.Q.V.q.;._ r : : : : : : ",
": : : : : : : : : @.V.V.x.i.U } [ x.x.x.v.I.Y.Y.Y.I.Y.Y.Y.Y.Y.*.~ T ,.Y.Y.Q.Y.e.2.2.) 9 : : : : : : ",
": : : : : : : : . g.V.x.x.,.U } [ r.v.v.C.Y.Y.I.I.Y.Y.Y.I.Y.D.! ~ T l.Y.Q.Y.R.e.w.2.Q $ : : : : : : ",
": : : : ; : : :   J.x.x.c.,.T [ [ q.V.I.Y.Y.I.Y.I.I.I.I.I.B. .R T -.Y.U.Q.Y.c.w.w.2.V + : : : : : : ",
": : : : : : : :   &.x.x.x.8.U [ [ ;.m.D.A.m.I.R.C.B.I.I.b. .~ R ~ D.Y.Q.Y.Y.e.q.w.t.z > : : : : : : ",
": : : : : : : : X +.x.x.v.b.T | ;.;.-.=.4.F.I.I.B.^ ^ ^ ( R R ~ l.Y.Q.Y.Q.c.q.q.q.u.5 : ; : : : : : ",
": : : : : : : : > S x.x.x.M. .*.;.;.-.>.b.I.I.I.c.] ^ ^ ~ R ( l.I.Q.Y.!.E.x.w.y.w.Z < : : : : : : : ",
": : : : : : : : : g b.x.v.V.F. .;.;.>.-.;.4.4.4.<.] ~ ~ R ^ A.Y.U.Q.!.).C.x.r.e.<.9 : : : : : : : : ",
": : : : : : : : : * G.c.F.Y.U.A.-.>.=.-.:.:.[ [ ^ ^ ( R 4.C.Y.Y.Q.!._.U.B.c.z.r.V > : : : : : : ; X ",
": : : : : : : : ; : d L.Y.I.I.Y.R.k.,.*.:.{ [ ] ^ *.6.Z.Y.Y.Y.Y.!._.Q.P.C.c.b.' # : : : : : : : : ; ",
": : : : : : : : : ; @ P W.I.I.I.I.I.V.c.k.0.e.6.c.Z.I.I.Y.Y.Y.!.(.E.C.I.C.A.$.e : : : : : : : : : : ",
": : : : : : X ; ; X : @ s.I.I.I.I.I.I.Y.I.I.I.I.I.I.I.Y.Y.Y.Q.U.C.B.B.D.C.H.t > : : : : : : : : : : ",
": : : : : : : : : : : : = #.I.I.I.I.I.I.I.Z.I.I.I.I.Y.Y.Y.F.c.c.c.c.B.B.l.a : : : : : : : : : : : : ",
": : : : : : : : : ; : : : # G A.C.I.I.Z.Z.I.I.I.Y.I.Z.V.e.e.z.z.c.m.c.$.r : : : : : : : : : : : ; X ",
": : : : : : : : : : : : ; : % F >.0.b.x.v.v.m.M.x.r.e.q.e.e.e.z.x.0.A 5 > ; : : X : : : : : : : : : ",
": : : : : : ; : : : : : : ; : % ` { { =.1.1.2.t.q.w.q.q.q.y.e.r...y > : : : : : : : : : : : : : : : ",
": : : : : : : ; : : : : : : X : + z / =.;.;.2.2.2.w.q.w.w.2.' p 1 : > : ; : : : ; : : : : : : : ; : ",
": : ; : : : : X : : : : : ; : ; : : < p B / { >.;.=.:.Q c 9 : : : : ; : : : : : : : : : : : : : : : ",
": : : ; X : : : : : : : : : : : : : : : o 1 & 7 5 3 % < X : : : : : : : : : : : : : : : : : X ; : : ",
": : : : ; : : : : : : : : : : : : : : : : : : : : : : : : : : : : : : ; : : : : : : : : : : : ; : : ",
"X ; : : : : : : : : : : : : : : : : : ; : : : : : : : : : : : : : : : : : : : : : : : : : : : : : : ",
": : : : : : ; : : : : : : : : : : : : : : ; : : : : : ; : : : : : : : ; X : : : : : : : : : : : : : ",
": : : : : : : : : : : : : : : : ; : : : : : : : : : : : : : : ; : : : : : : X ; X : : : : : : : ; : ",
": : : : : ; : : : : : : : : : : X ; : : : : : : : : : : : : ; X X ; : : : : ; : ; : : : : : X : X : ",
": : : : : X : : ; : : : : : : : : : : : : : : : : : : : : : : : : : ; : : : : : ; : : : : : ; ; : : ",
"X : : ; : : : : : : : : : : : : : : : : : : : : ; : : : : : : : : : : : : : : : : : : : : : : : : : ",
"; : : : : : : : X ; : : : : : : : : : : : : : : : : : : ; X : : : : : : : : : ; : : : X ; : : : : : ",
": : : : : : ; : : : : : : : : : ; : ; X : : : : : : : : : ; : : : : ; X : : : : : : : : : : : : : ; "
};
