/* XPM */
static char *result[] = {
/* columns rows colors chars-per-pixel */
"50 50 118 2 ",
"   c #3B4344",
".  c #3E4645",
"X  c #404846",
"o  c #414946",
"O  c #404849",
"+  c #454D48",
"@  c #474F48",
"#  c #47504C",
"$  c #4D554A",
"%  c #4D554B",
"&  c #4F574B",
"*  c #50584C",
"=  c #535B4D",
"-  c #515A4F",
";  c #555D4D",
":  c #4E5654",
">  c #535C53",
",  c #515859",
"<  c #565D5E",
"1  c #59614F",
"2  c #5B6453",
"3  c #5F6751",
"4  c #5B6454",
"5  c #5F6754",
"6  c #636B55",
"7  c #656E56",
"8  c #666F58",
"9  c #61685F",
"0  c #676F5D",
"q  c #677058",
"w  c #67705A",
"e  c #69725A",
"r  c #6B745C",
"t  c #6B745E",
"y  c #6D765D",
"u  c #6C745F",
"i  c #5C6263",
"p  c #616863",
"a  c #616965",
"s  c #6A7362",
"d  c #6C7560",
"f  c #6C7562",
"g  c #6E7767",
"h  c #727A62",
"j  c #767F66",
"k  c #787F6C",
"l  c #717778",
"z  c #757B7B",
"x  c #788166",
"c  c #79816A",
"v  c #78826A",
"b  c #79836A",
"n  c #7B856B",
"m  c #7C866B",
"M  c #79806C",
"N  c #79816E",
"B  c #7A806E",
"V  c #7B836F",
"C  c #7E876E",
"Z  c #7E886C",
"A  c #818970",
"S  c #818971",
"D  c #848E71",
"F  c #858E73",
"G  c #828975",
"H  c #858D77",
"J  c #8B9479",
"K  c #8D967C",
"L  c #7B8081",
"P  c #7C8282",
"I  c #848A85",
"U  c #888E87",
"Y  c #878C8D",
"T  c #8E9680",
"R  c #8B9286",
"E  c #909685",
"W  c #919980",
"Q  c #929A81",
"!  c #939A87",
"~  c #959D85",
"^  c #969E87",
"/  c #949A8B",
"(  c #979E8C",
")  c #989D8F",
"_  c #989E8F",
"`  c #8C9091",
"'  c #929797",
"]  c #99A18A",
"[  c #9BA38C",
"{  c #9AA092",
"}  c #9DA590",
"|  c #9FA792",
" . c #A4AB97",
".. c #A0A798",
"X. c #A6AD9A",
"o. c #A7AE9B",
"O. c #A8AF9D",
"+. c #ABB19F",
"@. c #ABAFA4",
"#. c #A8ABAC",
"$. c #ADB3A2",
"%. c #ADB4A0",
"&. c #B3B6B6",
"*. c #BEC0C1",
"=. c #C9CBCB",
"-. c #D2D4D4",
";. c #DEE0E0",
":. c #DFE0E0",
">. c #DFE1E0",
",. c #E0E2E1",
"<. c #E4E6E2",
"1. c #E5E6E2",
"2. c #E6E8E4",
"3. c #E8EAE6",
"4. c #E9EBE6",
"5. c #EBECE7",
"6. c white",
"7. c None",
/* pixels */
"7.7.7.7.7.7.7.7.7.7.7.7.7.7.7.7.7.7.7.7.7.7.7.7.7.7.7.7.7.7.7.7.7.7.7.7.7.7.7.7.7.7.7.7.7.7.7.7.7.7.",
"7.7.7.7.7.7.7.7.7.7.7.7.7.7.7.7.6.6.6.6.6.6.6.6.6.6.7.7.7.7.7.7.7.7.7.7.7.7.7.7.7.7.7.7.7.7.7.7.7.7.",
"7.7.7.7.7.7.7.7.7.7.7.7.7.7.7.7.:.;.>.<.<.3.5.4.<.<.7.7.7.7.7.7.7.7.7.7.7.7.7.7.7.7.7.7.7.7.7.7.7.7.",
"7.7.7.7.7.7.7.7.7.7.7.7.7.7.6.6.z   o 3 3 x D Z 3 3 <.6.6.7.7.7.7.7.7.7.7.7.7.7.7.7.7.7.7.7.7.7.7.7.",
"7.7.7.7.7.7.7.7.7.7.7.7.7.7.6.6.P   o 3 3 x D Z 3 3 <.6.6.7.7.7.7.7.7.7.7.7.7.7.7.7.7.7.7.7.7.7.7.7.",
"7.7.7.7.7.7.7.7.7.7.7.7.6.6.L P 9 = ; 3 3 q r y x x E / @.6.6.7.7.7.7.7.7.7.7.7.7.7.7.7.7.7.7.7.7.7.",
"7.7.7.7.7.7.7.7.7.7.7.7.6.6.    = 3 3 3 3 3 3 7 D D 7 3 / 6.6.7.7.7.7.7.7.7.7.7.7.7.7.7.7.7.7.7.7.7.",
"7.7.7.7.7.7.7.7.7.7.7.7.6.6.# # 2 7 8 u u 5 1 5 Z Z e 7 _ 6.6.7.7.7.7.7.7.7.7.7.7.7.7.7.7.7.7.7.7.7.",
"7.7.7.7.7.7.7.7.7.7.7.7.6.6.D D D D J $.$.p   o 3 3 Z D %.6.6.7.7.7.7.7.7.7.7.7.7.7.7.7.7.7.7.7.7.7.",
"7.7.7.7.7.7.7.7.7.7.7.7.6.6.D D D D J $.$.p   o 3 3 Z D %.6.6.7.7.7.7.7.7.7.7.7.7.7.7.7.7.7.7.7.7.7.",
"7.7.7.7.7.7.7.7.7.7.7.7.6.6.D D [ X.o.$.$...{ R o o b D A B k 1.6.7.7.7.7.7.7.7.7.7.7.7.7.7.7.7.7.7.",
"7.7.7.7.7.7.7.7.7.7.7.7.6.6.D D | $.$.$.$.$.$.{     v D x 3 3 <.6.6.7.7.7.7.7.7.7.7.7.7.7.7.7.7.7.7.",
"7.7.7.7.7.7.7.7.7.7.7.7.6.6.Q Q  .$.+.| | O.$...p p s f d r r 2.6.7.7.7.7.7.7.7.7.7.7.7.7.7.7.7.7.7.",
"7.7.7.7.7.7.7.7.7.7.7.7.6.6.$.$.$.$.X.D D | $.$.$.$.:   > D D 5.6.7.7.7.7.7.7.7.7.7.7.7.7.7.7.7.7.7.",
"7.7.7.7.7.7.7.7.7.7.7.7.6.6.$.$.$.$.X.D D | $.$.$.$.:   > D D 5.6.7.7.7.7.7.7.7.7.7.7.7.7.7.7.7.7.7.",
"7.7.7.7.7.7.7.7.7.7.7.7.6.6.$.$.^ J F 7 7 C J W $.$.0 1 w D D V B ) 6.6.7.7.7.7.7.7.7.7.7.7.7.7.7.7.",
"7.7.7.7.7.7.7.7.7.7.7.7.6.6.$.$.Q D Z 3 3 x D J $.$.u 3 r D D 7 3 / 6.6.7.7.7.7.7.7.7.7.7.7.7.7.7.7.",
"7.7.7.7.7.7.7.7.7.7.7.7.6.6.| | K D m = = t x A $.$.G M c x x 6 3 / 6.6.7.7.7.7.7.7.7.7.7.7.7.7.7.7.",
"7.7.7.7.7.7.7.7.7.7.7.7.6.6.D D D D v     = 3 u $.$.$.$.! 3 3 3 3 / 6.6.7.7.7.7.7.7.7.7.7.7.7.7.7.7.",
"7.7.7.7.7.7.7.7.7.7.7.7.6.6.D D D D v     = 3 u $.$.$.$.! 3 3 3 3 / 6.6.7.7.7.7.7.7.7.7.7.7.7.7.7.7.",
"7.7.7.7.7.7.7.7.7.7.7.7.6.6.3 3 x D v         # D D X.$.! 3 3 3 3 / 6.6.7.7.7.7.7.7.7.7.7.7.7.7.7.7.",
"7.7.7.7.7.7.7.7.7.7.7.7.6.6.3 3 x D v         # D D X.$.! 3 3 3 3 / 6.6.7.7.7.7.7.7.7.7.7.7.7.7.7.7.",
"7.7.7.7.7.7.7.7.7.7.7.7.6.6.3 3 x D v         # D D X.$.! 3 3 * % U 6.6.7.7.7.7.7.7.7.7.7.7.7.7.7.7.",
"7.7.7.7.7.7.7.7.7.7.7.7.6.6.3 3 x D v         # D D X.$.! 3 3 o   P 6.6.7.7.7.7.7.7.7.7.7.7.7.7.7.7.",
"7.7.7.7.7.7.7.7.7.7.7.7.6.6.3 3 x D v         # D D X.$.! 3 3 o   P 6.6.7.7.7.7.7.7.7.7.7.7.7.7.7.7.",
"7.7.7.7.7.7.7.7.7.7.7.7.6.6.    f D v         # D D D D x 3 3 o   P 6.6.7.7.7.7.7.7.7.7.7.7.7.7.7.7.",
"7.7.7.7.7.7.7.7.7.7.7.7.6.6.    f D v         # D D D D x 3 3 o   P 6.6.7.7.7.7.7.7.7.7.7.7.7.7.7.7.",
"7.7.7.7.7.7.7.7.7.7.7.7.6.6.    f D n % % o   # D D ~ ] H 3 3 o   P 6.6.7.7.7.7.7.7.7.7.7.7.7.7.7.7.",
"7.7.7.7.7.7.7.7.7.7.7.7.6.6.    f D Z 3 3 @   # D D X.$.! 3 3 o   P 6.6.7.7.7.7.7.7.7.7.7.7.7.7.7.7.",
"7.7.7.7.7.7.7.7.7.7.7.7.6.6.    f D Z 3 3 @   # D D X.$.! 3 3 o   P 6.6.7.7.7.7.7.7.7.7.7.7.7.7.7.7.",
"7.7.7.7.7.7.7.7.7.7.7.7.7.7.6.6./ 3 7 D D r 3 u $.$.$.$.! 3 3 o   P 6.6.7.7.7.7.7.7.7.7.7.7.7.7.7.7.",
"7.7.7.7.7.7.7.7.7.7.7.7.7.7.6.6./ 3 7 D D r 3 u $.$.$.$.! 3 3 o   P 6.6.7.7.7.7.7.7.7.7.7.7.7.7.7.7.",
"7.7.7.7.7.7.7.7.7.7.7.7.7.7.6.6.I @ - D D T ! ( $.$.^ Q S 3 3 o   P 6.6.7.7.7.7.7.7.7.7.7.7.7.7.7.7.",
"7.7.7.7.7.7.7.7.7.7.7.7.7.7.6.6.P   # D D | $.$.$.$.J D x 3 3 o   P 6.6.7.7.7.7.7.7.7.7.7.7.7.7.7.7.",
"7.7.7.7.7.7.7.7.7.7.7.7.7.7.6.6.` i a Z Z } $.$.$.$.J D j 1 1 X   P 6.6.7.7.7.7.7.7.7.7.7.7.7.7.7.7.",
"7.7.7.7.7.7.7.7.7.7.7.7.7.7.7.7.6.6.<.3 3 ! $.$.$.$.J D f         P 6.6.7.7.7.7.7.7.7.7.7.7.7.7.7.7.",
"7.7.7.7.7.7.7.7.7.7.7.7.7.7.7.7.6.6.<.3 3 ! $.$.$.$.J D f         P 6.6.7.7.7.7.7.7.7.7.7.7.7.7.7.7.",
"7.7.7.7.7.7.7.7.7.7.7.7.3 3     -.6.,.@ @ N Q Q Q Q h r 4         P 6.6.7.7.7.7.7.7.7.7.7.7.7.7.7.7.",
"7.7.7.7.7.7.7.7.7.7.7.7.3 3     *.6.;.    f D D D D 7 3 =         P 6.6.7.7.7.7.7.7.7.7.7.7.7.7.7.7.",
"7.7.7.7.7.7.7.7.7.7.7.1 1 1     #.;.=.i i g v b Z Z 5 1 &     < i Y ;.;.7.7.7.7.7.7.7.7.7.7.7.7.7.7.",
"7.7.7.7.7.7.7.7.7.3 3 $             i 6.6.P   o 3 3 o         ;.6.*.    3 3 7.7.7.7.7.7.7.7.7.7.7.7.",
"7.7.7.7.7.7.7.7.7.3 3 %             i 6.6.P   o 3 3 o         ;.6.*.    3 3 7.7.7.7.7.7.7.7.7.7.7.7.",
"7.7.7.7.7.7.7.7.7.o o .             O i i &.;.>.<.<.>.;.;.;.;.l i ,     o o 7.7.7.7.7.7.7.7.7.7.7.7.",
"7.7.7.7.7.7.7.7.7.                        *.6.6.6.6.6.6.6.6.6.i             7.7.7.7.7.7.7.7.7.7.7.7.",
"7.7.7.7.7.7.7.7.7.@ @ o                   ' *.*.*.*.*.*.*.*.*.,         @ @ 7.7.7.7.7.7.7.7.7.7.7.7.",
"7.7.7.7.7.7.7.7.7.3 3 %                                                 3 3 7.7.7.7.7.7.7.7.7.7.7.7.",
"7.7.7.7.7.7.7.7.7.3 3 %                                                 3 3 7.7.7.7.7.7.7.7.7.7.7.7.",
"7.7.7.7.7.7.7.7.7.7.7.1 1 1                                       + 1 1 7.7.7.7.7.7.7.7.7.7.7.7.7.7.",
"7.7.7.7.7.7.7.7.7.7.7.7.3 3                                       @ 3 3 7.7.7.7.7.7.7.7.7.7.7.7.7.7.",
"7.7.7.7.7.7.7.7.7.7.7.7.3 3                             7.7.7.7.7.7.7.7.7.7.7.7.7.7.7.7.7.7.7.7.7.7."
};
