/* XPM */
static char *result[] = {
/* columns rows colors chars-per-pixel */
"50 50 139 2 ",
"   c #3B4344",
".  c #3E4645",
"X  c #414946",
"o  c #454D48",
"O  c #474F48",
"+  c #47504C",
"@  c #4C544A",
"#  c #4D554B",
"$  c #4F574D",
"%  c #535B4D",
"&  c #565E4E",
"*  c #4B5354",
"=  c #4E5654",
"-  c #555D57",
";  c #515859",
":  c #59614F",
">  c #596151",
",  c #5F6751",
"<  c #5A6259",
"1  c #5D655A",
"2  c #5C645C",
"3  c #616953",
"4  c #656E56",
"5  c #60685A",
"6  c #646C5F",
"7  c #677059",
"8  c #68715A",
"9  c #6A735B",
"0  c #6B745C",
"q  c #6B745D",
"w  c #6C745F",
"e  c #5A6061",
"r  c #5C6263",
"t  c #616863",
"y  c #687060",
"u  c #6E756E",
"i  c #727B61",
"p  c #727B62",
"a  c #727A63",
"s  c #727A64",
"d  c #767F65",
"f  c #70766A",
"g  c #767D6A",
"h  c #717778",
"j  c #788166",
"k  c #79816B",
"l  c #78826A",
"z  c #7B8469",
"x  c #7C856A",
"c  c #7C866B",
"v  c #79806C",
"b  c #79816D",
"n  c #7A806E",
"m  c #7C856C",
"M  c #7E886C",
"N  c #7D8570",
"B  c #7F8871",
"V  c #848E71",
"C  c #868F75",
"Z  c #858D77",
"A  c #868D7A",
"S  c #869074",
"D  c #899276",
"F  c #89927A",
"G  c #8B9479",
"H  c #878E83",
"J  c #909685",
"K  c #919980",
"L  c #929A81",
"P  c #919886",
"I  c #939A86",
"U  c #939A87",
"Y  c #969E87",
"T  c #919788",
"R  c #949A8B",
"E  c #989E8F",
"W  c #909495",
"Q  c #939798",
"!  c #99A08A",
"~  c #99A18A",
"^  c #9CA48E",
"/  c #9AA092",
"(  c #9CA290",
")  c #9DA590",
"_  c #9FA792",
"`  c #9EA494",
"'  c #9FA398",
"]  c #A0A695",
"[  c #A2A897",
"{  c #A3AA96",
"}  c #A4AB97",
"|  c #A6AD9A",
" . c #A7AD9B",
".. c #A7AE9B",
"X. c #A7AD9D",
"o. c #A8AF9D",
"O. c #A9AF9E",
"+. c #ABB19F",
"@. c #9DA1A2",
"#. c #A9ADA6",
"$. c #ADB3A2",
"%. c #ADB4A0",
"&. c #ADB1A5",
"*. c #ACB0A7",
"=. c #AFB3A8",
"-. c #B4B8AD",
";. c #B6B9AF",
":. c #B9BDB3",
">. c #BFC2BB",
",. c #BEC0C1",
"<. c #CACCCB",
"1. c #CDCFCF",
"2. c #DDDFD9",
"3. c #DEE0E0",
"4. c #DFE1E0",
"5. c #E2E4E1",
"6. c #E3E5E1",
"7. c #E4E5E2",
"8. c #E4E6E2",
"9. c #E5E7E3",
"0. c #E7E9E3",
"q. c #EBECE7",
"w. c #EDEFEA",
"e. c #F1F2EF",
"r. c #F2F3F0",
"t. c #F6F6F4",
"y. c #F6F7F4",
"u. c #F9FAF9",
"i. c #FAFBFA",
"p. c #FBFBFA",
"a. c #FBFCFB",
"s. c #FCFCFB",
"d. c gray99",
"f. c #FCFDFC",
"g. c #FDFDFC",
"h. c #FDFDFD",
"j. c #FEFEFE",
"k. c white",
"l. c None",
/* pixels */
"l.l.l.l.l.l.l.l.l.l.l.l.l.l.l.l.l.k.k.k.k.k.k.k.k.k.k.k.l.l.l.l.l.l.l.l.l.l.l.l.l.l.l.l.l.l.l.l.l.l.",
"l.l.l.l.l.l.l.l.l.l.l.l.l.l.l.l.a.k.k.k.k.k.k.k.k.k.k.k.k.l.l.l.l.l.l.l.l.l.l.l.l.l.l.l.l.l.l.l.l.l.",
"l.l.l.l.l.l.l.l.l.l.l.l.l.l.l.l.2.8.9.q.q.q.q.q.q.q.9.8.9.l.l.l.l.l.l.l.l.l.l.l.l.l.l.l.l.l.l.l.l.l.",
"l.l.l.l.l.l.l.l.l.l.l.l.k.k.k.k.R , 4 V V V V V V V 4 , T k.k.k.k.r.l.l.l.l.l.l.l.l.l.l.l.l.l.l.l.l.",
"l.l.l.l.l.l.l.l.l.l.l.l.k.k.k.k.R , 4 V V V V V V V 4 , R k.k.k.k.e.l.l.l.l.l.l.l.l.l.l.l.l.l.l.l.l.",
"l.l.l.l.l.l.l.l.l.k.k.:.R R %.%.k , 3 0 0 0 0 0 0 0 d j F %.%.E R &.t.d.l.l.l.l.l.l.l.l.l.l.l.l.l.l.",
"l.l.l.l.l.l.l.l.l.k.k.=., , V V 0 , , , , , , , , , M V V V V 4 , R k.k.l.l.l.l.l.l.l.l.l.l.l.l.l.l.",
"l.l.l.l.l.l.l.l.l.6.8.' : : M M a w w w w w w w w w z M c l l 8 4 J 8.7.l.l.l.l.l.l.l.l.l.l.l.l.l.l.",
"l.l.l.l.l.l.l.k.k., , #     , , U $.$.$.$.$.$.$.$.$.w , %     l V j , , k.k.l.l.l.l.l.l.l.l.l.l.l.l.",
"l.l.l.l.l.l.l.k.k., , #     , , U $.$.$.$.$.$.$.$.$.w , %     l V j , , k.k.i.l.l.l.l.l.l.l.l.l.l.l.",
"l.l.l.l.a.p.-.n n X X # : : ] ] O.$...G G G G K $.$.[ ] ` / / - + $ , , n n ;.k.k.l.l.l.l.l.l.l.l.l.",
"l.l.l.l.a.k.=., ,     # , , $.$.$.$.| V V V V G $.$.$.$.$.$.$.=   O , , , , =.k.k.l.l.l.l.l.l.l.l.l.",
"l.l.l.l.s.k.#.% % O O 5 v v $.$.$.$.o.L L D V D _ _ +.$.$.$.$.u t 2 % % , , =.k.k.l.l.l.l.l.l.l.l.l.",
"l.l.l.l.d.k.@.    , , A $.$.$.$.$.$.$.$.$.L V V V V | $.$.$.$.$.$.H     , , =.k.k.l.l.l.l.l.l.l.l.l.",
"l.l.l.l.f.k.@.    , , A $.$.$.$.$.$.$.$.$.L V V V V | $.$.$.$.$.$.H     , , =.k.k.l.l.l.l.l.l.l.l.l.",
"l.l.l.l.h.k.*.: : ] ]  .$.$.$.$.Y G C w w 7 4 9 V V | $.$.$.$.$.$.X./ / X X 1 n g k.k.l.l.l.l.l.l.l.",
"l.l.l.l.h.k.=., , $.$.$.$.$.$.$.L V M , , , , 4 V V | $.$.$.$.$.$.$.$.$.    # , , k.k.l.l.l.l.l.l.l.",
"l.l.l.l.j.k.=., , $.$.| _ _ $.$.F j p % % % % > j j ! _ } $.$.$.$.$.$.$.    # , , k.k.l.l.l.l.l.l.l.",
"l.l.l.l.j.k.=., , $.$.~ V V $.$.v , :         X , , M V L $.$.$.$.$.$.$.    # , , k.k.l.l.l.l.l.l.l.",
"l.l.l.l.k.k.=., , $.$.~ V V $.$.v , :         X , , M V L $.$.$.$.$.$.$.    # , , k.k.f.l.l.l.l.l.l.",
"l.l.l.l.k.k.=., , $.$.~ V V V V 0 , :               : , v $.$.G V L $.$., , , , ,     W k.k.l.l.l.l.",
"l.l.l.l.k.k.=., , $.$.~ V V V V 0 , :               : , v $.$.G V L $.$., , , , ,     @.k.k.l.l.l.l.",
"l.l.l.l.k.k.=., , $.$.~ V V ~ ~ s , :               : , v $.$.G V G ~ ~ , , , , ,     @.k.k.l.l.l.l.",
"l.l.l.l.k.k.=., , $.$.~ V V $.$.v , :               : , v $.$.G V V V V , , , , ,     @.k.k.l.l.l.l.",
"l.l.l.l.k.k.=., , $.$.~ V V $.$.v , :               : , v $.$.G V V V V , , , , ,     @.k.k.l.l.l.l.",
"l.l.l.l.k.k.@.    $.$.$.$.$.$.$.v , :               : , v $.$.G V L $.$., , , , ,     @.k.k.l.l.l.l.",
"l.l.l.l.k.k.@.    $.$.$.$.$.$.$.v , :               : , v $.$.G V L $.$., , , , ,     @.k.k.l.l.l.l.",
"l.l.l.l.k.k.@.    ~ ~ { $.$.$.$.Z i q # # X         : , v $.$.^ ~ _ $.$.# # & , ,     @.k.k.l.l.l.l.",
"l.l.l.l.k.k.@.    V V ~ $.$.$.$.L V M , , O         : , v $.$.$.$.$.$.$.    # , ,     @.k.k.l.l.l.l.",
"l.l.l.l.k.k.Q     V V ~ $.$.$.$.L V M , , O         : , v $.$.$.$.$.$.$.    # , ,     @.k.k.l.l.l.l.",
"l.l.l.l.l.l.w.k.k., , A $.$.$.$.$.$.| V V 0 , , , , M V L $.$.$.$.$.$.$.          k.k.0.l.l.l.l.l.l.",
"l.l.l.l.l.l.y.k.k., , A $.$.$.$.$.$.| V V 0 , , , , M V L $.$.$.$.$.$.$.          k.k.u.l.l.l.l.l.l.",
"l.l.l.l.l.l.l.k.k.O O 5 v v $.$.$.$.| V V x j m U U ) _ } $.$.$.$.( v v           k.k.u.l.l.l.l.l.l.",
"l.l.l.l.l.l.l.k.k.    # , , $.$.$.$.| V V V V G $.$.$.$.$.$.$.$.$.U , ,           k.k.u.l.l.l.l.l.l.",
"l.l.l.l.l.l.l.k.a.r r < : : ] ] O.$...G G S V G $.$.$.$.$.$.$.$.$.P : :     * r e i.g.l.l.l.l.l.l.l.",
"l.l.l.l.l.l.l.l.l.k.k.@.    , , U $.$.$.$.L V G $.$.$.$.$.$.$.$.$.H         @.k.k.l.l.l.l.l.l.l.l.l.",
"l.l.l.l.l.l.l.l.l.k.k.@.    , , U $.$.$.$.L V G $.$.$.$.$.$.$.$.$.H         @.k.k.l.l.l.l.l.l.l.l.l.",
"l.l.l.l.l.l.l.l.l.l.l.<.,.,.O O y v N L L D V G $.$.$.$.} L L N v 6     ,.,.1.l.l.l.l.l.l.l.l.l.l.l.",
"l.l.l.l.l.l.l.l.l.l.l.l.k.k.    % , 4 V V V V G $.$.$.$._ V V 4 , %     k.k.j.l.l.l.l.l.l.l.l.l.l.l.",
"l.l.l.l.l.l.l.l.l.l.l.>.3.3.r r f n b l l l l B ] ] ] ] I l l b n f r r 8.8.l.l.l.l.l.l.l.l.l.l.l.l.",
"l.l.l.l.l.l.l.l.l., , #     k.k.k.k.3.        X , , , , %     3.k.k.k.k., , l.l.l.l.l.l.l.l.l.l.l.l.",
"l.l.l.l.l.l.l.l.l., , #     k.k.k.k.3.        X , , , , %     3.k.k.k.k., , l.l.l.l.l.l.l.l.l.l.l.l.",
"l.l.l.l.l.l.l.l.l.X X .     r r r r h 3.3.3.3.4.8.8.8.8.5.3.3.h r r r r X X l.l.l.l.l.l.l.l.l.l.l.l.",
"l.l.l.l.l.l.l.l.l.                  r k.k.k.k.k.k.k.k.k.k.k.k.r             l.l.l.l.l.l.l.l.l.l.l.l.",
"l.l.l.l.l.l.l.l.l.O O X             ; ,.,.,.,.,.,.,.,.,.,.,.,.;         O O l.l.l.l.l.l.l.l.l.l.l.l.",
"l.l.l.l.l.l.l.l.l., , #                                                 , , l.l.l.l.l.l.l.l.l.l.l.l.",
"l.l.l.l.l.l.l.l.l., , @                                                 , , l.l.l.l.l.l.l.l.l.l.l.l.",
"l.l.l.l.l.l.l.l.l.l.l.l.: :                                       o : : l.l.l.l.l.l.l.l.l.l.l.l.l.l.",
"l.l.l.l.l.l.l.l.l.l.l.l., ,                                       O , , l.l.l.l.l.l.l.l.l.l.l.l.l.l.",
"l.l.l.l.l.l.l.l.l.l.l.l., ,                                       O , l.l.l.l.l.l.l.l.l.l.l.l.l.l.l."
};
