/* XPM */
static char *result[] = {
/* columns rows colors chars-per-pixel */
"50 50 147 2 ",
"   c #3B4344",
".  c #3E4645",
"X  c #3F4745",
"o  c #414946",
"O  c #434B48",
"+  c #454D48",
"@  c #474F48",
"#  c #47504C",
"$  c #4A5249",
"%  c #48504A",
"&  c #4D554B",
"*  c #4F574B",
"=  c #4F574D",
"-  c #4F574E",
";  c #50584C",
":  c #535B4D",
">  c #535B4E",
",  c #545C4D",
"<  c #4E5654",
"1  c #535B55",
"2  c #515859",
"3  c #59614F",
"4  c #596252",
"5  c #5D6550",
"6  c #5F6751",
"7  c #5F6753",
"8  c #5F6754",
"9  c #5D655A",
"0  c #5C645C",
"q  c #636B55",
"w  c #656E56",
"e  c #60695B",
"r  c #666F58",
"t  c #636C5F",
"y  c #677059",
"u  c #69725A",
"i  c #6B745C",
"p  c #6B745E",
"a  c #6C745F",
"s  c #5C6263",
"d  c #616863",
"f  c #636A63",
"g  c #6C7562",
"h  c #6D7567",
"j  c #6F7667",
"k  c #727B61",
"l  c #727A62",
"z  c #767F66",
"x  c #767F67",
"c  c #737A6A",
"v  c #757C69",
"b  c #757B6C",
"n  c #6C7273",
"m  c #747B73",
"M  c #717778",
"N  c #788166",
"B  c #788168",
"V  c #788169",
"C  c #79806C",
"Z  c #79806D",
"A  c #7A806E",
"S  c #7E886C",
"D  c #7A8174",
"F  c #7A8178",
"G  c #818B6E",
"H  c #808774",
"J  c #818970",
"K  c #848E71",
"L  c #858E75",
"P  c #838A78",
"I  c #868D7A",
"U  c #888F7D",
"Y  c #869074",
"T  c #899276",
"R  c #8B9479",
"E  c #8A917C",
"W  c #8B917F",
"Q  c #8E977D",
"!  c #7C8282",
"~  c #878E83",
"^  c #8D9485",
"/  c #8E9489",
"(  c #919980",
")  c #929A81",
"_  c #939A86",
"`  c #939A87",
"'  c #969E87",
"]  c #949A8B",
"[  c #959A8E",
"{  c #979E8C",
"}  c #909493",
"|  c #999D9E",
" . c #99A18A",
".. c #99A08C",
"X. c #9CA48E",
"o. c #9AA092",
"O. c #9CA290",
"+. c #9DA292",
"@. c #9DA590",
"#. c #9FA792",
"$. c #9FA594",
"%. c #A0A695",
"&. c #A2A994",
"*. c #A3AA97",
"=. c #A4AB97",
"-. c #A4AB99",
";. c #A5AB99",
":. c #A6AD9A",
">. c #A7AD9B",
",. c #A7AE9B",
"<. c #A8AF9D",
"1. c #AAB09E",
"2. c #9DA1A2",
"3. c #A0A4A3",
"4. c #A3A7A4",
"5. c #A9ADA6",
"6. c #A8ABAC",
"7. c #ADB3A2",
"8. c #ADB4A0",
"9. c #ACB0A7",
"0. c #AFB3A8",
"q. c #B5B9AF",
"w. c #B3B6B6",
"e. c #B6B9B1",
"r. c #B9BCBB",
"t. c #BEC0C1",
"y. c #C3C6C3",
"u. c #C4C6C5",
"i. c #C9CBC4",
"p. c #CACCC5",
"a. c #D7D9D3",
"s. c #E1E3DE",
"d. c #E2E4DF",
"f. c #DEE0E0",
"g. c #E3E5E1",
"h. c #E4E6E2",
"j. c #E6E8E3",
"k. c #E7E9E5",
"l. c #E9EBE6",
"z. c #EBECE7",
"x. c #ECEDE9",
"c. c #F1F2EF",
"v. c #F8F8F7",
"b. c #FAFBF9",
"n. c #FEFEFE",
"m. c white",
"M. c None",
/* pixels */
"M.M.M.M.M.M.M.M.M.M.M.M.M.M.M.M.M.M.M.M.M.m.m.m.m.m.m.m.m.m.m.v.M.M.M.M.M.M.M.M.M.M.M.M.M.M.M.M.M.M.",
"M.M.M.M.M.M.M.M.M.M.M.M.M.M.M.M.M.M.M.M.m.m.m.m.m.m.m.m.m.m.m.m.M.M.M.M.M.M.M.M.M.M.M.M.M.M.M.M.M.M.",
"M.M.M.M.M.M.M.M.M.M.M.M.M.M.M.M.M.M.M.M.d.h.k.z.z.z.z.z.z.l.h.g.M.M.M.M.M.M.M.M.M.M.M.M.M.M.M.M.M.M.",
"M.M.M.M.M.M.M.M.M.M.M.M.M.M.M.m.m.m.m.m.A 6 k K K K K K K S 6 6 p.m.m.m.m.M.M.M.M.M.M.M.M.M.M.M.M.M.",
"M.M.M.M.M.M.M.M.M.M.M.M.M.M.M.m.m.m.m.m.A 6 k K K K K K K S 6 6 p.m.m.m.m.M.M.M.M.M.M.M.M.M.M.M.M.M.",
"M.M.M.M.M.M.M.M.M.M.M.M.M.m.m.0.] +.8.8.J N k i i i i i i u 6 6 _ 8.;.] ] s.m.M.M.M.M.M.M.M.M.M.M.M.",
"M.M.M.M.M.M.M.M.M.M.M.M.M.m.m.] 6 i K K K K k 6 6 6 6 6 6 6 6 6 N K N 6 6 h.m.m.M.M.M.M.M.M.M.M.M.M.",
"M.M.M.M.M.M.M.M.M.M.M.M.M.i.p.W i p g g z N V C C C C C C C C C B N p : : e.p.a.M.M.M.M.M.M.M.M.M.M.",
"M.M.M.M.M.M.M.M.M.M.j.m.h.6 6 N K g     3 6 I 7.7.7.7.7.7.7.7.7.C 6 :     3 6 0.m.m.M.M.M.M.M.M.M.M.",
"M.M.M.M.M.M.M.M.M.M.v.m.h.6 6 N K g     3 6 I 7.7.7.7.7.7.7.7.7.C 6 :     3 6 0.m.m.M.M.M.M.M.M.M.M.",
"M.M.M.M.M.M.M.M.m.n.q.A v 6 6 = # f o.o.$.%.>.7.7.R R R R ( 7.7.-.%.U 3 3 + o 9 A Z m.m.M.M.M.M.M.M.",
"M.M.M.M.M.M.M.M.m.m.0.6 6 6 6 @   d 7.7.7.7.7.7.7.K K K K R 7.7.7.7.` 6 6 o   & 6 6 m.m.M.M.M.M.M.M.",
"M.M.M.M.M.M.M.M.t.t./ 6 5 : : 0 d F 7.7.7.7.:.#.#.K K R ) ' 7.7.7.7.O.C C - @ & : : m.m.M.M.M.M.M.M.",
"M.M.M.M.M.M.m.m.    & 6 3     ~ 7.7.7.7.7.7. .K K K K  .7.7.7.7.7.7.7.7.7.a 6 &     m.m.M.M.M.M.M.M.",
"M.M.M.M.M.M.m.m.    & 6 3     ~ 7.7.7.7.7.7. .K K K K  .7.7.7.7.7.7.7.7.7.a 6 &     m.m.M.M.M.M.M.M.",
"M.M.M.M.M.M.m.m.6 6 &   < 7.7.7.7.7.7.7.7.7. .K K 6 6 6 6 w K K #.7.7.7.7.7.7.I 6 6 m.m.M.M.M.M.M.M.",
"M.M.M.M.M.M.m.m.6 6 &   < 7.7.7.7.7.7.7.7.7. .K K 6 6 6 6 w K K #.7.7.7.7.7.7.I 6 6 m.m.M.M.M.M.M.M.",
"M.M.M.M.b.y.2.2.6 6 &   < 7.7.7.7.7.7.7.X. .L k k & & & & > k k ..7.:. . .1.7.I 6 6 m.m.M.M.M.M.M.M.",
"M.M.M.m.m.t.    6 6 &   < 7.7.7.7.7.7.7.R K k 6 6         o 6 6 ` 7.#.K K :.7.I 6 6 m.m.M.M.M.M.M.M.",
"M.M.M.m.m.t.    6 6 &   < 7.7.7.7.7.7.7.R K k 6 6         o 6 6 ` 7.#.K K :.7.I 6 6 m.m.M.M.M.M.M.M.",
"M.M.M.m.m.t.    6 6 6 6 a 7.7.) K ) 7.7.a 6 &             o 6 6 N K K K K :.7.I 6 6 m.m.M.M.M.M.M.M.",
"M.M.M.m.m.t.    6 6 6 6 a 7.7.) K ) 7.7.a 6 &             o 6 6 N K K K K :.7.I 6 6 m.m.M.M.M.M.M.M.",
"M.M.M.m.m.t.    6 6 6 6 y ) ) T K ) 7.7.a 6 &             o 6 6 E #.' K K :.7.I 6 6 m.m.M.M.M.M.M.M.",
"M.M.M.m.m.t.    6 6 6 6 w K K K K ) 7.7.a 6 &             o 6 6 ` 7.#.K K :.7.I 6 6 m.m.M.M.M.M.M.M.",
"M.M.M.m.m.t.    6 6 6 6 r R R Y K ) 7.7.a 6 &             o 6 6 ` 7.&.R R ,.7.P 3 3 m.m.M.M.M.M.M.M.",
"M.M.M.m.m.t.    6 6 6 6 a 7.7.) K ) 7.7.a 6 &             o 6 6 ` 7.7.7.7.7.7.m     m.m.M.M.M.M.M.M.",
"M.M.M.m.m.t.    6 6 6 6 a 7.7.) K ) 7.7.a 6 &             o 6 6 ` 7.7.7.7.7.7.m     m.m.M.M.M.M.M.M.",
"M.M.M.m.m.t.    6 6 ; o 1 7.7.<.:.<.7.7.a 6 &         $ 3 8 S S @.7.7.7.7.( R t     m.m.M.M.M.M.M.M.",
"M.M.M.m.m.t.    6 6 &   < 7.7.7.7.7.7.7.a 6 &         & 6 w K K #.7.7.7.7.R K e     m.m.M.M.M.M.M.M.",
"M.M.M.m.m.u.! ! : : @   < 7.7.7.7.7.7.7.x i 4 @ @ @ @ 4 i l ) ) =.7.7.7.7.J N D ! ! x.c.M.M.M.M.M.M.",
"M.M.M.M.M.M.m.m.        < 7.7.7.7.7.7.7.R K k 6 6 6 6 k K R 7.7.7.7.7.7.7.a 6 0.m.m.M.M.M.M.M.M.M.M.",
"M.M.M.M.M.M.m.m.        < 7.7.7.7.7.7.7.R K k 6 6 6 6 k K R 7.7.7.7.7.7.7.a 6 0.m.m.M.M.M.M.M.M.M.M.",
"M.M.M.M.M.M.m.m.        O a a { 7.7.7.7.,.:.*.%.%.S S G K R 7.7.7.7.{ a a % o 3.m.m.M.M.M.M.M.M.M.M.",
"M.M.M.M.M.M.m.m.        o 6 6 ` 7.7.7.7.7.7.7.7.7.K K K K R 7.7.7.7.` 6 6 o   2.m.m.M.M.M.M.M.M.M.M.",
"M.M.M.M.M.M.j.j.2.2.n   . & & ^ 7.7.7.7.7.7.7.7.7.K K Q  .X.7.7.` I c & & } 2.r.c.M.M.M.M.M.M.M.M.M.",
"M.M.M.M.M.M.M.M.m.m.2.        ~ 7.7.7.7.7.7.7.7.7.K K  .7.7.7.7.C 6 :     f.m.M.M.M.M.M.M.M.M.M.M.M.",
"M.M.M.M.M.M.M.M.m.m.2.        ~ 7.7.7.7.7.7.7.7.7.K K  .7.7.7.7.C 6 :     f.m.M.M.M.M.M.M.M.M.M.M.M.",
"M.M.M.M.M.M.M.M.M.M.M.m.f.    : 6 i K K :.7.7.7.7.K K K K S 6 6 @   ! m.m.M.M.M.M.M.M.M.M.M.M.M.M.M.",
"M.M.M.M.M.M.M.M.M.M.M.m.f.    : 6 i K K :.7.7.7.7.K K K K S 6 6 @   ! m.m.M.M.M.M.M.M.M.M.M.M.M.M.M.",
"M.M.M.M.M.M.M.M.M.M.M.0.9.2.2.5.0.[ e e H I I I I e e e e h 0.0.4.2.2.2.| M.M.M.M.M.M.M.M.M.M.M.M.M.",
"M.M.M.M.M.M.M.M.M.M.M.6 A m.m.m.m.t.    3 6 6 6 6         s m.m.m.m.t.    3 6 M.M.M.M.M.M.M.M.M.M.M.",
"M.M.M.M.M.M.M.M.M.M.M.3 j f.f.f.f.w.s s b A A A A s s s s M f.f.f.f.6.    , 3 M.M.M.M.M.M.M.M.M.M.M.",
"M.M.M.M.M.M.M.M.M.M.M.            ! m.m.m.m.m.m.m.m.m.m.m.f.                    M.M.M.M.M.M.M.M.M.M.",
"M.M.M.M.M.M.M.M.M.M.M.            ! m.m.m.m.m.m.m.m.m.m.m.f.                    M.M.M.M.M.M.M.M.M.M.",
"M.M.M.M.M.M.M.M.M.M.M.: *         2 ! ! ! ! ! ! ! ! ! ! ! M               * : : M.M.M.M.M.M.M.M.M.M.",
"M.M.M.M.M.M.M.M.M.M.M.6 3                                                 3 6 6 M.M.M.M.M.M.M.M.M.M.",
"M.M.M.M.M.M.M.M.M.M.M.6 7 @ @ X                                     X @ @ 7 q M.M.M.M.M.M.M.M.M.M.M.",
"M.M.M.M.M.M.M.M.M.M.M.M.M.6 6 @                                     @ 6 6 M.M.M.M.M.M.M.M.M.M.M.M.M.",
"M.M.M.M.M.M.M.M.M.M.M.M.M.6 6 @                                     @ 6 6 M.M.M.M.M.M.M.M.M.M.M.M.M.",
"M.M.M.M.M.M.M.M.M.M.M.M.M.M.M.M.M.M.M.M.M.M.M.M.M.M.M.M.M.M.M.M.M.M.M.M.M.M.M.M.M.M.M.M.M.M.M.M.M.M."
};
