/* XPM */
static char *result[] = {
/* columns rows colors chars-per-pixel */
"36 48 6 1 ",
"  c #0F0B0D",
". c #171417",
"X c #1B171B",
"o c #252225",
"O c #322F33",
"+ c None",
/* pixels */
"++++++++++++++++++++++++++++++++++++",
"++++++++++++++++++++++++++++++++++++",
"++++++++++++++++++++++++++++++++++++",
"++++++++++++++++++++++++++++++++++++",
"++++++++++++++++++++++++++++++++++++",
"++++++++++++++++++++++++++++++++++++",
"++++++++++++++++    ++++++++++++++++",
"++++++++++++    XXXX    ++++++++++++",
"+++++++++++ XXX XXXX XXX +++++++++++",
"++++++++    XXX      XXX    ++++++++",
"+++++++ XXX    + .. +    XXX +++++++",
"+++++++ XXX . ++ oo ++ . XXX +++++++",
"+++++++     . ++ oo ++ .     +++++++",
"++++++ XX + o ++ OO ++ o + XX ++++++",
"++++++ XX + o ++ OO ++ o + XX ++++++",
"++++++ XX + O ++ OO ++ O + XX ++++++",
"+++++++   + O ++ OO ++ O +   +++++++",
"++++++ XX + O ++ OO ++ O + XX ++++++",
"++++++ XX + o ++ oo ++ o + XX ++++++",
"++++++ XX + o ++ oo ++ o + XX ++++++",
"+++++++   + . ++ .. ++ . +   +++++++",
"++++++ XX     ++           XX ++++++",
"++++++ XX ooOO + OOOOOOOoo XX ++++++",
"++++++ XX      +           XX ++++++",
"+++++++   + . ++ .. ++ . +   +++++++",
"++++++ XX + o ++ oo ++ o + XX ++++++",
"++++++ XX + o ++ oo ++ o + XX ++++++",
"++++++ XX + O ++ OO ++ O + XX ++++++",
"+++++++   + O ++ OO ++ O +   +++++++",
"++++++ XX + O ++ OO ++ O + XX ++++++",
"++++++ XX + o ++ oo ++ o + XX ++++++",
"++++++ XX + o ++ oo ++ o + XX ++++++",
"+++++++   + . ++ .. ++ . +   +++++++",
"++++++ XX            +     XX ++++++",
"++++++ XX ooOOOOOOOO + Ooo XX ++++++",
"++++++ XX           ++     XX ++++++",
"+++++++   + . ++ .. ++ . +   +++++++",
"++++++ XX + o ++ oo ++ o + XX ++++++",
"++++++ XX + o ++ oo ++ o + XX ++++++",
"++++++ XX + O ++ OO ++ O + XX ++++++",
"+++++++   + O +++ O ++ O +   +++++++",
"++++++ XX + O ++++  ++ O + XX ++++++",
"++++++ XX + O ++++++++ O + XX ++++++",
"++++++ XX + O ++   +++ O + XX ++++++",
"+++++     + O ++ OO ++ O +     +++++",
"++++ XXXX + o ++ oo ++ o + XXXX ++++",
"++++ XXXX + o ++ oo ++ o + XXXX ++++",
"++++ XXXX + . ++ .. ++ . + XXXX ++++"
};
