/* XPM */
static char *result[] = {
/* columns rows colors chars-per-pixel */
"50 50 74 1 ",
"  c black",
". c #130B08",
"X c #151415",
"o c #1B1A1B",
"O c #271610",
"+ c #281F1D",
"@ c #3A2018",
"# c #242324",
"$ c #282828",
"% c #292829",
"& c #333233",
"* c #353535",
"= c #373737",
"- c #3B3230",
"; c #3C3B3C",
": c #3E3B3E",
"> c #4D2B20",
", c #4E3128",
"< c #463D3B",
"1 c #613C30",
"2 c #764D27",
"3 c #754D34",
"4 c #444344",
"5 c #484648",
"6 c gray31",
"7 c #514F51",
"8 c #524F52",
"9 c #525052",
"0 c #555555",
"q c #5B5A5B",
"w c #634E49",
"e c #754D41",
"r c #76564D",
"t c #655756",
"y c #775F5A",
"u c #656365",
"i c #666466",
"p c #6E6D6E",
"a c #6F6D6F",
"s c #786B69",
"d c #737273",
"f c #757375",
"g c #777777",
"h c #787778",
"j c #797879",
"k c #895E44",
"l c #885E51",
"z c #9D6F48",
"x c #8A675D",
"c c #9D6F54",
"v c #896A60",
"b c #9C6F61",
"n c #8A7663",
"m c #837574",
"M c #8B7F7C",
"N c #9D7B70",
"B c #A47363",
"V c #AD7766",
"C c #828182",
"Z c #858285",
"A c #868686",
"S c #8B8A8B",
"D c #8E8C8E",
"F c #919091",
"G c #999699",
"H c #9D9B9D",
"J c gray62",
"K c #A08B86",
"L c #B49C97",
"P c #AAA9AA",
"I c #AEAAAE",
"U c #B5B3B5",
"Y c #C1BEC1",
"T c None",
/* pixels */
"TTTTTTTTTTTTTTTTTTTTTTTTTTTTTTTTTTTTTTTTTTTTTTTTTT",
"TTTTTTTTTTTTTTTTTTTTTTTTTTTTTTTTTTTTTTTTTTTTTTTTTT",
"TTTTTTTTTTTTTTTTTTTTTTT     TTTTTTTTTTTTTTTTTTTTTT",
"TTTTTTTTTTTTTTTTTTTT i Ih;YHaX4TTTTTTTTTTTTTTTTTTT",
"TTTTTTTTTTTTTTTTTT &YS;%%X%#:&I:oTTTTTTTTTTTTTTTTT",
"TTTTTTTTTTTTTTTTTiY$u%Oee1ee,+::5aoTTTTTTTTTTTTTTT",
"TTTTTTTTTTTTTTTT6SuXO1bbbebbb1,.Cu8 TTTTTTTTTTTTTT",
"TTTTTTTTTTTTTTTD&;OebebbbeVbbebl@+XG4TTTTTTTTTTTTT",
"TTTTTTTTTTTTTT9p:@bbbeecbeVbbeBbel<uuoTTTTTTTTTTTT",
"TTTTTTTTTTTTT*YhOebbbeezbeVbbeVbebe iqTTTTTTTTTTTT",
"TTTTTTTTTTTTTq$7@ebBbeezbeVbbeBbebe<huoTTTTTTTTTTT",
"TTTTTTTTTTTT4Uh+lebVbelcbebbbebbebe,%&5TTTTTTTTTTT",
"TTTTTTTTTTTTgh:,bebVbebbbebbbebbebel-SuoTTTTTTTTTT",
"TTTTTTTTTTT iq$ebebVbebbbeblbebbelebOi6$TTTTTTTTTT",
"TTTTTTTTTTT YS%ebebbbebbbebezebbee2bOPS%TTTTTTTTTT",
"TTTTTTTTTTT 6;Xebebbbebbbebezebbee2bO6;XTTTTTTTTTT",
"TTTTTTTTTTT PJ;ebebbbeVbbebezebbee2bOYJ;TTTTTTTTTT",
"TTTTTTTTTTT 6;XebebbbeVbbebezebbevnM;q;XTTTTTTTTTT",
"TTTTTTTTTTT YJ;ebebbbeVbbebezebbeuuu%Fp;TTTTTTTTTT",
"TTTTTTTTTTT JS%elebbbeVbbebezebbe888%0S%TTTTTTTTTT",
"TTTTTTTTTTT i6$ee2bbbeVbbebecebbebex+f6$TTTTTTTTTT",
"TTTTTTTTTTT UJ%ee2bcbeBbbebebebbebebOPJ%TTTTTTTTTT",
"TTTTTTTTTTT 6;Xee3bzbebbbebbbebbebebO6;XTTTTTTTTTT",
"TTTTTTTTTTT pA6ebebzbebbbebbbebbeBebOYP6TTTTTTTTTT",
"TTTTTTTTTTT pJ;ebebzbebbbebbbebbeVebOPJ;TTTTTTTTTT",
"TTTTTTTTTTT 6;XebebbbebbbebbbebbeVebO6%XTTTTTTTTTT",
"TTTTTTTTTTT UJ6ebebbbebbbebbbebbeVebOZA;TTTTTTTTTT",
"TTTTTTTTTTT Ph%ebebbbebbbebVbebbeVebOJ0#TTTTTTTTTT",
"TTTTTTTTTTT ;%XebKmytwbbbebVbebbebebO6%XTTTTTTTTTT",
"TTTTTTTTTTT YJ;ebeLbbybbbebVbebbebebOYJ;TTTTTTTTTT",
"TTTTTTTTTTT Ju%ebeybxrbbbebVbebbebebOJu%TTTTTTTTTT",
"TTTTTTTTTTT iq$ebebyxebbbebVbebbebebOi6$TTTTTTTTTT",
"TTTTTTTTTTT YJ;eBebbbebbbebVbeb3ebebOJJ;TTTTTTTTTT",
"TTTTTTTTTTT Jh%eVebbbebbbebVbeb2ebebOJh%TTTTTTTTTT",
"TTTTTTTTTTT 6%XeVeblbebbbebBbeb2ebebO6%XTTTTTTTTTT",
"TTTTTTTTTTT A06eVebezebbbebbbeb2ebebOYJ6TTTTTTTTTT",
"TTTTTTTTTTT 0S;eVebezeecbebbbeb3ebebOPJ;TTTTTTTTTT",
"TTTTTTTTTTT Ju%eBebezeezbebbbeblebeN-Ju%TTTTTTTTTT",
"TTTTTTTTTTT i6$ebebezelbbebbbebbeshu%i6$TTTTTTTTTT",
"TTTTTTTTTTT UJ6ebebezebbbebbbebbeuuu%Pp=TTTTTTTTTT",
"TTTTTTTTTTT JJ6ebebezebbbebbbebbeywt%jd;TTTTTTTTTT",
"TTTTTTTTTTT Jh%ebebezebbbebVbebbebebOp8%TTTTTTTTTT",
"TTTTTTTTTTT 6%XekeblbebbbebVbebbebebO6%XTTTTTTTTTT",
"TTTTTTTTTTT YP6e2ebbbebbbebVbebbel3bOYJ6TTTTTTTTTT",
"TTTTTTTTTTT JS;ekebbbebbbebVbebbee2bOJh%TTTTTTTTTT",
"TTTTTTTTTTT Ju%ebebbbebbbebVbebbelebOJ8%TTTTTTTTTT",
"TTTTTTTTTTT 6%X1bebbbebbbebbbebbebebO6%XTTTTTTTTTT",
"TTTTTTTTTTT US;>eebbbeble1lbbebbel>eOPJ;TTTTTTTTTT",
"TTTTTTTTTTT S8%>>1eee1e>>>>ee1ee1>>>OJu%TTTTTTTTTT",
"TTTTTTTTTTTT         O       O  O       TTTTTTTTTT"
};
