/* XPM */
static char *result[] = {
/* columns rows colors chars-per-pixel */
"50 50 74 1 ",
"  c #1A1616",
". c #1F1A17",
"X c #1E1C1B",
"o c #231F1D",
"O c #24211E",
"+ c #241F21",
"@ c #252221",
"# c #292625",
"$ c #2B2827",
"% c #272628",
"& c #2A2729",
"* c #2C2B2B",
"= c #302F2E",
"- c #2F302F",
"; c #31312F",
": c #302F30",
"> c #2F3130",
", c #333433",
"< c #383636",
"1 c #393836",
"2 c #363738",
"3 c #3A3739",
"4 c #363939",
"5 c #3B3B3C",
"6 c #413C3D",
"7 c #3C3E40",
"8 c #3E4143",
"9 c #434545",
"0 c #494646",
"q c #434649",
"w c #46494B",
"e c #4A4C4E",
"r c #4C4E51",
"t c #4F5255",
"y c #515456",
"u c #595557",
"i c #525558",
"p c #5A5659",
"a c #55595C",
"s c #5A5B5C",
"d c #5F605E",
"f c #575B60",
"g c #5D5F60",
"h c #625E63",
"j c #5E6162",
"k c #5F6468",
"l c #646565",
"z c #666867",
"x c #696867",
"c c #656668",
"v c #686769",
"b c #66696B",
"n c #6B6B6D",
"m c #706D6E",
"M c #676E71",
"N c #6C6D71",
"B c #726F71",
"V c #6E7174",
"C c #6F7278",
"Z c #737375",
"A c #757479",
"S c #78777B",
"D c #7B7A7C",
"F c #7E7D82",
"G c #828286",
"H c #86858A",
"J c #89878C",
"K c #8B898E",
"L c #908D8F",
"P c #8D8B91",
"I c #918E94",
"U c #929095",
"Y c #959498",
"T c #989799",
/* pixels */
"OOo@O@OO@@@@@@@@@O@@@O@@+oO@@@@OOOOO@@O@@O@@O@O@@@",
"OOOOO#O#@o@@@@O@@@@O@@@@@OO@@@@OOO@@@@OO#O@@OO@@O@",
"O@O,lhdhhlhhlhhhhhlhlh&+OOO+weyerOO#rrryrrtrrt7o#O",
"OO$9PKKJJHHJJJHJJJJJHP*@@o@$jVnnk%#*MMbbVVMMMbyOOO",
"O$ZKPBclxd0sxlxxvllviww2Oo5nNMtttttrtittjVitt774$@",
"O&ZHAblcdludllllllllsaw4oO5Vksttttttitttajtytw5##O",
"#$ZGlllllllllllxlllllxw4oo5Cfatttitttttttytyte8ooo",
"#$AGllllllllllllxllxlxw5Oo5CNMttttitttttttt945,O@o",
"@$AHllldzllzlllllllllce4oo5Vlgttttiittt888kt,$$O+@",
"@$ZHlklllzlllllllljlhcw4OX5Vattttittttt744kd,OOOO@",
"@&ZGlzllllllllllcyw9ilw4OO5Vfattttttittt874,OOOO#o",
"@&AGllllllllllllcspigcw4o+5Vitttttttttitew4,-r8ooO",
"@$ZGcllllzxllllllcllclw5O@5Vfrtttttttttttt744ViOOO",
"#$AGllllllllllxlllhllcw5oX5Vftttytitattittew4Md>#O",
"@$AGlllllxllllldllclllw5oo5Vtwtewwttttttttte8ki,$o",
"@&AHclllllllxlllllllllw4oo7C85t7488tttttttttif84$O",
"@$ZGzldllvlvllllllllllw5oo5V85747kdttttitttitt84$O",
"@$SGzlllllllzllllllllzw5oo5Cq148rkfttttttttttir4$O",
"@$ZGzlllllllllllllllllw5+o5C8,,kVttttttittttitw1#O",
"@$ZGlkdeglllzlllllllllw4+o5Cirritttttttttttitie1#O",
"@$AGsjdrhlllllllllllhgw4+O5Vyetttttttyttittttr84#@",
"#$DFqlxzxlxblczzvvcciqw4OO5A95yyiyiiyttitaiti44,$@",
"@@,5w,4eererrrrrrrrrw9-%O@%>4587877777574**484>#@@",
"O@o#7%&557555776557577@OO@OO->>>>>>>>>,,%XX%>,-O@o",
"@@OoO@@@@@@@@@+@@+#@@@@@o@+o@@O@OOOOOO@@@@@@@@@@o@",
"@OO#OOX@O@o@O@ooOoooOOO+@X@@o@OOooOOOO@OOo@oOO@OO@",
"@OO#632&@$556656663666@@@OOo<55563556363653636,OOO",
"O@X5KKDw&3LKKPKKKJPKPI%@@o@XZKKILKKKKPPPKPKPPIzXOO",
"O#iNPDnq-#9DJAAABZZAng5*oo3lHKABSPGVZZZZZBAZZdt1&O",
"#$APUNgq$O ZHlllxllliqw5oo0IPHllbLZldllllllllwq9$@",
"O#ZGczjzr6XnHzllllllcle5oo0IBlhllbzzllllllllzlaq$@",
"O$AHlllze7XBHzzllnFcllw3oo0INxFxjttiFmllllljkyrq$O",
"O$ZHbllxe8XmJbllvAUblcw4@X0PNbInlqqwIAllllhll99w$O",
"O=ZKKVlbt5X%3KAllllvuw95@O0Inlxvl7nJvllllllll999=o",
"o&APInduw8@@=snAAmlpw<3*Oo0KFZxsacFJlllllllllytq*O",
"#&AKPNd988@OoosLLSvr,oooOO0IPJlerPPKllllllllllaq*O",
"o$SGxhllr7+ooo#@ouT$@o82OO9Umlhlhcxllllllllllls8*O",
"O#BGxldxpe::=OOOo6h#<u95oX0Lnlxllllllllllllllls9*O",
"O$AFllhxcg9w8@OOooooyYr4oo9INhlhllllllllxllllla9*@",
"#$SLHmxhlllls9=OoooDAnw5Oo9IJGllxllhlllllllllzs8$O",
"@$AJFbclllxlh02oo<eDmvw2+o0PUHlllllllllldalllay9*@",
"@$ZGllllllllsw,@osIxlxe2+@0PPJllllllllzly9lll99q*@",
"@$AHllclxlllllr5OyUzxlw2+o0IZblllllllljr9wGDljaq*@",
"O$AGlllllllllli8opPllxw5@o0InlllxllllllqtaFSslaq$@",
"#$SGllcllllllla8OiUxzzw5+o9Pnllllllljll9NUcaqksq&O",
"O$SDwjlllllllli5O*$HMwq4XO0Yawztwewellllprlkjwqq*@",
"o$xv9sjjssjjjdy8&$OVl98>Oo6Dtwke8789jjgjyqgjgw87&@",
"ooo$ww99*@w8q9w9w,OX*w@OOOoo5q9q8oOOqq9qqqw8qq4+o@",
"#oO#=:=:#@=:==**,&OO#;@O@@oO*==:>@O@----*>**>>*O@o",
"#oooooo+OOooo@o@@@oO+o@OoooO@oo@O@@@@o@+OOoooOO@@+"
};
