/* XPM */
static char *result[] = {
/* columns rows colors chars-per-pixel */
"50 50 49 1 ",
"  c #1F1D1A",
". c #211E17",
"X c #231F1D",
"o c #24201E",
"O c #28241E",
"+ c #241F21",
"@ c #252120",
"# c #292623",
"$ c #2D2B26",
"% c #2E2D29",
"& c #302C27",
"* c #312E29",
"= c #303027",
"- c #35332C",
"; c #3A372E",
": c #37382E",
"> c #38392E",
", c #363130",
"< c #3A3731",
"1 c #373830",
"2 c #3C3B32",
"3 c #403F35",
"4 c #403F38",
"5 c #3F4035",
"6 c #424236",
"7 c #494836",
"8 c #434339",
"9 c #49463C",
"0 c #47483C",
"q c #4B493D",
"w c #504D3E",
"e c #4B4741",
"r c #4E4D41",
"t c #514E42",
"y c #4F5043",
"u c #545245",
"i c #595747",
"p c #565549",
"a c #59564A",
"s c #5C5A4C",
"d c #5E5D51",
"f c #615E4F",
"g c #615F52",
"h c #5F6050",
"j c #62614F",
"k c #646254",
"l c #696656",
"z c #666559",
"x c #686659",
/* pixels */
"@@X+@@@@o@o@@o@o@@o@++@@@@oo++o@+@+o@@++++X@o@@@@@",
"X@+$*&*$*&***$%*&*&*$$@@@o@@$&&***&******&***$$ooo",
"o+ qkgggkgkfghdgggggds$o@X@oeggggggkggkgkgggdkhoo@",
"X$4tiksuupulfpppafgitq=#X@&4tikspiuaksuiuukguur&#@",
"X-xu7kp288qks588qakq2-2%@@-ktwkt869qgs449qgs82->%X",
"X;lkkq980rkq888rlt8688>=X@<kkge889afw94qtlq74q8;$X",
"X-ksp888pus888rusw67tu2-Xo<ksp889upa948tis888tu-$X",
"X-kr868qks5890dk>880ak2$X@<hr44qqku688qka4889sg;$X",
"X-lt99ugq988rdt8800su0:=XX;lt99ifw888tgr98qrsuq-$X",
"o;lt8wpg948ttdr870psq5>=X@;fw9wag448qpg884rpkr6>$+",
"X-ku0lp6899ls8889sj088:%o@2gurkw449qla868qkg688>$+",
"o-kgk088qwjqq88qkt08882-XX;kks009qufqq69tgq0888>$@",
"X-kkg868rtg868qukt46qq>=o@;kfs889qpf889qug948qq>$X",
"X-kw688qks668qdk3689sg2=Xo;kw688wxt8889ka8880sk>$+",
"O-ku69tsur89qspq880aur>=Xo;gt80iauq88rstr89qsuy>$X",
"X-jw6qik826qukq689tgu6>*Xo;ju8qsg484rtz884qukq6>$+",
"@,luqku4889ls8589ak958:=@@<guwgt48qqga8699gg888>%o",
"X-ksipr87qiuu889iii888>=oo;fsiuq89tuiu88quit880-$+",
"@-kkg448qtz858rrlt38q01*o@;kkg888qsg9889uxq488q-$+",
"X;kuq88qffq888adq987ps2=X@;kuq88qgu9888faq88qph;#+",
"+-zr38taut48ruau290ysu2=X@;gr88uus088wtir88qpip-%o",
"+-gt89ak888qtkr259rhy21%X+<gr89sd688rtz9889tgr4<% ",
"@#&;2236>>;>2422122521$@oX$&;;>38-222<82>>2482<#oo",
"@@X*-*&*-----*==-***-%@@oX@X&;==--*--&*---=&&-*@+#",
"+X@XX@@+XXXX@o+XXXX+XXXOX@X@XOX@XXXoXo+XXXXX# ooo@",
"X@XX@@@@#@@@@@@@O++++@X+@+@o@@@@@@@o@@+#@+@+@@@@o#",
"@@+&--,,-*,-%=-*X@+&-,#X@Xoo$;--*-=----*-=---%-oo@",
"@@Xrggggggdhkdkp.O$uff&@@o@@egggdkkhgggggkkgghdoo+",
"X$8skuuuuuuuuuyr,#Orrr*#@@&8ajuuuksuuuuuutkkzpq=$o",
"X-ldk856588528689-#22-:%XO;kfg860hy5858884skhe::$o",
"+;lu8888688888886628822=X@<ku868878886868880055-$+",
"O&kr8=8p868888888888861*X@<kr888858587p88588855:$o",
"X-lr8#8z858888888858551-@@-kr88850555yz955588851%o",
"X;gt8kp8688888888888881*+@-kr5889zy888e588888881%@",
"+&zt6uq8888888888888852*X@2ksu888ur5e5288888888$#+",
"X;lt6688885888885888581%Xo<kkd88868855e88588585o++",
"O;kt68888858885888e8882%@X<kuq888888858885sp888 oo",
"X&lr884888888888885585-=@@<gt8888888888585pu885$@o",
"@-lt648888888888889665>=@X2kt2855888888885688851$o",
"X;lw8886588888885,=pr5>%X@#-rs89888888588888588-%@",
"o-lr8888585888856-*pq62%o@@ord95888888858868855:$ ",
"o-kr8568128585888888861%@@oXyh8885588888858652-:=X",
"o-xu82851,#588888884862%o@,pr8888888588888858>:-$X",
"O-kt8885,,%58888888885:%X@<ku58525858888588882>:$X",
"o-lw682-o1z788888888652*@@-kr882188886868868886>$X",
"o-lq>866-2y888888888221=X@-ky88-=28885685258852:$X",
"O-k0:58888688888888822-%o@2gy85$@-2888685-5852::=O",
"ooO=>::-:::::111>:;::-#@oXo#-11$@@=:::::::::2:-o@X",
"@@@$*$$$$&$$$&$=$$=$$OOOo@@@$$$#@ #%$=%%$=$=$$=XXX",
"@@X@XXoXooooOoooooooooo#ooXXo oX@@@o oXXooooooooo@"
};
