/* XPM */
static char *_4b609677d604deefa6f101ebfe9fb96lnnIFl6PUy4AmNl4[] = {
/* columns rows colors chars-per-pixel */
"50 50 246 2 ",
"   c #505559",
".  c #4F5358",
"X  c #51565B",
"o  c #595F63",
"O  c #51575B",
"+  c #575C60",
"@  c #565B5F",
"#  c #53595D",
"$  c #585D62",
"%  c #5B6166",
"&  c #5A5F63",
"*  c #53585C",
"=  c #585F64",
"-  c #585E62",
";  c #54595D",
":  c #51565A",
">  c #565C61",
",  c #585C61",
"<  c #595E62",
"1  c #585D61",
"2  c #52575B",
"3  c #5A6165",
"4  c #565C60",
"5  c #55595E",
"6  c #5A6064",
"7  c #50565A",
"8  c #585C60",
"9  c #53595C",
"0  c #555A5E",
"q  c #54585C",
"w  c #50555A",
"e  c #5A5F64",
"r  c #5C6166",
"t  c #5D6265",
"y  c #5B6064",
"u  c #5D6468",
"i  c #5B6065",
"p  c #5F6569",
"a  c #565B60",
"s  c #555A5F",
"d  c #5D6367",
"f  c #5A6065",
"g  c #595F62",
"h  c #595E63",
"j  c #5F6467",
"k  c #5D6368",
"l  c #5C6266",
"z  c #595F64",
"x  c #53575B",
"c  c #5B6165",
"v  c #52575C",
"b  c #585E64",
"n  c #62686B",
"m  c #545A5E",
"M  c #62676A",
"N  c #53585B",
"B  c #5E6367",
"V  c #52575A",
"C  c #5E6368",
"Z  c #5C6267",
"A  c #5A5F62",
"S  c #606467",
"D  c #515659",
"F  c #5D6266",
"G  c #595E61",
"H  c #606568",
"J  c #585D60",
"K  c #60666A",
"L  c #5D6267",
"P  c #555A5D",
"I  c #585C5F",
"U  c #61676C",
"Y  c #464B50",
"T  c #4E5459",
"R  c #575D62",
"E  c #5C6165",
"W  c #4C5156",
"Q  c #484D52",
"!  c #555B5F",
"~  c #4E5357",
"^  c #4D5358",
"/  c #464C50",
"(  c #4D5357",
")  c #4D5257",
"_  c #585E63",
"`  c #53585D",
"'  c #4D5256",
"]  c #4F5459",
"[  c #4E5458",
"{  c #62676B",
"}  c #51575C",
"|  c #4A4F54",
" . c #52585C",
".. c #4B5054",
"X. c #505558",
"o. c #54585B",
"O. c #575C61",
"+. c #575D61",
"@. c #5E6366",
"#. c #565B5E",
"$. c #585D63",
"%. c #5A5F65",
"&. c #5B6267",
"*. c #54595F",
"=. c #54595C",
"-. c #5F666A",
";. c #61666A",
":. c #52585E",
">. c #5F6469",
",. c #64696C",
"<. c #606569",
"1. c #5E6469",
"2. c #60676C",
"3. c #5E6468",
"4. c #5F6568",
"5. c #5B6063",
"6. c #555B5E",
"7. c #61676B",
"8. c #5C6164",
"9. c #565A5E",
"0. c #575C5F",
"q. c #54595E",
"w. c #555B61",
"e. c #5B6062",
"r. c #5D6164",
"t. c #4B5055",
"y. c #575B5E",
"u. c #4A5054",
"i. c #5D6268",
"p. c #4F5559",
"a. c #60666B",
"s. c #52595E",
"d. c #555B60",
"f. c #565B5D",
"g. c #565A5F",
"h. c #63696E",
"j. c #585E61",
"k. c #62686D",
"l. c #575D60",
"z. c #505557",
"x. c #5F656A",
"c. c #60656A",
"v. c #575C5E",
"b. c #505458",
"n. c #5D6366",
"m. c #4F5458",
"M. c #5A5E61",
"N. c #4A4F53",
"B. c #4D5255",
"V. c #474D51",
"C. c #4D5155",
"Z. c #54585A",
"A. c #4E5356",
"S. c #515658",
"D. c #60676B",
"F. c #4F545A",
"G. c #5A6066",
"H. c #5E646A",
"J. c #4C5153",
"K. c #575C62",
"L. c #53595E",
"P. c #5F666B",
"I. c #61686C",
"U. c #61686D",
"Y. c #5F6468",
"T. c #515558",
"R. c #595D60",
"E. c #5C6063",
"W. c #585D5F",
"Q. c #616669",
"!. c #4F5457",
"~. c #5B6164",
"^. c #606669",
"/. c #61656A",
"(. c #575B5F",
"). c #5A6063",
"_. c #595D61",
"`. c #595D5F",
"'. c #52585B",
"]. c #55595C",
"[. c #5A6062",
"{. c #4B5156",
"}. c #4C5256",
"|. c #575D63",
" X c #535A5E",
".X c #62696E",
"XX c #63686B",
"oX c #545A5D",
"OX c #62686C",
"+X c #595E64",
"@X c #505659",
"#X c #62676C",
"$X c #5C6265",
"%X c #63686A",
"&X c #5E6266",
"*X c #63686C",
"=X c #464C51",
"-X c #484D51",
";X c #4C5155",
":X c #52575D",
">X c #494E52",
",X c #494F53",
"<X c #5F6367",
"1X c #545A5F",
"2X c #5D6369",
"3X c #61666B",
"4X c #5B6266",
"5X c #646A6E",
"6X c #666B6E",
"7X c #5F6365",
"8X c #4E5255",
"9X c #565C5F",
"0X c #606468",
"qX c #5D6264",
"wX c #4B5155",
"eX c #53585A",
"rX c #666B6F",
"tX c #4E5355",
"yX c #505457",
"uX c #63676B",
"iX c #44494D",
"pX c #484C4F",
"aX c #4D5156",
"sX c #535A5F",
"dX c #515559",
"fX c #595E60",
"gX c #53575A",
"hX c #565D61",
"jX c #5F6466",
"kX c #4F5558",
"lX c #5E6467",
"zX c #4E5256",
"xX c #616569",
"cX c #5E6265",
"vX c #616668",
"bX c #5E6569",
"nX c #64696E",
"mX c #5A5F61",
"MX c #636A6E",
"NX c #444A4E",
"BX c #646B6F",
"VX c #52585D",
"CX c #626669",
"ZX c #636A6D",
"AX c #62696D",
"SX c #63696D",
/* pixels */
"  . X o O + @ + # $ % & & * X = - # ; : > @ $ , < & < 1 < 2 + @ + * 3 & 4 * ; 5 X 6 7 & $ 8 9 1 0 q ",
"2 w e # r t + & y 1 u i p a s d > e - f e g + h & y & g 1 + j + o k @ l + + @ @ z o y < 4 & y x c + ",
"v b n m M N h 0 B V c & r C Z A h + a f < S D $ l r < F G H J a m 6 y K 6 - h L B < j X - P F I U o ",
"Z a * Y T R E 6 W Q ! ! & G : ~ ^ 4 1 6 f X / ( a C @ m ) 7 _ y i ` ' ] [ h { 7 } | ) % L $  ...# + ",
"m < E a y y i e E 1 e E X. .< o.! o 0 ; O.L +.& _ m 4 @.J e y y y & y < & #.s & < p &   $.E y P 1 < ",
"1 & ! %.y y y e r &.0 h +.< 1 *.- 4 ` ; c 6 6 + $ O.- =.4 -.y E i d e + o < 1 o 4 ;.% :.r y E g m 1 ",
"h a O.i B L E y >.L o.# < e # % & @ 0 1 E r ,.' h & E   E C y <.>.L K @.v & + 4 %.U 1.2.3.B y 4.; ! ",
"m h +.B @ * 4 Z c 5.! y 1 $ 6 N y 6 h h d K =.< & 6.+.+ x y i L * > 7.O y 8.1 & 9.& y E L L E A 1 t ",
"' $ B + - ; $ k l +.y @.0 0 h 0.& E i y c H 0 y 1 7 q.E V i L E X w.e.z H * X.1 e o y E E E E 6 t r.",
"d e - t.f f >.y.v u.- $ i.r O.X.p.q z ;.! 1 ^ > r a.6 m [ a h L l > N s.o a.>. .9 7 1 y K o 1 [ d.R ",
"E i 1.s h o f.v y g.L r E F F o +.<   ! z H c k h.>.F 3.j.< +.@ ' % < k.a.7.r F t l.y N z.4 & B x.d ",
"E < e o 6 c - h 1 1 E E r i E E O.1 +.& y 6.O.B F C F d E + - < 1 @ O.E c.3.i E F x - e h y 1 h F >.",
"y 1 s x.V + ; h O y & y & & & y 6 0 1 1 @ - E E E K F F <.v.& h & b.F E h.l E B C 7.: + y 8.` L E F ",
"y h d.n.# a e o a - < y i E < j =.1 & 1 & + e E E E i F H # o & < #.V y C C y E d - d +.h y 0.@ E y ",
"< i i v + 0 m.o y ; J & 1.l $ M.; H =.N.< 5.0 & & & y F - K @.p.O.e G l y a.& < < - y 5.B.+.E V E y ",
"L & < V.7 a d 2 * C.O.h 6 e j.Z.` + $ y X.#.A.@ y 3.E 6 * 6 J 1.6 * S.! & x.& a 8 2 y R D.* - V & < ",
"@ R 6 F.G.d a.H.k J.K.- 9.` $ @ f L E y y t ! h h & g d - k y d $ _ #.< d - s & y i l 1 0 e 3.h F 1 ",
"L.e < f P.I.L E U.6.4 e ! e y V c E E i E Y.T.h 6 ! r Z 0 l y c r c 8.=.y a O.j R.$ +.! a L Y.5.< F ",
"y E.m e 1.L E c x.K W.4 ; l #.i l F a.F F i Q.!.c < r m r E y & E L y ~.7 y F F d.>.x.>.B r E ^.!.@ ",
"& h * e y l % & >.1.a o +.g 4 E r L K j.1 6 H s i + 6 1 ~.C k.c & y F +.+.< @ l 0.Y.F F E F E /.2 y ",
"* & & ; y y r E r O.h B 2 1 & l.i.C L + i k e e e ! & B J a.L i l 3.F < y 0 +.F E (.p 3.E >.3.$ E H ",
"Z 0 8.m.E >.i k n.N ).; C i _.`.$ 3.3.h 2.4.N M.f I.'.F ].y F E L p [.j.0 % p l M b.F 3.c.K { W.j * ",
"F z _ {.@ 4 L   ! }.|.i.L K o =.w O.c B w +. Xr B Z C f O 4 s F `  .O d.i Y.c.i +   +.< Z @ - O d.r ",
"E y B !.6 h L.& 3.O.B Y.B C c.4.0 B & +.3.G d + ; h p r & & F d.O.E 1 Y.F F C Y.B ).y L 4 6 y 4 B Y.",
"y & y y o y c Y.- E L Y.B i.K .XG & E +.d m E 0 * _ p $ E 9 d F C 1 l F B F Y.F F E & 3.y XXoXc Y.Y.",
"& < & B O.< & E q.F F B E F OX2.H ! E + z f E * * 6 3.1 d =.d +X-.4 r F B x.F F F B + y y 5.@XE Y.B ",
"& < Q.V 6 E + i y l.F F l E C #Xs y e o C l.n.0 + i 3.e y O.c a l $X4 E L 1.F r <.y >.E + E & & Y.F ",
"& & %X~ <.2 - m.K * L l y y L E l & _ - r <.C i o y C K y &X@ O.A.1 y Y.C d E Y.;.E *X@ J !.3.t <.L ",
"e ; ! =X^ f C Z 4 -XO # 6 <.] ;X:X_ l e < P >X .1 E + ; ,X] o y c ! A.u.O l M D N W 0 B B < m W m 0.",
"s & & $ r L ;.B l X.e r - z r + k.+ 0 0 y j @ y 6 2 4 o h E y y y y A 1 y 1 ` c <Xy a.d B F B d <.$X",
"h @.; r F F c.; } % + ~.6 < B R E ; * 2 1 <.c i r h & @ % r B & & y i < & 6 E @.# E 3.B B B B B D < ",
"& I ! E l d c.1X2X3XG 4Xc 1 : 5X@ 2 : * +.B 6XA.o & E O x.r y & & B l 7X[ y y l.c F Y.B B B Y.,.8X# ",
"1 y j.y F r L x.p A m r l 3 F 9X).* * * 1 B 1 < & 1 < G 9Xy & & & c 0Xs r 8.< y 9XE B F B Y.Y.5.O.Y.",
"4 & B ; $XE F F c.: r r _ i c W.h + + a E 4.& y g 4 J p A y 1 < 1 e qXZ F ; O.y n.F p F B Y.<.5.{ j ",
"x.- 9XwX; ; d 1 R N.R i p Y.$ N ;X~ < E @ 0.~ +.Z >.1 4 m.m @ c < ` eX# +.L Y.y - v 0 y <.- - [ $X3.",
"& l K s C 6.; $ B 4 >.<.K B B _ 3Xi 9 ; & @.& Y.C K C 3.e < _.V N.& qXk.C L F B B 6 E 1 ; - E 3XrX<.",
"@ 1 Z 1 h r 6 E 5.$ B C Y.i F ;.& & & y r & d y k F F Y.5.! 1 h r E < B E F <.3.Y.+ < & 6 ;.& p y 1 ",
"s < h p tXR E H m.d y 3.i E F Y.j ; y <.o 3.~.` h E F K d 0.).E 1.m B y F E 3.F B K yX& F %Xq.p + @ ",
"* 0 _ L d.d p y a C O.o E y y Y.& y C y f y F * @ E E 7.B 1 & y & l E 3.y & < y y 1 * E y c & <.1 @ ",
"2 v { ;Xy < ] y y D g @ y L 1.o E uX#.+.F E d + + B F ;.$ < j -X; y 6 d y < E y A 0 y 5.7 6 E <.F + ",
"z ~.8.iX@ +.3.6.J pX9 4 1 F c 0.m < C >.< [.oX& & l r 5.D < aXd < # P 1 @ < F 1 &   1 +.B 0 + V < ).",
"E + h sX6 + ; 4 l B.- < #.dX& fXa F B y Z H 0 y + o < c ! i 1.E i f g $ & (.=.O.& 4 x.E y i i 1 y y ",
"+ & 1 k y ; ; 2 ! @ < y 0 $.<.gX& E i F E <.V E y - & &X0 B h.E F s L 0 y 1 hXy G l.C E >.d E < E F ",
"1 8 6 h.y 1 0 $ 2 1.J 1 < y 0 r E y y E E F M !.y y F }.>.OXa.3.E E & 8.; E C + v r F E Y.B B <.#.< ",
"& e + c.y E y < s p ! & & & @ o E E E E y B jX7 y E >.kXa.;.k D.F r r +.e L lXy zXy F F E E Y.xX; & ",
"* y R.# y i E B d =.- F a < y V F E E E F <X2 E E a y & h l 3.k.B E cXa y < z d J + F a.F #X;.].o Y.",
"d 1 vX' E F E F <.oXlXX.bXy ; #.d F E E Y.S =.5.+.nX& @.8 F F F Y.j mX< ; i B < Q.).Y.E p MX{ 0.d $ ",
"3.% F NX` l.~.* - ' $ 1.U.-.a ; ; 6.& cX9 G ] f BX#X<.o : a @ Y.E.v 2 a Z B Y.c - VX+ 1 l * +. .c p ",
"i < c.m.c y s E CXN OXU 3.p B p 1 c 6 ! y 8.& ZXAX3X3X<.5.e y + < y @ SXk.{ <.K K j.F d + y XX< Y.B ",
"0 0 $ e < y y E 1 i Y.B c.F @ k ~.l L @ B ! F >.Y.;.L >.p 1 i E y + 3.$XE & c C l y 1 <.3.B A L F & "
};
