/* XPM */
static char *result[] = {
/* columns rows colors chars-per-pixel */
"50 50 164 2 ",
"   c #25211F",
".  c #252120",
"X  c #2A2523",
"o  c #2D2A26",
"O  c #2E2A28",
"+  c #312B27",
"@  c #332D2A",
"#  c #392F2B",
"$  c #34322C",
"%  c #3A322D",
"&  c #37382F",
"*  c #38382F",
"=  c #3B3632",
"-  c #3C3A34",
";  c #41362E",
":  c #42382F",
">  c #423C34",
",  c #4A3D36",
"<  c #443E38",
"1  c #4C3F38",
"2  c #404037",
"3  c #44433A",
"4  c #4A443B",
"5  c #4A493E",
"6  c #524237",
"7  c #53443B",
"8  c #50493F",
"9  c #5D4C3E",
"0  c #494540",
"q  c #4E4C41",
"w  c #524E43",
"e  c #5C4C42",
"r  c #534E48",
"t  c #545246",
"y  c #5A5245",
"u  c #56524A",
"i  c #5C564A",
"p  c #5E5C4D",
"a  c #5B5650",
"s  c #5D5852",
"d  c #624E43",
"f  c #655244",
"g  c #695546",
"h  c #6C5846",
"j  c #645449",
"k  c #6D5649",
"l  c #655A4D",
"z  c #6A5C4D",
"x  c #705947",
"c  c #735B4A",
"v  c #795E4D",
"b  c #655E52",
"n  c #6D5F50",
"m  c #75614C",
"M  c #7C614E",
"N  c #666051",
"B  c #6C6454",
"V  c #666259",
"C  c #6C665B",
"Z  c #6F6A5E",
"A  c #726654",
"S  c #7D6552",
"D  c #746957",
"F  c #7E6852",
"G  c #716558",
"H  c #736B5A",
"J  c #796D5B",
"K  c #7C715D",
"L  c #757064",
"P  c #7B7362",
"I  c #7C776C",
"U  c #7E796D",
"Y  c #81654F",
"T  c #816550",
"R  c #846B54",
"E  c #8A6E56",
"W  c #8B7057",
"Q  c #81755E",
"!  c #8D7259",
"~  c #94765C",
"^  c #95795E",
"/  c #997A5F",
"(  c #817763",
")  c #847A63",
"_  c #897E65",
"`  c #837C6C",
"'  c #8A7F6A",
"]  c #967D62",
"[  c #9C7D61",
"{  c #827D71",
"}  c #8C8167",
"|  c #8C816A",
" . c #9F8063",
".. c #92856C",
"X. c #94896E",
"o. c #9E886E",
"O. c #878172",
"+. c #8A8371",
"@. c #8E8876",
"#. c #938671",
"$. c #948A74",
"%. c #9A8E75",
"&. c #948D79",
"*. c #9E9277",
"=. c #97907C",
"-. c #9C937C",
";. c #A18265",
":. c #A58768",
">. c #AC8C6B",
",. c #B2926F",
"<. c #A08B71",
"1. c #A1957A",
"2. c #A6997F",
"3. c #B29170",
"4. c #B59D7F",
"5. c #BB9C79",
"6. c #958F83",
"7. c #969285",
"8. c #9B9483",
"9. c #9F9883",
"0. c #9F9A89",
"q. c #A29680",
"w. c #A29B85",
"e. c #AA9D82",
"r. c #A59E89",
"t. c #AEA185",
"y. c #A7A08B",
"u. c #A8A28C",
"i. c #B1A387",
"p. c #B3A68A",
"a. c #B6A98D",
"s. c #B9AB8F",
"d. c #A6A190",
"f. c #ACA693",
"g. c #AFA995",
"h. c #ABA698",
"j. c #AEA998",
"k. c #B2AB96",
"l. c #BBAD91",
"z. c #B2AC9A",
"x. c #BFB195",
"c. c #BCB49D",
"v. c #B4AFA0",
"b. c #BBB5A2",
"n. c #BFB9A5",
"m. c #C5A987",
"M. c #C9AC89",
"N. c #CDB08C",
"B. c #C0B295",
"V. c #C0B398",
"C. c #C5B99D",
"Z. c #C1BBA6",
"A. c #C8BCA1",
"S. c #C4BEA9",
"D. c #CBC0A5",
"F. c #C6C1AC",
"G. c #CBC3AC",
"H. c #D0C6AC",
"J. c #CBC5B1",
"K. c #CFC9B6",
"L. c #D4CCB4",
"P. c #D3CDBA",
"I. c #D9D2B8",
"U. c #DAD5C1",
/* pixels */
". O & $ $ $ $ % & $ $ . . o t u u u u i u u u = . . = r r u r u u u r r . . X : 4 6 2 , , , , , % . ",
"@ 5 t t i t q t u p 3 o . b F.c.Z.c.c.c.c.F.c.H . O 6.b.z.z.z.z.z.z.z.0.> . 7 ! ! ! R ! ~ ! ! E 9 O ",
"3 i 3 3 5 3 3 3 3 q 2 O . f.n.x.C.B.x.B.V.C.x.*.X - J.f.u.u.d.u.u.u.u.8.i . R ^ Y x x Y T T g T d # ",
"3 t 3 3 3 3 t 3 3 3 2 $ . f.x.x.B.B.B.B.x.x.x.*.o = P.z.r.=.6.r.z.f.u.u.j . S R v c v M v M c M d % ",
"3 p 3 5 t 3 3 3 3 3 2 $   f.C.x.B.B.B.B.B.B.x.#.X - F.u.-.i L C < S.y.u.i . 9 k x k k k k k k d 7 # ",
"2 p 3 3 3 3 3 3 5 3 & X . g.H.x.B.B.B.B.B.B.B.l . - n.y.8.j . . - S.y.&.4 . R ;.[ / ! [ ;.[ [ E 9 % ",
"3 t 3 3 3 3 3 3 5 5 2 o . f.x.x.B.B.B.B.B.B.B.} X - F.y.-.B % . - S.y.-.X . T ! Y v x Y T k v c d # ",
"  3 0 3 2 3 3 2 3 2 2 $   & I.x.B.B.B.s.B.B.l.*.X - F.u.u.-.H > . { c.u.i . , e d d d e S v v S f % ",
"O 5 5 3 3 3 3 3 3 3 & $   V D.x.B.B.B.p.a.p.t.} X - K.j.r.r.$.P L k.u.u.i . f ! ~ ~ ] M S S S T g # ",
"3 t 2 2 3 3 2 3 3 2 & $   f.x.a.a.x.x.B.x.i.a.X.X - Z.d.r.&.r.f.c.u.u.u.i . R W v c T / [ [ ! [ c # ",
"2 q 2 o - 2 2 2 2 2 & $   8.s.+.N a.a.s.1.p.t._ X = d.&.8.-.w.w.w.w.8.` y   f M v c f T v v c c e # ",
"X $ & . o & $ & $ $ $ .   3 K t + J K K D J J 5 . X 0 b b b b b N b N i + . @ , 1 1 1 1 1 1 7 1 # X ",
". . . . . . . .           . . .   .     . . . .     . .     .           . . . . . . . . . .   . . . ",
". & q q q q q q q 5 2 X   $ 7.7.7.7.7.7.7.7.7.u . .   .     . .     .   .   + g T T T T S T T S 1 . ",
"3 i p 3 5 p 5 3 t q & $   j.J.u.F.u.u.u.f.G.j.A X . + O . . . . X { P.K.@ . E >.T ^ E T T T [ v e # ",
"3 p q 3 t q 3 t t 5 5 $   d.f.y.u.u.u.u.r.u.u.` X X I s .     o r h.d.$.w . R ~ v R T T T Y E Y d # ",
"2 t 5 t 5 5 t 5 3 t 5 $ . d.u.u.u.u.u.u.=.w.u.O.X - S.U 3 . 5 w b.C 7.z.j . R W c T T T T T T v e # ",
"2 p t 5 5 t t 5 t t 2 $ . b Z.u.u.u.u.u.u.y.-.H X - S.r.+.8 4 0 b.V 6.z.i . R ;.Y Y T T T T T T d ; ",
"3 p 5 5 t 5 5 t q 5 5 $ . r F.u.u.u.u.u.u.u.=.y   $ f.u.r.8.&.C f.@ 6.z.i . R ^ T T T T T T T T d ; ",
"3 t 5 t t 3 5 t 3 5 t $ . h.u.y.y.u.y.u.y.y.y.O.X   b r.u.d.u.r.8.o I z.w   R / T Y Y S T T Y T d # ",
"3 i t q 3 i t 5 t u 2 $   h.n.u.u.r.&.u.u.u.y.O.X @ 0.y.&.r.u.u.w.0 O v.o   ! >.Y T T T T Y k Y g # ",
"3 p q 5 t 5 5 5 t 3 3 $   h.k.y.r.r.9.y.u.u.u.| X - S.u.w.u.u.u.#.r , 0 .   E ~ Y Y T Y T T v Y g ; ",
"2 t 5 t t 3 8 t 5 5 t $ . f.w.&.&.y.y.r.9.y.r.) X = n.r.u.u.u.&.> o X   . . R E Y Y v Y T v T Y d # ",
"$ 2 2 5 2 2 5 - 2 5 * o   V H H H | +.C 8 P ( u . @ L ( +.+.J 5 X . . . . . 1 d k 9 ; g k e d d , X ",
"    o o o o o o o o X . . X - $ $ - > @ . = > + . . + > > > +   . . . . . . . + # o   # # # # # X . ",
"                . . . . . .     . . . .         . .         . . . . . . . .       .             . . ",
"o 5 p p p p p q O 3 q O . $ l.X.>   . % q.l.J X . X I a.a.l.p.p.p.a.B.e.+ . w t.M.) + m.M.N.N.M.S X ",
"3 p 5 3 3 3 3 3 & 2 & O . o U $.z . = ) e.%.j > . = a.X.| *._ _ _ o.q.D , . <.M.,.3.m >.,.,.3.>.v ; ",
"3 t & t 3 3 3 3 3 3 2 $ . . e 2.Q 1 y 1.} Q n j X % 2.} K z } _ _ _ _ z , . o.5.3.,.,.,.3.3.3.3.E ; ",
"3 t q 5 3 3 3 3 3 3 2 $ . = #..._ A > P X.) D 9 . % e._ y 8 | } _ _ _ j ,   o.5.3.3.,.,.3.3.3.3.E ; ",
"3 t 3 3 3 3 2 3 3 2 - $ . $._ Q Q ) 1 B $._ } z X % p...D H H ..' _ _ _ , . o.5.,.,.,.,.3.3.3.3.E ; ",
"3 t 3 3 3 3 3 3 3 3 3 $ . +.) A K ) e 4 $..._ l . % e.} | 1.2..._ _ _ _ , . :.5.,.,.,.,.3.3.[ 3.E ; ",
"2 t 3 3 3 3 3 3 - 0 2 O . 3 w.) _ _ D # %.e.J > . # l.%._ _ _ _ _ _ _ _ , . <.5.3.3.,.,.,.,.:.3.E ; ",
"2 t 3 2 & 2 3 2 3 3 2 $ . . 3 y._ _ J 6 @ b % @ . = l.$._ ) _ _ _ _ _ z , . :.5.>.>.,.,.,.,.,.,.E ; ",
"3 t 3 - & 2 3 3 3 3 2 $ . o H } j %.) n % . i G . % q.} _ _ _ _ _ _ _ _ ,   o.5. . .,.,.,.,.,.,.E ; ",
"3 q 2 2 3 3 3 3 3 3 & $ . K X.A @ p._ ( w , $._ o = ..J z j J _ Q A _ z ,   ../ ,.,.3.M ! 3.,.:.k ; ",
"O & & & & & & & & & $ X   ` D 4 X 4 - B j % 2 K o . 4 7 , @ 4 e e 7 y 7 O   < 9 m x m 7 * f c x , X ",
". . . . . . . . . . . . . .     . . . .     .     .     . .       X         . .                 . . ",
". u U V O V I I I U V @ . $ ` U ` U I ` ` I U 5 . . , g k h h g h h h f X . @ 9 g g g g g h h g , . ",
"a v.S.v.O.d.b.b.J.U.+.5 . ` I.D.D.D.D.L.H.D.c.Q X + / ;./ >.~ ~ ~ ;. .S % . g ;.~ ~ ~ ~ ~ ~ ~ ! e + ",
"U n.y.u.u.u.=.i O.g.-.i . g.C.x.B.1.s.B.B.B.B.D   % [ v Y Y Y Y Y T T T ,   R ! F M T T T T Y m d ; ",
"U n.u.u.u.y.P o I b.-.i . g.A.x.B.s.B.B.B.B.s...X % / c Y T Y Y T T T c ,   R ! F Y T T T T c S g # ",
"U K.g.y.u.u.0.h.j.f.-.y   g.B.B.B.B.B.B.B.B.s.%.X # >.~ T v x Y T T T v , . R ! Y Y Y T T T M E g # ",
"I P.g.C H u.u.z.k.u.C - . g.x.B.B.B.B.B.B.B.B.1.X # ;.T Y k m W T T v T , . R E k x Y Y T T T T g # ",
"I n.y.u O.g.u.u.u.u.P w . f.x.x.B.B.B.B.B.B.B.1.X # ;.R Y g f W T v d T , . R E 7 c E T T T T T g # ",
"p d.f.F.c.u.y.u.u.y.-.i . g.A.x.B.B.B.B.x.B.B.*.X % / h R h X g E g 7 ^ 1 . R ! ! ~ Y T T T T T g # ",
"a y.u.y.y.y.u.u.u.u.-.i . g.L.B.B.B.B.B.B.B.a.A   # c 9 ! M %   9 c + ^ 1 . T ! Y Y T T T T Y T k # ",
"I b.y.u.$.$.y.y.r.u.&.i . f.l.B.B.B.B.x.s.l.l.1.    o 9 7 Y   M T 6 . . . . R E T T T T c c T Y d % ",
"s O.+.` ` A +.O.C | C 4   I o.*.*.t.e.1...2.1.H     7 h @ +   # 7 o . . . . f f c x x k k c k k 1 + ",
". & 5 O 4 4 4 >   * > X   X y 2 < t y y y y y *     , :                 . . . @ % ; ; % % ; % ; + . "
};
