/* XPM */
static char *d132027c97314ac2915e6380243e5da7shgsucSFBZj6EKqY[] = {
/* columns rows colors chars-per-pixel */
"50 50 171 2 ",
"   c #6F9D9C",
".  c #779E9F",
"X  c #739DA4",
"o  c #789FA0",
"O  c #66A7A7",
"+  c #6BA5A6",
"@  c #67ADAB",
"#  c #6DABAC",
"$  c #75A3A6",
"%  c #73AAA7",
"&  c #7AAAA7",
"*  c #72A6A9",
"=  c #7BA4AA",
"-  c #74AAAD",
";  c #7AABAD",
":  c #64B0AC",
">  c #69B3AF",
",  c #75B0AF",
"<  c #79B2AE",
"1  c #6EADB1",
"2  c #74AEB2",
"3  c #7AADB3",
"4  c #7AAFB9",
"5  c #6CB2B2",
"6  c #6FB9B6",
"7  c #74B4B4",
"8  c #7BB3B5",
"9  c #75BAB7",
"0  c #77B4BA",
"q  c #7CB4BA",
"w  c #75BCBC",
"e  c #7CBABB",
"r  c #76C1BC",
"t  c #7DC1BF",
"y  c #75BEC0",
"u  c #7BBEC1",
"i  c #7DC3C2",
"p  c #82AEAF",
"a  c #84ACB4",
"s  c #84AEB9",
"d  c #81B3B5",
"f  c #8DB4B5",
"g  c #85B9B3",
"h  c #83B5B9",
"j  c #88B3BA",
"k  c #83BBBD",
"l  c #8BBABD",
"z  c #94B1B5",
"x  c #91BABC",
"c  c #84C1BE",
"v  c #84B7C2",
"b  c #85BDC3",
"n  c #8BBDC2",
"m  c #85BEC9",
"M  c #8EBBC8",
"N  c #92BDC4",
"B  c #84C3C3",
"V  c #8BC3C5",
"C  c #81CBC7",
"Z  c #89C9C7",
"A  c #85C4CA",
"S  c #8DC5C9",
"D  c #85CAC9",
"F  c #8DCBCC",
"G  c #93C1C6",
"H  c #9AC3C5",
"J  c #93C4CA",
"K  c #9AC4CB",
"L  c #94CACC",
"P  c #9CCBCD",
"I  c #9FD2CD",
"U  c #8CCBD0",
"Y  c #95C6D1",
"T  c #98C6D2",
"R  c #94CDD2",
"E  c #9BCDD2",
"W  c #96CDD9",
"Q  c #9DCED9",
"!  c #8ED4D5",
"~  c #94D3D4",
"^  c #9BD2D5",
"/  c #9CDAD5",
"(  c #95D4DC",
")  c #9BD5DC",
"_  c #96D9DB",
"`  c #9CD9DC",
"'  c #A2C6C9",
"]  c #A4CBCE",
"[  c #B0C7CC",
"{  c #B0CBCE",
"}  c #A1D0CF",
"|  c #A3CDD3",
" . c #AACFD3",
".. c #A2CFD9",
"X. c #A3D2D5",
"o. c #ACD3D5",
"O. c #A8DBD7",
"+. c #A4D5DB",
"@. c #AAD4DA",
"#. c #A3DADD",
"$. c #ABD9DD",
"%. c #B2D4DB",
"&. c #B8D6DB",
"*. c #B3DCDD",
"=. c #BCDFDF",
"-. c #9EE0DE",
";. c #A2E1DF",
":. c #B7E2DF",
">. c #96D7E0",
",. c #9CD4E2",
"<. c #95D8E1",
"1. c #9CDCE3",
"2. c #9DD3E8",
"3. c #A2D6E1",
"4. c #AAD7E1",
"5. c #A3DBE2",
"6. c #ACDDE3",
"7. c #ABDEE9",
"8. c #B4DDE4",
"9. c #BBDEE5",
"0. c #B4DEEA",
"q. c #BADEE9",
"w. c #A5E0E2",
"e. c #ACE2E5",
"r. c #AEE8E5",
"t. c #ACE3EA",
"y. c #ABE8E9",
"u. c #B4E3E6",
"i. c #BBE3E6",
"p. c #B5E9E7",
"a. c #B5E4EB",
"s. c #BBE4EB",
"d. c #B5E9EC",
"f. c #BBEAED",
"g. c #B6E5F0",
"h. c #BBE3F1",
"j. c #B4EAF1",
"k. c #BAEAF1",
"l. c #B9E7F8",
"z. c #BBF1F3",
"x. c #C2DEE3",
"c. c #C1DEE9",
"v. c #C4DEF1",
"b. c #C2E4E5",
"n. c #CAE3E6",
"m. c #C2E4ED",
"M. c #CCE5EB",
"N. c #C3EAED",
"B. c #CBE9EE",
"V. c #D2E4EB",
"C. c #D9E6EE",
"Z. c #D2E9ED",
"A. c #DAEBEF",
"S. c #C3E5F2",
"D. c #CBE6F2",
"F. c #C4EBF3",
"G. c #CCECF3",
"H. c #CEEEF9",
"J. c #D3E6F2",
"K. c #D3EBF4",
"L. c #DEEEF5",
"P. c #D3ECF8",
"I. c #DAEBFA",
"U. c #C4F1F4",
"Y. c #CCF2F4",
"T. c #C7F3F9",
"R. c #CBF2F9",
"E. c #D1F0F5",
"W. c #D2F3FB",
"Q. c #E0EDF5",
"!. c #E1F2F7",
/* pixels */
"b.X.F F l ] @.| %.c.x.x.x.b.9.&.. a ' &.K.J.Z.J.J.Z.J.J.Z.K.Z.J.J.V.B.E.o.x . < K } o.i.m.9.=.9.p.p.",
"] B i w 7 P ) Q 6.g.s.s.s.s.a.e.% P X.X.F.D.G.G.G.H.H.G.Y.H.G.P.H.G.F.+.8 # ~ y.r.c - l E  .o.#.#./ ",
"H 8 5 5 u ( <.( 7.g.s.h.a.a.e.d.7 ` ^ a.s.f.s.s.s.9.q.i.9.q.s.9.i.a.u.9 8 ~ y.w.w.d ; - = s j m B c ",
"{ G q 0 B ( <.1.t.g.h.s.s.a.d.L R / p.a.u.s.u.i.a.s.a.a.a.a.a.a.a.f.Z w 9 e L X.o.8.8.8.q.q.q.q.u.P ",
"A.P.G...v ( _ 1.t.g.s.h.s.f.e.8 #.w.a.u.s.u.f.a.a.i.a.i.a.i.a.u.u.#.9 r 9 k | f.K.P.Z.D.G.H.K.J.B.E.",
"L.P.H.J q ) ) ,.a.h.s.q.s.d.Z b X.f.u.s.a.a.a.u.a.a.s.s.s.s.a.a.d.c 9 9 5 V a.U.P.P.J.I.D.G.P.P.E.E.",
"Z.K.8.h q ~ ( w.j.g.s.a.k.6.7 V O.f.s.s.a.a.a.s.s.s.s.s.S.a.u.f.#.7 w r 5 A ~ w.f.I.K.W.G.G.P.K.P.Y.",
"V.N.G q ; J ^ e.6.a.u.e.#.e # L +.m.s.s.s.m.m.s.s.9.f.S.u.e.F k B F e e 5 V ` ) E m.D.D.N.s.m.m.f.n.",
"V.b.J k - ; G u.%.H < & % + ; P +.s.s.s.s.s.s.s.s.a.6.^ J B C D B F ~ 7 * h _ _ ^ *.N.i.i.a.s.q.a.i.",
"b.i.J h 2 ^ N.D.B.B.N.i.*.$.+.V $.s.a.s.s.f.a.t.#.L F B c C C D B B J v n M F _ ~ u.a.i.p.i.s.m.i.i.",
"n.F.V b t.U.G.D.D.D.M.s.i.s.6.h #.d.u.+.K S Z Z B Z B C C i i e k #.k.F.G.G.5.` _ u.f.u.p.a.s.s.a.p.",
"n.e.B e ^ #.8.a.q.m.c.q.s.a.a.k / F F V n B c c B B e 8 8 - - e 6.R.R.s.m.S.k.` ~ r.i.p.i.a.q.s.s.i.",
"b.Z 8 # V ^ 1.e.u.a.0.g.g.a.f.q B e B L ^ ^ V h d h G o.*.$.k v $.4.f.c.c.c.s.V ~ a.u.p.u.i.s.m.i.b.",
"o.% : @ 5 ! ) 5.7.g.a.s.s.g.d.h 4 X.:.f.U.B.B.m.b.m.B.G.G.G.N.J 5.6.s.s.q.a.6.8 k e.d.a.p.d.a.N.8.m.",
"B.o.G ; * l J E 6.k.s.k.s.0.b ; c f.U.Y.Y.B.G.G.G.D.D.G.G.D.$.8 B 4.S.8.E N j a j N $.E l < ; s ; ] ",
"C.K.W.9.9.K.Y.*.N $ X X $ - - q $.u.z.N.i.i.m.s.b.s.m.i.s.k.h 8 + -  .8.k.D.W.W.K.W.P.c.E ; ; s g.R.",
"Q.J.D.H.I.J.B.P.Y.N.m.8.x - 2 F ^ #.u.f.a.i.f.s.s.s.s.a.s.u.k w @ #.W.H.H.H.D.D.G.D.H.H.f.f.G M 0.l.",
"n.G.S.G.D.B.B.G.B.B.N.Y.Y.J 1 1./ e.d.d.a.d.a.a.s.a.s.s.a.a.8 9 @ #.S.B.m.s.s.s.s.s.s.q.s.a.4.b 2./ ",
"x.m.a.i.a.i.s.9.i.i.9.s.s.G 2 ` ) e.d.a.s.s.s.h.s.s.s.h.s.a.e : i ^ q.q.q.a.a.a.a.a.a.a.a.a.0.m ` ) ",
"x.i.a.a.f.s.f.s.s.s.q.q.k.E 0 ) ) u.d.a.s.s.s.s.f.s.s.s.s.e.e > ! X.s.q.a.s.s.a.s.a.s.a.s.a.0.m >.` ",
"C.b.s.a.f.i.d.a.h.s.h.s.S...4 W 3.a.f.s.s.s.s.s.h.s.h.h.s.4.q y _ 3.f.h.k.q.m.s.s.q.s.s.s.s.s.M ( >.",
"Z.i.s.s.a.a.u.d.a.i.0.8.$.Q 2 b #.u.s.s.s.g.a.a.a.s.a.a.a.6.q y >.8.v.q.a.s.s.s.m.q.S.s.a.a.6.S W 3.",
"B.m.a.a.i.u.r.O.E J v h q 2 + e #.4.s.s.s.s.s.a.s.a.s.a.s.4.0 y ( q.S.a.g.s.s.s.s.s.a.d.t.( V b ,.2.",
"A.s.u.$.P H c k V E h 2 5 5 > 7 ^ ^ a.f.s.s.s.s.s.s.a.s.s.+.v u ) 7.l.g.j.a.a.a.a.t.d.5.R B e 8 >.3.",
"=.H V k h x o.s.F.F.6.^ ( ! C , ~ ^ 8.f.q.s.s.a.s.a.s.s.s.E 4 * S v F L ) 4.7.w.;._ F B c 7 # e ,.3.",
"' h ; ^ f.G.K.V.J.P.F.4.Q / ` e S ^ $.s.s.a.i.a.s.a.a.u.u.J h J u.2 7 S $.| N 8 e 7 9 - > # + c 1.7.",
"x & c z.k.G.K.I.J.P.G.8.+.W ` k 2 #.^ E X.#.$.$.6.8.a.a.a.B 4 s.R.; 8 a.H.K.S.u.k , # J 6.P f G n 4 ",
"f < _ / u.N.G.G.D.m.s.s.a.7.w.k 2 V F V V S S S V V V L L Z d P.8.h e.R.D.I.P.S.#.2 k F.F.N.b.s.5.3 ",
"f A 1.) X.$.s.f.s.s.s.s.s.a.f.V 8 7 8 2 h l N K X.X.X.| E V 8 N.4.S j.F.P.D.D.c.a.h n 6.s.s.9.s.a.4 ",
"N U <.>.+.$.9.q.s.q.s.s.a.m.N.O., 7 - N c.D.B.D.K.G.G.G.G.i.k S k S #.7.4.8.m.q.a.k L $.s.a.s.h.s.n ",
"H W <.>.) 4.s.s.s.s.s.s.s.i.i.d.B 7 e 6.F.S.G.G.G.Y.G.G.F.+.E ^ 1 ~ ,.3.Q 4.q.q.u.V ~ w.s.s.s.c.s.E ",
"] ) >.( ) u.s.s.m.s.s.s.s.s.u.d.w.7 ~ 5.@.a.f.k.F.N.f.N.f.:.^ ` e ~ ) ) ) a.f.s.8.^ ^ u.s.s.m.q.s.$.",
"] ) ( ( ` f.i.s.q.s.s.s.s.i.a.u.#.9 ~ ~ X.6.a.a.a.a.s.a.a.d.w.Z > ~ ` ) ) $.a.s.s.6.R s.u.u.i.a.u.I ",
"z | 3.W 5.a.f.f.s.q.8.q.S.f.u.| q + _ ) ) d.a.g.a.s.s.a.a.d.` B 7 A 1.) ,.) s.s.a.d.J q.s.e.O.J c < ",
"[ a T $.$.f.S.s.q.s.8.| N a p . $ 2 Q / 5.k.s.a.g.a.a.a.a.d.F B 1 u ` ) ) / d.s.a.d.n j K P  .$.O.I ",
"!.D.0.M $.u.@.K | 8.8.q.s.9.%.' l $ q #.5.g.g.s.s.h.a.g.a.^ Z e 5 6 1.) ) ) u.s.a.4.B i.B.D.M.D.B.Y.",
"Q.K.R.a.d $ j N.W.Y.G.G.G.Y.P.R.G.s.^ G w.a.g.a.d.t.u.;.^ V c , 2 - B L L ^ e.u.$.u.F.K.B.P.P.K.G.Y.",
"L.G.Y.J 8 - n @.i.B.Y.Z.B.B.G.m.c.q.a.v ( E Q 3.L J Z g 8 g P u.i.u.:.f.K 8 M b a.U.W.K.G.Y.G.G.G.B.",
"J.m.a.q 8 , L ^ | s.G.N.b.i.s.s.q.s.a.X.+ * 1 * v 6.@.X.O.s.G.K.M.D.D.G.N.k # L 3.t.N.B.N.N.S.m.s.N.",
"B.i.u.9 9 < ~ #.^ s.i.f.s.u.a.a.s.k.8.a.q 3 4 2 $.U.F.F.G.E.W.I.J.J.K.P.N.k b _ ) ) e.i.i.a.s.s.u.i.",
"B.i.k.e 7 7 _ ( +.a.d.a.d.u.d.a.s.a.s.f.L 1 2 R 3...q.D.P.H.G.H.D.c.F.S.n 4 U 1.>.) e.u.d.a.a.s.u.p.",
"n.f.j.e 9 e _ ) #.d.a.a.a.d.a.a.s.g.u.j.#.1 m W 3...@.c.m.s.0.q.q.a.d.U 0 4 y >.( ) y.u.d.p.a.s.f.i.",
"M.p.e.V 9 c ) ) 5.d.a.s.a.a.a.s.s.s.d.e.F y ( >.,.4.a.s.q.h.a.q.a.g.j.b w q 2 W >.>.t.d.f.a.i.m.i.p.",
"B.i.u./ 9 e 1.) 3.g.s.a.a.f.s.s.s.6.#.F i A ,.,.) 7.g.j.a.h.h.g.q.s.g.S 0 4 W >.>.,.t.t.a.i.s.s.a.i.",
"n.m.u.) 7 7 A ) ) d.a.e.#.` R / Q Y b A y U ( ( 5.j.g.g.a.g.s.s.h.s.g.W q 5 ~ _ <.( j.a.a.s.m.s.a.p.",
"V.b.0./ 0 7 7 B h l J P P S q h d l E L q / ) ,.l.a.a.g.h.g.h.h.s.h.0.+.q 3 ! >.>.( l.a.s.s.h.h.a.p.",
"V.c.a.,.q 2 & & x =.b.N.N.f.^ & K U.Y.k.E ^ 3.g.0.g.h.h.h.h.g.s.h.l.0.7.v 4 W ,.2.,.l.h.h.h.v.h.a.i.",
"V.m.a.) 0 7 < $.Y.G.Y.Y.b.8.u.n T.u.O.a.X.k ) a.g.g.s.h.s.g.s.d.s.l.d.t.b 4 W 2.3.2.l.h.h.a.h.s.s.a.",
"D.q.y.` 9 7 P U.F.H.m.s.s.q.g.Q ..M T l...3 j j l J K P H J J L K P L L Z 8 S 3.,.,.0.a.a.a.a.a.f.u.",
"n.=.i.O.g g | @.o.c.c.c.q.S.c.8.X s j N 4.9.i.o.P *.u.*.o.x x l x p ; & - . f | ..@.0.i.u.:.=.=.i.=."
};
