/* XPM */
static char *_8c2eaedc049435bcbb6326a52aa6dc2HQcY64eoQAuJzB08[] = {
/* columns rows colors chars-per-pixel */
"50 50 199 2 ",
"   c #697A0B",
".  c #677E07",
"X  c #646D1D",
"o  c #677F17",
"O  c #6A7C11",
"+  c #65791A",
"@  c #687917",
"#  c #534F26",
"$  c #56532F",
"%  c #5E5D35",
"&  c #5E5C3A",
"*  c #5D573B",
"=  c #615D37",
"-  c #62622D",
";  c #6D772D",
":  c #747C2D",
">  c #737F20",
",  c #626335",
"<  c #65633C",
"1  c #6C6D3C",
"2  c #68673C",
"3  c #6E7136",
"4  c #6E713C",
"5  c #727734",
"6  c #72743C",
"7  c #757A3C",
"8  c #645F40",
"9  c #696741",
"0  c #6C6B43",
"q  c #6E6C4B",
"w  c #676547",
"e  c #716E46",
"r  c #716E4B",
"t  c #6B7145",
"y  c #737345",
"u  c #757844",
"i  c #7A7A45",
"p  c #74724C",
"a  c #78764D",
"s  c #7B7B4C",
"d  c #787646",
"f  c #6B6D58",
"g  c #736F5A",
"h  c #757352",
"j  c #797652",
"k  c #7D7B54",
"l  c #75745A",
"z  c #7C7B5A",
"x  c #7E7C69",
"c  c #807B4F",
"v  c #817E55",
"b  c #817E5A",
"n  c #6C820E",
"m  c #6B8213",
"M  c #748719",
"N  c #7D843C",
"B  c #7B8532",
"V  c #7A852C",
"C  c #7D8446",
"Z  c #7D814B",
"A  c #828C2E",
"S  c #85912A",
"D  c #889520",
"F  c #848B39",
"G  c #879038",
"H  c #879436",
"J  c #82834D",
"K  c #85884E",
"L  c #858946",
"P  c #879742",
"I  c #858453",
"U  c #888755",
"Y  c #888855",
"T  c #85835B",
"R  c #89865C",
"E  c #8B8A5D",
"W  c #8C9355",
"Q  c #8A9559",
"!  c #91915C",
"~  c #929D59",
"^  c #99A149",
"/  c #9EA458",
"(  c #8C8B62",
")  c #8C8C6A",
"_  c #868562",
"`  c #908E64",
"'  c #8F9368",
"]  c #939365",
"[  c #999867",
"{  c #959469",
"}  c #98966A",
"|  c #9C9B6C",
" . c #979C65",
".. c #868773",
"X. c #898973",
"o. c #8D8E7C",
"O. c #959571",
"+. c #9D9C72",
"@. c #92927B",
"#. c #9C9E7E",
"$. c #999476",
"%. c #A09F73",
"&. c #9CA06C",
"*. c #9EA27A",
"=. c #A2A26E",
"-. c #A1A867",
";. c #A4A474",
":. c #A5A579",
">. c #A8A779",
",. c #ABAA7B",
"<. c #A7A776",
"1. c #B0B477",
"2. c #BEC16D",
"3. c #9C9B84",
"4. c #929083",
"5. c #9FA485",
"6. c #ABAC82",
"7. c #A4A78A",
"8. c #B0AF83",
"9. c #A4A496",
"0. c #ABAA95",
"q. c #AAA899",
"w. c #B3B49E",
"e. c #B3B898",
"r. c #ADABA0",
"t. c #B3B2A7",
"y. c #BBBCAD",
"u. c #B7B3AB",
"i. c #B7B7B0",
"p. c #BDBDB1",
"a. c #BAB7B0",
"s. c #BFC3A9",
"d. c #BFC1B3",
"f. c #C3C084",
"g. c #CBCB9C",
"h. c #C7D099",
"j. c #CFD6AB",
"k. c #C4C3BC",
"l. c #C9CBBA",
"z. c #C6C8B6",
"x. c #D2D0BD",
"c. c #CDCBC4",
"v. c #C9C9C8",
"b. c #D0CDC3",
"n. c #CFD0C6",
"m. c #CED0CA",
"M. c #D5D4CD",
"N. c #D8DBCA",
"B. c #CFCED1",
"V. c #DADAD5",
"C. c #DDDDDD",
"Z. c #D6D5D4",
"A. c #E0DDD8",
"S. c #DEE1D9",
"D. c #E1E2D5",
"F. c #E1E2DD",
"G. c #DEDCE3",
"H. c #E0DFE4",
"J. c #E3E3E3",
"K. c #E9E9E5",
"L. c #E8E7EB",
"P. c #EDEDEB",
"I. c #ECECEC",
"U. c gray93",
"Y. c #EEEEEE",
"T. c #EFEFEF",
"R. c #EFEEEE",
"E. c #EDEDEF",
"W. c #EAEAEA",
"Q. c #E7E8EA",
"!. c #F0ECEE",
"~. c #F1F1EE",
"^. c #EFEFF0",
"/. c #ECECF0",
"(. c #F0EFF1",
"). c gray94",
"_. c #F1F1F1",
"`. c gray95",
"'. c #F3F3F3",
"]. c #F4F4F4",
"[. c gray96",
"{. c #F6F6F6",
"}. c gray97",
"|. c #F3F3F3",
" X c #F9F9F5",
".X c #F8F8F8",
"XX c #F9F9F9",
"oX c #F8F8F9",
"OX c gray98",
"+X c #FBFBFB",
"@X c #F9F8FA",
"#X c gray99",
"$X c #FDFDFD",
"%X c #FEFEFE",
"&X c white",
"*X c #FFFFFF",
"=X c #FEFEFE",
"-X c #FDFDFD",
";X c #F7F6F8",
/* pixels */
"&X&X&XI.C.C.J.&X&X&XJ.C.C.J.&X&X&XJ.J.C.K.&X&X&XC.C.S.Q.&X&X&XJ.C.C.U.&X&X&XJ.C.C.U.&X&XXXJ.C.C.).&X",
"&X&X&XI.C.C.J.&X&X&XW.C.C.J.&X&X&XJ.C.C.Q.&X&X&XG.C.G.J.&X&X&XJ.C.C.U.&X&XXXJ.C.C.U.&X&XXXJ.C.C.U.&X",
"&X&X&XI.C.C.J.&X&X&XQ.C.J.J.&X&X&XJ.C.C.W.#X&X&XF.C.C.J.&X&X&XJ.C.C.U.&X&X&XJ.C.J.U.&X&XXXJ.C.C.'.&X",
"J.J.J.U.{.{.'.J.J.J.(.{.{.'.J.J.J.'.XX{.'.J.J.J.{.;X.X'.J.J.J.'.}..XU.J.J.J.'.{.{.U.J.J.J.{.;X{.I.J.",
"C.C.C.U.&X&XXXC.C.C.'.&X&X{.C.C.C.{.&X&X'.C.C.C.XX#X&X{.C.C.C.{.+X&XU.G.C.J.}.&X&XU.C.C.J.XX&X+XW.C.",
"G.C.C.^.&X&XXXC.C.C.'.&X&X{.C.C.C.{.&X&X'.C.C.C.&X&X&X{.C.C.J.{.&X&X!.S.C.S.XX&X&XU.C.C.C.&X&X&XQ.C.",
"].].'.U.W.J.I.'.'.'.U.W.J.U.'.'.'.U.I.W.U.'.^.'.W.W.W.U.^.'.'.W.Q.L.U.'.'.'.W.W.W.U.'.'.'.W.W.J.U.'.",
"&X&X&XU.C.C.J.&X&X&XK.C.C.Q.&X&X&XJ.C.C.W.&X&X&XC.C.C.J.&X&X&XJ.C.C.I.&X&X+XC.C.C.U.&X&XXXJ.C.C.'.&X",
"&X&X&XW.C.C.J.&X&X&XQ.C.C.J.&X&X&XQ.C.C.W.&X&X&XC.C.C.J.&X&X&XJ.C.C.U.&X&X&XJ.C.G.U.&X&XXXF.C.C.'.&X",
"{.{.{.T.J.J.W.{.{.{.I.J.J.W.{.{.{.U.J.J.I.{.{.{.W.J.J.W.{.{.{.W.J.W.U.{.{.'.W.J.K.U.].{.{.W.J.J.'.].",
"C.C.C.U.&X&XXXC.C.C.'.&X&X'.C.C.C.{.&X&X'.C.G.C.&X&X&X{.C.C.C.{.&X&X'.C.C.J.;X&X&XI.C.C.J.XX&X#XJ.C.",
"C.C.C.~.&X&XXXC.C.C.'.&X&X{.C.C.C.{.&X&X'.C.S.G.XX&X&X{.C.C.J.{.&X&XU.C.C.C.XX&X&XU.C.C.J.XX&X&XW.C.",
"J.J.J.'.XXXXXXJ.F.H.'.XXXX{.J.C.C.{.XXXX'.J.J.A.XXXXXX{.J.J.J.{.{.XX'.J.J.J.{.XXXXU.J.J.J.XXXXXXW.J.",
"XXXXXXU.J.J.J.XX+XXXW.J.J.J.&XXX+XW.F.J.W.XXXXXXJ.J.C.W.XXXXXXJ.J.J.U.XXXXXXJ.J.J.U.XXXX{.J.J.G.'.XX",
"&X&X&XU.C.C.C.&X&X&XW.C.C.J.&X&X&XJ.C.C.Q.#X&X&XJ.C.C.J.&X&X&XJ.C.C.U.&X&X&XJ.C.C.U.&X&X+XJ.C.C.'.&X",
"&X&X&XW.C.C.J.&X&X&XJ.C.C.J.&X&X&XJ.C.C.W.#X&X&XC.C.C.J.&X&X&XJ.C.C.W.&X&XXXJ.C.C.U.&X&XXXC.C.C.~.&X",
"J.J.J.'.XXXX{.J.J.J.'.{.{.'.J.J.J.'.;X}.'.J.J.J..XXXXX'.J.J.J.{.;XXX'.J.J.J.'..X.XU.J.J.J.{.XX{./.J.",
"C.C.C.U.&X&XXXJ.C.C.'.&X&X{.C.C.C.{.&X&X'.C.C.C.#X&X&X{.C.C.J.{.#X&X^.C.S.C.XX&X&XU.C.C.J.XX&X&XW.C.",
"C.C.C.U.&X&XXXC.C.C.'.&X&X'.C.C.C.{.&X&X'.C.C.C.#X&X&X{.C.C.C.{.&X&XU.C.G.C.XX&X&X^.C.C.J.XX&X&XW.C.",
"'.'.'.'.J.W.W.'.'.'.W.W.W.U.'.'.~.I.W.Q.I.'.'.).I.W.Q.W.'.'.'.W.K.W.'.'.].'.I.W.W.U.'.'.'.W.W.W.).'.",
"&X&X&XI.C.C.J.&X&X&XJ.C.F.J.&X&X&XJ.C.A.I.#X&X&XF.C.H.J.&X&X&XJ.C.G.I.&X&X&XJ.C.C.U.&X&XXXS.C.C.'.&X",
"&X&X&XI.C.C.C.&X&X&XW.C.C.J.&X&X&XJ.C.H.I.#X&X&XJ.C.C.W.&X&X&XJ.C.G.I.&X&XXXJ.C.C.U.&X&XXXG.C.C.).&X",
"U.U.U.^.I.U.U.U.^.U.U.W.I.I.'.!.(.!.I.I.I.!.K.i.9.9.q.t.k.c.c.k.p.m.K.~.U.).I.W.U.U.^.).'.U.W.W.U.).",
"C.C.C.'.&X&XXXC.C.C.'.&X&X].C.C.C.K.A.x.0.3.l z b v T b b k j k k q h q.Z.J.{.&X&XI.C.C.J.XX&X&XW.C.",
"C.C.C.'.XX&XXXC.C.A.].#X&X'.G.Z.0.#.} [ %.%.%.R R k v s v R R U v d v k ..p.].&X#X~.C.C.J.XX&X#XW.C.",
"J.J.J.U.{.{.{.J.J.J.'.].{.'.M.X.%.;.;.<.;.;.<.| ;.T y } ;.;.;.:.:.{ v v k z k.'.{.U.J.J.Q.].{..XU.J.",
"&X&X&XU.C.C.J.#X&X&XI.A.S.S.) b :.;.=.<.<.;.:.%.;.T ` ;.;.;.<.;.;.:.! E e 0 f ..M.U. X#X.XJ.C.C.'.&X",
"&X&X&XU.C.C.J.&X&X#XW.M.k.o.b a s >.<.;.;.;.;.%.{ E :.;.;.<.;.;.;.;.] ] +.9 2 y h 3.C.&X@XC.V.C.'.&X",
"#X+X&XU.C.F.J.#X;Xb.$.$.%.<.;.<.a 0 { ,.,.,.%.{ v ,.<.;.;.=.;.;.;.+.| <.%.T a q p r w 0.F.J.C.C.'.#X",
"C.C.C.!.&X#X@XC.q.j :.%.;.=.<.<.| = < v ` ` T p ` 8.%.;.;.;.[ %.;.} ,.<.{ ( b j r j =.>.O.z.{.&XQ.C.",
"C.C.H.U.#X#X Xq.b b ;.,.:.:.:.` p 2 ] ;.;.%.{ e ( ,.<.;.;.%.[ =.| =.,.;.( R T z & j ;.;.;.+.7.k.S.C.",
"J.F.H.(.#X#Xt.8 v v R >.,.%.j 0 v ;.] | ;.<.<.j v %.>.;.<.<.=.=.;.%.;.` R ( Z T 9 k ,.;.;.=.[ +.7.V.",
"'.'.U.U.I.M.z y v v k ) { p 0 r :.>.;.=.;.;.;.v p R ,.>.;.;.| ;.;.} { R R R k b p T ,.;.;.| | | _ t.",
"&X&X#XI.v.g k s k v v b r 0 0 ! ,.=.;.;.%.;.$.p < k ] ,.>.=.>.>.T k R ( ( R k k p j ,.,.| ;.;.E T Z ",
"&X&X-XF.g q b b k c I k q 2 T U -.<.;.;.} ] j p 9 9 I { >.,.,.+.z j ( ( ( k p j k p E | =.;.[ U K K ",
"~.'.~.0.q r j k a i I p 9 y U U E ,.:.} v j j p 9 < a I ] ;.{ ` T h ( ( R p k z k r a } -./ Y U Y Z ",
"G.V.S.z y r v I J s c < % I U K U [ %.v a a r h = w 9 a v ` ( ( ( j T ( z v k j d e 1 L ^ W I K Z s ",
"C.Z.7.] 4 q s I U K s , e s U U K Y E p r p p e 9 < $ r v ( ( ( ( b a z T b k j d 3 : G D I L c p y ",
"J.c.7.) 0 q y u i s 0 < p a I K U I k p h r 2 j %.:.( r j T ) ( R T = y ( k j h d - G G ^ P L r p 6 ",
"&X&XK.v.r.h 6 C 7 u < e r y d I U T a p e e ` ;.;.:.:.;.k k E E T a ( ( j j h p 2 5 M | g.1.,.y y 4 ",
"&X&X&XW.C.4.t B F 5 , y y y h y s I e p 0 | | <.;.>.;.;.E p T _ p T ] | { y p 0 1 : n ~ g.f.<.d h _ ",
"XXXXXXU.J.Z.e.*.6.*.z u C 7 d y d p 9 = :.>.] ;.;.;.;.;.E v y y j _ ] ! I I 0 u 1.1.o o C g.-.3 @.Z.",
"J.C.J.U.XX XW.v.B.B.S.5.B V N 7 y 8 * q | ,.] ;.;.;.%.E U I d 9 b T E U k T 0 3 -.P + O   @ @ Z z.G.",
"C.C.C.~.#X&X.XC.V.V.Q.M.*.Q u 1 2 # = k T | [ ;.=.<.! I K J I d j I Y I J s , X @ n . M H O O Q l.G.",
"C.C.C.U.&X&XXXC.C.C.'.'.E.Q.m.s.] - p b v v ` ,.,.! U J I I I i r I I K u u r ) ~ H M P h.~ &.P.J.C.",
"XXXXXXU.J.C.J.#X.X+XW.J.S.Q.^.y.#.k h v v v c v ! K J T i T I c 9 p k T j r X.k.Z.D.j.e.l.N.G.J.'.@X",
"&X&X&XU.C.C.C.&X&X#XQ.C.C.Q.#X`.N.y...p a c c v T I L L J I I J < r d j h o.v.Z.G./.-X-X XS.C.C.'.#X",
"&X&X&XU.C.C.J.&X&X&XJ.C.C.J.&X#X+XJ.n.9.c N y s j u A B F 7 I a = 0 h X.y.W.G.G.S.E.#X#X XG.C.C.'.&X",
"W.W.J.'.'.'.'.J.W.Q.~.'.'.'.J.W.Q.(.U.c.] u < q q 7 S S A 7 y l u.c.M.C.J.L.`.`.'.U.K.W.W.].'.'.I.L.",
"C.C.C.U.&X&X&XC.C.C.].&X&X{.C.C.C.].#XXXv.u.a.x 0 ;   . ; t 3.D. X#X!.C.C.H.XX&X&X!.C.C.J.+X&X#XW.C."
};
