/* XPM */
static char *_f22fb260ff9475887938c60d2744b3atYldwJlakxQIIR8f[] = {
/* columns rows colors chars-per-pixel */
"50 50 165 2 ",
"   c #010102",
".  c #060609",
"X  c #070809",
"o  c #0A0B0B",
"O  c #0C100F",
"+  c #0C0F11",
"@  c #0E1114",
"#  c #0F1119",
"$  c #111316",
"%  c #161816",
"&  c #141519",
"*  c #161C1E",
"=  c #181D1F",
"-  c #3F110F",
";  c #161B20",
":  c #191E23",
">  c #371E21",
",  c #172125",
"<  c #1C2225",
"1  c #1D2429",
"2  c #1D282D",
"3  c #1F2930",
"4  c #212425",
"5  c #252827",
"6  c #21262D",
"7  c #23292D",
"8  c #2B2C2C",
"9  c #2E302F",
"0  c #232B31",
"q  c #292C32",
"w  c #2B2F39",
"e  c #312D31",
"r  c #253236",
"t  c #2A3136",
"y  c #263239",
"u  c #293239",
"i  c #2D383D",
"p  c #343435",
"a  c #32363A",
"s  c #36383D",
"d  c #393939",
"f  c #41100F",
"g  c #401011",
"h  c #462E32",
"j  c #492E35",
"k  c #2C3741",
"l  c #2D3A42",
"z  c #313D44",
"x  c #383F43",
"c  c #2F4047",
"v  c #344246",
"b  c #3E4142",
"n  c #35464E",
"m  c #38454C",
"M  c #34484F",
"N  c #3A484F",
"B  c #364750",
"V  c #384650",
"C  c #354850",
"Z  c #3C4C54",
"A  c #434446",
"S  c #484747",
"D  c #4C4C4C",
"F  c #404D55",
"G  c #414F58",
"H  c #45555E",
"J  c #48575F",
"K  c #4C595E",
"L  c #535353",
"P  c #575858",
"I  c #59595A",
"U  c #4A5660",
"Y  c #4C5B62",
"T  c #4F6168",
"R  c #576164",
"E  c #5A6264",
"W  c #536369",
"Q  c #59676D",
"!  c #55686F",
"~  c #5C696D",
"^  c #5B6B73",
"/  c #5E6F78",
"(  c #656565",
")  c #6C6C6C",
"_  c #616E75",
"`  c #627177",
"'  c #687377",
"]  c #63747B",
"[  c #69787E",
"{  c #737473",
"}  c #7C7B7B",
"|  c #972D2F",
" . c #AF2727",
".. c #A32C2F",
"X. c #AC2B2B",
"o. c #B42625",
"O. c #BF2927",
"+. c #BD312F",
"@. c #BC3839",
"#. c #C62727",
"$. c #C32925",
"%. c #C3262A",
"&. c #C12A2A",
"*. c #B44347",
"=. c #B6474B",
"-. c #A04D52",
";. c #AE5559",
":. c #AA5A5F",
">. c #B35555",
",. c #B05559",
"<. c #AC676D",
"1. c #AA6D72",
"2. c #A8787B",
"3. c #6D7C83",
"4. c #A17880",
"5. c #A07D8A",
"6. c #6E8386",
"7. c #6F8289",
"8. c #73848C",
"9. c #79858B",
"0. c #798790",
"q. c #7A8C93",
"w. c #748692",
"e. c #7E9097",
"r. c #7F919A",
"t. c #848485",
"y. c #87878B",
"u. c #8F8288",
"i. c #8C8C8C",
"p. c #9C848E",
"a. c #8E8E91",
"s. c #9C8D94",
"d. c #998F99",
"f. c #809197",
"g. c #83949C",
"h. c #88929B",
"j. c #969297",
"k. c #989596",
"l. c #96939D",
"z. c #9C9C9C",
"x. c #9A929C",
"c. c #8698A2",
"v. c #8B9DA5",
"b. c #8D9FA9",
"n. c #9897A2",
"m. c #949AA3",
"M. c #939FA9",
"N. c #8FA2AC",
"B. c #90A1A4",
"V. c #90A2AC",
"C. c #A5A5A5",
"Z. c #ABABAB",
"A. c #B4B4B4",
"S. c #BCBCBC",
"D. c #C3C3C3",
"F. c #C5C8C8",
"G. c #CCCDCC",
"H. c #D3D3D3",
"J. c #DDDDDD",
"K. c #DFE0DD",
"L. c #E3E3E3",
"P. c #ECECEC",
"I. c #F7F7F7",
"U. c #F8F7F7",
"Y. c #F8F8F8",
/* pixels */
"I.I.I.I.I.I.I.I.I.I.I.I.I.I.I.I.I.I.I.I.I.I.I.I.I.I.I.I.I.I.I.I.I.I.I.I.I.I.I.I.I.I.I.I.I.I.I.I.Y.I.",
"I.I.I.I.I.I.U.I.I.I.D.z.A.I.I.I.I.I.I.S.z.z.z.z.z.z.z.z.z.z.z.z.z.z.n.I.I.I.I.I.I.U.I.I.I.I.I.I.I.I.",
"I.I.I.Y.I.I.I.I.U.U.)   S I.I.I.I.U.I.P                           .   P.I.U.I.I.I.I.I.I.I.I.I.I.I.I.",
"I.I.I.I.I.I.I.I.i.{ b = p { { I.L.k.{ x 3 3 7 7 7 3 3 3 3 3 3 7 7 7 7 ) } F.I.I.U.I.I.I.I.I.Y.I.I.I.",
"I.I.I.I.I.I.I.I.d   * r 4     I.J.S   8 C C C C B B B C B B B B B B B   % Z.I.I.I.I.I.I.I.I.I.I.I.I.",
"I.I.I.I.I.I.I.I.p   * y 4     { ) d 1 l n M n n n n M M B B n n n n n 2 8 I { D.I.I.I.I.I.I.I.I.I.I.",
"I.I.I.I.I.I.I.I.d   * r 1       o t M M n B n C n M C M C C n B n n n C v &   a.I.I.I.Y.I.Y.I.I.Y.I.",
"I.I.I.I.I.I.I.I.d   * r 1       o u n n n n n Z / ] ] ] ] ] U n n M B / ^ 2   a.I.I.I.I.I.I.I.I.I.I.",
"I.I.I.I.I.I.I.I.p   * r 1       X r n n B B B U v.N.N.N.N.N.] B M M M N.g.a   a.I.Y.I.I.I.I.I.I.I.I.",
"I.I.I.I.I.I.I.I.d   * r 1     q u z n B C Y w.q.N.N.N.N.N.N.g.w.w.w.8.N.g.a   i.I.I.I.I.I.I.I.I.I.I.",
"I.I.I.I.I.I.I.I.d   * r 1     C B C B n B ^ N.N.N.N.N.N.b.N.N.N.N.N.N.N.g.a   i.I.I.I.I.I.Y.I.I.I.I.",
"I.I.I.I.I.I.I.I.d   * r 6     C B C C / w.r.N.N.N.N.N.N.V.N.N.N.N.N.N.N.g.i   i.I.I.I.I.I.I.I.Y.I.I.",
"I.I.I.I.I.I.I.I.d   * r 1     C B n C 8.N.V.N.N.V.V.V.V.N.N.N.N.N.N.N.V.h.d   i.I.I.I.Y.I.I.I.I.Y.I.",
"I.I.I.Y.I.I.I.I.p   * r 1     C n n B 3.N.N.N.n.:.>.>.:.d.M.N.N.N.N.V.:.-.>   a.I.I.I.I.I.I.I.I.I.I.",
"I.I.I.I.I.I.Y.I.d   * r 1     v n M B 8.N.N.V.s.@.&.&.&.4.m.M.N.N.l.z.+.o.-   i.I.I.I.I.I.I.I.I.I.I.",
"I.I.I.I.I.I.I.I.d   * r 1     * ; l B 8.V.N.V.m.5.1.&.#.=.;.5.M.j.,.>.&.o.g   a.I.I.I.I.I.Y.I.I.I.I.",
"I.I.I.I.I.I.I.I.d   * r 1       X u B 8.N.N.N.N.N.M.*.%.%.%.<.M.p.&.%.%. .-   i.U.U.U.U.I.I.I.I.I.I.",
"I.I.I.I.I.I.I.I.p   ; r 1       X r n G H ] N.N.N.M.x.d.d.s.m.M.B.s.s.s.u.p   i.U.U.I.Y.I.Y.I.I.I.I.",
"I.I.I.I.I.I.I.I.d   : w :       X r n n M ^ V.N.N.N.b.v.v.v.v.v.B.V.N.v.e.a   y.P.I.I.I.I.I.I.I.I.I.",
"I.I.I.I.I.I.I.I.d     o o         o @ t M / N.N.N.c.x 6 4 4 6 4 v N.N.q 1 o   4 p } I.I.I.I.I.I.I.I.",
"I.I.I.I.Y.I.I.I.p             .       q n ^ N.N.N.g.1           7 V.V.o           P U.U.U.I.I.I.I.I.",
"I.I.I.I.Y.K.I d 7 6 6 1 0 k k 3.7.7.6.a @ 2 Z U v.b.0.7.7.7.7.7.^ 7 4 k i 0 1 1 6 7 d L L.U.I.Y.U.Y.",
"I.I.I.I.Y.H.q   6 r r t k B B V.V.V.N.z   & r V c.B.N.B.N.b.N.N.3.    n B k r r t <   5 K.Y.I.I.I.I.",
"I.I.I.I.Y.H.8   4 r v m n B C V.V.N.N.Y r *         .     .     6 B.b.Z C n n l u 1   5 K.Y.I.I.I.I.",
"I.I.U.P.J.S.p X 7 u z n n n n f.f.h.g.J r , . . X X X X X X X X 7 f.f.C B n B l t 1 X 8 F.K.P.I.I.I.",
"I.I.U.F.8 5 i l v n C M B n n * ; i v k y q 0 0 0 0 0 0 0 0 0 7 6 ; & n n n n v M v l i 5 8 F.I.I.I.",
"I.I.I.D.o o l B n n M M C n m   . 2 u u r u w y q p t u w u w u 2     v m C C M M m n s . o S.I.I.I.",
"I.I.I.D.o o l m i y ` v.`       $ ` c.U u r r j X...j u r w ^ c.[       $ ^ v.W y i m d X o S.I.I.Y.",
"I.I.I.D.o o l m M M ` f.~       + ~ f.H w r r j ..| j r u u T q.`       + E f.W M M M s X o S.I.I.I.",
"I.I.I.D.o o l B r.V.W r 1       X 1 u r r u u r q r r r u u r r 1         : r ] V.8.M z X o S.I.I.I.",
"I.I.I.D.o o i v 3.q.Y q 4       X u B k r u y k k y i u r w z V i       . 1 u Q q.] v i X o S.I.I.I.",
"I.I.I.D.o X 3 y y i u t 1       $ ` v.U r l M M C C n M i w ^ v.[       . : r u i i r 0 . o S.I.I.I.",
"I.I.I.D.o o 7 r y r r y 1       $ [ N.K y c n n n n M n l u / V.3.      . 4 t u r r u 7 . o S.Y.I.I.",
"I.I.I.D.o X 7 r y u y y 1       $ [ N.! n M n n n M M n n n ] V.3.        < r r r r r 7 . o S.Y.I.I.",
"I.I.I.H.I D 0 , , < < < 8 L L   @ Y 3.Y n n n n M n n n M n T 3.Q     D L t < 1 1 1 , 7 D P G.U.I.I.",
"I.I.I.P.L.D.8     X   . A L.J.  X 3 l z n n n n n n n M C B n l q     H.G.D           8 G.L.I.U.I.I.",
"I.I.I.I.I.L.) D D D D D ( Z.Z.@ # 2 u k z n C C n n M M z c l r 7 @ + C.C.) D D D D D ( L.Y.Y.Y.I.I.",
"I.I.I.I.I.I.I.I.I.I.I.I.A.    t q y u u y l B C M n B n k u u r u u u   & C.I.I.I.I.Y.I.U.Y.Y.Y.I.I.",
"I.I.I.I.I.I.I.I.I.I.H.A.a.q q r u y r r y k v z t i z v y y y r q u u q x y.A.J.I.Y.I.I.I.I.Y.I.I.I.",
"I.I.I.I.I.I.I.I.I.U.)   t V.V.u r u u y y r y 7 . X 1 y y y y y r r u v.h.i   a.Y.I.Y.I.I.I.I.I.I.I.",
"I.I.U.Y.I.I.I.I.D.S.L   6 9.9.u u u 0 v Z z 1 7 j d 0 2 v G z r r r t 7.3.q   ) A.G.I.I.I.I.I.I.I.I.",
"I.I.I.Y.I.I.I.I.d       o t r u u u r 3.V.Q   9 P.J.p   ' V.! r u w u r 0 @       I I.Y.I.I.I.I.I.I.",
"I.I.I.J.y.t.t.t.d : : : 2 q u u t r u Z Y E { y.P.P.i.{ E Y n r w r u u w 1 : 1 , A t.t.t.y.J.I.I.I.",
"I.I.U.D.o       i B V V z u w u u u t #   ( I.U.I.I.I.I.D   ; q r w t u u z m n V q       X S.I.I.I.",
"I.F.i.{ 1 , , , z M B n M k k u t r r @   ( I.I.I.I.I.I.S   * r r r u l l n n B M k : , < < ' i.G.I.",
"Y.y.  @ v M M n C M n n M n C u u r r @   ~ I.I.I.I.I.I.D   * r u w u C M n n n M B B M M v $   z.I.",
"U.y.  o 6 7 2 0 3 0 0 3 3 0 3 ; * < * o   ( I.I.I.I.I.I.S   O = : ; ; 3 7 3 3 0 0 3 7 3 7 6 o   z.I.",
"U.t.                                      ( I.I.I.I.I.I.D                                       z.I.",
"U.D.y.i.i.i.i.i.y.i.i.i.i.i.y.i.i.i.i.i.i.A.I.I.I.I.I.I.Z.i.i.i.y.i.i.i.y.i.i.i.y.i.i.i.i.y.i.i.G.I.",
"U.U.Y.Y.Y.I.I.Y.I.I.Y.I.I.Y.I.I.I.I.I.I.I.I.I.I.I.I.I.I.I.I.I.I.U.U.Y.U.U.U.Y.Y.I.Y.Y.Y.I.Y.I.I.I.I."
};
