/* XPM */
static char *_b867ccf47af4e47f4c92480bfa8bcd0u5qfEhyL4UxP6Gkg[] = {
/* columns rows colors chars-per-pixel */
"50 39 59 1 ",
"  c None",
". c black",
"X c #04111B",
"o c #04121D",
"O c #061A29",
"+ c #061C2B",
"@ c #061C2C",
"# c #08263C",
"$ c #0C3756",
"% c #0E4267",
"& c #0F456C",
"* c #0F466D",
"= c #104A73",
"- c #104A74",
"; c #125483",
": c #125686",
"> c #13598A",
", c #135A8D",
"< c #145E92",
"1 c #15649B",
"2 c #15649C",
"3 c #15659D",
"4 c #15669F",
"5 c #1668A1",
"6 c #1668A2",
"7 c #166AA4",
"8 c #166AA6",
"9 c #176CA8",
"0 c #176FAC",
"q c #1870AF",
"w c #1874B4",
"e c #1874B5",
"r c #1978BB",
"t c #1979BC",
"y c #1979BD",
"u c #1A7DC3",
"i c #1B82CA",
"p c #1C83CD",
"a c #1C84CD",
"s c #1C84CE",
"d c #1C85D0",
"f c #1D89D6",
"g c #1D8AD7",
"h c #2B85C4",
"j c #2C92DB",
"k c #61A8DB",
"l c #429FE0",
"z c #4AA3E2",
"x c #4FA6E4",
"c c #59ABE6",
"v c #5BADE7",
"b c #6DB7EB",
"n c #76BCEE",
"m c #80C2F0",
"M c #88C6F2",
"N c #94CDF5",
"B c #9ED2F8",
"V c #A8D8FA",
"C c #BCE3FF",
/* pixels */
"                                                  ",
"                                                  ",
"                                                  ",
"                                                  ",
"                                                  ",
"                                                  ",
"                                                  ",
"                                                  ",
"                                                  ",
"                                                  ",
"                                                  ",
"                                                  ",
"                                                  ",
"                                                  ",
"                                                  ",
"                                                  ",
"                                                  ",
"                                                  ",
"                                      i           ",
"                                  <   s           ",
"                                 $1-              ",
"                                 y                ",
"                                     g            ",
"                                   73             ",
"                                d ,;              ",
"                               =0 9               ",
"                             rw>                  ",
"                 .5g7.   .og   #s                 ",
"              %gggggggggg:...5g                   ",
"             wwjNNNNnfNNzu533*                    ",
"            gxbnCCCCVbCCci                        ",
"            gcmMCCCBmmmmz                         ",
"            syyhVVVkyrysg                         ",
"             ..Xggg&..                            ",
"                +O@                               ",
"                                                  ",
"                                                  ",
"                                                  ",
"                                                  "
};
