/* XPM */
static char *_5a41e933ab94982d7c529d2e2ca9e8fMZtyXbOIY92nMqaS[] = {
/* columns rows colors chars-per-pixel */
"50 39 39 1 ",
"  c None",
". c #072236",
"X c #0D3F62",
"o c #11527F",
"O c #236B9F",
"+ c #1976B7",
"@ c #1D8AD7",
"# c #2991DA",
"$ c #3195DC",
"% c #3597DD",
"& c #458DC1",
"* c #579AC9",
"= c #4E9AD0",
"- c #589FD2",
"; c #5BA5D9",
": c #5FAADF",
"> c #429FE0",
", c #45A0E1",
"< c #4CA4E3",
"1 c #50A6E4",
"2 c #52A7E4",
"3 c #54A9E5",
"4 c #59ABE6",
"5 c #5DAEE7",
"6 c #63B1E9",
"7 c #6DB7EB",
"8 c #76BCEE",
"9 c #7BBFEF",
"0 c #80C2F0",
"q c #82C3F0",
"w c #8AC7F3",
"e c #8FCAF4",
"r c #94CDF5",
"t c #97CEF6",
"y c #99D0F6",
"u c #9ED2F8",
"i c #B0DCFC",
"p c #B2DDFD",
"a c #BCE3FF",
/* pixels */
"                                                  ",
"                                                  ",
"                                                  ",
"                                                  ",
"                                                  ",
"                                                  ",
"                               2aa%               ",
"                              ;uaayr0             ",
"                             -70aa8uu4            ",
"                            <u06aa2eau2           ",
"                            aaaaaaaaaaa           ",
"                           @aa7,aaaaaaa           ",
"                          .@aapw=aaapr$           ",
"                          O0444694iay&o           ",
"                          #0+  =p4py*o            ",
"                          @     aaa5              ",
"                                                  ",
"                                                  ",
"                                                  ",
"                                                  ",
"                                                  ",
"                                                  ",
"                                                  ",
"                                                  ",
"                                                  ",
"                                                  ",
"                                                  ",
"                                                  ",
"                                                  ",
"                                                  ",
"                                                  ",
"                                                  ",
"                                                  ",
"                                                  ",
"                                                  ",
"                                                  ",
"                                                  ",
"                                                  ",
"                                                  "
};
