/* XPM */
static char *ce632b284fa84420d6a6e7e07a06efabvgbI7FuiMryNeeq5[] = {
/* columns rows colors chars-per-pixel */
"64 50 34 1 ",
"  c None",
". c #071F31",
"X c #092C44",
"o c #0D3E60",
"O c #145F94",
"+ c #1668A2",
"@ c #176BA7",
"# c #1871AF",
"$ c #1872B2",
"% c #1978BB",
"& c #1A7BC0",
"* c #1B7FC6",
"= c #1B83CB",
"- c #1C85CF",
"; c #1C85D0",
": c #1C87D2",
"> c #1D88D4",
", c #1D8AD7",
"< c #3085C1",
"1 c #228DD8",
"2 c #268FD9",
"3 c #2F94DB",
"4 c #3899DE",
"5 c #49A3E2",
"6 c #52A8E4",
"7 c #64B2E9",
"8 c #6DB7EB",
"9 c #7EC0EF",
"0 c #87C5F2",
"q c #90CAF4",
"w c #A2D4F8",
"e c #A6D7F9",
"r c #B3DEFD",
"t c #BCE3FF",
/* pixels */
"                                                                ",
"                                                                ",
"                                                                ",
"                                                                ",
"                                                                ",
"                                                                ",
"                                                                ",
"                                                                ",
"                                                                ",
"                                                                ",
"                                                                ",
"                                                                ",
"                                     #,,,,,=                    ",
"                                     ,,,,,,,,,,,                ",
"                                          &,,0w,,               ",
"                                           *,7963,              ",
"                                             ,4t6,,             ",
"                                              149w,-            ",
"                                               ,0t64,           ",
"                                               ,0tt8,           ",
"                                               ,0tt8,           ",
"                                               4qtt8,           ",
"                                              4tttt8,           ",
"                                             ,4tttt8,           ",
"                                            ,,4tttt8,           ",
"                                            ,0tttt,,,           ",
"                                           %,0tttt,+            ",
"                                           ,,0tttt,O            ",
"                                          ;5wre444.             ",
"                                          ;6ttw,@$              ",
"                                          ,6ttw,o               ",
"                                           244<X                ",
"                                           ,,,                  ",
"                                                                ",
"                                                                ",
"                                                                ",
"                                                                ",
"                                                                ",
"                                                                ",
"                                                                ",
"                                                                ",
"                                                                ",
"                                                                ",
"                                                                ",
"                                                                ",
"                                                                ",
"                                                                ",
"                                                                ",
"                                                                ",
"                                                                "
};
