/* XPM */
static char *_9fb05d63ac7464eb5a370268374a926OU0XynuU7rnPsN05[] = {
/* columns rows colors chars-per-pixel */
"50 50 236 2 ",
"   c None",
".  c #35263F",
"X  c #3D253B",
"o  c #3D2B3F",
"O  c #36283F",
"+  c #780D0D",
"@  c #7E140F",
"#  c #7E1516",
"$  c #422D3F",
"%  c #4A2636",
"&  c #4D333D",
"*  c #4F3C3F",
"=  c #44323F",
"-  c #553B3E",
";  c #5E3D3D",
":  c #57353B",
">  c #542F38",
",  c #61393A",
"<  c #6C3C39",
"1  c #653939",
"2  c #713E37",
"3  c #55403F",
"4  c #5B453F",
"5  c #5F4A3F",
"6  c #6B443D",
"7  c #65463E",
"8  c #754A3C",
"9  c #78483A",
"0  c #69533E",
"q  c #67503E",
"w  c #735A3E",
"e  c #78563D",
"r  c #7D633E",
"t  c #352640",
"y  c #372840",
"u  c #3A2B42",
"i  c #3E3147",
"p  c #3E3248",
"a  c #422D41",
"s  c #4C2F45",
"d  c #443243",
"f  c #433549",
"g  c #44394E",
"h  c #4B3848",
"j  c #583747",
"k  c #493E52",
"l  c #773E53",
"z  c #753948",
"x  c #594647",
"c  c #4C4557",
"v  c #554959",
"b  c #5D525E",
"n  c #664745",
"m  c #744A45",
"M  c #6C5746",
"N  c #785643",
"B  c #5C5465",
"V  c #635B6C",
"C  c #655B65",
"Z  c #685D70",
"A  c #736C75",
"S  c #796140",
"D  c #881D14",
"F  c #911614",
"G  c #BF1818",
"H  c #A31B18",
"J  c #962615",
"K  c #8E2219",
"L  c #A63619",
"P  c #B43D1C",
"I  c #B2281C",
"U  c #922E2A",
"Y  c #A73F36",
"T  c #C42A1E",
"R  c #C4261D",
"E  c #B9441D",
"W  c #BA481E",
"Q  c #BC511F",
"!  c #AF461C",
"~  c #864734",
"^  c #944D33",
"/  c #87543C",
"(  c #995033",
")  c #B84826",
"_  c #AB552F",
"`  c #BB5728",
"'  c #A45232",
"]  c #B1483B",
"[  c #8C6E3D",
"{  c #86653C",
"}  c #96763C",
"|  c #916D3C",
" . c #A6663A",
".. c #B66B39",
"X. c #A07F3C",
"o. c #A0733B",
"O. c #BB7138",
"+. c #B87238",
"@. c #C15E2C",
"#. c #C55D23",
"$. c #CD4D2E",
"%. c #CB612A",
"&. c #C56226",
"*. c #D56629",
"=. c #D86728",
"-. c #D8772B",
";. c #C66737",
":. c #C27438",
">. c #C97838",
",. c #D67D36",
"<. c #CB7A2A",
"1. c #E27D31",
"2. c #C35D1E",
"3. c #A23F49",
"4. c #9C3846",
"5. c #864556",
"6. c #94485C",
"7. c #964B4B",
"8. c #A84555",
"9. c #B34E54",
"0. c #B85859",
"q. c #B0504B",
"w. c #BE6259",
"e. c #AE4F62",
"r. c #AC5064",
"t. c #B25366",
"y. c #B75A63",
"u. c #81797E",
"i. c #BC6462",
"p. c #995D51",
"a. c #C56D49",
"s. c #CC7647",
"d. c #C46855",
"f. c #C97C59",
"g. c #D17C4C",
"h. c #C3786B",
"j. c #C06E69",
"k. c #C05F41",
"l. c #A8853C",
"z. c #B28C3D",
"x. c #B8943C",
"c. c #DD8436",
"v. c #D58037",
"b. c #C4993C",
"n. c #D08E35",
"m. c #E38635",
"M. c #E98B36",
"N. c #E48739",
"B. c #E99633",
"V. c #E89B37",
"C. c #E58E2F",
"Z. c #C9A33C",
"A. c #D3AA3B",
"S. c #DAAC3B",
"D. c #DCB03B",
"F. c #D9B539",
"G. c #EDAB37",
"H. c #E3B43B",
"J. c #ECBC3A",
"K. c #E9B637",
"L. c #F3BD3A",
"P. c #F3B538",
"I. c #F0A838",
"U. c #E6A21B",
"Y. c #EBCA3C",
"T. c #F5C33A",
"R. c #F8C53A",
"E. c #F7CC3C",
"W. c #F9D83C",
"Q. c #F5D735",
"!. c #FBE53F",
"~. c #FEF32F",
"^. c #FFF91E",
"/. c #B28745",
"(. c #D68C4D",
"). c #D28648",
"_. c #D8944B",
"`. c #DA9750",
"'. c #CC884E",
"]. c #EA9B45",
"[. c #DAAF4F",
"{. c #E6A846",
"}. c #E9B34E",
"|. c #CC8871",
" X c #CC8567",
".X c #DBA979",
"XX c #D3AD6B",
"oX c #E7B769",
"OX c #F9CB45",
"+X c #F9CD4A",
"@X c #F5C545",
"#X c #F8D34D",
"$X c #F8D658",
"%X c #E8C856",
"&X c #FAE844",
"*X c #FFFD44",
"=X c #FDF546",
"-X c #FEF559",
";X c #FEEB55",
":X c #DDCA70",
">X c #EAC46B",
",X c #F5C766",
"<X c #F4C966",
"1X c #F9DC69",
"2X c #EDC973",
"3X c #F5D779",
"4X c #E8D37B",
"5X c #FFF56C",
"6X c #FDE474",
"7X c #FDEA7B",
"8X c #FCE876",
"9X c #FFF278",
"0X c #FCE566",
"qX c #7B7684",
"wX c #52CEE8",
"eX c #6DD0EA",
"rX c #70EAE8",
"tX c #8E8688",
"yX c #9993A3",
"uX c #A29DAB",
"iX c #AFABB8",
"pX c #EFD082",
"aX c #FEEC83",
"sX c #FEEE89",
"dX c #FAE583",
"fX c #FFF189",
"gX c #FFF185",
"hX c #C1BFC9",
"jX c #BBEBF6",
"kX c #90EEEA",
"lX c #CBC9D4",
"zX c #E4E4EC",
"xX c #E7E9F2",
"cX c #E8F6F9",
"vX c #F7F9FB",
"bX c #D0E9EC",
/* pixels */
"                                  O t u t t   u u t u u y u O O O                                   ",
"                                  [ [ [ / e   S [ [ | | [ [ | [ r                                   ",
"                            o u o A.T.L.M...o x.E.T.T.L.@XR.R.R./.p i                               ",
"                          o S.S.S.V.+.3 - w F.Q.W.&...y.6X7X7X7XpXpX:XXXo                           ",
"                        0 0 P.G.G.O.| 0 0 } E.Y.K.L Y 9.8X8X6X6X6X6X6X:Xq M                         ",
"                        z.J.N.-.%.; { E.T.W.*X<.P D J E &X!.Y.T.T.J.J.T.Y.{ d                       ",
"                      O.{ w 6 6 6 l.F.!.0X8X9X X] L <.Y.W.Z.0 w w w w N 0 } z.h                     ",
"                  e 9 ..5.j . x w F.E.Y.oXpXsX.X X>.H.!.x.} 1 6 6 6 a a j } z.w S                   ",
"                  O.:.u 5.r.t { J.~.K.) 0.|.gXaXdXdX$XE.h 9 *.c.m.m.4 s t.z * S.l.u                 ",
"                t :.>.u s j x.F.&Xn.Q D ] s.sX5X-X$X/.0 2 ] 1.P.P.P.b.l.j m 6.M [ z.x k             ",
"                u :.:.O d 3 +X&X=XO.L D ) ).7X-X&XF.[ & 8.;.B.G.K.G.T.[.h 5.6.u [ D.3 c             ",
"                u _ ` O l.L.sXgXaXj.q.! 2X5X*XW.S.= ~ *.m.V.R.` W ! Q.~.L.{ u y [ D.3 k             ",
"                u 2 ~ } [.0XfXfXsX.XXX`.dX8X!.x.{ u ^ 1.I.L.!.] ] J '.[.&XZ.} $ / A.j g             ",
"                u O 4 R.0XfXfXfXsXsXfXfXfX8XR.w O u / M.L.W.*Xy.4.+ 8.i.*XW.F.= / v.: k             ",
"            g t O O 4 R.1XfX) ] y.pX9X*XW.b.d 5.r.r.z o c.L.*X=X}.r.) ;.gX-X=XT.l.u u f             ",
"          b m 8 < $ 4 R.}.oXL ] t.1X-X&Xx.} e q.d.d.p.8  .b.#X~.%X|.'.`.fX5X-XE.X.t t u             ",
"        V a O.1.=.> x R.<.) + U t.&X&XJ.- 7 M.M.M.M.M.M.= 9 M.=X-XfXfXfXfXfX7XOXX.O O t .           ",
"      i m O.9 ; : z.[.6X X9.8. XpX7X0XT.x a ; ; , 4 j , o & 4 V.E.-X9X3X;.:.>.!.Y.x.* 8 :.-         ",
"      n e ..n s X Z.+XgX.Xh.h..XfX8X%X/.x p y v V V V V V v O ..Z.W.8X3XE P ! J.T.H.3 / m.9 n       ",
"    a >...u 6.m o Z.+XsXfXsXfXsXgXOXz.i Z B y iXxXxXxXxXzXuXO t 8 M.3X2XE J @ ! <.S.; 9 =.m.... f   ",
"    d S.l.u s p.Z.1X7XsXgXfXsXfXsXOXl.O f Z hXzXcXkXeXwXcXzXhXi 9 M.&X;X2Xh.8.9._.!.F.} : ,.O.. g   ",
"    = S.x.t O e P.1X7X4XpXpXfXaX6X[.} O O Z zXvXcXrXeXwXvXvXxXi 6 >.@X;XfX.Xi.h.XX=XE.} t >...t p   ",
"  p = S.l.t t 9 M.P.{.t.t.t.gX1XT.3 O O O Z zXvXcXwXrXrXvXvXxXf O y :.{.fXfXfXfXgXaXOXl.t @._ y g   ",
"  p = >X%Xl.j 9 -.g.d.U 8.t.$X+XT.3 4  .& k qXlXbXjXjXjXxXhXqXk f O :.{.-X9XfXfXfX7XOXl.t @._ t g   ",
"  u o 4X8X@Xw 8 @.0.8.D 4.y.T.P.H.j / N.- t u uXbXvXvXvXlXyXa v k O :.I.=X0X3X3XdXaXOXX.t @._ t p   ",
"  u i 4XgX7X%Xl.u ! ) 8.a.N.B. .& 6.d.N.* p v k B zXxXxXv V qXi u O :.].gX`.` #.`.7XOXX.t @._ u     ",
"  u d >X,X[._./.[ 9 U l q.m.1.( u 6.0.s./ m k g k yXyXyXV C V N n O >.].fX(.E J ..{.@XX.t @._ t     ",
"    d F.B.) 9.g.E.x t O ( =.=.^ a 6.t.t.N.+.. c v t t t tXA t N. .t O.].fX).P @ F #.P.} t @._ t     ",
"    d D.C.I F K T V.F.S.{ & & $ u s l r.y.d.>.n k u.tXtXk N ,.0.7.t :.N.V.oX2Xe.9.0.{.l.t &._ t     ",
"    v z.v.$.U J I G.+XQ.l.0 0 q q a j 6.6.7.O.; f u.A qXu 6 O.6.z ,  .:.M.<XdX|.h.|.J.l.t ( ( y     ",
"      p w T.d.9.E 2X5X^.Q.R.T.T.T.- t t t t t t t t t t t t t t < =.: ; M.,XfXfXsXaXOX} t t p       ",
"        C 5 _.I.G.6X3X2.2.2.6X;X~.F.A.A.A.A.Z.A.A.A.A.A.A.A.A.>.a.0.j j M.,XfXsXgXaXOXl.t           ",
"          h l.A.T.1X%XE P L >X$X~.W.L.B.B.I.#X#X+XV.B.B.#X#X#X1.;.3.s j M.,XdX>X>XoX@Xl..           ",
"            u r T.R.G.P K + E (.sX~.U.G G $.fXsX2XR G G dXfXfX) L + % - M.,XdX` P 2.G.l..           ",
"              h w S.L.G.2.L E ).sX5X{.P K L s.,X3XT H F h..XgX0.] L % - M.,.>.U Y q.M M             ",
"              y $ b.K.H.<.Q Q _.sXsX}.Q D K ) oX2XT H + 0.|.gXi.q.E > - M.%.) U ] r.s g             ",
"              9 *.: t t l.R.R.R.R.R.R.R.i.t.r.{.R.@X(.t.r.f.R.R.I.=., j M.d.t.t.'.H.x g             ",
"              M ~ ~ ~ ~ | | } b.T.T.R.T.`.(.(.H.R.R.{.(.(.{.R.I.<.~ /  .G.].(.(./.[ x               ",
"              b u _ *.*.9 $ o { J.J.J.J.J.J.J.J.L.J.J.J.J.J.J.c. .a :.V.T.R.T.J.p.=                 ",
"                A j 1 =.#.@.@.^ * * * * - h 3 j j * * * * * * & 9 v.G.T.R.R.K.5 x                   ",
"                    j ' ' ( *._ 2 < < < < : O a p O > < 8 6 8 w o.V.L.J.z.x.z.                      ",
"                        i i %.%.@.#.@.*.@.' u c v u ~ %.v.c.c.J.J.J.K.Z.O u t                       ",
"                          Z ; : , , , , 1 j         j , 7 1 1 n q q q M                             ",
"                              d c k u u u g           O i u O O . O                                 ",
"                                                                                                    ",
"                  d s d d $ X a h h h g f h f s d g d $ X X X $ $ X o X X o X a                     ",
"                  X X X X X X X X X X X X X X X X X X X X X X X X X X X X X X X d                   ",
"                X X X X X X X X X X X X X X X X X X X X X X X X X X X X X X X X o $                 ",
"                  X X X X X X X X X X X X X X X X X X X X X X X X X X X X X X X X                   ",
"                    X X X X X X X X X X X X X X X X X X X X X X X X X X X X X X X                   "
};
