/* XPM */
static char *c24843cc6341473b8b9e78e62f78b0d6gxuUr2GOA17k1bna[] = {
/* columns rows colors chars-per-pixel */
"50 50 199 2 ",
"   c None",
".  c #3D263B",
"X  c #3F283D",
"o  c #402A3F",
"O  c #4A333F",
"+  c #49343F",
"@  c #55363D",
"#  c #5D3D3E",
"$  c #55393D",
"%  c #693E3B",
"&  c #57433F",
"*  c #5A443E",
"=  c #694A3D",
"-  c #73443D",
";  c #774A3E",
":  c #7F4F3C",
">  c #784338",
",  c #6A513F",
"<  c #77563E",
"1  c #7D623E",
"2  c #372942",
"3  c #3A2C43",
"4  c #342640",
"5  c #3F3042",
"6  c #422E42",
"7  c #492D46",
"8  c #453144",
"9  c #43354A",
"0  c #453A4E",
"q  c #49364A",
"w  c #533C42",
"e  c #5B3944",
"r  c #6A3B4B",
"t  c #5C4344",
"y  c #59454C",
"u  c #4B4556",
"i  c #504859",
"p  c #674B42",
"a  c #6B4E4F",
"s  c #764E41",
"d  c #77444F",
"f  c #6D5745",
"g  c #795445",
"h  c #635351",
"j  c #7D4254",
"k  c #7B6242",
"l  c #564D60",
"z  c #675D6C",
"x  c #695F6A",
"c  c #736A78",
"v  c #6C6476",
"b  c #9B301A",
"n  c #AA3A1B",
"m  c #B23F1B",
"M  c #B02418",
"N  c #962928",
"B  c #A43922",
"V  c #A73F3F",
"C  c #C33924",
"Z  c #AA421B",
"A  c #874937",
"S  c #82533A",
"D  c #955B3B",
"F  c #9A5E3A",
"G  c #975234",
"H  c #924D35",
"J  c #AA4321",
"K  c #AD562F",
"L  c #B9562C",
"P  c #AE4433",
"I  c #A75330",
"U  c #A95A36",
"Y  c #B55438",
"T  c #8B6C3E",
"R  c #86673D",
"E  c #92643C",
"W  c #976B3E",
"Q  c #9A7A3E",
"!  c #A8693B",
"~  c #A87C3B",
"^  c #B6733A",
"/  c #B16837",
"(  c #C45F2B",
")  c #CE622B",
"_  c #D9702D",
"`  c #C36838",
"'  c #D16E30",
"]  c #CE793C",
"[  c #D77D36",
"{  c #855A4A",
"}  c #874557",
"|  c #914A5A",
" . c #AC4B4D",
".. c #AB4748",
"X. c #B24D40",
"o. c #A85948",
"O. c #AF5255",
"+. c #886642",
"@. c #82755D",
"#. c #BB6449",
"$. c #B8605C",
"%. c #AC6148",
"&. c #B65762",
"*. c #BF6F69",
"=. c #C16748",
"-. c #C57758",
";. c #C6784B",
":. c #C27660",
">. c #AB873D",
",. c #B9823B",
"<. c #B7913C",
"1. c #BB953D",
"2. c #BFA23D",
"3. c #DF942F",
"4. c #C28837",
"5. c #D4833C",
"6. c #D88735",
"7. c #C39C3C",
"8. c #DA993B",
"9. c #E48B3B",
"0. c #E8933C",
"q. c #E79A38",
"w. c #E58C2F",
"e. c #C7A93D",
"r. c #C8A63D",
"t. c #D9AB39",
"y. c #D8B63E",
"u. c #D7A22E",
"i. c #EAA738",
"p. c #E5B83B",
"a. c #F3BB3B",
"s. c #F3B935",
"d. c #F1A938",
"f. c #F6C33B",
"g. c #F9C73A",
"h. c #F6D03D",
"j. c #EBC438",
"k. c #B79A4D",
"l. c #BB9B41",
"z. c #A58A4C",
"x. c #BAAC71",
"c. c #CC844B",
"v. c #CF855B",
"b. c #D38F5F",
"n. c #D7975A",
"m. c #D48847",
"M. c #ED9F46",
"N. c #E09F49",
"B. c #C9A64A",
"V. c #D0A741",
"C. c #DBB248",
"Z. c #EAA84A",
"A. c #EEB640",
"S. c #EAB14B",
"D. c #F0B947",
"F. c #E1A85A",
"G. c #EBB651",
"H. c #DDAC6D",
"J. c #E4AF60",
"K. c #E3B779",
"L. c #E7B765",
"P. c #E9CC4C",
"I. c #F5C848",
"U. c #EED040",
"Y. c #F4D847",
"T. c #E5C35B",
"R. c #F9CE52",
"E. c #FAD253",
"W. c #F6DD5B",
"Q. c #FBE745",
"!. c #FDF24F",
"~. c #FCE756",
"^. c #FEF35C",
"/. c #EBC669",
"(. c #F7DA67",
"). c #EDCA7A",
"_. c #F1CE73",
"`. c #F6DC7E",
"'. c #F4D476",
"]. c #FCE768",
"[. c #FBE374",
"{. c #FDE97D",
"}. c #FFF37A",
"|. c #7D7486",
" X c #7DE5EB",
".X c #908999",
"XX c #AFACB9",
"oX c #EECF82",
"OX c #F4DA84",
"+X c #F1D383",
"@X c #FCE886",
"#X c #FFF089",
"$X c #B3BECB",
"%X c #95DFF1",
"&X c #BFF3F4",
"*X c #D0CFD7",
"=X c #C5C3CD",
"-X c #DFE5EC",
";X c #E8ECF1",
/* pixels */
"                                                                                                    ",
"                                                                                                    ",
"                                                                                                    ",
"                                                                                                    ",
"                                                                                                    ",
"                                                                                                    ",
"                                                                                                    ",
"                                                                                                    ",
"                                                                                                    ",
"                                                                                                    ",
"                                                                                                    ",
"                                                                                                    ",
"                                                                                                    ",
"                                          , = t , , f p ,                                           ",
"                                      < T i.,.E y.i.G.E.E.z.@.                                      ",
"                                    R t.8.E T e.u.Z c.].(.(.(.R                                     ",
"                                  / R : S r.~.[.=.J p.1.R 1 1 T Q                                   ",
"                                ; S } 7 y.j.=.H.OX'.l.A ` 5.X | 1 1                                 ",
"                                - S 8 V.U.B b F.!.t.s ` d.a.y.e } >.f                               ",
"                                @ S B.{.OX:.F.^.r.* ' a.6.J P.p.* ~ ,                               ",
"                              2 2 >.[.J.K.#X].B.d d ^ Y.P.o.#.!.y.E w                               ",
"                            y D > >.V.B :.~.e.E #.=.D ^ h./.F.@X~.+.2 3                             ",
"                          y E ; S T.v. .).W.+.* g { a y ~ Y.@X] 7.t.= F t                           ",
"                          W = } +.].OXoX[.B.h l XX$X$X.Xe ,.[.L B i.R U ! 3                         ",
"                          <.o t G.+XoX#X(.Q 3 .X;X%X%X;X|.T Q.oX*.T.U.* / 3                         ",
"                        5 k.< @ 9.#.O./.V.w e c ;X%X&X*Xv 3 q.}.#X#XR.t I 3                         ",
"                        3 x.(.Q A V =.0.+.o.E 9 |.-X=Xc i 2 0.].m._.Y.& I 3                         ",
"                        3 k.] -.~ e Y _ e &.#.< u z v x { # 0.).n K i.& I 3                         ",
"                          >.C N ) t.R - $ r O.%.e c z g %.r ] Z.H.$.Z.& G 3                         ",
"                          h 4.#.[ Y.u.C.r., p g p f f f ; U % Z.@X`.I.t e                           ",
"                              7.Y.5.n n.Q.s.w.Z.E.q.d.E.0.X.o Z.`.L.I.*                             ",
"                              w <.3.Z m `.a.M ` '.C P oXb.B O 9.c.P ! y                             ",
"                              @ G 1 4.3.E.I.` ..G.6. .b.G.' + [  .;.p                               ",
"                                % ( - $ p.f.a.a.g.f.a.D.d.: ] a.a.T                                 ",
"                                  H ( ) $ O O + 5 X 8 $ w ^ f.y.1.                                  ",
"                                    0 G K K K > u w U ^ 4.7.1..                                     ",
"                                        0 9 9         2                                             ",
"                                  6 o o q q 9 8 8 8 o . . o . . o                                   ",
"                                . . . . . . o . . . . . . . . . . o                                 ",
"                                  . . o . . o o 3 o . . . . . . o                                   ",
"                                                                                                    ",
"                                                                                                    ",
"                                                                                                    ",
"                                                                                                    ",
"                                                                                                    ",
"                                                                                                    ",
"                                                                                                    ",
"                                                                                                    ",
"                                                                                                    ",
"                                                                                                    "
};
