/* XPM */
static char *d829ffe611b54d1dadc2d0b4eb0452c3RAMAslSI66jn6ff4[] = {
/* columns rows colors chars-per-pixel */
"25 25 189 2 ",
"   c None",
".  c #3D253B",
"X  c #3E293E",
"o  c #432B3F",
"O  c #4B343F",
"+  c #543B3F",
"@  c #5D3C3E",
"#  c #573037",
"$  c #663B3C",
"%  c #703F39",
"&  c #713E37",
"*  c #5C473F",
"=  c #5C483F",
"-  c #61403C",
";  c #6F453C",
":  c #634B3F",
">  c #71413C",
",  c #724B3C",
"<  c #7A4A3A",
"1  c #6F563E",
"2  c #7B513E",
"3  c #795C3D",
"4  c #73523D",
"5  c #7D633F",
"6  c #3E2D41",
"7  c #3F3349",
"8  c #3D3147",
"9  c #402E43",
"0  c #542F40",
"q  c #413549",
"w  c #493845",
"e  c #5A3848",
"r  c #683B45",
"t  c #723D4F",
"y  c #723F50",
"u  c #4F4558",
"i  c #5C5157",
"p  c #574D5D",
"a  c #674844",
"s  c #775443",
"d  c #7C5243",
"f  c #755C42",
"g  c #7D4352",
"h  c #685153",
"j  c #754E48",
"k  c #584F62",
"l  c #5D5464",
"z  c #736A73",
"x  c #991A16",
"c  c #AC3A1A",
"v  c #9D373A",
"b  c #A83A28",
"n  c #A03F3C",
"m  c #AC461E",
"M  c #B1521F",
"N  c #864735",
"B  c #8D4A34",
"V  c #924C35",
"C  c #835E3E",
"Z  c #8A543A",
"A  c #945B3B",
"S  c #965737",
"D  c #BC5927",
"F  c #AC4335",
"G  c #A64A3C",
"H  c #A05C38",
"J  c #B75135",
"K  c #876A3E",
"L  c #86683E",
"P  c #9C643B",
"I  c #946E3C",
"U  c #8F713F",
"Y  c #9A743B",
"T  c #98783D",
"R  c #A8653B",
"E  c #BB6033",
"W  c #BC6239",
"Q  c #A4703B",
"!  c #C75C2A",
"~  c #CA4922",
"^  c #C3602D",
"/  c #DF7A2D",
"(  c #D57F2A",
")  c #C56935",
"_  c #C5783B",
"`  c #C47426",
"'  c #815346",
"]  c #834258",
"[  c #BB5D47",
"{  c #B8585D",
"}  c #AD4D53",
"|  c #826542",
" . c #896E42",
".. c #917749",
"X. c #936A43",
"o. c #B76846",
"O. c #BC6153",
"+. c #B45661",
"@. c #BD6B66",
"#. c #C26641",
"$. c #C97545",
"%. c #C2754A",
"&. c #C06A5D",
"*. c #CA7B51",
"=. c #AA873D",
"-. c #B2853A",
";. c #BC883C",
":. c #B8963C",
">. c #CC853B",
",. c #CF8839",
"<. c #D4843A",
"1. c #C3933B",
"2. c #C49C3C",
"3. c #D49E39",
"4. c #EB9C36",
"5. c #E59538",
"6. c #CDAE3E",
"7. c #DBA53A",
"8. c #D4B13C",
"9. c #EAA22D",
"0. c #E7A839",
"q. c #F0AE39",
"w. c #EEBB34",
"e. c #E7B639",
"r. c #F4BC3C",
"t. c #EECA3B",
"y. c #E6C73C",
"u. c #A88541",
"i. c #B18E42",
"p. c #BC9C4B",
"a. c #978A64",
"s. c #C6824C",
"d. c #D38D4B",
"f. c #D68940",
"g. c #CF9345",
"h. c #D89347",
"j. c #E39659",
"k. c #D7B54A",
"l. c #C8AF5E",
"z. c #DBA752",
"x. c #D2A948",
"c. c #EDA849",
"v. c #E2B947",
"b. c #F0BB4F",
"n. c #E0AA5A",
"m. c #EBBD52",
"M. c #C8806D",
"N. c #D69E70",
"B. c #E6B463",
"V. c #E6BA69",
"C. c #E2B579",
"Z. c #E7C548",
"A. c #F8C946",
"S. c #F9DE4B",
"D. c #E4C051",
"F. c #F5CE51",
"G. c #F0C45E",
"H. c #FAD45B",
"J. c #F7DC56",
"K. c #F9E546",
"L. c #FBED57",
"P. c #F6D762",
"I. c #F4D46E",
"U. c #FCDF69",
"Y. c #F5DC6B",
"T. c #ECCB77",
"R. c #F6DA78",
"E. c #E7C961",
"W. c #FEF360",
"Q. c #FDEB77",
"!. c #F9E37D",
"~. c #FBE275",
"^. c #7A7183",
"/. c #70D4EA",
"(. c #958E9E",
"). c #8E8791",
"_. c #9E99A7",
"`. c #A49FAD",
"'. c #F0D282",
"]. c #FCEA82",
"[. c #F7E085",
"{. c #FFF089",
"}. c #80E3ED",
"|. c #BCE8F5",
" X c #C8C5CF",
".X c #C8C6D0",
"XX c #C8F5F4",
"oX c #F3F6F9",
"OX c #EDF3F8",
/* pixels */
"                  * *   * * * * =                 ",
"              K -.1.P =.w.h.H.H.l.a.              ",
"            =.5.R Y 2.t.M b L.F.F.F.i.            ",
"          R d @ Y t.I.T.o.7.8., 4 = s u.          ",
"        , Z t | t.` } Q.Q.k.$ / 9.L ] s U         ",
"        $ ,  .P.z.b d.L.6.Z ) 4.<.t.Q r =.f       ",
"        o I G.!.'.V.!.x.a H q.Z.G o.Z.U Q j       ",
"      e O =.G.W N.W.v.d +.d ,.K.z.) Y.K.L X       ",
"    d A Z x.$.n V.S.= P P A O ;.L.R.V.m.i.a ,     ",
"  s Z r 1 ~.C.C.!.p.i u (.(.).O ;.R.D m e.3 ) 2   ",
"  X.a a k.].].{.U.L 8 .XXX/.oX_.Z K.V.} k.6.< A 7 ",
"  ..5 a 5.*.@.I.i.e X .XXX/.oX_.8 >.~.'.].m.- B 7 ",
"  a.P.X.G v [ 0.X.o.O p .XoX`.u q _ J.B.R.v.* B 8 ",
"  ..h.s.I r E ) t O.R u l ^.z h : >.G.c E 7.$ B   ",
"   .~ x ! e.3 O X ] +.P p ).e $.g W c.C.+.g.$ B   ",
"  p i.*.<.K.w.A.:.= = = = = a a V @ s.{.{.m.w q   ",
"      =.A.<.m z.K.9./ H.c./ P.b.^ 0 d.R.n.x.+     ",
"      O T 0.D ! Q.<.x d.j.x @.T.n # _ D } N       ",
"      a V , -.3.A.r.o.*.r.$.&.A./ > _ &.i.j       ",
"        a ^ N ; 2.2.2.2.2.2.2.1.X._ r.r.f         ",
"          > N ^ V B V 9 q > A P 1.r.T L           ",
"              > > % &     - < 2 L 5               ",
"                                                  ",
"        . o . . o X o . o o . . . . o o 9         ",
"        X . . . . . . . . . . . . . . . .         "
};
