/* XPM */
static char *result[] = {
/* columns rows colors chars-per-pixel */
"50 50 90 1 ",
"  c #2D0D1D",
". c #2F1020",
"X c #341424",
"o c #3A1625",
"O c #391827",
"+ c #361828",
"@ c #3C1D2D",
"# c #411A24",
"$ c #431E2E",
"% c #44202F",
"& c #54272A",
"* c #442131",
"= c #4D2635",
"- c #4F2A3A",
"; c #522737",
": c #562C33",
"> c #5C2E35",
", c #542B3A",
"< c #5A2E3D",
"1 c #5D3235",
"2 c #5E303F",
"3 c #6C3633",
"4 c #653638",
"5 c #673939",
"6 c #6D3C3C",
"7 c #703C3D",
"8 c #6E423B",
"9 c #73453E",
"0 c #7B4138",
"q c #542F40",
"w c #553040",
"e c #5C3040",
"r c #653444",
"t c #683747",
"y c #6C3A4A",
"u c #713E4E",
"i c #7B4346",
"p c #754B41",
"a c #7B4B42",
"s c #7E5046",
"d c #774353",
"f c #7A4656",
"g c #7B4758",
"h c #7E4B5B",
"j c #8B4A3E",
"k c #844845",
"l c #814749",
"z c #914F40",
"x c #805147",
"c c #945246",
"v c #9D5A4B",
"b c #894F52",
"n c #804D5E",
"m c #8A5155",
"M c #8C545A",
"N c #965854",
"B c #9B5B53",
"V c #965A5A",
"C c #9B5D5A",
"Z c #A35C46",
"A c #A85F47",
"S c #A25C48",
"D c #A25F52",
"F c #A56048",
"G c #AC6249",
"H c #B1664B",
"J c #B76C4D",
"K c #A46152",
"L c #AA6350",
"P c #B97150",
"I c #B37159",
"U c #814E60",
"Y c #865365",
"T c #8C5662",
"R c #C37951",
"E c #C38057",
"W c #C5835B",
"Q c #CA865A",
"! c #D58C56",
"~ c #D79059",
"^ c #DA945C",
"/ c #CA8960",
"( c #D08D63",
") c #DC9A61",
"_ c #E1A166",
"` c #E3A569",
"' c #E5A86C",
"] c #EAAF74",
"[ c #ECB277",
"{ c #EEB47A",
/* pixels */
"@XO$,;==;==;**;==;**%*%%@$$$$$$;*$;=*;=*$*=**=$.XO",
"X@..@ X@ O+    @X @O @X.@. .       O@ +@ +@@@+    ",
"$@*$@*%@*%@*$O=@%*@%=@%*@**+%%O%$@*$@**@*$@=@*=@@*",
":O$=1688aapapplppsppa9aapsspaspaapaipxapx99a445#@$",
"0  &ZHR!~)_!)``````)!`^^```'```~)`!)```_`^!!JGZ#  ",
"3 O:jHQ`{{{{{{{{{{{{{````]{{{{{'''{{{{{{{{[`PAj#X@",
"> @,mCIQ((((((~/(((//QQQEWQQ/QQWRRR((/(((((QFclXX@",
"; @qYYCHHHHHHHHGHHHGSHHGSvZZvZZvSADAHSGHHHHHzkdOO@",
"; %rYYYYGHGSZZvZAHZGHZZZZZZZZjGFZZAHHHHHHHLYgurX@;",
"= %eYhYYCLHSZZZZZGAAAGZZFFAGZZZZZZAGHHHGGDNnuuyoO%",
"% @wYgYYYVGvSSAAZZGGZHAAHAZjGjZZZZZAGGGGSTYfguuoO@",
"$.*rYYYYdhYYKHHHHHHHHZGHZGHZZZZZZZZSZZZSYuuguu; @=",
"= @eYhhYdhYYKHFGHHHHHGAAGGAGAZZZZGZAASNMUgugyteoO*",
"; @wYdhhdhYYCLAGHHHHHHGZGAZHAZZZAGZGGSMTugfutrroX@",
"; *eddddfhYYYTJFAHHHHHHHZGGZZAGZZSHAZYnuufutrrrX$;",
"; @<YdhYdhYYYYTLGZHGZHGZHAAGAAHZALADTuguyuutrrrXX@",
"; +,YdgYhhYYYYYBFFGGFHGGGAAGAGHAZAvMUuuuyuuyrrrXO@",
"; @-ddddYYYYYYYYVHZGHHHHZGGZGHHZZZYnffytuyyutrroX@",
"% @-ddddhhYhYYhYYTFGAGHHGASGAAHAvTfduufutuufte;oX@",
"= +-dhhhdhhhhYhhYYCSGGGHGGGGAAHNmnuufuuyuuuutr>.X@",
"; +-dYYYddgYYYYhhYYCHSGGZGGSvAHMndrudrrtuututtroX@",
"$ @-ddYYYYYYYYYYhdfhYHHHGAAHAvYfurdurruurunut2;.X@",
"* @;dhhhYYYYhYYhhhdhYCLGGGGFBmdyuyuyruuuuuuftr<X+@",
"; +=dYhgYYYYhhYghYhhYYCLZGGvMhttuurrruyyuututt2X.+",
"$  $ddhYfhYYYYYYhgYYYYYMHFvYhdddddrrrruudddrdt;.. ",
"= +;ddhYYYYYYYYhhhYYYhhYiiiuttyytuuyruyuddduyt2X.+",
"; @-ddUYYYYYYYYghYYYYdgg4rerrrtrrruttuuyddduttrX+@",
"; X-dfhYYYYYYYgYYYYhddd2@*=;eydtrrrudruddddtuurXX@",
"; +-fYhhYYYYYYhghYhhdye,***=,eyrrruututuduyuytrO+@",
"; @,hhhghYYYYYhhhYddy<-*;**;=,<rrruutuuyuttutrrO.@",
"; @qYdhYdhYYYYdYhdde-@@@;=;;=;;rrrrudruurrrrddrX+@",
"; *efYhfYYYYhgYghde=@-*@=;;=**=;<rrrtdutrrrrrrrO+=",
"; *egUgfnYYnggUfdt=*****-=-=**-=,2rrrdrrrrrrrrtX@*",
"; @,YdfddhYdUYfdy-@*-@*==;===;;;=;rrrrrrrrrtrrtXX@",
"- *rYYndYhfYhdd,*@;*@-%*;=:;=:==;;=1rrrrrrrrrr4X@;",
"* *whYndnnnnddr,=*=**,=*=;====--**-,2rrrrrrrrr<X+*",
"$ @-dYndghhddu;;==:=;=;;-=-==:;=**;=-rrrttrrr2;.X@",
"; *eddfdYhfd2==;-=;*@;=-=*@-@$;;;==;==2rruurrrrX@=",
"= $,dngdggd<,==;==*****-;=****@-**-;==:,ruutr2,X+*",
"$ @=dYhdddy===;=-=**-@*-===@==@-*@-;=-;;ruutr2;XX@",
";.@-ddddde=@*;=--=-*@-*@;;=-=---*$--==*@;tdd,,roX@",
"%.+-Yddde-**-=*$*-@**-==;**=*@******=-*@%;etr<,XX@",
"% @<Yddy-*@;==@@*-**==*-;$*=**@@*=@*=**@@*,rr2;XO@",
"; *2ddr=@*,;;--@@@-*@@@@=*@-==-@@@@@@@@*@==;rrrX@-",
"; @,d,-:-*@-%@@**@@@@@@@@@@@@@*@@@@*===*@*=@;<rXX@",
"= +=d;==-*@=*@@**@@@@@@@@@@@@@@@@@@*=***@**@=;<X+@",
"$ @*t===-%@@@@@@@@@@@@@@@@@@@@@@@@@@@@@@@@@@=;;.X@",
"X XX%.+*.+@....@+.++.@+.@+.........+@.+@.@@@@@X  .",
". X+@@@@@$%@@#@@@#@@$@@@@@OXXOXX...@@@@@@@@*@@+ .X",
"O +@@;*@;====;;@*=@*=@%=$*=@@@@@+ @@@=*@=*@-@@@.+@"
};
