/* XPM */
static char *result[] = {
/* columns rows colors chars-per-pixel */
"50 50 133 2 ",
"   c #2D0D1D",
".  c #2F1020",
"X  c #331424",
"o  c #3B1827",
"O  c #361828",
"+  c #3B1D2D",
"@  c #431D2D",
"#  c #56282F",
"$  c #5E2D2E",
"%  c #432131",
"&  c #4D2534",
"*  c #502736",
"=  c #542A34",
"-  c #542939",
";  c #5B2E3D",
":  c #573437",
">  c #5E303F",
",  c #663636",
"<  c #683431",
"1  c #64353A",
"2  c #633A3D",
"3  c #6D393D",
"4  c #713C3D",
"5  c #6C433D",
"6  c #76423C",
"7  c #7A423E",
"8  c #7F4A3F",
"9  c #5F3040",
"0  c #653444",
"q  c #683747",
"w  c #623840",
"e  c #6B3A43",
"r  c #6D3C4C",
"t  c #723C43",
"y  c #783F41",
"u  c #713E4E",
"i  c #703F50",
"p  c #744144",
"a  c #7C4345",
"s  c #7F4A46",
"d  c #754149",
"f  c #7B4649",
"g  c #7C494D",
"h  c #764353",
"j  c #794556",
"k  c #764758",
"l  c #7C4B5D",
"z  c #84463E",
"x  c #8C4B3E",
"c  c #804741",
"v  c #854945",
"b  c #8C4D45",
"n  c #804648",
"m  c #834A4B",
"M  c #8B4D48",
"N  c #914F40",
"B  c #855041",
"V  c #8C5443",
"C  c #84564D",
"Z  c #8B524B",
"A  c #8E584F",
"S  c #925244",
"D  c #995545",
"F  c #935A46",
"G  c #9D5845",
"H  c #94544C",
"J  c #985549",
"K  c #925C49",
"L  c #9D5A4D",
"P  c #814952",
"I  c #8A4F50",
"U  c #835050",
"Y  c #895357",
"T  c #8F5A50",
"R  c #945D55",
"E  c #9D5B51",
"W  c #A35C46",
"Q  c #A45E4A",
"!  c #A15E52",
"~  c #8F614B",
"^  c #94634D",
"/  c #9D604D",
"(  c #996650",
")  c #96625A",
"_  c #9A645A",
"`  c #A6604C",
"'  c #AD634A",
"]  c #A66A4B",
"[  c #AE6A4F",
"{  c #B1664B",
"}  c #B66C4D",
"|  c #BD744F",
" . c #A36154",
".. c #A56B56",
"X. c #AC6D52",
"o. c #A36D5B",
"O. c #B06F50",
"+. c #A7705B",
"@. c #AA745F",
"#. c #B47756",
"$. c #B87350",
"%. c #BD7B57",
"&. c #B97F5D",
"*. c #814E60",
"=. c #855365",
"-. c #9F6960",
";. c #B27B64",
":. c #C0784F",
">. c #C27B52",
",. c #C97F52",
"<. c #BE8564",
"1. c #C68054",
"2. c #CE8554",
"3. c #C5845B",
"4. c #CD8D5E",
"5. c #D58C56",
"6. c #D28D5A",
"7. c #D5905C",
"8. c #DA945C",
"9. c #C18A68",
"0. c #D49464",
"q. c #D99761",
"w. c #DC9A62",
"e. c #D59668",
"r. c #D79869",
"t. c #DA9A6A",
"y. c #D79F71",
"u. c #E1A166",
"i. c #E3A569",
"p. c #E6A96E",
"a. c #EAAE74",
"s. c #ECB277",
"d. c #EEB47A",
/* pixels */
"& % + = % + * % + * % + & & + & & + % * + % * + + = % + & & + & % + & & + % * + % * % % & % + & % + ",
"o , 4 z B V F ^ ^ F F ~ ^ ( ~ ^ ( ~ ~ K ~ A F ~ ^ ^ ^ ~ ^ ^ ~ ~ K ^ K F ~ ^ ( ~ ^ ( V V F 8 7 7 = X ",
"  x W { 1.5.5.8.u.5.8.i.i.i.i.i.i.u.8.5.i.w.5.u.i.i.i.i.i.i.u.7.8.i.8.5.i.i.i.i.i.i.7.5.5.| { W <   ",
"+ 7 D { 6.u.a.s.s.a.s.s.d.s.s.s.s.s.s.s.i.i.u.i.p.s.s.s.s.s.s.u.u.i.a.a.s.s.s.s.s.s.a.p.u.>.' x $   ",
"+ f H  .3.0.t.t.t.t.t.t.t.t.t.t.t.t.t.t.7.7.0.6.7.t.t.t.r.r.t.4.4.4.0.e.q.r.e.t.r.r.w.e.4.$.G 7 #   ",
"+ l =.=. .' { { { { { { { { { ' { { { { { [ { ' { { { ' W ' { ` W W G W { ` W { ' / ' { } x z 0 &   ",
"% l =.=. .{ { { { { { { { { [ ' ` { { ' W ' ' ' ` ` ` ` x x x ` W G W ' ` ' ' ' ' ' ' { { M e 0 %   ",
"* l =.=.! { { ` G Q Q Q Q Q ` G D Q Q ` D G Q G G x G G x x x x D D Q Q D G ` Q ` W { { { c 0 0 @   ",
"+ l =.h ! { { 4 + 0 0 0 0 0 0 0 0 0 0 0 0 0 0 0 e 0 0 0 0 0 0 0 0 0 0 0 0 0 0 0 0 0 Q { { a 9 * @   ",
"% l =.l ! { { z - ......@.@.@.@.@.@.@.@./ / L L / / / / ..+.@.@.+.+.+.@......./ m 0 W { { y ; * @   ",
"* l =.=.! { { M 0 i.i.i.s.d.d.d.d.d.d.d.5.5.5.5.5.5.5.5.u.a.s.d.a.u.s.s.i.i.i.5.L 0 J Q { 4 * * o   ",
"+ l =.h ! { { M 0 5.] + 9 0 0 0 0 h r 0 0 a W { { W ' { + - 0 0 0 0 0 0 w q 0 [ M 0 Q Q W y 0 0 %   ",
"% k *.h L { Q b 0 5.] & s C T T R _ R Z r n W { { W W ' & p A T T A R A Z d r W M r Q { W c 0 0 &   ",
"& h h h L ' W c 0 5.O.0 >.5.i.u.u.u.8.5.h I { { { } W W w o.i.i.i.i.u.u.5.E h W M h Q { { n 0 0 @   ",
"+ k l j ! { { M 0 5.O.0 >.1.g g g Y  .$.h I { 1.2.{ >.2.w ` 7.5 2 g g m } c q { M q Q ' Q n 0 0 &   ",
"+ k l k L { { M 0 5.O.0 $.$.0 U ^ r H { i I :.5.5.| 4.8.0 / 5.: w R f a { n r { M r Q { Q y 0 0 @   ",
"+ r h h L { { M 0 5.[ 0 Q Q 0 <.d.0 M { 0 Z 5.u.u.5.w.u.0 / 5.a ) d.X.x { Z h { J h Q { { a 0 0 @   ",
"+ i h h L { { M 0 5.$.0 Q ` h  .%.b ` ,.r R w.a.s.w.p.s.0 H | p m 3.' Q ,.Z r { M r Q { { a 0 - @   ",
"+ i j j Q { { M 0 2.X.0 Q ` P L ' ' >.5.d ) p.s.s.i.s.d.0 M ' m Z } ' } 5.Z 0 ' M r Q { { n 9 - @   ",
"+ r j =.! { { M 0 ' J 0 Q { { ,.5.5.5.5.0 ) d.d.d.d.d.d.0 M { 2.5.5.5.5.5.R j W M h ` { { n 0 0 @   ",
"+ r k l ! { { M 0 Z a 0 v M M J L / / / 0 g @.@.@.@.@.@.0 a M L E L / / L g u v d u Q { { n 0 ; %   ",
"+ r h h L { { M 0 0 0 0 0 0 0 0 0 0 0 0 0 0 0 0 0 0 0 0 0 0 0 0 0 0 0 0 0 0 0 0 0 0 Q { { n 9 * @   ",
"+ r j =. .{ Q v 0 5.8.i.d.d.d.d.d.d.d.d.d.d.d.d.d.d.d.d.d.d.d.d.d.d.d.d.d.p.i.5...j Q { { n 0 0 @   ",
"O i j *.L ' W v 0 5.6.3.0.e.e.0.e.e.e.e.r.e.e.e.e.e.e.e.e.e.e.e.e.e.e.0.0.0.,.5...u Q } { v q 9 @   ",
"  r h h J Q ' M 0 5.| x G W W W W W W W W W W Q Q G W W W W W W W W W W W N v 5. .j Q { { I u * @   ",
"O r h h E ' W M h 5.>.W ' W W Q ' { ' ' ' ' ' W ` ' W W ' ' ' ' ' ' ' ' { W W 5.X.i ' { { n 0 0 @   ",
"+ r h h L { W Z i 5.:.D Q Q D W Q Q ` Q W Q ` D D Q G D Q Q Q Q Q Q W ! W W S 5. .P Q { ' n q q & . ",
"+ i h h H W { M 0 5.O.0 0 0 0 0 0 0 0 0 0 0 0 0 2 0 0 0 0 0 0 0 0 0 0 0 0 0 0 5.+.i Q ' W m u 0 @ . ",
"+ r j *.E ' W M 0 5.O.0 ;.<.O.I u 9._ u $.` J r q u M J O.Z 0 ;.o.0 o.9.O.I u 5. .j ' { ' n q 0 @   ",
"+ r l =.! { W v 0 5.O.0 y.a.5.R h s.;.h 5.1.' t q h L { 5.L 0 y.9.0 9.a.5.E u 5.+.i ! { { n 0 0 & . ",
"+ l =.i L { W c 0 5.O.0 Q { { c 0 5./ 0 i.w.5.a 0 0 O.5.d.@.0 Q J q J { { n 0 5.! q Q { { I u 0 &   ",
"% k P l L Q W v 0 5.O.0 Q { Q m r >.L r a.i.w.f 0 0 #.w.d.@.0 G N 0 J { Q n u 5.! u Q { ' m t 0 @   ",
"- r j =.H W W v 0 5.O.0 Q ' W P h { H h d.a.i.f 0 0 &.i.d.@.0 S S 0 J { Q m h 5...h ` ' W a 0 0 *   ",
"+ l *.k H W x y 0 5.O.0 - * * r h = 9 0 d.d.d.g 0 q 9.d.d.@.0 - - 0 - * * > 0 5.L 0 W { { a 0 0 @   ",
"% l =.l L W N y 0 5.>.R T U C R -.3 e 0 p.p.d.Z y a 9.d.p.o.w a s T T C C T ) 1.L r L ' { a 0 0 &   ",
"- l =.=.! { W v 0 5.q.d.d.d.d.d.d.{ M 0 6.w.d.X.W W r.d.5./ 0 1.8.i.a.d.d.d.d.{ H h G ` { a 0 0 @   ",
"+ i l =.! { W v 0 } ` g g g g g n 2.E 0 } >.8.q.q.q.7.8.' M 0 ` F : p g g g g 2.L q Q ' ` a 1 * @   ",
"+ r j *.! ' W v 0 } L 0 0 q 0 q 0 5.L 0 Q } 2.q.t.q.6.5.G c q ` S % 9 q 0 q q 2.L q Q ' W a 0 - @   ",
"- r j h H Q { b 0 5.} 0 h h 0 r u { M 0 x D { { { { { { x y 0 >.O.0 u d 0 r h { H h ` ' W y 0 0 @   ",
"% r j *.! Q Q b 0 | ' M Z J J L ! { M 0 , , 4 4 4 4 4 3 1 e r { [ M J L J L E { R h G Q G y 0 - @   ",
"+ i l =.! { W v 0 [ ' W W W { { { { M 0 * * & * * * & * * 0 h Q ' W Q { { { { { H h D Q W a 0 & @   ",
"+ i i i L { { M 0 & * = & & & = * * ; 0 0 0 0 0 0 0 0 0 0 0 q * * * = * * * * * 0 h G W W , - 0 @   ",
"+ h P j ! { { W M 7 7 c 7 7 c s c c v M M M c M M M M M M M b a 7 z v z 4 4 4 v M H G G D 3 ; ; @   ",
"+ l =.u L { { { { W W { W W { { { { { { [ ' W ' { { { { { { { W W { { { W W W { { { Q D x e 0 & @   ",
"* i j h Q { { Q Q ' ' W ' ' W ' { W ' { { { ' Q W { Q W { { { { { { { { { { ' Q W x W D x t 0 9 %   ",
"% i i i M J H H M N N N S S M V S M S J J S S V S S b x M N J J J J S S J J J N v 4 b v 4 , 9 0 %   ",
"+ u i q 0 0 0 0 q * - q - - 0 - & 0 0 0 0 9 * 0 9 * & & * ; 0 - - 0 - - 0 0 0 0 0 0 0 ; * * - 0 %   ",
"+ 9 r 0 ; - 0 ; * 0 ; - > > - > 9 - - - - - * % % * * * & * - 9 9 - ; 9 - 9 0 - = = - - * * * - @   ",
"o ; 9 9 * * 9 - & 9 - % ; ; * - 9 & & % * & % + + & & % & % & ; - & - ; & - ; & & & & & & & & % o . ",
"  O +   O O   X +           + .   + X   + O   + O                     . + X   + X   O + + + O       "
};
