/* XPM */
static char *_74bafc5cf3a4234ed83d9bfa1d2cfa1BoJuIIflPfEX78UI[] = {
/* columns rows colors chars-per-pixel */
"68 100 42 1 ",
"  c #0F0B0D",
". c #110C0E",
"X c #150C10",
"o c #1B0E15",
"O c #1E0F18",
"+ c #171011",
"@ c #1D1214",
"# c #210F1A",
"$ c #211516",
"% c #25121B",
"& c #29111F",
"* c #261818",
"= c #2C1A1D",
"- c #321E1E",
"; c #34211F",
": c #2B1320",
"> c #311622",
", c #331B22",
"< c #3A1D26",
"1 c #372022",
"2 c #3A2123",
"3 c #3F2028",
"4 c #412526",
"5 c #442927",
"6 c #442429",
"7 c #48272B",
"8 c #472B28",
"9 c #4B292C",
"0 c #512D2F",
"q c #4F302C",
"w c #53322E",
"e c #532F30",
"r c #573231",
"t c #5B3433",
"y c #5E3833",
"u c #613736",
"i c #643A37",
"p c #663B38",
"a c #6B3F3A",
"s c #6D413B",
"d c #73443E",
"f c #794840",
/* pixels */
"                ..    ....                       .                  ",
"@@@@@@@+@@@@@+++++++..+++@@+@@+@@+@++@+@@@@...+++@@+@o@@@+@@++@+@@@o",
"8858888858888888885=.$;88888888888888888888-@@;888888888888888888887",
"ddsdddddddsddddddss2+;ydddddddddddddddddddd8@*qdddddddddsddddddddddf",
"dfffddaapsssssspaai1.-rassaaaaaasppssspsaaa8$*9assaaaaaaaaaasssdffff",
"fffdsittttrtttttty0-.=8tywryttttytytrtttyyr2@$4ryrrytytrtttrttisffff",
"fdddue9900000000996=.*299000000000000000099-@@<79000e000eeeee99iaaff",
"fdp96<670000000076,%.$,<800000000000000096<%+X=<59000000009e72369uff",
"fd9>&::6000000006<&o.X#>400000000000900092:#XX#&<900000900004>&&>eaf",
"fae>##%:11111111-%OX.XO#=11<1;;<<;1;;<11-%#o.XoO=-11111<<<1<=%##:eaf",
"fa9:#oXo@@@@@@@@oXX...XXo@@@@@Oo@@@@O@@@@o.....Xo@@@@@O@@@@@oXo#=9dd",
"py4&OX X.XXXXXXXXXX.XXXXXXXXXXXXXXXXXXXXXXXXXXXXX..oX.XX...X...O&4yp",
"<;*oX XXOO##OOOO####O###OOOO####OO##OO##OO##OO#####O###OOO#Oo..Xo*-1",
"....  XO&&&&::::::&&&:::&:::::&&:::::&::&&:::&::&&&&::&&&&&&O.......",
"22=OXXXO&&&:,<<<<<<<<<<<<<<<<<<<<<<<<<<<<<<<<<<<<<<<<<<,:&&&OX.X@=14",
"si6%OXXO&&&,39999999999999979997799999999999999999999993>&&&O.XO&6pp",
"dde<%o.O&:><7e0000000000000000000000000000000000e0000006,&&&o.o&<eaf",
"ddu7-@.O&,379e000000000000000000000000000000000000000003>&&&#.o=7tff",
"ddsw<@X#&<70e0000000000000000000000000000000000000000003>&&&#X$<eidf",
"fdpw2$.O&<700000000000000000000000000000000000000000063,#OooX.$;eidf",
"ddp01$.#&<70000000000000000000000000000000000000000093=#..... @;eidf",
"fdpw2$.O&<9e00000000000000000000000000000000000000074,#O.   ..$2eiff",
"fdp0<$.#&<80000000000000000000000000000000000000007<>%o...  ..$<eiff",
"fdp0;$.O&<90000000000000000000000000000000000000007<&#.....  .$;eidf",
"fdar;$.#&<700000000000000000000000000000000000000096<=#o#o.   #<eidf",
"fdp0<$X#&<7000000000000000000000000000000000000000009<&&&#o   $;eidf",
"fdp02$.O&<70000000000000000000000000000000000000000097<<<=&o..$-eiff",
"fdp02$.O&<900000000000000000000000000000000000000000097774,#o.$4eidf",
"fdp02$.#&<900000000000000000000000000000000000000000000007<&#.$<eidf",
"fdpe<$.O&<700000000000000000000000000000000000000000000007<&#.$-eidf",
"fdpe1@.#&<700000000000000000000000000000000000000000000007<&#X$<eidf",
"fdy6-o.#&<700000000000000000000000000000000000000000000007<&#.@-6tdf",
"dde,%o.O&<700000000000000000000000000000000000000000000009<&o.o#,eaf",
"pr3%OX.O&<900000000000000000000000000000000000000000000009<&#.Xo%4yu",
";-*o..X#&<900000000000000000000000000000000000000000000009<&#X.X@*;;",
"X... ..O&<900000000000000000000000000000000000000000000007<&#.......",
"52=@X..O&<700000000000000000000000000000000000000000000009<&o..oO=24",
"si6=O.X#&<700000000000000000000000000000000000000000000007<&O..#&7ps",
"fae<%oXO:<7e0000000000000000000000000000000000000000000009<&#XX%<edf",
"fdy7-OXO&<700000000000000000000000000000000000000000000007<%#.#-6tdf",
"fdie<$.O&<700000000000000000000000000000000000000000000009<&O.$<eiff",
"fdpe2$.O&<700000000000000000000000000000000000000000000009<&O.$<eidf",
"fdpe<$.#&<900000000000000000000000000000000000000000000009<&#.$;eidf",
"fdpr;$.#&<700000000000000000000000000000000000000000000007<&#.$2eidf",
"ddp02$.#&<700000000000000000000000000000000000000000000009<&O.$<eiff",
"ddp02$.O&<700000000000000000000000000000000000000000000009<&O.$;eidf",
"fdp0<$.#&<900000000000000000000000000000000000000000000009<&#X$<eidf",
"fdpr-$.O&<900000000000000000000000000000000000000000000007<%#X$;eidf",
"fdar2$X#&<700000000000000000000000000000000000000074--4489<&#X$<eidf",
"fdpr-$.#&<90000000000000000000000000000000000000004=@@#=79<&o.$<eiff",
"ddp02$.O&<7000000000000000000000000000000000000095-=$$$=;3-&#.$-eidf",
"fdp0<$.O&<700000000000000000000000000000000000004=--<----*&&#.$4eidf",
"fdi02$.#&<70000000000000000000000000000000000009-X%2000<$.O&o.$-eidf",
"fdt6=o.O&<90000000000000000000000000000000000000-Xo-343=o.O&#.o-6tdf",
"fd0,%o.#&<90000000000000000000000000000000000009-Xo%&&-#X.#&#.o#,edd",
"ir4%o..#&<90000000000000000000000000000000000009<oo$#&##oo#%#XXo%2ty",
"--*oX..O&<70000000000000000000000000000000000009<%oooooo##&&#X Xo*=-",
"@......O&<700000000000000000000000000000000000006>#o   o%&&&oX  .X++",
"52=Oo..#&<7000000000000000000000000000000000000073,&ooo&<<=&OXXX$=45",
"sp7&#..O&<70000000000000000000000000000000000000093>&#&,66<&OXX#&7pa",
"ddt<%o.#&<70000000000000000000000000000000000000007<,<,399<&OXX&<edf",
"ddu8-@.#&<900000000000000000000000000000000000000009676997<&OXO-7udf",
"fdp01$.O&<900000000000000000000000000000000000000000000009<&#Xo<eidf",
"fdp0<$XO&<900000000000000000000000000000000000000000000009<%#X$;eidf",
"fdp01$XO&<700000000000000000000000000000000000000000000009<&O.$20pdf",
"fdpe1$.O&<700000000000000000000000000000000000000000000007<&#X$;0pdf",
"fdaw<@X#&<700000000000000000000000000000000000000000000009<&O.$<0pdd",
"fdp01$.O&<900000000000000000000000000000000000000000000007<&O.$<wpdd",
"ddpe2$.#&<700000000000000000000000000000000000000000000007<&#.$20pff",
"fdpw2$.O&<700000000000000000000000000000000000000000000009<&#.$2wadf",
"fdp0<$.#&<900000000000000000000000000000000000000000000007<&O.$-epdf",
"fdp0;$.O&<900000000000000000000000000000000000000000000009<&#.$20pdf",
"fdae2$.#%<900000000000000000000000000000000000000000000009<&O.$1epdd",
"fdpe1$.#&<900000000000000000000000000000000000000000000007<&#.$<epdf",
"fdp0;$.#&<7009000000000000000000000000000000000000000000e7<&O.$2epdf",
"fdp0<$..o=<<33700000000000000000000000000000000000000000e7<&#.$1epdf",
"fdp01$...#&>:>3900000000000000000000000000e000000000000007<&OX$1rpdf",
"fdp01$   Xo###>69000000000000000000000000000000000000000e7<&OX$10pdf",
"fda02$   .oooo%,370000000000000000000000000000000000000007<&OX@;0pdf",
"fdp0<@     ...O&<60000000000000000000000000000000000000007<:OXO<0pdd",
"fdr4=o   XoOoO=<690000000000000000000000000000000000000007<&#Xo=4ydd",
"fae:#X   o###&<7900000000000000000000000000000000000000007<&O.X#,0dd",
"r0<%oX XX#,<<<60000000000000000000000000000000000000000009<&O..O#<ww",
"*=%XX..o#,367699000000000000000000000000000000000000000007<&#...o$==",
"$@+.. XO:<7e0000000000000000000000000000000000000000000009<&O....o@@",
"88-$o.XO&<700000000000000000000000000000000000000000000009<&#..o#-88",
"da9>OXXO&<7e00000000000000000000000000000000000000000000e7<&O..#&0sd",
"fdr<&oXO&<700000000000000000000000000000000000000000000007<&#.o=<rdd",
"fdu9<@.#&<7e00000000000000000000000000000000000000000000e7<&OX@,0udf",
"fdie1@.O&<7e00000000000000000000000000000000000000000000e7<&OX$20pdf",
"ffie<$XO&<7000000000000000000000000000000000000000000000e7<&OXO10pdd",
"fdie1$.O:<7000000000000000000000000000000000000000000000e9<&OXo1wpdd",
"ddp02$.O&<700000000000000000000000000000000000000000000008<&%.$20pdf",
"fdpw2$.O&<7e0000000000000000000000000000000000000000000009<&O.$10aff",
"fdp0<$.#&<900000000000000000000000000000000000000000000007<&O.$1rpdf",
"fdp0;$.#:<700000000000000000000000000000000000000000000007<&#.@10pdf",
"fdu0<@.#&<700000000000000000000000000000000000000000000009<&OX@<0udd",
"ap03=o.$&<900000000000000000000000000000000000000000000009<&OXo=40up",
"r03>%..O&<7000000000000000000000000000000000000000000000e7<&OXX#>60r",
"09<&#o.#&<700000000000000000000000000000000000000000000007<&#XX#:<90"
};
