/* XPM */
static char *bd76991d71534866d3cf851fb38adbb4y7bThyTU0tbjZmgx[] = {
/* columns rows colors chars-per-pixel */
"100 100 61 1 ",
"  c #2C2617",
". c #2D2718",
"X c #3A321F",
"o c #3E3521",
"O c #403722",
"+ c #453C25",
"@ c #493F27",
"# c #4A3F28",
"$ c #4A4027",
"% c #4D4329",
"& c #51462B",
"* c #554A2E",
"= c #594C2F",
"- c #554C33",
"; c #5B4E30",
": c #5E5132",
"> c #625534",
", c #665836",
"< c #685A37",
"1 c #625739",
"2 c #665939",
"3 c #6B5D39",
"4 c #6F603C",
"5 c #73643E",
"6 c #78673F",
"7 c #78683F",
"8 c #6E6242",
"9 c #756641",
"0 c #786740",
"q c #776843",
"w c #7C6B42",
"e c #746848",
"r c #7C6D49",
"t c #7F704A",
"y c #806F44",
"u c #847246",
"i c #867449",
"p c #897649",
"a c #8D794B",
"s c #927D4D",
"d c #827451",
"f c #8F7D52",
"g c #927F51",
"h c #95804F",
"j c #968251",
"k c #9A8553",
"l c #9E8955",
"z c #978559",
"x c #9A8658",
"c c #9D895A",
"v c #A18B56",
"b c #A38D5A",
"n c #A6915C",
"m c #A9935E",
"M c #A18F61",
"N c #A39062",
"B c #AA9562",
"V c #AE9966",
"C c #AF9A69",
"Z c #B09A67",
"A c #B19D6B",
/* pixels */
"iar:500iqqwiwziiwrqiuf<4qijju8*3uqikariuaxbxkfq34w:-:88t04:82e4-11381ru1*-e::;2ee-933re1;;12eqq4-2r8",
"575<7yis0uhawahaywpurw7paq9usyirquaaaww-jmkla435a0:::*:142&::::;,:*&;><=+#-->,;;13q0998:>;;-;>93;*:;",
"<>::7pahquauwahu5uy6wu5wi755yy7wwpwua7iilbl344qujw%:<>>*-:::>2:;5>>:&-====,;;4,>;%>w7><-,5>>&->3;-:>",
"53q557uuwaua0waw63ya3<<qi5kq77ppjyyuu7u<ilwwuuouui&%*+<<;:;<>::*4,><1:&-*;3*=;<31,:=<q<:;,>>3:&&%,:>",
"5w555:775:kp440wupis5><5a7sw75w6:yauuqaupuppy533wi*%%%*4,,:=:>:*6<:>,<,>*%>==5qq>:><:=,;*::=><3,=*;,",
"3wuau>p544cw44auwy6p5,,5a5uwq:uy<,yua535hawwpswuua&*%O%>:::>>:;*,<:=:=<3>;>;=<4u3;*>3,>;@>>:=:>:,:=:",
"<7abu5pu4<wpuu4:;wa04434q77yy3aw5555u7wwuu:ssayu0w%**%;:;&**4>:&>,<<>>::->===<<05;:;<3>=%;,4,:#-*;,;",
"5wapu5557waaw4*w5ypu53yuy57<73su<3wwa7uqyabilp<5ww%*:&*:>:*->>:%=O=64,,>:><=>35<5;;=<,>***,5w0,*=&>>",
"5ypj537uhhaa55775uw45yisp5557575ypu5k405<pvpwwwuhw*=::*;><**%>:&<*X><4<4<>>=3,05q@-=:,,;&355r543**;;",
"<5735paiauuh5w<4655ysp5pu555347apuukb6rq6q55wpawu5*:47:&<4;;%>:*::>=<4-904<*>9035<=&*&<*&=453295,&;;",
"6<7ispwywuah53455upsavwsp535uaa7qushhwku577asw54p7*&:>,o&:;*;>;*;::-5w,363:-*#:>:**>>o:;=3=<r>99>*=;",
"7pp7uy557wap4<5uuju6isppy6quuauushbks365uussu5w5ww*%;4:&>:*:<3:*:*,>,;r303:-&;=:*==&:=>>*,=>9r04,:>=",
"ysuupq>577uuwaaappwwyvapyyasusa3amblp5qppaw53553w7;:**=&:*=:,>>;*;5>,&q4,6;;=*>=&=*>*>>;=**&;3q05%;>",
"<uu753up54wpuubhayyy7sppu6ppauuivma5iuavuywppka5pw%4,=&%::*$<>:4=>*>3>>>;3>=:>*&&>;,=*>:<>=**->43;;>",
"4smyyu77wpuawibhksyuyu:5u5y5ausa3wwas7ppuukbbkpypu%=,:>:***%,,*:>,>;=*;<=,;**>,:**3q5>,*w3e3;&%*>*>>",
"ykvkw5uuw7uswwhkBvuyww:u77puria7pu6Nsqwuakbbkkp,ww*::=>,,=&%9,*>,>*;,:=>=>-&==>>,;=,5w>*5rrq3,;=%&;=",
"5yu3psa63pup6qpmZmpy6u5pw7sh75u0ywjkaw4pabbfnvbup7:5q:>:=,4;*:=:<<=#=>,>*>>=*&==;>:=*>>*:4ewy=::=&=>",
"36ppkvvpwapp7wkkvm6iyyusup77upuwpsvasw<qacaznka6uw%:0*==::>4>:%&><:*&:=<>=;=:#=&#=::,>;=::>343:3,<:>",
"wpuypvspal7u75kshms6663uw7upuau3kmvks74ullBbmsu37u**,5:&&&;:,4:%;;=**>*;4<:&:=*34::X+3,;*:>:,:>35:>>",
"3py7aap,uu4uy6svnvwy04wiywssuuu3nnu5u65skkvk03<qpu=,:&::=%:;:<::>&=::<::33>:=*=>44>**>4:>**>>>:65>><",
">ysssau4,5wuw5smjy63ypsv7w5wpsjaq7pppq575yw33yypapO;>,*&:>;=>4***>:&:>>>>4;==>**>,4;#:==93;&:,>453><",
"5upaa<<5yusu5ikku3yikpvn7wuwqau5psssu56h5555uuaw7p&;::4>;*;*44*&O=*>=&:,>>:**><,;*::;;:->4:4,==3;q<<",
"7ppq55waaslw5fk50wssnsvsyusp65wauasssw6u56uuullphp*:,*,4<:*&>>***%+>;<=:=>:&=:304;=#=:;=;::,3:;*X33>",
"up5wwpu7wwpw557upsvks<w6wuy5wspww7psyu55psj6ulbkp7=,,,>75:;:*>*%#*&:=3=>;*>*=336y53,;#:;*,;::>>:,;=*",
"3yupp3wuywuuupsvsspkuww7u5uhskwwyww>pyyubBbaplkbsq&<>>3<4,%:,>*$***=:>=##::==,4y:894>;:=*4<>3:>*;:>>",
"7sshhpaupupuuaaval0u555wuwpshmhw76w>puxbVbluylqgwu&*=>4<<>*;:>::#**:>:=##:,:##>48392>#;:=#:*3>,*&;;,",
"5p<mmpu56upu66pjvvyy3wuyp<wamZl7w5y6iymxcjpusp:yaa;,=*&*:&,,:,::,:;#>>&##;,:3,#>9ye3,;*;>>;*>*&:&>><",
"3y7mssu<ppsp6ypys7<rau<>uwuhkkk5wuyppwljyyaa55awwa&<<>=&$&:4><::5,>;&&*###>:#<>=;:ye3#=:=,>>;*#*&>33",
"5ywkbvkwsspswBk557rhkw:<s5wssjlu7575i5urpu76uwyppp&=-<<:=$$<:,*:w3>4:;##*#,;=:,,,>;:3*>>&,;->;*&&:<<",
"57yukjuabiup3w7qakslv54ysqyslvk7qwujy5wy5whpp55pvp&:%5<*>>=&*::*43,>>3,:=*,;,=,=44:;=#,:-y5;3<<>*&&>",
"6p7ssa<7uuaw40p*bkkVb575pwwamaww5lvmu557akuyu55a7p&=:wq:=:<:*::*:33:;:,,::=*4==:+,4,3:=;;0rr05,:4<>=",
"3sshay5yy57wupsibbjluw55u5shju5wsnsuuwsa6appp75y67&>=5w,>>=><::&4wy3*;>4=,:;:;*::#:534:;#10yrw4>:<,=",
"6iis4<:<6upawpvbjsy766wiu5bayw5pa5wuauBhwss5q537uw=>=>3>>;>,3,;*44u9;:=3=<>**======30w,::,<wd3>;>3,=",
"6ips5<4ypaip7avaky65yppsp5q<wy<45yhkk5pu7ykw>5yhp7=<>>99:*>;,;**33r0>::4><>==:==::=:#,,>=<4<,5:;;55>",
"6kpu5isvwpap5sly64ypja6pp56uy5wip<>u75whswy5ypspsu&>,3<34$>>;>*=393w>::3<>>*&$:#=>====>:*>4>43;*>><:",
"<i5yskksagjpqkp5wpspuyysa5467pauy&<yu7qhq5yypuukjw&<,3,<,*=;>;*>349q&:;:>>>*&**@=:,><33:&=4<4<:&=:,;",
"5wuuasa<ypip55ypsayyysksyy7ppy07y766u533uuasspuvsy&>5>=>*1<>,,;*wwqq4>*==>:*&==*>:&>;,,:#*<<<3>&*;,>",
"uysagsi65yu6wpauyyuygvbsqyypu,5rawyywwyau6bvsquup7==&<=**:33,;:>=*>>;*>;@#>==#%&,;#*::<:=#**>5>:@>,=",
"7ysuj65>57yiuwlayusspvbpw656yujbs765uwuaupvvpyuus7::==&&+*<3>>;,,;*&===>*::*>>=&;>*&>;<::>>**>;;=><:",
"6apaiy4,0spp77ksikssisbvy6w<qkfaw3uq7y5kbZmj73wua7*=<>>=+*>>;,==>4,*=&;==,:*<3>:-&#&:>>*=>>,:&*;,<4;",
"7skss66puywpu7vajvksspis65335uw<usy55y6VmAAl634ap0;>3>>4,=&*,3=;>53<<;&&&>:&=>>><>=#*::*:O>>3>;;&><>",
"6ya6ussaupupu6p5>ylBZkqs6pw675uplas7uyyvvbagy5<aky&>>>3<53>;=;-4,3<<533>*:>&,*>,>:>>=*>:>,<3394:=*=*",
"<<yymnuy6wuay5a&>ys4ks5pywu5whvlbay>pu5psjlspuwsa5&<3<33,3>>>;#>5<55550,>>=<<:<>>:;,>;:*,:3w035=>,>=",
"wsuaVsk75spyw<wuuyuuusyu75ypjmBBvkh6yq3ksusluuiwy9&+,<>;,>>>>>;*=*<5;<4355>&<<=>,;>::#>*&:;055>>=;>=",
"wyuykmvguuwyy7auupay6y6uyw7psm3kbli5wwysjsss665wy0;>;:3:**:,,,;>>**:=<<*57:====><::,<,e;-*386453=&>=",
"6uwupgsy5uapy3wykhu5wpahww5ukmBCbwwuuuwavpiy6wypp6&>,;;-*#&<q>=>3$=*%:*=>4:=<>==108w050*;:,:>;<<>&==",
"=asigy6ypyhuu6u7p5uuaaka75uvkkv35ysmuy55p6<56up6yy#:>:0,&+&=>;*:4-94>&%***:==,:,:&#ww4<**;>>>*#*;%*>",
">psy7yysw5puwww7quay7wkky50ww56sassbaw<355ikl6q56y@:;:w0<;*=,>;>4590:>>**=>;:=>>;:,;<q4;;**>>,:&#%*;",
"664yssp6753p757i75uu5ypp77755ushhBjapu<5pssbsuq50w&:>>4q>,>:&;=4635q455,;=:;,=>>,=:>;&<&,*%>+=;>>%%>",
"<7ppuk36736puuup4,3auppyu47paasa7a,wswqpaukssjy55y&><><5<>>,<>==4*535y0>%:>*,>=<;*>;&:>&;>*>6<>* =,>",
"><:@*:;,=:<<>5<<::;<:4%*><<3>=+&:=,5<,,>35w753:$*,w53ipkvy5y6yyw65yuwlb5;>yw755ps,suacsuw<5qkpsp,wsq",
"$**$;:><=:3<=><<;;,:;;*<<=&><>>:*><><=;o5w35<&&=<=wyy6yijs4wuiywsu63wip0<>q5us76ijvbblkyyuyq0pvsw5yy",
"@@@o=:<3=:<:=>3:*;;*>;;*:&*&====:>=>,&>1455+%**;<>4wpppw7yiapsyqvuap556y7wsy7hpsq3umvas5ubap65ysy7yp",
"*%==*=::=,>>*:3=*%:<$$$*,*5=:=><3:::>*>%>9;;>: >>,536>apwy7appy6kauspu575yj77ussapu6sbsyyaupsu553pyp",
"&;***+;=&O5>%$*=>,:<*$$&,*<=*%=&X:<:>;<::>,>;*&&=>63,<5vssy76pi5vsuupasp53u7wvmnuyisu5pu5uywysjpw5wp",
"#;;<;#>*&&5:&*>>*:;:*$$*>&::=@>:&$;:>&%;3>*;><;;>,463-4ywwuppy75aauwywaspupwwsjZswquspuw<puuryuypywy",
"@=,6=*>>%%=>:>&@+;<;&&*&=;*:;%<;&&&*:===:>+333;>=;36637u7675hay5ipsjaiwy7pyw6ssbvwuwssp647sksy,05ypy",
"&;<,>*&*:><<=&O=*:>:&%;::&*%;%<:%&::<*:=;>q>5:%*;:56y56uui56uuu3y=<vksspypa6usksl7wwpsp657skmvs075yi",
"*=><&&=>3<<<**&**:;&*:><>*&&**;&:<:*5&*&%>9:-=;><>57uu5wps65<uy5s4-ushskjpp7jjbvb<wwwasw4skvmvkk66yw",
"@**#=>>=>::3&=%&*%*:<,*>>&-&%&*,<::49*>=*;%&;,,=:*5usvp<pjy65aw5yupwakwvmjs5rlvsksw<5>s667jvsibls3ww",
"%$=><>=>=><<&&&**>,3<5=<>*%&><,*=>333:4>*=;<<;*&,;55ppu=5uwqwuw7yyywkBasvhy65>yuy77pp=uw6k6sBavvy6wu",
"*<<=>=**==<>*$*::3:&><<>:*=>:>:><4552%*&>:3<:*=&;>7<7ku5py7yssu6y6suawVsvsy74u7y6w75y7uu6uqulBbvpupq",
"=>>:>=@*==:>=><<:,:::5<>::<<>33%<wq5>*=>><;&%**%;;wy65q5u65upauw9wkaa4bkavyy67py3q5yqppur5q5ugbvv<wy",
"$>>**$>>&&:>>:73,:;:&,>>>*>>>>>25q>*>:<5:;;3<53*::3say5<yy5;aayhwi9wsiuuysu5up634pusy3pyky0039ykgiui",
"$37>:=*==>>,;>0353::;:O*:*=*>>3,#>*,,=>>>>4008:=>><yiyuy5753sa7uaayy75ws7py55uauw6sblsp6mxchu535u6uy",
"=563=*>>==;,:-34r6::==#:*=,>=>>=,:=r<=;:>00544,#:;5puypaa75<ca6psi5ysu5uwpw577uupy5ukmu7kBBBspuq3<y7",
"&*:*<<<*&>>>*=,wdw:;;>=>::3<*=>*::44,:#>305:qw0>>:0vbypywajyqu57ssw<5ysp5pyy53w77uuw7yu6rjbmmwwuy57i",
"%=<>566>;,>,==455w;>::><:>*=:>;;><0><:#;,52803,=::3yv066wppspy45ppy55u7apy75y<654qyusuyqwuugvsphpsii",
"=,:;>5,>,5*>=&43<w,-*=#:==,>:<>#4y54>=&>58re0<:#:>65pvy5<<yussy4ww675p5yksy5u66kkyw$=js75ypypypkvyup",
"#>>=,,>#>;&;==3505;:=&;>:=,<>>:=00:*>=&<3303*##;>>0su5yyw4yyysyyp67uusyyjjuu657pjkaq5pkyp65puuyvbsys",
"+=<<<,:%#=;>;*3q8>*#:>30==*=>>3--;>>>=#:*;;#*;:>>,;0upy4yawqakq65uu37pyppjy76p63yajw5w76xsu67sikssps",
"*>>,,@@*;>3;*>54;#:>5>60=:>==,:=>3<<>*=4=&**>>>:=<5yuygg7676sh55&75py5ysppu57yssy5yyy6u6pkykh6qs7mss",
"=>>=&=:<,<5;*>1&::33635<::<>*=:>:>3<3:*=*;>>>49,<<yys6pssp55uu0575:u7hy75uy57yjmbu036yyw0wypsyu5*pjy",
"=>*:=>;=;;,;**;>><643#=*;::*=,>===><::-*:<4-:505,=0aapivvywy6u53<75w7s5py5u5yjjvmlaaw<yw9swuuypyp777",
"@:>><&=>;;:>>>3q3<>3:;==>=>335:=;:=+>::>wy0,>530<:3asisssa<ypa6<555wup7<5uu57uvmqcvkpwu74ksykuu6yyup",
"=<<33>>>,;>>:>,5,6-:*&&::=>,4w4;=*=#>:5eye4::5&>:>6y6ygisp6yypuu555upy7>>ypy55ukxgbsu57y04wqkys64yys",
"&>#y7>;*=;>>*=,365:;&::=>&;30u4-==:=>:w484>:3>@>><wpy656u3pauauypy55pu53<5pupp3ubVmhay5yppy5i64y5upp",
"%==y33>#,,3>=>>;,&#>,>#@;=:3444==::>>-4<::,1&=>;:30pspy4<4ykaa7yvspu5453<3pq5ppywrblh>wy5pppw4,45pks",
"&;;3054;3,><;w5*&::34;O&3*:3,45>****>#:>>>-=>=:>>,505spy73<pyp7ymhphuu3353aw6uppaiwus5ip5sy0py054ypp",
"&;;>34>,0>>:#*%;<4306*&:3*:,593*=::5>*::#:3>:*&>6<0y3bs5uaw55uyqjhapuppu75a7sws5skiy73iuqZvukpsp745p",
"*>;<3>#*;:,;&=>Xq85y0*=*:;;,y1-;*50w>*&;,5>;>&*,*,5wymBp7yapwyy5yshuywaauu76sw7y>pjaapqw6vBVbvswksi7",
"#<<3>:&>:===:,3>05<8:=&*:*,43:&;35,;>-3,-,>,>=*===6uwhmaiu7pauy4lmmk6wuv5aywuy5yu3ybskuy3ibZBbhpyaaw",
"*>><#%+#*>>,;,4y5<:;*==>>*9>;:*>,==>,>q3=,3&=&&=>=qaqajauyppkpy5jkZvyy7kqsp55w7wqwqsvmpuwssbAhpwuhs7",
"&>>5*&&>>>>>*,5>4;&&>,><>&&&::#&=><44&>>-=4=+*:4<=6pppknu5yyiw65sjbmpyyjuspwwy75uyww>pauwakaalyyylli",
"*6>:*,35;,<>*35:-&:>3,=,>&*::*;>>@#>=*;4<;;*:>3,<>5passhj3uyyy6qskjnuyysspp54<w<wuwyyqpu5pkpkjq5upsw",
"#;%><44,,34>=4>&;<3>:::>>*&*=>>:;X#=>==,**:>,:;45=5sphpsp6yyuu5pkvvm3iyyupy655q<wwppsjsu<qksjsy57upy",
"*:>:>3<#=>>>*&>,>>;:><53:>=,>;=;>===;*&*>>>,<>>4,>4uka6u5papppy6bblbku554uy65675ay3uwuau<3ssska5<yau",
">:3>43>*&::==>,::>::360<*::>>+*=,=::-;;,>*003=:>>:yw5sy55ylhsiuu05iuy6iu>,uw73<3ay>5uysuq436ujuu<paw",
"*;<:4=*+#=>>:=5,::33>49,:***:>503=**>=;1:,q9>:>:<=wyy733>5psupwpsyq46w5i5uu7puw57i55pysuuiu55uqyyusu",
"*>>,,;%#=3>,==53>433>3w5:**#;51>*&;-=;&9qrr3=%=:,>5wsupu>4uuyswqpla004wwyaw5ahuuw4<4wuu57uasu557uakw",
"=<5,>*;>>:=>:=4345443>:,**&&*:*#>3:**;=uwdi3=&@<,=qphupjpy46paqypvkpsy54<aw5wuppspw35yy6u=iuspw75wpy",
"**>=,4,,=>>,>*>#O;8yd4*4*>:**-><5,<;:>;65q>3:&%,3>5appjsvkiy0y6lpspsvgkp5yp6p6aaiwipw5pypsskkblpywy6",
"@&>:y0>=*:>,:#>O#:,#,>*>:::*:4645<;O>:&>,333,>=<,*3psssjskyipw<0vsvvvknspp7phuspsu7spyy5pqsmmsj7ppy7",
"=3:,y>4:*<>::#;;>;:::3::;#:>3ywrq44===%53>35:>>=;=6>psu7pyipppy666pvwsjsvvu5ps7up7pyw1p63uyvkksiwwuy",
"*:::4y6<>;=::=,>:>3:*;*>:;*>4q#404=&:;=<3,3,;*&;>;ypuwsp95wsapyup65ywap5kmuwy67asiussgbyw0sjvkvs75u7",
"&:::>3,;*><>>#:;43:*:,>4;;*>4qry9=>>>>-,5,:;*;:>,=4ipwy75>4avp6is>y63y67uhy6apr5ikhmblb5wwsuu7ssu56u",
"o><>3:*>>:<::=>;>*>>><4<=&>4445#=;3y>:&=>*&**>>=;>,uiyba4>5yuy6ikwxku63566uwqpypu5<mmks56wupa535735p",
"#>>:=:>>=&>>;==*;>>;*;33:*==**=333<5>;##*=>44-=&*>,yyymnsy50ii6avvbbpppw55uwywpayypwplkwu55pqpu55<5u",
"%**:<<>==&$>=&;>=&;;=:>>;****>343w<>>>#*>,<6,>=**:5usykvpaip6y6gvsvbkvksywywayppp7yuw5a3p73u<7wp65<u",
"%=<>>4&==*:>>>>>&#&<;<>;;=;,<><>*>#:,::>,>5,,4;&*:4ygusvgiyiauy6swkgsVby3yu5up7a75pw5yp5wp6pvhu5X5su"
};
